<svg xmlns="http://www.w3.org/2000/svg" width="84" height="82" viewBox="0 0 84 82"><defs><style>.a{fill:#68607c;}.b{fill:#77ed65;}.c{fill:#ed6571;}.d{fill:#fabe2c;}.e{fill:#ff7e7e;}.f{fill:#91cbd7;}</style></defs><g transform="translate(-1.833 -2.407)"><path class="a" d="M76.883,13h-2.8v9.591H54.52V13h-2.8v9.591H32.158V13h-2.8v9.591H9.8V13H7V25.332H40.544v8.221h2.8V25.332H76.883Z" transform="translate(1.859 4.269)"/><ellipse class="b" cx="9" cy="8" rx="9" ry="8" transform="translate(23.833 2.407)"/><ellipse class="c" cx="8.5" cy="8" rx="8.5" ry="8" transform="translate(1.833 2.407)"/><ellipse class="c" cx="8.5" cy="8" rx="8.5" ry="8" transform="translate(68.833 2.407)"/><ellipse class="d" cx="8.5" cy="8" rx="8.5" ry="8" transform="translate(46.833 2.407)"/><ellipse class="c" cx="16.5" cy="4" rx="16.5" ry="4" transform="translate(27.833 59.407)"/><path class="e" d="M53.544,47v8.221c0,2.274-7.505,4.111-16.772,4.111S20,57.5,20,55.221V47c0,2.274,7.505,4.111,16.772,4.111S53.544,49.274,53.544,47Z" transform="translate(7.029 16.855)"/><path class="e" d="M53.544,53v8.221c0,2.274-7.505,4.111-16.772,4.111S20,63.5,20,61.221V53c0,2.274,7.505,4.111,16.772,4.111S53.544,55.274,53.544,53Z" transform="translate(7.029 19.076)"/><path class="c" d="M22.82,56.761A48.472,48.472,0,0,0,35.291,58.22c9.5-.047,17.131-1.861,17.131-4.106V50c0,3.425-12.833,6.248-29.6,6.758Z" transform="translate(8.15 17.966)"/><path class="c" d="M22.82,62.758a48.473,48.473,0,0,0,12.471,1.459c9.5-.048,17.131-1.862,17.131-4.106V56C52.422,59.425,39.589,62.248,22.82,62.758Z" transform="translate(8.15 20.186)"/><path class="a" d="M31,36h2.8V51.072H31Z" transform="translate(11.403 12.783)"/><path class="f" d="M57.134,27,50.146,40.7H18L24.988,27Z" transform="translate(6.234 9.451)"/><g transform="translate(11.655 65.225)"><path class="a" d="M49,52h2.8v2.74H49Z" transform="translate(6.906 -46.519)"/><path class="a" d="M53,52h2.8v2.74H53Z" transform="translate(8.497 -46.519)"/><path class="a" d="M53,56h2.8v2.74H53Z" transform="translate(8.497 -45.039)"/><path class="a" d="M53,48h2.8v2.74H53Z" transform="translate(8.497 -48)"/><path class="a" d="M13,52h2.8v2.74H13Z" transform="translate(-7.409 -46.519)"/><path class="a" d="M9,52h2.8v2.74H9Z" transform="translate(-9 -46.519)"/><path class="a" d="M9,56h2.8v2.74H9Z" transform="translate(-9 -45.039)"/><path class="a" d="M9,48h2.8v2.74H9Z" transform="translate(-9 -48)"/></g></g></svg>