<svg xmlns="http://www.w3.org/2000/svg" xmlns:xlink="http://www.w3.org/1999/xlink" width="591.092" height="420.37" viewBox="0 0 591.092 420.37"><defs><style>.a,.e{fill:#fff;}.a{stroke:#707070;}.b{clip-path:url(#a);}.c,.d{fill:#f54747;}.c{opacity:0.18;}.f{fill:none;}.g{fill:url(#b);}.h{fill:url(#c);}.i{fill:url(#d);}.j{fill:url(#e);}.k{fill:url(#f);}.l{fill:#3e3e54;}.m{fill:#eea886;}.n{fill:url(#g);}</style><clipPath id="a"><rect class="a" width="591.092" height="420.37" transform="translate(1274 1528)"/></clipPath><linearGradient id="b" x1="0.704" y1="-3.297" x2="0.412" y2="2.143" gradientUnits="objectBoundingBox"><stop offset="0.02" stop-color="#fff" stop-opacity="0"/><stop offset="0.14" stop-color="#fff" stop-opacity="0.059"/><stop offset="0.32" stop-color="#fff" stop-opacity="0.388"/><stop offset="0.68" stop-color="#fff" stop-opacity="0.678"/><stop offset="1" stop-color="#fff"/></linearGradient><linearGradient id="c" x1="0.78" y1="-4.706" x2="0.487" y2="0.734" gradientUnits="objectBoundingBox"><stop offset="0.02" stop-color="#fff" stop-opacity="0"/><stop offset="0.32" stop-color="#fff" stop-opacity="0.388"/><stop offset="0.68" stop-color="#fff" stop-opacity="0.678"/><stop offset="1" stop-color="#fff"/></linearGradient><linearGradient id="d" x1="0.705" y1="-3.321" x2="0.413" y2="2.119" xlink:href="#c"/><linearGradient id="e" x1="0.703" y1="-3.273" x2="0.41" y2="2.167" xlink:href="#c"/><linearGradient id="f" x1="-0.203" y1="-0.563" x2="1.49" y2="1.998" xlink:href="#c"/><linearGradient id="g" x1="3.317" y1="0.092" x2="-5.004" y2="1.299" gradientUnits="objectBoundingBox"><stop offset="0" stop-opacity="0"/><stop offset="0.99"/></linearGradient></defs><g class="b" transform="translate(-1274 -1528)"><g transform="translate(1320.627 1528)"><path class="c" d="M500.062,299.881c-8.8,16.577-24.727,29.523-29.138,47.77-1.911,7.874-1.467,16.132-2.4,24.186-3.462,28.225-24.618,51.749-49.85,65.08-1.058.577-2.128,1.106-3.2,1.635-16.553,8.09-34.487,12.5-52.771,15.254-11.119,1.659-22.371,2.693-33.526,3.606a1390.431,1390.431,0,0,1-139.44,4.015c-22.491-.457-45.426-1.527-66.583-8.992-1.082-.373-2.152-.769-3.222-1.2-17.166-6.672-32.4-17.6-45.883-30.124l-.613-.577c-20.123-18.8-36.747-41.508-47.506-66.859a174.517,174.517,0,0,1-7.645-114.461c6.359-22.539,17.466-44.032,19.233-67.316,1.286-17.55-2.837-35.317-.084-52.7,5.445-34.5,37.517-59.9,71.379-68.446s69.5-3.678,104.087,1.2c16.9,2.4,36.675,8.859,53.4,3.69,20.519-6.359,37.829-14.221,59.971-14.269,9.052,0,18.284.95,26.578,4.58,10.049,4.388,18.031,12.345,26.169,19.666,22.779,20.435,48.744,36.952,72.028,56.786s44.368,43.972,52.891,73.326c4.2,14.353,5.229,29.439,5.674,44.381C510.256,260.525,509.595,281.862,500.062,299.881Z" transform="translate(-11.997 -41.375)"/><rect class="d" width="272.786" height="194.279" rx="18.356" transform="translate(115.796 135.954)"/><rect class="e" width="239.489" height="162.568" transform="translate(132.444 149.826)"/><rect class="d" width="7.14" height="65.285" transform="translate(242.278 225.485)"/><rect class="d" width="7.14" height="54.61" transform="translate(254.695 236.159)"/><rect class="d" width="7.14" height="44.861" transform="translate(266.86 245.908)"/><rect class="d" width="7.14" height="54.61" transform="translate(279.277 236.159)"/><rect class="d" width="7.14" height="32.648" transform="translate(291.442 258.121)"/><rect class="d" width="7.14" height="54.61" transform="translate(303.86 236.159)"/><rect class="d" width="7.14" height="38.214" transform="translate(316.025 252.555)"/><rect class="d" width="7.14" height="45.571" transform="translate(328.442 245.199)"/><rect class="d" width="40.834" height="2.38" transform="translate(158.613 265.213)"/><rect class="d" width="40.834" height="2.38" transform="translate(158.613 271.813)"/><rect class="d" width="40.834" height="2.38" transform="translate(158.613 278.424)"/><rect class="d" width="40.834" height="2.38" transform="translate(158.613 285.035)"/><rect class="d" width="40.834" height="2.38" transform="translate(158.613 291.647)"/><rect class="f" width="40.834" height="29.343" transform="translate(214.125 265.213)"/><path class="d" d="M212.286,222.984a26.566,26.566,0,1,0-.156,53.132V266.86h-.108A17.574,17.574,0,1,1,229.6,249.286a15.856,15.856,0,0,1-.192,2.512h9.34a20.094,20.094,0,0,0,.108-2.248A26.554,26.554,0,0,0,212.286,222.984Z" transform="translate(-11.997 -41.375)"/><rect class="g" width="84.59" height="83.003" rx="8.979" transform="translate(375.564 159.707)"/><rect class="h" width="84.59" height="83.003" rx="8.979" transform="translate(266.68 39.741)"/><rect class="i" width="84.59" height="83.003" rx="8.979" transform="translate(60.019 30.485)"/><rect class="j" width="84.59" height="83.003" rx="8.979" transform="translate(35.413 154.923)"/><path class="d" d="M333.082,252.784l-.938-.24,15.747-60.512h28.393V193H348.649Z"/><path class="d" d="M266.764,98.907H253.7L218.272,218.068l-.829-.084L252.952,97.933h13.812Z"/><path class="d" d="M198.33,190.132l-31.206-97.9H142.758v-.974h25.075l.108.349,31.314,98.221Z"/><path class="d" d="M162.352,227.216l-22.19-24.739H118.4V201.5h22.19l22.491,25.063Z"/><path class="d" d="M238.744,252.123A26.53,26.53,0,0,1,212.3,276.441h-.156V267.2a17.562,17.562,0,0,0,17.274-15.074Z" transform="translate(-11.997 -41.375)"/><path class="k" d="M238.744,251.8A26.53,26.53,0,0,1,212.3,276.116h-.156V266.86A17.55,17.55,0,0,0,229.416,251.8Z" transform="translate(-11.997 -41.375)"/><path class="d" d="M134.548,238.131l12.369-25.977,28.573,16.7-19.666,40.57-15.338-8.535Z"/><path class="e" d="M136.892,235.534l10.4-20.159,23.5,13.728-17.815,35.75-12.117-9.28Z"/><path class="l" d="M148.059,340.824l8.21,50.8-8.21,50.739,4.628,3.606-7.6-.325.661-52.446-14.184-36.94,1.719,38.358-8.27,49.453,3.606,1.971-8.246-.325,3.534-51.28-6.431-30.665s-5.674-22.286,0-25.917S148.059,340.824,148.059,340.824Z" transform="translate(-11.997 -41.375)"/><path class="d" d="M118.044,264.624s19.966,2.236,24.907,5.842,10.061,9.328,10.061,13.944S155,311.782,155,311.782l8.246-19.125,4.616,2.633s-5.277,33.153-8.246,34.139-11.047-1.2-11.047-1.2l-.5,12.538s-27.047,2.633-30.665-2.969S105.229,273.784,118.044,264.624Z" transform="translate(-11.997 -41.375)"/><path class="m" d="M135.185,258.361s-2.4,5.085-1.118,9.244c0,0-7.417-1.01-7.633-1.887s.926-8.655.072-11.047S135.185,258.361,135.185,258.361Z" transform="translate(-11.997 -41.375)"/><path class="m" d="M127.215,237.662c2.921-1.2,10.915-3.005,13.872,8.931s-1.539,12.514-6.191,12.562-12.49-7.513-13.223-9.953S118.909,241.244,127.215,237.662Z" transform="translate(-11.997 -41.375)"/><path class="m" d="M163.662,287.127a3.246,3.246,0,0,1,.12-.962c.276-.877,1.2-1.358,1.707-2.14a4.387,4.387,0,0,0,.481-1.611,3.907,3.907,0,0,1,.4-1.43,1.286,1.286,0,0,1,1.2-.709c.673.1,1.022.841,1.2,1.491a18.464,18.464,0,0,1-.481,12.021c-.216.565-.613,1.2-1.2,1.2a1.443,1.443,0,0,1-.577-.2c-1.2-.649-2.909-1.2-2.969-2.608C163.482,290.457,163.626,288.774,163.662,287.127Z" transform="translate(-11.997 -41.375)"/><path class="d" d="M166.451,282.932l-5.6-5.253-.493.986,5.133,5.385S166.535,283.689,166.451,282.932Z" transform="translate(-11.997 -41.375)"/><path class="n" d="M148.564,328.286s-2.9-1.2-3.883-9.617-2.224-17.069-2.224-17.069v39.548h6.6Z" transform="translate(-11.997 -41.375)"/><path class="l" d="M136.147,235.053A5.794,5.794,0,0,0,133.43,232a3.149,3.149,0,0,0-3.053-.168,3.1,3.1,0,0,0-2.512-1.262,4.123,4.123,0,0,0-2.4.373,1.983,1.983,0,0,0-1.022,2.116,12.671,12.671,0,0,0-3.606,0,2.669,2.669,0,0,0-1.058.337,2.6,2.6,0,0,0-.841,1.2,12.3,12.3,0,0,0-1.022,4.808,5.085,5.085,0,0,0-2.128,3.871,5.157,5.157,0,0,0,1.743,4.075,5.842,5.842,0,0,0,.649,4.7,4.027,4.027,0,0,0,4.243,1.731c0,.721.1,1.6.757,1.923a1.659,1.659,0,0,0,.733.12,5.529,5.529,0,0,0,2.056-.433,3.8,3.8,0,0,0,0,1.683,1.3,1.3,0,0,0,1.2.986,1.923,1.923,0,0,0,1.058-.613,5.469,5.469,0,0,0,1.755-2.332,23.37,23.37,0,0,0,.216-2.608c.192-1.022.841-2.02.577-3.017s-1.094-1.442-1.731-2.1-1.022-1.839-.325-2.4,1.719-.06,2.344.565c.313.3.757.649,1.118.421s.252-.709.12-1.07a15.094,15.094,0,0,1-.829-2.4,2.512,2.512,0,0,1,.673-2.4c1.034-.878,2.7-.385,3.714-1.2S136.531,236.1,136.147,235.053Z" transform="translate(-11.997 -41.375)"/></g></g></svg>