<svg xmlns="http://www.w3.org/2000/svg" xmlns:xlink="http://www.w3.org/1999/xlink" width="591.092" height="420.37" viewBox="0 0 591.092 420.37"><defs><style>.a,.e{fill:#fff;}.a{stroke:#707070;}.b{clip-path:url(#a);}.c,.d{fill:#f54747;}.c{opacity:0.18;}.f{fill:url(#b);}.g{fill:#ffbbab;}.h{fill:#473f47;}.i{fill:#020202;opacity:0.1;}.j{fill:#e0a194;}.k{opacity:0.57;}</style><clipPath id="a"><rect class="a" width="591.092" height="420.37" transform="translate(1274 1528)"/></clipPath><linearGradient id="b" x1="1.36" y1="1.999" x2="0.091" y2="0.014" gradientUnits="objectBoundingBox"><stop offset="0.01"/><stop offset="0.13" stop-opacity="0.69"/><stop offset="0.25" stop-opacity="0.322"/><stop offset="1" stop-opacity="0"/></linearGradient></defs><g class="b" transform="translate(-1274 -1528)"><g transform="translate(1308.951 1527.996)"><path class="c" d="M215.624,92.7c-46.447,30-77.895,77.881-107.977,124.328-12.27,18.957-24.6,38.024-33.667,58.7-9.278,21.176-15,43.814-18.281,66.714-4.894,34.163-2.3,73.828,24.085,96.079,13.856,11.677,32.151,16.544,49.977,19.729,70.864,12.767,143.878,4.936,215.39,13.235,39.127,4.55,78.047,13.938,117.394,11.87s80.845-18.254,100.422-52.389c22.845-39.885,9.4-90.73-11.608-131.608S501.918,219.9,494.515,174.54c-3.047-18.626-2.606-38.52-11.815-54.981-10.3-18.433-30.607-28.759-50.418-36.052C364.355,58.442,279.181,51.6,215.624,92.7Z" transform="translate(-53.685 -63.281)"/><path class="c" d="M120.082,253.372c5.253,5.267,11.87,8.92,18.391,12.491l31.709,17.44a7.61,7.61,0,0,0,3.323,1.186,7.376,7.376,0,0,0,3.612-1.172,389.15,389.15,0,0,0,49.232-30.924c-3.612-3.212-7.5-6.562-12.284-7.348a26.967,26.967,0,0,0-7.872.317,302.145,302.145,0,0,1-58,2.151,84.69,84.69,0,0,1-9.154-.91c-2.33-.4-5.721-2.1-8.051-1.668C129.154,245.279,120.661,253.951,120.082,253.372Z" transform="translate(-53.685 -63.281)"/><path class="c" d="M227.191,349.81c8.672,8.686,19.591,14.71,30.331,20.68l52.389,28.759a12.629,12.629,0,0,0,5.515,1.972,12.491,12.491,0,0,0,5.983-1.944,645.218,645.218,0,0,0,81.217-51.011c-5.956-5.308-12.408-10.836-20.253-12.118a44.393,44.393,0,0,0-13.015.51,499.075,499.075,0,0,1-95.693,3.557,142,142,0,0,1-15.1-1.517c-3.833-.648-9.444-3.46-13.277-2.757C242.163,336.464,228.142,350.761,227.191,349.81Z" transform="translate(-53.685 -63.281)"/><path class="c" d="M407.328,263.119c4.853,4.853,10.947,8.272,16.944,11.526L453.5,290.693a5.239,5.239,0,0,0,6.4,0,359.734,359.734,0,0,0,45.358-28.5c-3.336-2.964-6.893-6.039-11.319-6.769a25.229,25.229,0,0,0-7.266.29,278.073,278.073,0,0,1-53.437,1.985,78.5,78.5,0,0,1-8.424-.841c-2.137-.372-5.28-1.93-7.417-1.53C415.7,255.674,407.866,263.657,407.328,263.119Z" transform="translate(-53.685 -63.281)"/><path class="c" d="M391.06,428.766c4.839,4.839,10.947,8.272,16.944,11.512l29.228,16.061a7.21,7.21,0,0,0,3.061,1.1,7.032,7.032,0,0,0,3.336-1.089,361.2,361.2,0,0,0,45.358-28.483c-3.336-2.964-6.893-6.052-11.319-6.769a24.291,24.291,0,0,0-7.266.29,279.2,279.2,0,0,1-53.437,1.985,75.139,75.139,0,0,1-8.424-.855c-2.137-.358-5.28-1.93-7.417-1.53C399.428,421.252,391.542,429.235,391.06,428.766Z" transform="translate(-53.685 -63.281)"/><path class="c" d="M103.8,426.409c4.853,4.853,10.947,8.272,16.958,11.526l29.214,16.048a5.239,5.239,0,0,0,6.4,0,359.725,359.725,0,0,0,45.358-28.5c-3.336-2.964-6.893-6.039-11.319-6.769a25.231,25.231,0,0,0-7.266.29,278.08,278.08,0,0,1-53.437,1.985,78.49,78.49,0,0,1-8.424-.841c-2.137-.372-5.267-1.93-7.417-1.53C112.169,418.964,104.338,426.946,103.8,426.409Z" transform="translate(-53.685 -63.281)"/><path class="d" d="M257.218,321.768l-79.535-45.923V263.326l79.039-33.116,79.535,33.405v12.518Z"/><path class="e" d="M257.218,309.249l-79.535-45.923,79.039-45.634,79.535,45.923Z"/><path class="d" d="M257.163,297.958l-59.931-34.6,59.545-34.384,59.931,34.6Z"/><path class="e" d="M257.122,292.319l-50.115-28.938,49.811-28.759,50.115,28.938Z"/><path class="f" d="M298.165,331.97l-53-15.165a15.634,15.634,0,0,1,4-2.757l42.091-22.665a2.854,2.854,0,0,1,4.136.538l33.364,29.821a5.253,5.253,0,0,1,2.082,3.019,3.543,3.543,0,0,1-2.206,3.392,9.649,9.649,0,0,1-4.246.565,63.9,63.9,0,0,1-11.209-1.379,14.6,14.6,0,0,0-4.8-.538,4.233,4.233,0,0,0-3.667,2.757" transform="translate(-53.685 -63.281)"/><path class="g" d="M312.448,314.861a12.174,12.174,0,0,0,.951,5.129,8.465,8.465,0,0,0,3.736,3.447,14.628,14.628,0,0,0,10.878,1.075,2.04,2.04,0,0,0,1.255-.758,1.71,1.71,0,0,0,.221-1.075,8,8,0,0,0-2.854-5.115,17.922,17.922,0,0,1-3.915-4.508c-1.668-3.364-.427-12.339-6.769-10.892C310.642,303.307,312.3,311.111,312.448,314.861Z" transform="translate(-53.685 -63.281)"/><path class="d" d="M311.579,320.927s-.9,2.22.207,3.516,12.5,8.4,20.184,2.688-10.409-6.452-10.409-6.452Z" transform="translate(-53.685 -63.281)"/><path class="e" d="M312.007,315.715a1.627,1.627,0,0,1,2.054.538,6.7,6.7,0,0,0,6.108,2.178c2.509-.593,3.5-3.474,4.756-3.488s7.872,5.639,8.272,8.065-3.005,4.136-6.755,4.439-12.243-2.358-13.787-4.329a8.024,8.024,0,0,1-.648-7.4Z" transform="translate(-53.685 -63.281)"/><path class="g" d="M290.679,318.335a12.174,12.174,0,0,0,.951,5.129,8.465,8.465,0,0,0,3.736,3.447,14.614,14.614,0,0,0,10.878,1.075,2.04,2.04,0,0,0,1.255-.758,1.71,1.71,0,0,0,.221-1.075,8,8,0,0,0-2.854-5.115,17.923,17.923,0,0,1-3.915-4.508c-1.668-3.364-.427-12.408-6.769-10.891C288.873,306.837,290.527,314.585,290.679,318.335Z" transform="translate(-53.685 -63.281)"/><path class="d" d="M289.8,324.4s-.9,2.22.207,3.516,12.5,8.4,20.184,2.757-10.409-6.452-10.409-6.452Z" transform="translate(-53.685 -63.281)"/><path class="e" d="M290.238,319.245a1.627,1.627,0,0,1,2.04.607,6.7,6.7,0,0,0,6.108,2.178c2.509-.593,3.5-3.474,4.756-3.488s7.872,5.639,8.272,8.065-3.005,4.2-6.755,4.439-12.243-2.358-13.856-4.329A7.983,7.983,0,0,1,290.238,319.245Z" transform="translate(-53.685 -63.281)"/><path class="h" d="M286.129,224.613s-1.186,65.211,3.653,86.966l12.256,1.5,8.479-89.283Z" transform="translate(-53.685 -63.281)"/><path class="h" d="M323.987,217.485s5.777,35.184-1.227,91.668L310.5,310.669l-8.479-89.283Z" transform="translate(-53.685 -63.281)"/><path class="e" d="M338.367,189.443c-.138,2.358-.91,4.412-2.95,5.087a2.261,2.261,0,0,1-.524.138c-3.764.758-8.7-2.109-12.146-4.6a46.4,46.4,0,0,1-4.136-3.35V161.525l18.309,18.75A29.367,29.367,0,0,1,338.367,189.443Z" transform="translate(-53.685 -63.281)"/><path class="e" d="M323.863,191.111c0,1.172.152,2.371.152,3.557,0,6.507-1.5,13.221.427,19.6a7.1,7.1,0,0,1,.551,4.357,5.515,5.515,0,0,1-2.757,2.619c-5.735,3.13-12.408,4.136-18.833,5-4.867.676-11.774,2.123-16.282-.5-1.916-1.117-2.564-3.2-3.171-5.28-1.958-6.59-2.523-13.69-3.047-20.528,0-.9-.124-1.792-.179-2.757q-.551-9.347-.372-18.695c.083-4.536.441-9.416,3.392-12.835,3.929-4.55,11.539-7.555,17.3-8.617a19.77,19.77,0,0,1,5.694-.317,24.113,24.113,0,0,1,7.693,2.619c2.868,1.379,5.418,2.606,6.824,5.446a38.452,38.452,0,0,1,3.2,10.312,37.126,37.126,0,0,1,.179,10.119c-.165,1.654-.593,3.295-.758,4.936C323.877,190.518,323.863,190.808,323.863,191.111Z" transform="translate(-53.685 -63.281)"/><path class="i" d="M297.2,227.756a5.735,5.735,0,0,1-2.247.179c-1.806-.1-3.557-1.075-5.322-1.379-.869-.165-1.654-.593-2.509-.8-4.315-1.075-4.825-13.18-5.253-16.434-1.117-8.617-2.757-17.537-2.937-26.195a29.3,29.3,0,0,1,1.144-9.871,11.415,11.415,0,0,1,6.466-7.183,3.24,3.24,0,0,1,1.9-.207c2.523.648,2.44,3.529,3.281,5.432.965,2.137,3.681,3.874,6.163,2.757s2.84-4.715,3.791-7.445a8.6,8.6,0,0,1,3.874-4.8c4.508-2.4,8.024,1.282,9.54,5.28s-.138,9.237-.937,13.525c-2,10.616-4.8,21.259-10.257,30.662-2.206,3.805-6.425,8.355-6.4,12.808C297.5,226.253,298.11,227.356,297.2,227.756Z" transform="translate(-53.685 -63.281)"/><path class="g" d="M307.747,154.232a4.205,4.205,0,0,1-2.923.483A13.567,13.567,0,0,1,302.37,154c-1.282-.455-1.034,1.241-1.1,2.247a18.615,18.615,0,0,0,.152,3.819,3.171,3.171,0,0,1,0,1.379,2,2,0,0,1-1.475,1.379,4.439,4.439,0,0,1-2.04,0,12.7,12.7,0,0,1-2.247-.648,3.557,3.557,0,0,1-1.585-1.048,4.136,4.136,0,0,1-.51-2.647c.221-6.576-.234-13.925,2.44-20.1a6.149,6.149,0,0,1,8.589-3.681,13.869,13.869,0,0,1,6.659,4.26,2.964,2.964,0,0,1,.414,2.482q-.221,2.247-.662,4.467c-.331,1.668-.731,3.336-1.213,4.977A5.8,5.8,0,0,1,307.747,154.232Z" transform="translate(-53.685 -63.281)"/><path class="h" d="M309.318,139.066a6.215,6.215,0,0,1-.993,0,15.732,15.732,0,0,0-4.77-.855,5.68,5.68,0,0,0-4.687,5.777c-.772,0-.51-1.255-.882-1.944s-1.82-.358-2.165.483a5.515,5.515,0,0,0,0,2.757,7.638,7.638,0,0,1-1.186,4.977c-.234.345-.648.717-.993.5s-.427-.951-.565-1.379a11.179,11.179,0,0,0-.841-1.613c-.607-1.006-1.379-1.958-1.985-2.95-1.131-1.765-2.027-3.957-1.379-5.942a4.674,4.674,0,0,1,1.5-2.04c.676-.538,1.585-.607,2.247-1.075s.358-.9.579-1.5a11.415,11.415,0,0,1,3.709-4.315,12.684,12.684,0,0,1,9.651-3.116,9.113,9.113,0,0,1,7.279,7.39,3.888,3.888,0,0,1,1.875,3.653,5.336,5.336,0,0,1-.317,1.916,3.957,3.957,0,0,1-3.778,2.468,6.162,6.162,0,0,0,.179-2.3,1.172,1.172,0,0,0-.152-.483C311.414,139.025,310.2,139.053,309.318,139.066Z" transform="translate(-53.685 -63.281)"/><path class="j" d="M302.659,154.094l-.455-.165a.51.51,0,0,0-.345,0c-.138,0-.207.193-.262.317a7.045,7.045,0,0,0-.469,3.254l.179,1.723s-5.639-2.757-3.681-8.451a28.126,28.126,0,0,0,5,3.336Z" transform="translate(-53.685 -63.281)"/><path class="e" d="M353.629,182.936a36.079,36.079,0,0,1-8.8,8.755,17.44,17.44,0,0,1-8.272,2.964,2.757,2.757,0,0,1-1.158-.124,3.116,3.116,0,0,1-1.585-1.1,9.182,9.182,0,0,1-2.123-5.225c-.207-5.018,5.239-7.927,5.239-7.927s12.408-3.957,13.787-3.309c.813.345,1.572,2.1,2.1,3.6A20.774,20.774,0,0,1,353.629,182.936Z" transform="translate(-53.685 -63.281)"/><path class="d" d="M335.6,180.4l7.252-22.8a3.584,3.584,0,0,1,3.681-2.5l5.777.427a3.6,3.6,0,0,1,3.074,4.922l-9.072,22.583a3.571,3.571,0,0,1-3.5,2.233l-3.971-.193a3.6,3.6,0,0,1-3.24-4.674Z" transform="translate(-53.685 -63.281)"/><path class="e" d="M298.992,206.414h0a9.306,9.306,0,0,1-11.87-5.653L278.7,177.021a9.306,9.306,0,0,1,5.653-11.87h0c4.839-1.71,5.666,1.379,7.376,6.163l7.279,21.7C300.729,197.825,303.831,204.691,298.992,206.414Z" transform="translate(-53.685 -63.281)"/><path class="i" d="M353.629,182.936a36.079,36.079,0,0,1-8.8,8.755,17.44,17.44,0,0,1-8.272,2.964,2.757,2.757,0,0,1-1.158-.124,2.26,2.26,0,0,1-.524.138c-3.764.758-8.7-2.109-12.146-4.6v-.083l1.172-7.528a29.614,29.614,0,0,0,7.762,5.749,11.14,11.14,0,0,0,6.659,1.241,6.48,6.48,0,0,0,1.778-.551,57.559,57.559,0,0,0,12.753-8.272A22.529,22.529,0,0,1,353.629,182.936Z" transform="translate(-53.685 -63.281)"/><path class="g" d="M305.265,154.411c.179-.731.524-1.6,1.268-1.751.979-.179,1.71,1.02,2.757,1.117a4.019,4.019,0,0,1,1.572,0,1.833,1.833,0,0,1,.607.524,8.81,8.81,0,0,1-2.647,13.07,3.626,3.626,0,0,1-2.082.565,4.687,4.687,0,0,1-1.875-.8c-1.861-1.158-.979-3.13-.786-4.949a60.465,60.465,0,0,1,1.186-7.776Z" transform="translate(-53.685 -63.281)"/><path class="e" d="M298.055,206.525c-2.509.51-11.843-2.826-4.591-19.839,3.309-7.789,5.018-15.165,9.4-22.431a2.44,2.44,0,0,1,1.02-1.089,2.344,2.344,0,0,1,1.379,0,47.838,47.838,0,0,1,6.176,1.461,1.282,1.282,0,0,1,.758.441,1.379,1.379,0,0,1,.124.827c-.538,7.031-3.281,13.69-4.4,20.68-.717,4.536-.8,9.32-2.992,13.359C304.176,201.286,299.612,206.208,298.055,206.525Z" transform="translate(-53.685 -63.281)"/><path class="g" d="M351.064,171.258a4.715,4.715,0,0,0-4.949-.648,6.742,6.742,0,0,0-3.323,5.515,8.272,8.272,0,0,0,.9,5.032A6.328,6.328,0,0,0,351.4,183.8a6.039,6.039,0,0,0,3.392-6.383,7.5,7.5,0,0,0-1.379-2.426A14.6,14.6,0,0,0,351.064,171.258Z" transform="translate(-53.685 -63.281)"/><path class="e" d="M236.552,352.264h-.3a1.6,1.6,0,0,1-1.268-1.875,16.544,16.544,0,0,1,10.037-11.512,1.605,1.605,0,1,1,1.2,2.978A13.345,13.345,0,0,0,238.138,351,1.627,1.627,0,0,1,236.552,352.264Z" transform="translate(-53.685 -63.281)"/><path class="e" d="M249.222,360.067a1.132,1.132,0,0,1-.3,0,1.613,1.613,0,0,1-1.282-1.875,16.613,16.613,0,0,1,10.051-11.526,1.613,1.613,0,1,1,1.2,2.992,13.3,13.3,0,0,0-8.079,9.141A1.627,1.627,0,0,1,249.222,360.067Z" transform="translate(-53.685 -63.281)"/><path class="e" d="M261.947,367.884h-.3a1.613,1.613,0,0,1-1.282-1.875A16.627,16.627,0,0,1,270.4,354.484a1.608,1.608,0,1,1,1.213,2.978,13.332,13.332,0,0,0-8.079,9.141A1.627,1.627,0,0,1,261.947,367.884Z" transform="translate(-53.685 -63.281)"/><path class="e" d="M274.562,375.7h-.3a1.613,1.613,0,0,1-1.282-1.875A16.544,16.544,0,0,1,283.013,362.3a1.613,1.613,0,0,1,1.213,2.978,13.345,13.345,0,0,0-8.093,9.141,1.6,1.6,0,0,1-1.572,1.282Z" transform="translate(-53.685 -63.281)"/><path class="e" d="M287.232,383.5a1.24,1.24,0,0,1-.317,0,1.6,1.6,0,0,1-1.268-1.875A16.544,16.544,0,0,1,295.683,370.1,1.614,1.614,0,0,1,296.9,373.1a13.346,13.346,0,0,0-8.093,9.141,1.6,1.6,0,0,1-1.572,1.268Z" transform="translate(-53.685 -63.281)"/><path class="e" d="M384.015,352.25a1.13,1.13,0,0,0,.3,0,1.613,1.613,0,0,0,1.282-1.875,16.544,16.544,0,0,0-10.051-11.512,1.605,1.605,0,1,0-1.2,2.978,13.3,13.3,0,0,1,8.079,9.141,1.613,1.613,0,0,0,1.585,1.268Z" transform="translate(-53.685 -63.281)"/><path class="e" d="M371.345,360.067a1.074,1.074,0,0,0,.3,0,1.613,1.613,0,0,0,1.282-1.875,16.544,16.544,0,0,0-10.037-11.526,1.614,1.614,0,0,0-1.213,2.992,13.346,13.346,0,0,1,8.093,9.141,1.613,1.613,0,0,0,1.572,1.268Z" transform="translate(-53.685 -63.281)"/><path class="e" d="M358.675,367.884h.3a1.6,1.6,0,0,0,1.282-1.875,16.544,16.544,0,0,0-10.078-11.553,1.613,1.613,0,0,0-1.213,2.978,13.373,13.373,0,0,1,8.093,9.141,1.613,1.613,0,0,0,1.613,1.31Z" transform="translate(-53.685 -63.281)"/><path class="e" d="M346.046,375.7h.3a1.613,1.613,0,0,0,1.268-1.875A16.544,16.544,0,0,0,337.581,362.3a1.608,1.608,0,0,0-1.213,2.978,13.346,13.346,0,0,1,8.093,9.141,1.627,1.627,0,0,0,1.585,1.282Z" transform="translate(-53.685 -63.281)"/><path class="e" d="M333.349,383.5a1.184,1.184,0,0,0,.3,0,1.6,1.6,0,0,0,1.268-1.875A16.544,16.544,0,0,0,324.884,370.1a1.613,1.613,0,0,0-1.2,2.992,13.345,13.345,0,0,1,8.079,9.141A1.613,1.613,0,0,0,333.349,383.5Z" transform="translate(-53.685 -63.281)"/><path class="d" d="M386.868,383.78l-43.29-25v-6.824l43.028-18.019,43.29,18.185v6.811Z"/><path class="e" d="M386.868,376.97l-43.29-25.009,43.028-24.844,43.29,25.009Z"/><path class="d" d="M386.841,370.821l-32.619-18.833,32.413-18.722L419.267,352.1Z"/><path class="e" d="M386.827,367.746l-27.3-15.758,27.118-15.648,27.3,15.744Z"/><path class="e" d="M400.09,429.207h-.179a.882.882,0,0,1-.689-1.02,9,9,0,0,1,5.515-6.273.876.876,0,1,1,.648,1.627,7.238,7.238,0,0,0-4.4,4.977A.882.882,0,0,1,400.09,429.207Z" transform="translate(-53.685 -63.281)"/><path class="e" d="M406.983,433.468h-.165a.869.869,0,0,1-.7-1.02,9.058,9.058,0,0,1,5.515-6.273.9.9,0,0,1,1.144.483.882.882,0,0,1-.5,1.144,7.28,7.28,0,0,0-4.4,4.977A.882.882,0,0,1,406.983,433.468Z" transform="translate(-53.685 -63.281)"/><path class="e" d="M413.877,437.714h-.165a.869.869,0,0,1-.689-1.02,8.961,8.961,0,0,1,5.515-6.273.869.869,0,0,1,1.144.483.9.9,0,0,1-.483,1.144,7.252,7.252,0,0,0-4.412,4.977A.869.869,0,0,1,413.877,437.714Z" transform="translate(-53.685 -63.281)"/><path class="e" d="M420.77,441.974H420.6a.855.855,0,0,1-.689-1.02,9.031,9.031,0,0,1,5.515-6.273.882.882,0,0,1,.662,1.627,7.238,7.238,0,0,0-4.4,4.977A.882.882,0,0,1,420.77,441.974Z" transform="translate(-53.685 -63.281)"/><path class="e" d="M427.663,446.22H427.5a.869.869,0,0,1-.689-1.02,9,9,0,0,1,5.515-6.273.882.882,0,0,1,.662,1.627,7.252,7.252,0,0,0-4.4,4.977A.882.882,0,0,1,427.663,446.22Z" transform="translate(-53.685 -63.281)"/><path class="e" d="M480.356,429.207h.165a.882.882,0,0,0,.7-1.02,9.031,9.031,0,0,0-5.515-6.273.882.882,0,0,0-.648,1.627,7.238,7.238,0,0,1,4.4,4.977.882.882,0,0,0,.9.689Z" transform="translate(-53.685 -63.281)"/><path class="e" d="M473.463,433.468h.165a.869.869,0,0,0,.7-1.02,9.058,9.058,0,0,0-5.515-6.273.882.882,0,0,0-.662,1.627,7.28,7.28,0,0,1,4.412,4.977.882.882,0,0,0,.9.689Z" transform="translate(-53.685 -63.281)"/><path class="e" d="M466.569,437.714h.165a.869.869,0,0,0,.689-1.02,8.961,8.961,0,0,0-5.515-6.273.869.869,0,0,0-1.144.483.9.9,0,0,0,.482,1.144,7.252,7.252,0,0,1,4.412,4.977A.869.869,0,0,0,466.569,437.714Z" transform="translate(-53.685 -63.281)"/><path class="e" d="M459.676,441.974h.165a.855.855,0,0,0,.689-1.02,9.03,9.03,0,0,0-5.515-6.273.882.882,0,0,0-.662,1.627,7.238,7.238,0,0,1,4.4,4.977A.882.882,0,0,0,459.676,441.974Z" transform="translate(-53.685 -63.281)"/><path class="e" d="M452.783,446.22h.165a.882.882,0,0,0,.689-1.02,9,9,0,0,0-5.515-6.273.882.882,0,1,0-.662,1.627,7.252,7.252,0,0,1,4.4,4.977A.882.882,0,0,0,452.783,446.22Z" transform="translate(-53.685 -63.281)"/><path class="d" d="M119.944,207.145l-43.29-25v-6.811l43.028-18.033,43.3,18.185v6.824Z"/><path class="e" d="M119.944,200.334l-43.29-25L119.682,150.5l43.3,25Z"/><path class="d" d="M119.917,194.186,87.3,175.353l32.413-18.722,32.633,18.846Z"/><path class="e" d="M119.9,191.125l-27.3-15.758,27.118-15.662,27.3,15.758Z"/><path class="e" d="M133.166,252.586H133a.869.869,0,0,1-.7-1.02,9.058,9.058,0,0,1,5.515-6.273.876.876,0,1,1,.648,1.627,7.279,7.279,0,0,0-4.4,4.977.9.9,0,0,1-.9.689Z" transform="translate(-53.685 -63.281)"/><path class="e" d="M140.059,256.832h-.165a.882.882,0,0,1-.7-1.02,9.03,9.03,0,0,1,5.515-6.273.882.882,0,0,1,1.144.483.9.9,0,0,1-.483,1.144,7.224,7.224,0,0,0-4.412,4.977A.869.869,0,0,1,140.059,256.832Z" transform="translate(-53.685 -63.281)"/><path class="e" d="M146.952,261.092h-.165a.855.855,0,0,1-.689-1.02,9.03,9.03,0,0,1,5.515-6.273.882.882,0,1,1,.662,1.627,7.279,7.279,0,0,0-4.412,4.977.869.869,0,0,1-.91.689Z" transform="translate(-53.685 -63.281)"/><path class="e" d="M153.846,265.339h-.165a.869.869,0,0,1-.689-1.02,9,9,0,0,1,5.515-6.273.882.882,0,1,1,.662,1.627,7.238,7.238,0,0,0-4.4,4.977A.882.882,0,0,1,153.846,265.339Z" transform="translate(-53.685 -63.281)"/><path class="e" d="M160.753,269.6h-.179a.869.869,0,0,1-.689-1.02,9.058,9.058,0,0,1,5.515-6.273.882.882,0,0,1,.648,1.627,7.279,7.279,0,0,0-4.4,4.977A.9.9,0,0,1,160.753,269.6Z" transform="translate(-53.685 -63.281)"/><path class="e" d="M213.446,252.572h.165a.855.855,0,0,0,.689-1.02,9.017,9.017,0,0,0-5.515-6.273.882.882,0,0,0-.648,1.627,7.279,7.279,0,0,1,4.4,4.977A.882.882,0,0,0,213.446,252.572Z" transform="translate(-53.685 -63.281)"/><path class="e" d="M206.538,256.832h.165a.882.882,0,0,0,.7-1.02,9.03,9.03,0,0,0-5.515-6.273.882.882,0,0,0-.648,1.627,7.238,7.238,0,0,1,4.4,4.977A.882.882,0,0,0,206.538,256.832Z" transform="translate(-53.685 -63.281)"/><path class="e" d="M199.645,261.092h.165a.882.882,0,0,0,.7-1.02A9.058,9.058,0,0,0,195,253.8a.882.882,0,1,0-.662,1.627,7.279,7.279,0,0,1,4.412,4.977A.882.882,0,0,0,199.645,261.092Z" transform="translate(-53.685 -63.281)"/><path class="e" d="M192.752,265.339h.165a.869.869,0,0,0,.689-1.02,9,9,0,0,0-5.515-6.273.869.869,0,0,0-1.144.483.882.882,0,0,0,.483,1.144,7.2,7.2,0,0,1,4.4,4.977A.882.882,0,0,0,192.752,265.339Z" transform="translate(-53.685 -63.281)"/><path class="e" d="M185.858,269.6h.165a.855.855,0,0,0,.689-1.02,9.03,9.03,0,0,0-5.515-6.273.882.882,0,0,0-1.144.483.869.869,0,0,0,.483,1.144,7.279,7.279,0,0,1,4.4,4.977.9.9,0,0,0,.924.689Z" transform="translate(-53.685 -63.281)"/><path class="d" d="M99.209,380.375l-43.3-25.009v-6.811l43.042-18.019,43.29,18.171v6.824Z"/><path class="e" d="M99.209,373.551l-43.3-25,43.042-24.844,43.29,25Z"/><path class="d" d="M99.181,367.415,66.548,348.569,98.975,329.86l32.633,18.833Z"/><path class="e" d="M99.168,364.341l-27.3-15.758,27.118-15.648,27.3,15.744Z"/><path class="e" d="M112.417,425.8h-.165a.869.869,0,0,1-.689-1.02,9,9,0,0,1,5.515-6.273.855.855,0,0,1,1.13.482.869.869,0,0,1-.483,1.131,7.28,7.28,0,0,0-4.4,4.977.882.882,0,0,1-.91.7Z" transform="translate(-53.685 -63.281)"/><path class="e" d="M119.324,430.048h-.165a.869.869,0,0,1-.7-1.02,9.058,9.058,0,0,1,5.515-6.273.876.876,0,1,1,.648,1.627,7.279,7.279,0,0,0-4.4,4.977A.882.882,0,0,1,119.324,430.048Z" transform="translate(-53.685 -63.281)"/><path class="e" d="M126.217,434.281h-.165a.9.9,0,0,1-.7-1.02,9.03,9.03,0,0,1,5.515-6.273.872.872,0,1,1,.662,1.613,7.279,7.279,0,0,0-4.412,4.977.869.869,0,0,1-.9.7Z" transform="translate(-53.685 -63.281)"/><path class="e" d="M133.111,438.555h-.165a.855.855,0,0,1-.689-1.02,9.03,9.03,0,0,1,5.515-6.273.882.882,0,0,1,.662,1.627,7.238,7.238,0,0,0-4.4,4.977A.882.882,0,0,1,133.111,438.555Z" transform="translate(-53.685 -63.281)"/><path class="e" d="M140,442.815h-.165a.869.869,0,0,1-.689-1.02,9,9,0,0,1,5.515-6.273.869.869,0,0,1,1.144.483.882.882,0,0,1-.483,1.144,7.238,7.238,0,0,0-4.4,4.977.882.882,0,0,1-.924.689Z" transform="translate(-53.685 -63.281)"/><path class="e" d="M192.7,425.8h.165a.882.882,0,0,0,.7-1.02,9.03,9.03,0,0,0-5.515-6.273.869.869,0,1,0-.648,1.613,7.28,7.28,0,0,1,4.4,4.977.882.882,0,0,0,.9.7Z" transform="translate(-53.685 -63.281)"/><path class="e" d="M185.8,430.048h.165a.869.869,0,0,0,.7-1.02,9.058,9.058,0,0,0-5.515-6.273.882.882,0,1,0-.662,1.627,7.279,7.279,0,0,1,4.412,4.977A.869.869,0,0,0,185.8,430.048Z" transform="translate(-53.685 -63.281)"/><path class="e" d="M178.91,434.281h.165a.869.869,0,0,0,.689-1.02,9,9,0,0,0-5.515-6.273.872.872,0,1,0-.662,1.613A7.279,7.279,0,0,1,178,433.578.855.855,0,0,0,178.91,434.281Z" transform="translate(-53.685 -63.281)"/><path class="e" d="M172.017,438.555h.165a.855.855,0,0,0,.689-1.02,9.03,9.03,0,0,0-5.515-6.273.882.882,0,0,0-1.144.483.869.869,0,0,0,.483,1.144,7.28,7.28,0,0,1,4.4,4.977A.882.882,0,0,0,172.017,438.555Z" transform="translate(-53.685 -63.281)"/><path class="e" d="M165.109,442.815h.179a.882.882,0,0,0,.689-1.02,9.03,9.03,0,0,0-5.515-6.273.868.868,0,0,0-1.131.482.882.882,0,0,0,.483,1.144,7.238,7.238,0,0,1,4.4,4.977.882.882,0,0,0,.9.689Z" transform="translate(-53.685 -63.281)"/><path class="d" d="M403.661,221.042l-43.3-25v-6.824L403.385,171.2l43.3,18.185V196.2Z"/><path class="e" d="M403.661,214.218l-43.3-25,43.028-24.844,43.3,25.009Z"/><path class="d" d="M403.619,208.083,371,189.25l32.413-18.722,32.633,18.833Z"/><path class="e" d="M403.606,205.008,376.322,189.25,403.44,173.6l27.284,15.744Z"/><path class="e" d="M416.868,266.469H416.7a.882.882,0,0,1-.7-1.02,9.03,9.03,0,0,1,5.515-6.273.882.882,0,0,1,1.144.483.9.9,0,0,1-.5,1.144,7.238,7.238,0,0,0-4.4,4.977.869.869,0,0,1-.9.689Z" transform="translate(-53.685 -63.281)"/><path class="e" d="M423.762,270.729H423.6a.855.855,0,0,1-.689-1.02,8.989,8.989,0,0,1,5.515-6.273.882.882,0,0,1,.662,1.627,7.279,7.279,0,0,0-4.412,4.977A.882.882,0,0,1,423.762,270.729Z" transform="translate(-53.685 -63.281)"/><path class="e" d="M430.655,274.976h-.165a.869.869,0,0,1-.689-1.02,9,9,0,0,1,5.515-6.273.869.869,0,0,1,1.144.483.9.9,0,0,1-.483,1.144,7.2,7.2,0,0,0-4.4,4.977.882.882,0,0,1-.924.689Z" transform="translate(-53.685 -63.281)"/><path class="e" d="M437.548,279.236h-.165a.855.855,0,0,1-.689-1.02,9.03,9.03,0,0,1,5.515-6.273.882.882,0,0,1,1.144.483.869.869,0,0,1-.483,1.144,7.279,7.279,0,0,0-4.453,4.922.9.9,0,0,1-.869.744Z" transform="translate(-53.685 -63.281)"/><path class="e" d="M444.456,283.482h-.165a.882.882,0,0,1-.7-1.02,9.03,9.03,0,0,1,5.515-6.273.882.882,0,0,1,.648,1.627,7.238,7.238,0,0,0-4.4,4.977A.882.882,0,0,1,444.456,283.482Z" transform="translate(-53.685 -63.281)"/><path class="e" d="M497.148,266.469h.165a.869.869,0,0,0,.689-1.02,9,9,0,0,0-5.515-6.273.869.869,0,0,0-1.144.483.882.882,0,0,0,.483,1.144,7.238,7.238,0,0,1,4.4,4.977.882.882,0,0,0,.924.689Z" transform="translate(-53.685 -63.281)"/><path class="e" d="M490.241,270.729h.179a.869.869,0,0,0,.689-1.02,9.058,9.058,0,0,0-5.515-6.273.882.882,0,0,0-.648,1.627,7.28,7.28,0,0,1,4.4,4.977.9.9,0,0,0,.9.689Z" transform="translate(-53.685 -63.281)"/><path class="e" d="M483.348,274.976h.165a.882.882,0,0,0,.7-1.02,9.03,9.03,0,0,0-5.515-6.273.882.882,0,1,0-.648,1.627,7.238,7.238,0,0,1,4.4,4.977.869.869,0,0,0,.9.689Z" transform="translate(-53.685 -63.281)"/><path class="e" d="M476.454,279.236h.165a.855.855,0,0,0,.689-1.02,8.989,8.989,0,0,0-5.515-6.273.882.882,0,1,0-.662,1.627,7.279,7.279,0,0,1,4.508,4.922.882.882,0,0,0,.813.744Z" transform="translate(-53.685 -63.281)"/><path class="e" d="M469.561,283.482h.165a.869.869,0,0,0,.689-1.02,9,9,0,0,0-5.515-6.273.869.869,0,0,0-1.144.483.882.882,0,0,0,.482,1.144,7.2,7.2,0,0,1,4.4,4.977A.882.882,0,0,0,469.561,283.482Z" transform="translate(-53.685 -63.281)"/><g class="k"><path class="e" d="M123.432,338.67l-1.351-2.413,38.492-21.466,30.855,14.187,42.215-23.493,1.351,2.413-43.456,24.168L160.7,317.88Z"/></g><g class="k"><path class="e" d="M132.518,315.743l-1.31-2.426L162.917,296.3l15.455,6.728,18.047-13.084,1.613,2.233L178.7,306.189l-15.662-6.824Z"/></g><g class="k"><path class="e" d="M321.037,372.048l-31.971-16.778,53.548-34.784-49.219-21.259,1.089-2.537,53.947,23.3-53.92,35.032,27.808,14.572Z"/></g><g class="k"><path class="e" d="M133.042,255.33,106.75,240.647l89.779-52.541,1.392,2.385-85.615,50.1,20.749,11.581,48.212-26.264,29.118,16.006-1.337,2.413-27.794-15.276Z"/></g></g></g></svg>