<svg xmlns="http://www.w3.org/2000/svg" width="30" height="30" viewBox="0 0 30 30"><defs><style>.a{fill:#eb0101;}.b{fill:#ce0404;}.c{fill:#fff;}.d{fill:#dce1eb;}</style></defs><path class="a" d="M30,15A15,15,0,1,1,15,0,15,15,0,0,1,30,15Zm0,0"/><path class="b" d="M151.467,100.884A15,15,0,0,0,165.809,85.9c0-.058,0-.117,0-.175L155.395,75.313,144.262,86.949l6.186,6.186L147.6,97.012Zm0,0" transform="translate(-135.809 -70.9)"/><path class="c" d="M155.391,71.377v3.4s-3.9-.566-3.9,1.95V79.24h3.522l-.44,3.837h-3.082v10h-3.9v-10l-3.334-.063V79.24h3.271V76.346s-.216-4.3,4.026-5.095A11.333,11.333,0,0,1,155.391,71.377Zm0,0" transform="translate(-135.805 -66.965)"/><path class="d" d="M260.251,74.774v-3.4a11.333,11.333,0,0,0-3.837-.126,5.948,5.948,0,0,0-.77.2V93.077h.707v-10h3.082l.44-3.837h-3.522V76.724C256.352,74.208,260.251,74.774,260.251,74.774Zm0,0" transform="translate(-240.666 -66.964)"/></svg>