<svg xmlns="http://www.w3.org/2000/svg" xmlns:xlink="http://www.w3.org/1999/xlink" width="591.092" height="420.37" viewBox="0 0 591.092 420.37"><defs><style>.a,.i{fill:#fff;}.a{stroke:#707070;}.b{clip-path:url(#a);}.c,.d,.n{fill:#f54747;}.c,.q{opacity:0.24;}.e{fill:url(#b);}.f{fill:url(#c);}.g{fill:url(#d);}.h{fill:url(#e);}.j{opacity:0.52;}.k{fill:url(#f);}.l{fill:url(#g);}.m{fill:url(#h);}.n{opacity:0.58;}.o{fill:#606161;}.p{fill:url(#i);}.r{fill:url(#j);}.s{fill:url(#k);}.t{fill:url(#l);}</style><clipPath id="a"><rect class="a" width="591.092" height="420.37" transform="translate(1274 1528)"/></clipPath><linearGradient id="b" x1="0.745" y1="0.457" x2="-0.779" y2="0.983" gradientUnits="objectBoundingBox"><stop offset="0" stop-color="#010101" stop-opacity="0"/><stop offset="0.95" stop-color="#010101"/></linearGradient><linearGradient id="c" x1="0.825" y1="0.467" x2="-1.515" y2="1.103" xlink:href="#b"/><linearGradient id="d" x1="0.308" y1="0.451" x2="1.614" y2="0.732" xlink:href="#b"/><linearGradient id="e" x1="0.095" y1="0.466" x2="2.962" y2="0.997" xlink:href="#b"/><linearGradient id="f" x1="0.499" y1="-0.457" x2="0.5" y2="1.156" gradientUnits="objectBoundingBox"><stop offset="0" stop-color="#fff" stop-opacity="0"/><stop offset="0.95" stop-color="#fff"/></linearGradient><linearGradient id="g" x1="0.491" y1="1.302" x2="0.538" y2="-2.971" xlink:href="#b"/><linearGradient id="h" x1="0.492" y1="1.751" x2="0.522" y2="-4.883" xlink:href="#b"/><linearGradient id="i" x1="0" y1="0.5" x2="0.998" y2="0.5" xlink:href="#b"/><linearGradient id="j" x1="-0.001" y1="0.501" x2="0.999" y2="0.501" gradientUnits="objectBoundingBox"><stop offset="0" stop-color="#e5c6d6"/><stop offset="0.42" stop-color="#ead4d0"/><stop offset="1" stop-color="#f0e9cb"/></linearGradient><linearGradient id="k" x1="-0.001" y1="0.498" x2="1.001" y2="0.498" xlink:href="#j"/><linearGradient id="l" x1="-0.184" y1="0.725" x2="3.062" y2="0.095" xlink:href="#b"/></defs><g class="b" transform="translate(-1274 -1528)"><g transform="translate(1291.505 1527.996)"><path class="c" d="M50.871,349.193c-9.578-11.289-17.851-24-22.139-38.143-9.578-31.7,1.857-65.728,15.994-95.723,13.563-28.733,37.361-66.135,37.851-98.623.094-5.863-1.44-11.622-2.358-17.423a83.84,83.84,0,0,1,22.233-70.245A84.34,84.34,0,0,1,155.274,4.246C217.946-1.461,285.687,24.3,325.259,29.536c45.582,6.041,92.217-8.346,137.622-1.043,40.407,6.479,79.562-12.394,100.616,22.7s23.245,123.631,7.543,161.43c-5.8,13.97-14.105,26.959-18.039,41.565-4.319,16.067-3.057,33.125-.188,49.515,2.285,13.083,5.582,26.312,3.818,39.478-2.087,15.65-11.236,29.609-22.431,40.741-30.986,30.819-77.309,42.149-120.929,39.5s-85.436-17.736-126.239-33.313c-9.807-3.756-19.666-7.574-30.026-9.317-11.841-1.982-24-1.179-35.921-.156-33.511,2.827-68.555,13.1-101.868,13.657C93.1,394.733,66.667,367.826,50.871,349.193Z" transform="translate(-25.206 -3.422)"/><path class="d" d="M490.9,231.613c1.377-3.683.866-7.793,1.471-11.685a10.839,10.839,0,0,1,2-5.143,7.585,7.585,0,0,1,7.814-2.556c3.725,1.043,6.093,4.914,6.51,8.753s-.72,7.658-1.972,11.309c-2.619,7.585-5.749,14.982-8.419,22.546-2.2,6.26-3.62,14.356,1.513,18.56,1.315,1.043,2.963,1.763,4.079,3.046a8.513,8.513,0,0,1,1.721,4.058c2.014,10.652-5.571,21-14.606,26.928-3,1.961-6.354,3.652-9.932,3.745-5.655.136-10.8-3.881-13.417-8.9s-3.13-10.85-3.026-16.505a183.045,183.045,0,0,1,1.982-21.482c.751-5.676,1.523-11.476,3.652-16.693,1.617-4.027,4.945-10.433,9.577-11.372S488.411,238.29,490.9,231.613Z" transform="translate(-25.206 -3.422)"/><path class="e" d="M488.953,231.394c1.377-3.693.866-7.793,1.471-11.685a10.871,10.871,0,0,1,2-5.154,7.585,7.585,0,0,1,7.814-2.546c3.725,1.043,6.093,4.914,6.51,8.743s-.72,7.658-1.972,11.309c-2.619,7.585-5.749,14.982-8.419,22.556-2.2,6.26-3.62,14.345,1.513,18.55,1.315,1.043,2.963,1.774,4.079,3.057a8.482,8.482,0,0,1,1.721,4.048c2.014,10.663-5.571,21-14.606,26.938-3,1.961-6.354,3.652-9.932,3.735-5.655.146-10.8-3.881-13.417-8.889s-3.13-10.861-3.026-16.515a183.463,183.463,0,0,1,1.982-21.482c.751-5.676,1.523-11.414,3.652-16.693,1.617-4.017,4.945-10.37,9.588-11.362S486.46,238.05,488.953,231.394Z" transform="translate(-25.206 -3.422)"/><path class="d" d="M501.3,183.976c-10.85,18.007-7.814,42.327-20.292,59.259-3.787,5.143-8.826,9.306-12.228,14.721S464,270.862,467.92,275.9c10.558-6.124,14.241-19.218,19.5-30.256a5.925,5.925,0,0,1,1.711-2.389c2.848-2.014,6.385,1.93,6.7,5.4.845,9.254-7,16.787-10.245,25.488-4.069,10.913-1.158,24.6-8.879,33.323-1.565,1.763-3.672,3.266-6.041,3.276a9.776,9.776,0,0,1-4.841-1.617A41.951,41.951,0,0,1,445.239,277.4c-1.116-11.122.188-24.163,7-33.021,5.561-7.23,5.383-14.9,8.785-23.579a63.725,63.725,0,0,1,16.265-23.62,59.688,59.688,0,0,1,11.195-8.086C490.758,187.857,500.284,185.708,501.3,183.976Z" transform="translate(-25.206 -3.422)"/><path class="f" d="M499.835,183.976c-10.85,18.007-7.825,42.327-20.292,59.259-3.787,5.143-8.826,9.306-12.227,14.721s-4.778,12.906-.866,17.945c10.569-6.124,14.241-19.218,19.51-30.256a5.822,5.822,0,0,1,1.711-2.389c2.848-2.014,6.385,1.93,6.7,5.4.845,9.254-7,16.787-10.245,25.488-4.069,10.913-1.158,24.6-8.878,33.323-1.565,1.763-3.683,3.266-6.041,3.276a9.849,9.849,0,0,1-4.851-1.617A42,42,0,0,1,443.768,277.4c-1.106-11.122.2-24.163,7-33.021,5.571-7.23,5.394-14.9,8.8-23.579a63.725,63.725,0,0,1,16.265-23.62,59.686,59.686,0,0,1,11.195-8.086C489.308,187.857,498.823,185.708,499.835,183.976Z" transform="translate(-25.206 -3.422)"/><path class="d" d="M112.468,251.978c-2.087-6.26-2.921-12.8-4.893-19.061s-5.425-12.467-11.184-15.6-14.158-1.961-17.329,3.787a13.375,13.375,0,0,0-1.3,8.033c1.148,9.692,9.223,17.277,11.372,26.8,1.283,5.655.355,11.591,1.189,17.34a29.035,29.035,0,0,0,12.676,19.885c3.86,2.525,8.284,4.09,12.227,6.489a33.385,33.385,0,0,1,12.207,13.114,30.256,30.256,0,0,0,9.911-23.589C136.453,270,117.893,267.961,112.468,251.978Z" transform="translate(-25.206 -3.422)"/><path class="g" d="M112.468,251.978c-2.087-6.26-2.921-12.8-4.893-19.061s-5.425-12.467-11.184-15.6-14.158-1.961-17.329,3.787a13.375,13.375,0,0,0-1.3,8.033c1.148,9.692,9.223,17.277,11.372,26.8,1.283,5.655.355,11.591,1.189,17.34a29.035,29.035,0,0,0,12.676,19.885c3.86,2.525,8.284,4.09,12.227,6.489a33.385,33.385,0,0,1,12.207,13.114,30.256,30.256,0,0,0,9.911-23.589C136.453,270,117.893,267.961,112.468,251.978Z" transform="translate(-25.206 -3.422)"/><path class="d" d="M134.7,217.539c-.845-4.079-.814-8.346-2.087-12.321s-4.3-7.835-8.451-8.253c-4.778-.48-8.931,3.954-9.9,8.659s.386,9.546,1.742,14.158l5.29,18.049c1.648,5.6,2.65,13.01-2.347,16.036a32.238,32.238,0,0,1-3.652,1.555,11.727,11.727,0,0,0-6.781,11c.271,5.7,4.58,10.235,8.346,14.533s7.376,9.765,5.936,15.284c-1.043,4.09-4.83,7.637-4.048,11.789.636,3.443,4.392,5.582,7.9,5.613s6.8-1.523,9.964-3.046l15.1-7.3c4.851-2.347,9.953-4.9,12.853-9.452a23.412,23.412,0,0,0,3.046-10.308,57.59,57.59,0,0,0-10.433-38.842C149.787,234.409,137.611,231.55,134.7,217.539Z" transform="translate(-25.206 -3.422)"/><path class="h" d="M134.7,217.539c-.845-4.079-.814-8.346-2.087-12.321s-4.3-7.835-8.451-8.253c-4.778-.48-8.931,3.954-9.9,8.659s.386,9.546,1.742,14.158l5.29,18.049c1.648,5.6,2.65,13.01-2.347,16.036a32.238,32.238,0,0,1-3.652,1.555,11.727,11.727,0,0,0-6.781,11c.271,5.7,4.58,10.235,8.346,14.533s7.376,9.765,5.936,15.284c-1.043,4.09-4.83,7.637-4.048,11.789.636,3.443,4.392,5.582,7.9,5.613s6.8-1.523,9.964-3.046l15.1-7.3c4.851-2.347,9.953-4.9,12.853-9.452a23.412,23.412,0,0,0,3.046-10.308,57.59,57.59,0,0,0-10.433-38.842C149.787,234.409,137.611,231.55,134.7,217.539Z" transform="translate(-25.206 -3.422)"/><rect class="d" width="312.083" height="201.68" rx="16.578" transform="translate(123.485 84.831)"/><rect class="i" width="294.482" height="190.298" rx="15.639" transform="translate(130.966 92.635)"/><g class="j"><rect class="d" width="59.218" height="4.34" transform="translate(173.146 133.991)"/><rect class="d" width="36.14" height="4.079" transform="translate(173.146 142.39)"/><rect class="d" width="113.741" height="4.1" transform="translate(223.871 142.39)"/><rect class="d" width="49.703" height="4.298" transform="translate(191.936 150.82)"/><rect class="d" width="59.218" height="4.34" transform="translate(207.888 159.218)"/><rect class="d" width="49.63" height="4.82" transform="translate(270.966 159.218)"/><rect class="d" width="45.728" height="4.079" transform="translate(207.805 167.627)"/><rect class="d" width="94.356" height="4.517" transform="translate(257.914 167.627)"/><rect class="d" width="59.218" height="4.34" transform="translate(173.146 178.999)"/><rect class="d" width="36.14" height="4.079" transform="translate(173.146 187.398)"/><rect class="d" width="113.741" height="4.1" transform="translate(223.871 187.398)"/><rect class="d" width="49.703" height="4.298" transform="translate(191.936 195.807)"/><rect class="d" width="59.218" height="4.34" transform="translate(207.888 204.226)"/><rect class="d" width="49.63" height="4.82" transform="translate(270.966 204.226)"/><rect class="d" width="45.728" height="4.079" transform="translate(207.805 212.635)"/><rect class="d" width="94.356" height="4.517" transform="translate(257.914 212.635)"/><rect class="d" width="59.218" height="4.34" transform="translate(173.146 224.007)"/><rect class="d" width="36.14" height="4.079" transform="translate(173.146 232.406)"/><rect class="d" width="113.741" height="4.1" transform="translate(223.871 232.406)"/><rect class="d" width="49.703" height="4.298" transform="translate(191.936 240.815)"/><rect class="d" width="59.218" height="4.34" transform="translate(207.888 249.213)"/><rect class="d" width="49.63" height="4.82" transform="translate(270.966 249.213)"/><rect class="d" width="45.728" height="4.079" transform="translate(207.805 257.643)"/><rect class="d" width="94.356" height="4.517" transform="translate(257.914 257.643)"/></g><rect class="c" width="136.662" height="50.131" rx="14.877" transform="translate(191.56 193.751) rotate(180)"/><path class="d" d="M133.48,284.988,75.462,328.671H481.64l-56.724-44.33Z"/><path class="k" d="M133.48,284.988,75.462,328.671H481.64l-56.724-44.33Z"/><path class="l" d="M422.944,306.094c2.17.7,3.818,3.4,2.587,5.331-.939,1.471-3.307,2.431-2.827,4.111l5.55,2.8a3.036,3.036,0,0,1,1.5,1.231c.793,1.721-1.794,2.953-3.683,3.13l-43.537,3.5c-5.842.469-11.789.929-17.5-.407a56.471,56.471,0,0,1-11.163-4.371l-15.962-7.585c-2.368-1.127-4.841-2.337-6.406-4.444s-1.878-5.4,0-7.188c1.356-1.252,3.349-1.44,5.216-1.544a295.836,295.836,0,0,1,44.685.876q10.829,1.043,21.575,2.879c3.568.605,7.428,1.92,11.017,2.087C416.9,306.616,420.106,305.165,422.944,306.094Z" transform="translate(-25.206 -3.422)"/><path class="d" d="M92.082,344.644l-16.62-15.973H481.64l-15,16.954Z"/><path class="m" d="M92.082,344.644l-16.62-15.973H481.64l-15,16.954Z"/><path class="n" d="M232.906,321.827l17.277-13.7,63.245-.323,18.258,13.688Z"/><path class="n" d="M112.624,305.635l328.588-.438-17.6-14.345H132.833Z"/><path class="o" d="M340.053,306.95a32,32,0,0,0,7.679,5.8c1.5.908,3.516,1.784,4.872.678s.96-3.13.271-4.622c-1.763-3.871-5.916-8.023-10.308-8.712C337.654,299.323,337.174,303.684,340.053,306.95Z" transform="translate(-25.206 -3.422)"/><path class="p" d="M340.053,306.95a32,32,0,0,0,7.679,5.8c1.5.908,3.516,1.784,4.872.678s.96-3.13.271-4.622c-1.763-3.871-5.916-8.023-10.308-8.712C337.654,299.323,337.174,303.684,340.053,306.95Z" transform="translate(-25.206 -3.422)"/><path class="d" d="M363.434,247.742,351.06,276.715,332.281,281.6l-2.191,11.7,30.965-6.093,14.606-17.548s2.087-20.553-1.3-28.524C372.792,237.393,365.02,244.007,363.434,247.742Z" transform="translate(-25.206 -3.422)"/><g class="q"><rect class="d" width="188.222" height="86.792" rx="13.323" transform="translate(341.295 38.341)"/><path class="d" d="M341.3,143.016V111.487h26.656Z"/></g><rect class="i" width="188.222" height="86.792" rx="13.323" transform="translate(341.295 30.381)"/><path class="i" d="M341.3,135.055V103.527h26.656Z"/><rect class="i" width="136.662" height="50.131" rx="14.877" transform="translate(189.119 189.359) rotate(180)"/><g class="j"><rect class="d" width="31.8" height="2.337" transform="translate(73.553 150.277)"/><rect class="d" width="19.416" height="2.191" transform="translate(73.553 154.784)"/><rect class="d" width="61.085" height="2.201" transform="translate(100.804 154.784)"/><rect class="d" width="26.688" height="2.306" transform="translate(83.652 159.312)"/><rect class="d" width="31.8" height="2.337" transform="translate(92.217 163.83)"/><rect class="d" width="26.656" height="2.587" transform="translate(126.093 163.83)"/><rect class="d" width="24.559" height="2.191" transform="translate(92.176 168.337)"/><rect class="d" width="50.673" height="2.431" transform="translate(119.082 168.337)"/><rect class="d" width="31.8" height="2.337" transform="translate(73.553 174.44)"/><rect class="d" width="19.416" height="2.191" transform="translate(73.553 178.957)"/><rect class="d" width="61.085" height="2.201" transform="translate(100.804 178.957)"/></g><path class="c" d="M283.945,122l.563-2.911c.1-.543.2-1.1.3-1.7.918.156,1.794.292,2.671.469a.459.459,0,0,0,.605-.292c.4-.772.835-1.523,1.3-2.254a.438.438,0,0,0,0-.636c-.584-.678-1.158-1.377-1.763-2.087l3.8-3.192c.595.7,1.179,1.377,1.732,2.087a.49.49,0,0,0,.7.157,19.215,19.215,0,0,1,2.347-.866c.376-.1.459-.25.449-.595v-2.64h4.966v2.65c0,.355.094.48.449.584a20.362,20.362,0,0,1,2.347.866.49.49,0,0,0,.7-.167c.553-.689,1.127-1.356,1.721-2.087l3.808,3.193-1.951,2.327c.522.981,1.043,1.909,1.544,2.817a.553.553,0,0,0,.459.136l2.713-.469.866,4.883c-.929.167-1.826.313-2.713.49a.487.487,0,0,0-.386.282c-.177,1.043-.323,2.087-.48,3.13l2.619,1.523-2.483,4.3-2.64-1.513c-.855.678-1.68,1.325-2.483,2a.459.459,0,0,0-.083.417c.3.876.626,1.753.949,2.66l-4.664,1.7c-.282-.793-.595-1.565-.845-2.358-.146-.459-.344-.595-.845-.553a17.031,17.031,0,0,1-2.42,0c-.292,0-.407.063-.49.334-.292.845-.616,1.69-.949,2.587l-4.716-1.648,1.043-2.88-2.65-2.243-2.66,1.534-2.483-4.3c.814-.469,1.586-.929,2.368-1.367a.438.438,0,0,0,.25-.584,24.225,24.225,0,0,1-.438-2.431c0-.4-.136-.584-.584-.636-.855-.1-1.711-.282-2.566-.438Zm15.2-5.926a6.343,6.343,0,1,0,6.26,6.458A6.343,6.343,0,0,0,299.146,116.078Z" transform="translate(-25.206 -3.422)"/><path class="d" d="M403.935,77.2l19.27-9.932v2.869L406.96,78.248v.073L423.2,86.469v2.869l-19.27-9.932Z" transform="translate(-25.206 -3.422)"/><path class="d" d="M428.995,59.844h3.652v12.52h.083a6.834,6.834,0,0,1,2.619-2.577,7.616,7.616,0,0,1,3.745-1.043c2.692,0,7.011,1.659,7.011,8.6v12h-3.652V77.789c0-3.245-1.2-5.989-4.653-5.989a5.217,5.217,0,0,0-4.9,3.662,4.362,4.362,0,0,0-.25,1.742V89.338h-3.652Z" transform="translate(-25.206 -3.422)"/><path class="d" d="M456.3,63.454v5.78h5.216v2.754H456.3V82.849c0,2.493.709,3.912,2.744,3.912a8.138,8.138,0,0,0,2.087-.25l.167,2.744a9.244,9.244,0,0,1-3.245.49,5.05,5.05,0,0,1-3.944-1.534c-1.043-1.043-1.419-2.869-1.419-5.216V71.988h-3.13V69.233h3.13v-4.82Z" transform="translate(-25.206 -3.422)"/><path class="d" d="M465.656,74.669c0-2.087-.052-3.777-.177-5.436h3.2l.167,3.234h.125a6.928,6.928,0,0,1,6.312-3.693,5.947,5.947,0,0,1,5.676,4.027h.083a8.127,8.127,0,0,1,2.243-2.619,6.813,6.813,0,0,1,4.444-1.408c2.65,0,6.6,1.742,6.6,8.722V89.338h-3.579V77.955c0-3.871-1.408-6.2-4.361-6.2a4.747,4.747,0,0,0-4.3,3.359,5.979,5.979,0,0,0-.292,1.826V89.338h-3.568V77.288c0-3.2-1.419-5.529-4.173-5.529a5.467,5.467,0,0,0-4.841,5.446V89.338h-3.568Z" transform="translate(-25.206 -3.422)"/><path class="d" d="M500.315,59.844h3.652V89.338h-3.652Z" transform="translate(-25.206 -3.422)"/><path class="d" d="M529.11,79.447l-19.27,9.89V86.469L526.2,78.321v-.073L509.84,70.1V67.23l19.27,9.89Z" transform="translate(-25.206 -3.422)"/><path class="o" d="M340.314,283.256c-3.234.605-6.375,3.537-6.333,7.23,0,2.963,1.993,5.394,3.871,7.47,11.6,12.791,26.083,24.132,42.358,24.121,5.321,0,10.579-1.242,15.9-1.586,3.526-.23,7.178-.083,10.433-1.659,4.841-2.347,7.679-7.94,10.172-13.177l7.908-16.495c1.857-3.892,3.7-8.722,1.648-12.52-1.878-3.432-6.1-4.048-9.651-3.474-7.115,1.148-13.448,5.488-19.937,8.983-8.117,4.382-18.988,9.953-28.242,8.962S349.819,281.472,340.314,283.256Z" transform="translate(-25.206 -3.422)"/><path class="d" d="M365.155,284.07c1.315,5.874,3.318,11.967,7.9,15.869,4.33,3.7,10.3,4.851,15.994,5.06,4.945.177,10.078-.3,14.4-2.713,6.416-3.6,4.069-21.4,4.684-28.733s8.1-6.646,5.853-13.657c-2.431-7.574-8.9-12.874-14.439-18.581a19.155,19.155,0,0,0-5.216-3.954c-4.351-2.087-9.452-1.92-14.3-1.638-1.909.1-8.472,3.537-9.577,5.07C360.367,254.638,361.462,267.69,365.155,284.07Z" transform="translate(-25.206 -3.422)"/><path class="r" d="M369.381,216.287a6.98,6.98,0,0,0-1.5,1.784,4.173,4.173,0,0,0,.365,3.558,25.839,25.839,0,0,1,1.721,3.276c.709,2.139.313,4.935,2.17,6.2,1.315.887,3.286.563,4.361,1.721,1.262,1.377.47,4.006,1.993,5.081a3.662,3.662,0,0,0,1.763.49,16.3,16.3,0,0,0,5.279,0,5.634,5.634,0,0,0,4.1-3.046,8.1,8.1,0,0,0,.459-3.046l.365-14.8a30.257,30.257,0,0,0-.376-7.011,10.141,10.141,0,0,0-3.4-6,10.621,10.621,0,0,0-5.717-2.024A7.96,7.96,0,0,0,375.5,203.6C371.561,206.511,372.844,212.771,369.381,216.287Z" transform="translate(-25.206 -3.422)"/><path class="o" d="M375.453,208.942c1.231.824,2.671,1.294,3.923,2.087a8.889,8.889,0,0,1,3.944,6.26,22.964,22.964,0,0,1,2.087-2.525,8.191,8.191,0,0,1,1.993,2.566,2.754,2.754,0,0,1-.49,3.036c-.48.428-1.179.647-1.461,1.231-.5,1.043.741,2.024,1.335,3.015.689,1.168.5,2.619.522,3.975s.449,2.942,1.721,3.412c1.69.616,3.245-1.168,4.173-2.723a31.788,31.788,0,0,0,3.85-8.346,11.935,11.935,0,0,0-.96-8.972c-.856-1.429-2.087-2.608-2.848-4.1-1.179-2.358-.949-5.217-2.2-7.574-1.972-3.7-10.756-6.708-14.836-5.467C370.028,196.7,370.883,205.927,375.453,208.942Z" transform="translate(-25.206 -3.422)"/><path class="s" d="M322.484,284.1a19.822,19.822,0,0,0-6.51,2.911,27.8,27.8,0,0,0-4.476,4.455,1.794,1.794,0,0,0-.616,1.534,1.377,1.377,0,0,0,.741.772c1.523.793,3.37.23,5.018-.261a50.285,50.285,0,0,1,5.216-1.294c.939-.188,2.139-.229,2.6.605.188.344.2.762.4,1.106a1.575,1.575,0,0,0,1.784.553,4.758,4.758,0,0,0,1.659-1.116l4.069-3.735a7.375,7.375,0,0,0,1.356-1.492,5.217,5.217,0,0,0,.48-3.818c-.636-1.951-.417-1.492-2.493-1.607a30.914,30.914,0,0,0-9.223,1.388Z" transform="translate(-25.206 -3.422)"/><path class="t" d="M364.707,282.453l8.9-15.65-.574,33.094S367.148,297.445,364.707,282.453Z" transform="translate(-25.206 -3.422)"/></g></g></svg>