<svg xmlns="http://www.w3.org/2000/svg" width="197.67" height="45" viewBox="0 0 197.67 45"><defs><style>.a,.b{fill:#fff;}.a{fill-rule:evenodd;}</style></defs><g transform="translate(-107.997 -408.875)"><g transform="translate(107.997 408.875)"><path class="a" d="M161.517,451.484a2.244,2.244,0,0,1,.055.343c0,1.239.015,2.48-.013,3.719a.677.677,0,0,1-.332.474,12.022,12.022,0,0,1-6.451,1.3c-4.376-.247-7.7-2.159-9.6-5.841-1.992-3.865-1.4-7.591,1.408-10.984a10.7,10.7,0,0,1,7.088-4.018,11.677,11.677,0,0,1,9.657,2.645,9.176,9.176,0,0,1,3.064,5.822c.264,2.073.239,4.178.325,6.271.028.639.005,1.281.005,1.972a2.7,2.7,0,0,0,1.629-.674,5.213,5.213,0,0,0,1.607-3.186,13.031,13.031,0,0,0-4.52-12.717,15.473,15.473,0,0,0-16.864-1.937c-5.391,2.932-7.98,7.393-7.6,13.269.4,6.241,5.749,11.021,10.966,12.119a15.8,15.8,0,0,0,10.981-1.486.819.819,0,0,1,1.151.16c.413.491.768,1.024,1.128,1.55.229.333.426.686.67,1.081-.557.289-1.088.58-1.637.846a19.764,19.764,0,0,1-9.536,2.2,18.847,18.847,0,0,1-14.522-7.364,16.226,16.226,0,0,1-3.493-11.315c.322-7.307,6.076-14.108,13.678-15.944,8.108-1.959,15.98.491,21.013,7.352a16.07,16.07,0,0,1,2.956,11.618,10.616,10.616,0,0,1-1.443,4.489,7.725,7.725,0,0,1-6.94,3.8c-1.05.015-2.1-.017-3.153.012-.446.012-.589-.1-.587-.533.02-2.907.013-5.814.01-8.721a8.087,8.087,0,0,0-1.327-4.679,6.473,6.473,0,0,0-9.695-.987,6.616,6.616,0,0,0-2.3,4.491c-.121,2.665,1.284,4.556,3.641,5.876,2.39,1.338,4.807,1,7.182-.089C160.323,452.135,160.892,451.807,161.517,451.484Z" transform="translate(-129.446 -424.135)"/><path class="a" d="M129.059,409.316c.013-.333-.1-.479-.483-.432-1.088.133-2.2.173-3.263.39a19.535,19.535,0,0,0-9.108,4.778c-6.91,6.11-9.428,13.6-7.663,22.245,1.355,6.631,5.62,11.512,11.56,15.182a16.466,16.466,0,0,0,8.262,2.4c.438.015.567-.111.569-.508,0-.871.04-1.745.093-2.613.02-.338-.088-.457-.456-.469a11.473,11.473,0,0,1-5.238-1.579,25.409,25.409,0,0,1-5.865-4.723,17.256,17.256,0,0,1-4.837-14.965,18.5,18.5,0,0,1,6.942-12.154,17.484,17.484,0,0,1,9.264-4.343.439.439,0,0,0,.279-.313c.03-.489.013-.977.013-1.468Z" transform="translate(-107.997 -408.875)"/></g><g transform="translate(162.554 421.432)"><path class="b" d="M324.66,474.012v-7.161c0-3.695,3.12-5.811,6.907-5.811,3.626,0,6.454,1.861,6.454,5.226v1.223h-3.44V466.6c0-1.579-1.173-2.6-3.014-2.6a2.733,2.733,0,0,0-3.067,2.881v6.983c0,2.039,1.226,3.009,3.12,3.009,1.76,0,2.961-.97,2.961-2.525v-.994h3.44v1.223c0,3.416-2.825,5.25-6.426,5.25C327.833,479.822,324.66,478.065,324.66,474.012Z" transform="translate(-324.66 -461.04)"/><path class="b" d="M388.563,462.2H393.2l5.52,18.2h-3.843l-1.254-4.359h-5.92L386.48,480.4h-3.52Zm4.266,11.06-2.105-7.517h-.081l-2.133,7.517Z" transform="translate(-368.28 -461.921)"/><path class="b" d="M449,465.232H443.93V462.3h13.92v2.932h-5.039v15.241H449V465.232Z" transform="translate(-413.897 -461.997)"/><path class="b" d="M529.02,462.3h5.467c3.573,0,5.467,2.039,5.467,5.1,0,2.7-1.413,4.742-4.318,5.072l4.905,8h-1.76l-4.694-7.775h-3.493v7.775H529.02Zm5.041,9.2c2.881,0,4.319-1.326,4.319-4,0-2.294-1.2-3.95-4.132-3.95h-3.654V471.5Z" transform="translate(-477.561 -461.997)"/><path class="b" d="M584.79,491.82v-4.027a4.464,4.464,0,0,1,4.747-4.843c2.8,0,4.4,1.707,4.4,4.511v2.448h-7.627v1.962c0,2.294,1.2,3.363,3.548,3.363a6.728,6.728,0,0,0,3.359-.968l.534.968a6.674,6.674,0,0,1-4.079,1.223C586.764,496.458,584.79,495.057,584.79,491.82Zm7.733-2.982v-1.531a2.926,2.926,0,0,0-3.148-3.237,3.014,3.014,0,0,0-3.067,3.288v1.478h6.215Z" transform="translate(-519.287 -477.676)"/><path class="b" d="M634.75,478V462.3h1.493v15.523c0,.893.426,1.5,1.627,1.5a8.842,8.842,0,0,0,1.2-.1v1.148a4.927,4.927,0,0,1-1.652.255A2.413,2.413,0,0,1,634.75,478Z" transform="translate(-556.667 -461.997)"/><path class="b" d="M661.1,491.854V487.6a4.328,4.328,0,0,1,4.641-4.638c2.825,0,4.666,1.606,4.666,4.588v4.232c0,3.11-1.894,4.689-4.638,4.689C662.913,496.466,661.1,494.836,661.1,491.854Zm7.814-.077v-4.333c0-1.837-.906-3.339-3.2-3.339s-3.12,1.579-3.12,3.466V491.8c0,2.142.934,3.466,3.226,3.466C668.166,495.27,668.914,493.715,668.914,491.777Z" transform="translate(-576.382 -477.684)"/><path class="b" d="M709.15,492.763c0-2.982,2.639-4.027,4.8-4.053h2.772v-2.371c0-1.632-1.121-2.318-2.8-2.318-1.466,0-2.986.662-2.986,2.142v.789H709.6v-.816c0-2.116,2.027-3.187,4.5-3.187,2.294,0,4.132.994,4.132,3.288v6.6c0,.944.106,2.624.133,3.312h-1.387l-.106-2.142h-.053a4.282,4.282,0,0,1-4,2.421A3.471,3.471,0,0,1,709.15,492.763Zm7.572-.84v-2.193h-2.505c-1.6,0-3.52.51-3.52,2.828a2.515,2.515,0,0,0,2.586,2.754A3.377,3.377,0,0,0,716.722,491.923Z" transform="translate(-612.332 -477.676)"/><path class="b" d="M758.68,477.135v-5.861a3.826,3.826,0,0,1,4-4,3.717,3.717,0,0,1,3.573,2.294h.028V462.3H767.8v18.173h-1.332l-.053-2.421h-.081a4.253,4.253,0,0,1-3.946,2.727A3.44,3.44,0,0,1,758.68,477.135Zm7.625-1.68v-3.187a3.784,3.784,0,0,0-3.387-3.926c-1.466,0-2.747.739-2.747,2.932v5.632a2.385,2.385,0,0,0,2.667,2.677C764.625,479.583,766.3,478,766.3,475.454Z" transform="translate(-649.39 -461.997)"/><path class="b" d="M808.95,491.82v-4.027a4.464,4.464,0,0,1,4.747-4.843c2.8,0,4.4,1.707,4.4,4.511v2.448h-7.627v1.962c0,2.294,1.2,3.363,3.548,3.363a6.728,6.728,0,0,0,3.359-.968l.534.968a6.674,6.674,0,0,1-4.079,1.223C810.922,496.458,808.95,495.057,808.95,491.82Zm7.733-2.982v-1.531a2.926,2.926,0,0,0-3.148-3.237,3.014,3.014,0,0,0-3.067,3.288v1.478h6.215Z" transform="translate(-687.002 -477.676)"/><path class="b" d="M856.79,477.135v-5.861a3.826,3.826,0,0,1,4-4,3.717,3.717,0,0,1,3.573,2.294h.028V462.3h1.518v18.173h-1.332l-.053-2.421h-.081a4.253,4.253,0,0,1-3.946,2.727A3.441,3.441,0,0,1,856.79,477.135Zm7.625-1.68v-3.187a3.784,3.784,0,0,0-3.387-3.926c-1.466,0-2.745.739-2.745,2.932v5.632a2.385,2.385,0,0,0,2.667,2.677C862.735,479.583,864.415,478,864.415,475.454Z" transform="translate(-722.796 -461.997)"/></g></g></svg>