<svg xmlns="http://www.w3.org/2000/svg" width="90.825" height="98.65" viewBox="0 0 90.825 98.65"><defs><style>.a{fill:#3a3e48;}.b{fill:#586270;}.c{fill:#ff6c77;}.d{fill:#5dc382;}.e{fill:#d8625e;}.f{fill:#5496ce;}.g{fill:#a5b4b4;}.h{fill:#ed634c;}</style></defs><path class="a" d="M253.163,8.36H251.6a5.675,5.675,0,0,1-5.481-5.853V1.672a1.569,1.569,0,1,0-3.132,0v.835c0,5.077,3.858,9.191,8.612,9.2h1.566a5.675,5.675,0,0,1,5.48,5.852,5.675,5.675,0,0,1-5.48,5.853H251.6c-4.755.005-8.607,4.119-8.612,9.2v9.2a1.569,1.569,0,1,0,3.132,0V32.6a5.675,5.675,0,0,1,5.481-5.852h1.566c4.757,0,8.612-4.117,8.612-9.2s-3.856-9.2-8.612-9.2Zm0,0" transform="translate(-199.138 0)"/><path class="b" d="M3.5,221.14A83.3,83.3,0,0,0,0,241.395c0,16.72,1.566,18.392,7.83,18.392,15.033,0,10.986-16.553,18.038-20.767l11.679-.969H53.278l11.679.969c7.051,4.214,3,20.767,18.038,20.767,6.264,0,7.829-1.672,7.829-18.392a83.329,83.329,0,0,0-3.5-20.255l-5.856-14.691c-2.371-4.127-5.055-6.855-7.874-6.855-6.264,0-4.7,3.344-17.225,3.344H34.451c-12.527,0-10.962-3.344-17.225-3.344-2.819,0-5.5,2.728-7.874,6.855Zm0,0" transform="translate(0 -161.137)"/><path class="a" d="M145.828,338.122a7.847,7.847,0,1,1-7.83-8.36A8.108,8.108,0,0,1,145.828,338.122Zm0,0" transform="translate(-106.679 -266.224)"/><path class="a" d="M302.031,338.122a7.847,7.847,0,1,1-7.83-8.36A8.108,8.108,0,0,1,302.031,338.122Zm0,0" transform="translate(-234.695 -266.224)"/><path class="b" d="M151.376,345.129a6.277,6.277,0,1,1-6.264-6.688,6.486,6.486,0,0,1,6.264,6.688Zm0,0" transform="translate(-113.793 -273.232)"/><path class="b" d="M307.578,345.129a6.277,6.277,0,1,1-6.264-6.688A6.486,6.486,0,0,1,307.578,345.129Zm0,0" transform="translate(-241.809 -273.232)"/><path class="a" d="M42.411,238.846c.018,7.076-5.129,12.944-11.743,13.387s-12.407-4.691-13.218-11.715a14.991,14.991,0,0,1,0-3.345c.811-7.024,6.6-12.158,13.218-11.715s11.762,6.311,11.743,13.387Zm0,0" transform="translate(-14.224 -181.997)"/><path class="a" d="M372.173,239c0,7.387-5.609,13.376-12.527,13.376S347.117,246.392,347.117,239s5.609-13.376,12.528-13.376S372.173,231.618,372.173,239Zm0,0" transform="translate(-284.479 -182.156)"/><path class="c" d="M354.947,277.536a3.923,3.923,0,1,1-3.915-4.18A4.054,4.054,0,0,1,354.947,277.536Zm0,0" transform="translate(-284.479 -220.687)"/><path class="d" d="M402.677,229.808a3.923,3.923,0,1,1-3.915-4.179A4.054,4.054,0,0,1,402.677,229.808Zm0,0" transform="translate(-323.596 -182.156)"/><path class="e" d="M450.407,277.536a3.923,3.923,0,1,1-3.915-4.18A4.054,4.054,0,0,1,450.407,277.536Zm0,0" transform="translate(-362.714 -220.687)"/><path class="f" d="M402.677,325.266a3.923,3.923,0,1,1-3.915-4.18A4.054,4.054,0,0,1,402.677,325.266Zm0,0" transform="translate(-323.596 -259.22)"/><g transform="translate(3.132 41.801)"><path class="b" d="M79.668,228.653a1.622,1.622,0,0,1-1.566-1.672v-8.36a1.569,1.569,0,1,1,3.132,0v8.36A1.622,1.622,0,0,1,79.668,228.653Zm0,0" transform="translate(-67.14 -216.949)"/><path class="b" d="M25.186,288.044a1.622,1.622,0,0,1-1.566,1.672H17.45a14.991,14.991,0,0,1,0-3.345h6.17A1.622,1.622,0,0,1,25.186,288.044Zm0,0" transform="translate(-17.356 -272.995)"/><path class="b" d="M120.642,289.715h-6.264a1.676,1.676,0,0,1,0-3.345h6.264a1.676,1.676,0,0,1,0,3.345Zm0,0" transform="translate(-95.587 -272.995)"/><path class="b" d="M79.668,331.118a1.622,1.622,0,0,1-1.566-1.672v-6.688a1.569,1.569,0,1,1,3.132,0v6.688A1.622,1.622,0,0,1,79.668,331.118Zm0,0" transform="translate(-67.14 -301.021)"/></g><path class="g" d="M190.914,216.949h21.923v11.7A3.243,3.243,0,0,1,209.705,232h-15.66a3.243,3.243,0,0,1-3.132-3.344Zm0,0" transform="translate(-156.463 -175.148)"/><path class="h" d="M79.668,145.536a1.621,1.621,0,0,1-1.566-1.672V140.52a1.569,1.569,0,1,1,3.132,0v3.344A1.621,1.621,0,0,1,79.668,145.536Zm0,0" transform="translate(-64.008 -112.095)"/><path class="h" d="M30.734,169.892a1.484,1.484,0,0,1-.7-.175L26.9,168.044a1.727,1.727,0,0,1-.7-2.244,1.521,1.521,0,0,1,2.1-.749l3.133,1.672a1.712,1.712,0,0,1,.825,1.882,1.591,1.591,0,0,1-1.527,1.287Zm0,0" transform="translate(-21.339 -133.108)"/><path class="h" d="M409.43,145.536a1.621,1.621,0,0,1-1.566-1.672V140.52a1.569,1.569,0,1,1,3.132,0v3.344A1.621,1.621,0,0,1,409.43,145.536Zm0,0" transform="translate(-334.264 -112.095)"/><path class="h" d="M444.127,169.892a1.59,1.59,0,0,1-1.527-1.287,1.71,1.71,0,0,1,.825-1.882l3.132-1.672a1.521,1.521,0,0,1,2.1.749,1.726,1.726,0,0,1-.7,2.244l-3.132,1.672A1.489,1.489,0,0,1,444.127,169.892Zm0,0" transform="translate(-362.698 -133.108)"/></svg>