<svg xmlns="http://www.w3.org/2000/svg" width="30" height="30" viewBox="0 0 30 30"><defs><style>.a{fill:#980b0b;}.b{fill:#FFF;}</style></defs><ellipse class="a" cx="15" cy="14.5" rx="15" ry="14.5" transform="translate(0 1)"/><path class="b" d="M15,.5a14.852,14.852,0,0,0-4.744,28.974c.75.14,1.025-.32,1.025-.715,0-.353-.013-1.289-.019-2.528-4.173.9-5.052-1.995-5.052-1.995a3.953,3.953,0,0,0-1.669-2.175c-1.359-.922.105-.9.105-.9a3.14,3.14,0,0,1,2.3,1.532,3.214,3.214,0,0,0,4.369,1.237,3.158,3.158,0,0,1,.95-1.988c-3.331-.372-6.832-1.65-6.832-7.347A5.707,5.707,0,0,1,6.974,10.6,5.244,5.244,0,0,1,7.1,6.668s1.256-.4,4.125,1.524a14.262,14.262,0,0,1,7.5,0c2.85-1.923,4.106-1.524,4.106-1.524a5.389,5.389,0,0,1,.15,3.935,5.73,5.73,0,0,1,1.537,3.989c0,5.712-3.506,6.969-6.844,7.334a3.544,3.544,0,0,1,1.013,2.751c0,1.99-.019,3.588-.019,4.071,0,.39.263.855,1.031.706A14.834,14.834,0,0,0,15,.5Z" transform="translate(0 -0.5)"/></svg>