<svg xmlns="http://www.w3.org/2000/svg" xmlns:xlink="http://www.w3.org/1999/xlink" width="591.092" height="420.37" viewBox="0 0 591.092 420.37"><defs><style>.a,.s,.v{fill:#fff;}.a{stroke:#707070;}.b{clip-path:url(#a);}.c,.d,.e{fill:#f54747;}.c,.i{opacity:0.2;}.d,.f,.s,.t{opacity:0.1;}.g{fill:#ffd037;}.h{fill:#a8a8a8;}.j{opacity:0.8;}.k{fill:#e74d89;}.l{fill:#b2215a;}.m{fill:url(#b);}.n{fill:#925978;}.o{fill:#ff6484;}.p{fill:#575988;}.q{fill:#ffc5cb;}.r{fill:#e8f4ff;}.u{fill:#1769ff;}.w{fill:#b3bbc6;}.x{fill:#666c76;}.y{fill:url(#c);}.z{fill:#ffaab0;}.aa{fill:#556dd5;}.ab{fill:#f1faff;}.ac{fill:#794f6a;}.ad{fill:#61beec;}.ae{fill:#4064ac;}.af{fill:#d4dfec;}</style><clipPath id="a"><rect class="a" width="591.092" height="420.37" transform="translate(1274 1528)"/></clipPath><linearGradient id="b" x1="0.5" y1="1" x2="0.5" gradientUnits="objectBoundingBox"><stop offset="0" stop-color="gray" stop-opacity="0.251"/><stop offset="0.54" stop-color="gray" stop-opacity="0.122"/><stop offset="1" stop-color="gray" stop-opacity="0.102"/></linearGradient><linearGradient id="c" x1="0.5" y1="1" x2="0.5" y2="0" xlink:href="#b"/></defs><g class="b" transform="translate(-1274 -1528)"><g transform="translate(1280.289 1528.002)"><path class="c" d="M216.217,46.255c15.622-13.9,40.134-16.75,62.444-15.643,70.084,3.48,133.345,37.317,188.064,75.59,19.813,13.852,39.316,28.784,52.174,47.865,26.2,38.835,18.412,92.645-17.985,124.636-12.387,10.89-27.4,19.246-42.813,26.63-27.4,13.157-56.975,23.716-88.074,26.731-22.181,2.138-44.636.4-66.683-2.588-61.6-8.367-122.076-26.843-172.758-58.423-22.23-13.868-43.187-31.1-52.35-53.532s-3.3-50.848,19.4-64.123c9.388-5.491,20.615-7.971,31.6-10.3,16.178-3.427,32.612-6.806,47.212-13.772,15.076-7.2,32.927-21.118,29.939-37.044C203.194,75.168,200.622,60.156,216.217,46.255Z" transform="translate(-31.516 -30.399)"/><ellipse class="d" cx="58.52" cy="3.753" rx="58.52" ry="3.753" transform="translate(396.144 374.754)"/><ellipse class="d" cx="58.52" cy="3.753" rx="58.52" ry="3.753" transform="translate(244.039 349.637)"/><ellipse class="d" cx="58.52" cy="3.753" rx="58.52" ry="3.753" transform="translate(29.196 409.173)"/><ellipse class="d" cx="24.079" cy="1.545" rx="24.079" ry="1.545" transform="translate(174.837 417.278)"/><ellipse class="d" cx="18.765" cy="1.203" rx="18.765" ry="1.203" transform="translate(540.984 377.839)"/><ellipse class="d" cx="15.91" cy="1.021" rx="15.91" ry="1.021" transform="translate(371.61 352.952)"/><path class="e" d="M593.965,380.571s2.513,3.288-1.155,8.249-6.7,9.147-5.48,12.238c0,0,5.544-9.212,10.051-9.34S598.932,386.115,593.965,380.571Z" transform="translate(-31.516 -30.399)"/><path class="f" d="M593.965,380.571a4.146,4.146,0,0,1,.535,1.032c4.4,5.17,6.742,9.992,2.513,10.115-3.94.112-8.666,7.159-9.8,8.939a3.523,3.523,0,0,0,.134.4s5.544-9.212,10.051-9.34S598.932,386.115,593.965,380.571Z" transform="translate(-31.516 -30.399)"/><path class="g" d="M598.643,384.757c0,1.16-.128,2.1-.289,2.1s-.289-.936-.289-2.1.16-.609.321-.609S598.643,383.6,598.643,384.757Z" transform="translate(-31.516 -30.399)"/><path class="g" d="M600.247,386.141c-1.016.535-1.9.887-1.978.749s.684-.706,1.7-1.262.615-.15.69,0S601.263,385.585,600.247,386.141Z" transform="translate(-31.516 -30.399)"/><path class="e" d="M580.7,380.571s-2.513,3.288,1.16,8.249,6.7,9.147,5.474,12.238c0,0-5.539-9.212-10.051-9.34S575.74,386.115,580.7,380.571Z" transform="translate(-31.516 -30.399)"/><path class="f" d="M580.7,380.571a4.044,4.044,0,0,0-.535,1.032c-4.4,5.17-6.747,9.992-2.518,10.115,3.94.112,8.672,7.159,9.8,8.939a3.547,3.547,0,0,1-.134.4s-5.539-9.212-10.051-9.34S575.74,386.115,580.7,380.571Z" transform="translate(-31.516 -30.399)"/><path class="g" d="M576.028,384.757c0,1.16.128,2.1.289,2.1s.294-.936.294-2.1-.166-.609-.326-.609S576.028,383.6,576.028,384.757Z" transform="translate(-31.516 -30.399)"/><path class="g" d="M574.424,386.141c1.016.535,1.9.887,1.978.749s-.684-.706-1.7-1.262-.615-.15-.69,0S573.409,385.585,574.424,386.141Z" transform="translate(-31.516 -30.399)"/><path class="h" d="M576.857,400.63s7.025-.214,9.142-1.721,10.8-3.309,11.334-.893,10.553,12.024,2.625,12.088-18.428-1.235-20.546-2.518S576.857,400.63,576.857,400.63Z" transform="translate(-31.516 -30.399)"/><path class="i" d="M600.07,409.264c-7.928.064-18.428-1.235-20.54-2.523-1.6-.978-2.251-4.5-2.465-6.121h-.235s.444,5.667,2.556,6.95,12.612,2.582,20.546,2.518c2.288,0,3.079-.829,3.037-2.037C602.647,408.793,601.776,409.248,600.07,409.264Z" transform="translate(-31.516 -30.399)"/><path class="e" d="M421.859,359.688s2.138,2.807-.994,7.052-5.731,7.827-4.683,10.473c0,0,4.737-7.88,8.6-8.019S426.094,364.425,421.859,359.688Z" transform="translate(-31.516 -30.399)"/><path class="f" d="M421.859,359.688a3.533,3.533,0,0,1,.438.882c3.742,4.421,5.769,8.554,2.138,8.65-3.368.1-7.415,6.127-8.383,7.65a2.871,2.871,0,0,0,.118.342s4.737-7.88,8.6-8.019S426.094,364.425,421.859,359.688Z" transform="translate(-31.516 -30.399)"/><path class="g" d="M425.853,363.27c0,.989-.112,1.791-.246,1.791s-.251-.8-.251-1.791.139-.535.278-.535S425.853,362.281,425.853,363.27Z" transform="translate(-31.516 -30.399)"/><path class="g" d="M427.227,364.452c-.871.47-1.6.759-1.695.636s.588-.6,1.454-1.069.535-.128.593,0S428.093,363.976,427.227,364.452Z" transform="translate(-31.516 -30.399)"/><path class="e" d="M410.5,359.688s-2.138,2.807.989,7.052,5.736,7.827,4.689,10.473c0,0-4.742-7.88-8.6-8.019S406.259,364.425,410.5,359.688Z" transform="translate(-31.516 -30.399)"/><path class="f" d="M410.5,359.688a3.422,3.422,0,0,0-.444.882c-3.742,4.421-5.769,8.554-2.138,8.65,3.373.1,7.415,6.127,8.383,7.65-.032.112-.069.23-.112.342,0,0-4.742-7.88-8.6-8.019S406.259,364.425,410.5,359.688Z" transform="translate(-31.516 -30.399)"/><path class="g" d="M406.505,363.27c0,.989.112,1.791.251,1.791s.246-.8.246-1.791-.139-.535-.278-.535S406.505,362.281,406.505,363.27Z" transform="translate(-31.516 -30.399)"/><path class="g" d="M405.136,364.452c.866.47,1.6.759,1.689.636s-.583-.6-1.454-1.069-.535-.128-.593,0S404.265,363.976,405.136,364.452Z" transform="translate(-31.516 -30.399)"/><path class="h" d="M407.189,376.85s6.009-.187,7.822-1.476,9.249-2.833,9.7-.765,9.03,10.291,2.245,10.345-15.766-1.069-17.573-2.138S407.189,376.85,407.189,376.85Z" transform="translate(-31.516 -30.399)"/><path class="i" d="M427.077,384.233c-6.79.059-15.771-1.069-17.578-2.138-1.374-.839-1.925-3.849-2.106-5.239h-.2s.38,4.844,2.192,5.945,10.789,2.213,17.573,2.138c1.957,0,2.636-.711,2.6-1.743C429.3,383.859,428.532,384.222,427.077,384.233Z" transform="translate(-31.516 -30.399)"/><g class="j"><path class="k" d="M110.522,362.81a39.963,39.963,0,1,1-28.288,11.7,39.979,39.979,0,0,1,28.288-11.7Z" transform="translate(-31.516 -30.399)"/><path class="l" d="M110.522,445.613a42.829,42.829,0,1,1,42.877-42.85,42.829,42.829,0,0,1-42.877,42.85Zm36.146-36.98a53.948,53.948,0,0,0-22.812-1.6,156.111,156.111,0,0,1,7.127,26.09A36.386,36.386,0,0,0,146.668,408.633ZM124.829,436.5a152.516,152.516,0,0,0-7.805-27.731.674.674,0,0,1-.235.064c-20.668,7.2-28.073,21.508-28.741,22.844a36.483,36.483,0,0,0,22.454,7.7,35.718,35.718,0,0,0,14.306-2.882Zm-41.5-9.212c.834-1.406,10.885-18.017,29.778-24.149.465-.166.968-.3,1.438-.433-.9-2.08-1.909-4.154-2.983-6.2A135.349,135.349,0,0,1,73.911,401.7c0,.369-.032.738-.032,1.1a36.568,36.568,0,0,0,9.447,24.486Zm-8.645-31.954a135.366,135.366,0,0,0,33.847-4.453A234.385,234.385,0,0,0,94.96,369.739a36.707,36.707,0,0,0-20.278,25.592Zm27.266-28.068a192.377,192.377,0,0,1,13.67,21.385c13.029-4.886,18.519-12.259,19.193-13.194a36.509,36.509,0,0,0-24.288-9.212,38.057,38.057,0,0,0-8.575,1.042Zm36.916,12.425c-.77,1.043-6.9,8.912-20.433,14.435.834,1.743,1.673,3.518,2.443,5.293.267.636.535,1.272.807,1.877,12.189-1.545,24.283.936,25.491,1.171a36.472,36.472,0,0,0-8.308-22.78Z" transform="translate(-31.516 -30.399)"/></g><path class="m" d="M209.668,280.762c-.968-1.214-2.069-9.559-2.069-9.559l-4.277-21.267-2.213-12.254s-.535-15.477-10.222-23.154l-.754-.593v-.412h0a14.039,14.039,0,0,0-.968-4.357,3.09,3.09,0,0,1-.347-1.46,1.486,1.486,0,0,1,.192-.567h0a4.758,4.758,0,0,1,1.743-1.465,7.631,7.631,0,0,0,3.662-4.747,1.159,1.159,0,0,1,0-.134.675.675,0,0,1,.037-.267c.037-.091,0-.1,0-.15a2.421,2.421,0,0,0,0-.278v-.449a.3.3,0,0,1,0-.07,2.241,2.241,0,0,0-.048-.374v-.027h0a4.325,4.325,0,0,0-2.481-3.357,1.6,1.6,0,0,0,1.1-.914h0a2.109,2.109,0,0,0,.155-.412h0a2.088,2.088,0,0,0,.069-.406s0-.043,0-.064a2.593,2.593,0,0,0,0-.353v-.112a2.356,2.356,0,0,0-.075-.347.533.533,0,0,0,0-.091l-.032-.075h0a8.565,8.565,0,0,0-1.941-2.641c-4.224-4.731-5.041-11.387-6.191-17.557-.636-3.422-1.839-7.319-5.154-8.618A25.66,25.66,0,0,0,177,163.5c-2.94-.781-5.346-2.833-8.223-3.839a12.414,12.414,0,0,0-6.047-.508c-1.545.257-2.839,1.016-4.33,1.374-3.208.786-7.1-.091-9.623,2.5-1.77,1.8-1.909,4.55-2.78,6.9-1.647,4.357-5.924,7.527-7.03,12.056-.711,2.919.027,5.881.8,8.816a32.248,32.248,0,0,1,1.176,6.041,13.626,13.626,0,0,1,0,1.55,15.055,15.055,0,0,1-1.01,4.395c-3.614,1.337-7.351,2.914-7.629,3.8-.535,1.748-9.26,6.731-9.26,6.731s-3.315,2.828-3.315,3.9-1.1,4.443-1.8,4.443-2.069,13.6-2.069,13.6V249.4s-5.106,16.691-6.282,31.5c0,0-2.064,9.457,1.3,14.884a7.592,7.592,0,0,0,1.663,1.941l1.721,4.5a10.623,10.623,0,0,1,2.277-2.673c.086.561.182,1.219.3,1.951.144.92.315,1.962.535,3.079-1.069,1.673-3.651,5.175-6.752,6.485-2.866,1.208.866,4.405,3.443,6.271-.684,3.406-1.673,7.586-2.475,8.132-1.385.941-5.8,12.788-5.8,12.788s-8.7,20.316,3.8,22.614,18.872-3.1,18.872-3.1h2.994a7.875,7.875,0,0,0,3.742-6.3c2.037-1.679,5.164-4.341,5.8-5.416s-1.117-4.571-2.229-6.48l.294-.535s11.885-15.21,13.4-13.6,2.486,4.17,1.8,5.79l.652,9.318v14.536s-1.705,6.6,0,7.271,0,3.208,0,3.208.636,2.962.754,3.9a36.049,36.049,0,0,1,0,3.635l-.572,14.542L154,409.184s-1.24,1.754-.273,2.962.535,4.042.273,4.576a38.164,38.164,0,0,0-.412,4.983s-4.01,4.17-.829,5.25l.123.037c-1.315,1.219-1.331,3.962-1.23,4.812s-.845,4.277-1.556,6.218a4.812,4.812,0,0,1-.652,1.385c-.487.342,0,4.111,0,4.111s15.536,1.278,16.851,0c.535-.5.4-1.705.027-3.1a32.075,32.075,0,0,0-2.374-5.854,6.538,6.538,0,0,1-.481-3.833v-1.6c1.043.166,1.721.262,1.721.262s1.935-1.6,1.107-3.1,1.518-9.821,1.518-9.821,2.625-9.425,2.625-10.366,3.454-13.189,3.454-13.189,5.111-21.674,2.625-31.906c0,0,2.208-2.556,1.93-3.208s-.92-3.5.027-4.71,4.951-16.29,6.057-18.845c.508-1.182,1.78-4.443,3-7.624,5.5-.823,12.056-2.342,12.056-2.342s-.978-4.165-1.705-8.42l.6-2.924.214-1.01a9.464,9.464,0,0,1,1.31,1.6l1.1-5.384s.123-.187.331-.535c1.288-2.016,5.982-9.26,8.233-11.457C212.293,293.55,210.641,281.97,209.668,280.762Z" transform="translate(-31.516 -30.399)"/><rect class="n" width="15.237" height="17.108" transform="translate(129.4 160.296)"/><rect class="f" width="15.237" height="17.108" transform="translate(129.4 160.296)"/><path class="o" d="M138.59,338.116s3.876,6.148,2.94,7.752-7.34,6.816-7.34,6.816L132.3,339.854Z" transform="translate(-31.516 -30.399)"/><path class="p" d="M126.561,357.9l2.828-.4h2.9a7.772,7.772,0,0,0,3.63-6.816c-.219-4.6,0-9.089,0-9.089Z" transform="translate(-31.516 -30.399)"/><path class="f" d="M126.561,357.9l2.828-.4h2.9a7.772,7.772,0,0,0,3.63-6.816c-.219-4.6,0-9.089,0-9.089Z" transform="translate(-31.516 -30.399)"/><path class="p" d="M132.287,295.213l-16.039,17.643s-1.871,11.628-3.208,12.564-5.581,12.7-5.581,12.7-8.41,20.182,3.678,22.454,18.241-3.074,18.241-3.074l10.265-18.578s11.5-15.1,12.97-13.5,2.406,4.143,1.738,5.747l.626,9.222v14.435s-1.647,6.549,0,7.217,0,3.208,0,3.208.62,2.94.732,3.876,0,3.609,0,3.609l-.535,14.435L154.1,408.553s-1.2,1.738-.267,2.94.535,4.01.267,4.544a36.54,36.54,0,0,0-.4,4.945s-3.876,4.143-.8,5.213,12.029,2.406,12.029,2.406S166.8,427,166,425.527s1.47-9.757,1.47-9.757,2.539-9.356,2.539-10.291,3.341-13.1,3.341-13.1,4.945-21.519,2.539-31.676c0,0,2.138-2.539,1.871-3.208s-.893-3.475,0-4.678,4.812-16.172,5.881-18.712,5.614-14.836,5.614-14.836V296.549Z" transform="translate(-31.516 -30.399)"/><path class="q" d="M180.168,214.619l-9.228,17.434-2.433,4.587-.369.7-23.791.936s-.679-1.5-1.641-3.833a113.131,113.131,0,0,1-5.442-16.081,33.07,33.07,0,0,1-.7-4c-.353-3.336.182-5.715,2.32-5.918a4.192,4.192,0,0,1,1.6.166,12.146,12.146,0,0,0,4.587.444c5.646-.684,7.3-6.645,7.576-12.248,0-.4.037-.791.043-1.182,0-1.214,0-2.39-.08-3.47a48.654,48.654,0,0,0-.631-5.464,23.213,23.213,0,0,1,4.416-1.631c4.512-1.155,10.869-1.123,10.954,8.18a29.828,29.828,0,0,0,.609,6.137,13.853,13.853,0,0,0,1.149,3.32c1.566,3.01,3.742,3.336,4.763,3.3a2.673,2.673,0,0,0,.561-.059Z" transform="translate(-31.516 -30.399)"/><path class="f" d="M156.42,224.712a8.971,8.971,0,0,1,.5,2.946,13.366,13.366,0,0,1-.075,3.17,4.5,4.5,0,0,1-1.486,2.743" transform="translate(-31.516 -30.399)"/><circle class="f" cx="14.301" cy="14.301" r="14.301" transform="translate(117.333 141.728)"/><path class="q" d="M177.446,185.893a14.3,14.3,0,0,1-24.78,9.725,4.984,4.984,0,0,1-.353-.4,14.3,14.3,0,1,1,25.127-9.324Z" transform="translate(-31.516 -30.399)"/><path class="f" d="M140.194,221.569s5.079,13.232,15.771,11.093c0,0,10.794.845,16.974-7.084s6.549,45.443,6.549,45.443l-2.406,35.419s-17.231,10.291-24.716,8.955-11.093-5.346-11.093-5.346-7.886-7.351-10.024-8.287.936-46.512.936-46.512l2.539-17.108Z" transform="translate(-31.516 -30.399)"/><path class="r" d="M140.194,220.5s5.079,13.232,15.771,11.093c0,0,10.794.845,16.974-7.084s6.549,45.443,6.549,45.443l-2.406,35.419s-17.231,10.291-24.716,8.955-11.093-5.346-11.093-5.346-7.886-7.351-10.024-8.287.936-46.512.936-46.512l2.539-17.108Z" transform="translate(-31.516 -30.399)"/><path class="f" d="M139.659,295.213s11.494,12.831,10.826,14.167S139.392,299.089,139.659,295.213Z" transform="translate(-31.516 -30.399)"/><path class="f" d="M137.681,263.307s3.673,5.132,5.972,4.6" transform="translate(-31.516 -30.399)"/><path class="f" d="M145.62,208.6a3.859,3.859,0,0,1-.037.444c-.123,1.641-.583,7.592-1.2,14.221-.348,3.742-.743,7.666-1.149,11.174-.663,5.7-1.369,10.27-1.967,10.917-1.738,1.871-1.069,19.514-1.069,19.514v22.32s-1.465,7.084-2.673,8.688S133.361,303.5,131,304.3a8.27,8.27,0,0,0-2.208,1.759c-2.138,2.138-5.164,5.7-7.485,8.517-1.914,2.347-3.331,4.159-3.331,4.159s-9.356-5.881-5.346-7.618c3-1.3,5.48-4.774,6.533-6.415a7.549,7.549,0,0,0,.535-.914,24.759,24.759,0,0,1,.85-3.678,12.516,12.516,0,0,1,1.481-3.208,3.657,3.657,0,0,1,2.213-1.673c3.475-.668,5.213-33.681,5.213-33.681l-10.692-23.331-1.069-2.331s1.337-13.5,2-13.5,1.738-3.341,1.738-4.411,3.208-3.876,3.208-3.876,8.479-4.961,9.014-6.7c.283-.914,4.17-2.566,7.789-3.924,3.251-1.219,6.282-2.2,6.282-2.2C149.5,203.969,145.62,208.6,145.62,208.6Z" transform="translate(-31.516 -30.399)"/><path class="o" d="M145.086,208.6a3.859,3.859,0,0,1-.037.444c-.123,1.641-.583,7.592-1.2,14.221-.348,3.742-.743,7.666-1.149,11.174-.663,5.7-1.369,10.27-1.967,10.917-1.738,1.871-1.069,19.514-1.069,19.514v22.32s-1.465,7.084-2.673,8.688-4.159,7.618-6.522,8.42a8.27,8.27,0,0,0-2.208,1.759c-2.138,2.138-5.164,5.7-7.485,8.517-1.914,2.347-3.331,4.159-3.331,4.159s-9.356-5.881-5.346-7.618c3-1.3,5.48-4.774,6.533-6.415a7.549,7.549,0,0,0,.535-.914,24.759,24.759,0,0,1,.85-3.678,12.514,12.514,0,0,1,1.481-3.208,3.657,3.657,0,0,1,2.213-1.673c3.475-.668,5.213-33.681,5.213-33.681l-10.692-23.331-1.069-2.331s1.337-13.5,2-13.5,1.738-3.341,1.738-4.411,3.208-3.876,3.208-3.876,8.479-4.961,9.014-6.7c.283-.914,4.17-2.566,7.789-3.924,3.251-1.219,6.282-2.2,6.282-2.2C148.962,203.969,145.086,208.6,145.086,208.6Z" transform="translate(-31.516 -30.399)"/><path class="f" d="M198.248,239.313l-11.542,13.531s10.024,51.992,8.821,54.4a2.08,2.08,0,0,0-.176.631,15.974,15.974,0,0,0,.069,3.742c.139,1.31.353,2.764.593,4.213.706,4.224,1.652,8.362,1.652,8.362s-13.5,3.208-17.643,2.807-1.738-7.084-1.069-10.158-4.544-7.378-4.544-7.378l-7.351-30.179s-.535-6.683-2.138-9.891-.134-6.683-.668-11.227c-.38-3.24,1.951-14.82,3.71-21.551a21.674,21.674,0,0,1,1.6-4.849.337.337,0,0,1,.053-.064c1.069-.936,0-6.415,0-6.415s2.539-14.435,2.272-15.638c-.15-.684.69-2.363,1.443-3.684.572-1,1.1-1.8,1.1-1.8a170.256,170.256,0,0,1,14.034,10.441l.8.652c9.356,7.618,9.891,22.989,9.891,22.989Z" transform="translate(-31.516 -30.399)"/><path class="o" d="M198.783,239.313l-11.542,13.531s10.024,51.992,8.821,54.4a2.08,2.08,0,0,0-.176.631,15.974,15.974,0,0,0,.07,3.742c.139,1.31.353,2.764.593,4.213.706,4.224,1.652,8.362,1.652,8.362S184.7,327.4,180.558,327s-1.738-7.084-1.069-10.158-4.544-7.378-4.544-7.378l-7.351-30.179s-.535-6.683-2.138-9.891-.134-6.683-.668-11.227c-.38-3.24,1.951-14.82,3.71-21.551a21.674,21.674,0,0,1,1.6-4.849.337.337,0,0,1,.053-.064c1.069-.936,0-6.415,0-6.415s2.539-14.435,2.272-15.638c-.15-.684.69-2.363,1.443-3.684.572-1,1.1-1.8,1.1-1.8A170.256,170.256,0,0,1,189,214.608l.8.652c9.356,7.618,9.891,22.989,9.891,22.989Z" transform="translate(-31.516 -30.399)"/><path class="f" d="M174.41,246.562c-.134,1.069,3.208,57.873,6.683,61.214Z" transform="translate(-31.516 -30.399)"/><path class="q" d="M129.346,325.553c-3.742,2.352-6.6-3.839-8.554-10.976-.914-3.352-1.6-6.913-2.138-9.9-.2-1.112-.364-2.138-.5-3.058-.369-2.384-.535-3.946-.535-3.946l3.935-.791,4.352-.871.535,4.913.251,2.229s.684,1.133,1.6,2.9C130.875,311.235,135.259,321.869,129.346,325.553Z" transform="translate(-31.516 -30.399)"/><path class="q" d="M198.067,308.338l-.936,4.614-.583,2.9-.032.144s-11.681,15.836-15.424,9.286c-2.86-5,4.117-13.211,7.56-16.8,1.069-1.112,1.8-1.78,1.8-1.78l5.437,1.165Z" transform="translate(-31.516 -30.399)"/><path class="o" d="M165.989,442.635c-1.272,1.267-16.306,0-16.306,0s-.47-3.742,0-4.079a4.7,4.7,0,0,0,.631-1.379c.69-1.951,1.6-5.346,1.508-6.17-.134-1.133-.064-5.678,3-5.346,0,0,4.01-8.153,8.426,1.871v2.406a6.677,6.677,0,0,0,.465,3.806,32.408,32.408,0,0,1,2.3,5.811C166.38,440.94,166.487,442.132,165.989,442.635Z" transform="translate(-31.516 -30.399)"/><path class="r" d="M165.989,442.635c-1.272,1.267-16.306,0-16.306,0s-.47-3.742,0-4.079a4.7,4.7,0,0,0,.631-1.379c1.989-.85,4.694-1.673,6.587-.957,2.39.909,6.8,2.5,9.089,3.336C166.38,440.94,166.487,442.132,165.989,442.635Z" transform="translate(-31.516 -30.399)"/><path class="f" d="M152.624,196.8a20.894,20.894,0,0,1,.925,4.635,13.43,13.43,0,0,1-1.877,6.127c-1.123,2.2-2.39,4.566-2.016,7.009a20.61,20.61,0,0,0,.8,2.727,11.97,11.97,0,0,1-.759,8.618c-.877,1.77-2.673,3.48-4.592,2.908a13.819,13.819,0,0,0-1.272-5.555,5.3,5.3,0,0,0-1.427-1.679c-1.39-1.069-3.309-1.294-4.571-2.5a3.837,3.837,0,0,1-.593-.727,5.582,5.582,0,0,1-.748-3.443,2.924,2.924,0,0,1,.069-.535,14.467,14.467,0,0,1,1.294-3.742c.331-.716.679-1.433,1.026-2.138a33.772,33.772,0,0,0,2.021-4.961c3.25-1.219,6.282-2.2,6.282-2.2,1.78,2.673-2.1,7.33-2.1,7.33a3.859,3.859,0,0,1-.037.444C150.694,208.364,152.367,202.4,152.624,196.8Z" transform="translate(-31.516 -30.399)"/><path class="f" d="M160.632,176.687a6.018,6.018,0,0,0-3.742,2.989c-.738,1.657-.358,3.571-.535,5.378a6.753,6.753,0,0,1-.225,1.171c-.663,2.219-2.743,3.785-3.561,5.924-.059.16-.112.321-.16.492a6.26,6.26,0,0,0-.112,2.577,14.29,14.29,0,1,1,18.124,2.983c.6-1.8,1.24-3.6,1.732-5.437,1.155-4.325,1.353-9.324-1.369-12.879A9.522,9.522,0,0,0,160.632,176.687Z" transform="translate(-31.516 -30.399)"/><path class="f" d="M188.561,219.976c-.47,1.705-1.668,3.577-3.432,3.5-.839-.037-1.6-.535-2.443-.615a3.637,3.637,0,0,0-3.037,1.6,21.736,21.736,0,0,0-1.689,3.176c-1.315,2.555-3.892,4.854-6.736,4.453l-.294-.053a4.368,4.368,0,0,1-.85-.262c-2.55-1.069-3.929-4.352-3.839-7.255.107-3.309,1.492-6.442,1.946-9.725.422-3.026.037-6.111.364-9.147a22.334,22.334,0,0,1,.535-2.973c1.566,3.01,3.742,3.336,4.763,3.3.572-1,1.1-1.8,1.1-1.8a170.253,170.253,0,0,1,14.034,10.441,14.285,14.285,0,0,1-.417,5.357Z" transform="translate(-31.516 -30.399)"/><path class="n" d="M168.406,160.8c2.775,1,5.111,3.037,7.955,3.812a24.1,24.1,0,0,1,2.764.716c3.208,1.288,4.373,5.159,4.988,8.554,1.107,6.127,1.9,12.735,5.988,17.434a8.334,8.334,0,0,1,1.909,2.673c.337,1.037-.118,2.47-1.2,2.7a4.583,4.583,0,0,1,2.384,5.068,7.592,7.592,0,0,1-3.545,4.71c-.8.535-1.759,1.069-1.866,2.01a3.133,3.133,0,0,0,.337,1.454,14.365,14.365,0,0,1,.454,8.95c-.47,1.7-1.668,3.577-3.432,3.5-.839-.037-1.6-.535-2.438-.615a3.646,3.646,0,0,0-3.042,1.6,21.471,21.471,0,0,0-1.689,3.176c-1.31,2.555-3.887,4.854-6.736,4.453-3.277-.465-5.084-4.277-4.983-7.57s1.5-6.442,1.951-9.725c.417-3.026.032-6.111.364-9.147.481-4.448,2.465-8.581,3.619-12.9s1.347-9.324-1.374-12.879a9.516,9.516,0,0,0-10.158-3.208,6,6,0,0,0-3.742,2.989c-.9,2.021-.134,4.427-.765,6.549-.711,2.384-3.063,4.02-3.742,6.415-.791,2.882,1.069,5.811,1.123,8.795a13.488,13.488,0,0,1-1.871,6.127c-1.128,2.2-2.4,4.566-2.016,7.009a20.579,20.579,0,0,0,.791,2.727,12,12,0,0,1-.738,8.672c-.877,1.77-2.705,3.48-4.592,2.908-.209-2.646-.583-5.63-2.7-7.233-1.4-1.069-3.315-1.294-4.576-2.507a5.164,5.164,0,0,1-1.353-4.181,13.077,13.077,0,0,1,1.363-4.309c1.534-3.315,3.4-6.619,3.614-10.265.321-5.5-3.208-10.922-1.925-16.29,1.069-4.491,5.218-7.64,6.79-11.981.839-2.331.973-5.063,2.673-6.854,2.459-2.572,6.218-1.7,9.329-2.475,1.443-.364,2.673-1.112,4.191-1.363A11.569,11.569,0,0,1,168.406,160.8Z" transform="translate(-31.516 -30.399)"/><path class="f" d="M130.448,274.887v17.375c0,.716,0,1.46-.043,2.208-.182,4.812-.914,9.821-.914,9.821a16.124,16.124,0,0,0-3.058-3.363c-2.561-2.016-4.742-1.759-6.383-.839a8.018,8.018,0,0,0-1.9,1.534c-.369-2.384-.535-3.946-.535-3.946l3.935-.791a3.657,3.657,0,0,1,2.213-1.673c3.475-.668,5.213-33.681,5.213-33.681L118.28,238.2v-1.139l3.614-5.747c6.014-5.213,7.485,2.272,7.485,2.272s1.069,20.316,1.069,20.85Z" transform="translate(-31.516 -30.399)"/><path class="o" d="M129.378,273.694V291.07c0,.716,0,1.46-.043,2.208-.182,4.812-.914,9.821-.914,9.821-7.485-10.559-12.767-.748-12.767-.748l-1.668-4.464a7.528,7.528,0,0,1-1.6-1.925c-3.256-5.389-1.262-14.782-1.262-14.782,1.139-14.7,6.079-31.275,6.079-31.275V235.87l3.625-5.747c6.014-5.213,8.554,2.272,8.554,2.272v41.3Z" transform="translate(-31.516 -30.399)"/><path class="f" d="M129.346,292.743c-.182,4.812-.914,9.821-.914,9.821-7.485-10.559-12.767-.748-12.767-.748L114,297.351a7.528,7.528,0,0,1-1.6-1.925C115.879,293.507,123.562,289.968,129.346,292.743Z" transform="translate(-31.516 -30.399)"/><path class="o" d="M129.346,293.278c-.182,4.812-.914,9.821-.914,9.821-7.485-10.559-12.767-.748-12.767-.748L114,297.886a7.528,7.528,0,0,1-1.6-1.925C115.879,294.042,123.562,290.5,129.346,293.278Z" transform="translate(-31.516 -30.399)"/><path class="s" d="M129.346,293.278c-.182,4.812-.914,9.821-.914,9.821-7.485-10.559-12.767-.748-12.767-.748L114,297.886a7.528,7.528,0,0,1-1.6-1.925C115.879,294.042,123.562,290.5,129.346,293.278Z" transform="translate(-31.516 -30.399)"/><path class="f" d="M119.221,257.121s2.406,13.232,4.812,17.108S119.221,257.121,119.221,257.121Z" transform="translate(-31.516 -30.399)"/><path class="f" d="M113.062,279.575s1.47,8.019,4.544,8.955S113.062,279.575,113.062,279.575Z" transform="translate(-31.516 -30.399)"/><path class="f" d="M195.885,307.873l2.181.465-.936,4.614a10.63,10.63,0,0,0-1.176-1.31,11.473,11.473,0,0,0-7.3-3.154,14.01,14.01,0,0,0-3.55.225,30,30,0,0,0,1.005-5.555,3.587,3.587,0,0,0-.337-2.064c-1.069-1.47-1.6-15.1-1.6-15.1a79.388,79.388,0,0,1,1.47-8.287c.535-1.337-2.406-8.169-2.272-10.233s1.738-19.84,1.738-20.775,3.475-19.246,10.692-12.3l2.807,3.876.182,1.037-11.542,13.531s10.024,51.992,8.821,54.4a2.081,2.081,0,0,0-.176.631Z" transform="translate(-31.516 -30.399)"/><path class="o" d="M207.968,296.282c-2.181,2.181-6.72,9.377-7.966,11.377l-.321.535-1.069,5.346s-3.742-6.415-12.43-4.812a30,30,0,0,0,1.005-5.555,3.587,3.587,0,0,0-.337-2.064c-1.069-1.47-1.6-15.1-1.6-15.1a79.387,79.387,0,0,1,1.47-8.287c.535-1.337-2.406-8.169-2.272-10.233s1.738-19.84,1.738-20.775,3.475-19.246,10.692-12.3l2.807,3.876,2.138,12.163,4.143,21.118s1.069,8.287,2,9.49S210.5,293.743,207.968,296.282Z" transform="translate(-31.516 -30.399)"/><path class="f" d="M199.991,307.124l-.321.535-1.069,5.346s-3.742-6.415-12.43-4.812a30,30,0,0,0,1.005-5.555C190.154,302.826,196.153,303.665,199.991,307.124Z" transform="translate(-31.516 -30.399)"/><path class="o" d="M199.991,307.659l-.321.535L198.6,313.54s-3.742-6.415-12.43-4.812a30,30,0,0,0,1.005-5.555C190.154,303.361,196.153,304.2,199.991,307.659Z" transform="translate(-31.516 -30.399)"/><path class="s" d="M199.991,307.659l-.321.535L198.6,313.54s-3.742-6.415-12.43-4.812a30,30,0,0,0,1.005-5.555C190.154,303.361,196.153,304.2,199.991,307.659Z" transform="translate(-31.516 -30.399)"/><path class="f" d="M191.25,270.086s9.089-.112,10.425,4.619S191.25,270.086,191.25,270.086Z" transform="translate(-31.516 -30.399)"/><path class="f" d="M189.513,283.451s15.37-.668,14.7,6.014S189.513,283.451,189.513,283.451Z" transform="translate(-31.516 -30.399)"/><path class="f" d="M190.448,293.743s1.2-.267,2,2.539S190.448,293.743,190.448,293.743Z" transform="translate(-31.516 -30.399)"/><path class="f" d="M159.317,359.1s3.662-1.069,5.346,0S159.317,359.1,159.317,359.1Z" transform="translate(-31.516 -30.399)"/><path class="f" d="M159.975,362.976s8.688.134,9.49,1.069S159.975,362.976,159.975,362.976Z" transform="translate(-31.516 -30.399)"/><g class="t"><path d="M141.472,197.655c.257-4.373-1.9-8.688-2.165-12.97-.278,4.32,1.914,8.672,2.138,13.077a.806.806,0,0,0,.027-.107Z" transform="translate(-31.516 -30.399)"/><path d="M151.678,204.883c-1.112,2.171-2.352,4.491-2.032,6.9a16.791,16.791,0,0,1,2.032-5.293,13.481,13.481,0,0,0,1.877-6.127,5.216,5.216,0,0,0-.048-.706A15.274,15.274,0,0,1,151.678,204.883Z" transform="translate(-31.516 -30.399)"/><path d="M190.8,195.1a3.518,3.518,0,0,1,1.069.706,2.513,2.513,0,0,0,.139-1.8.121.121,0,0,0-.027-.075A1.641,1.641,0,0,1,190.8,195.1Z" transform="translate(-31.516 -30.399)"/><path d="M149.694,223.237c-.877,1.77-2.705,3.48-4.592,2.908-.209-2.646-.583-5.63-2.7-7.233-1.4-1.069-3.315-1.294-4.571-2.5a4.7,4.7,0,0,1-1.326-2.834c0,.086-.027.171-.032.257a5.148,5.148,0,0,0,1.358,4.181c1.256,1.214,3.176,1.454,4.571,2.507,2.138,1.6,2.491,4.587,2.7,7.233,1.887.572,3.716-1.139,4.592-2.908a11.986,11.986,0,0,0,1.182-6.047,11.868,11.868,0,0,1-1.181,4.437Z" transform="translate(-31.516 -30.399)"/><path d="M193.18,200.173a7.617,7.617,0,0,1-3.539,4.71c-.8.535-1.764,1.069-1.871,2.01a2.325,2.325,0,0,0,.182,1.069,4.688,4.688,0,0,1,1.689-1.454,7.561,7.561,0,0,0,3.539-4.71,4.865,4.865,0,0,0,0-1.738A1.068,1.068,0,0,1,193.18,200.173Z" transform="translate(-31.516 -30.399)"/><path d="M188.561,217.3c-.47,1.7-1.663,3.577-3.432,3.5-.839-.037-1.6-.535-2.438-.615a3.646,3.646,0,0,0-3.042,1.6,21.206,21.206,0,0,0-1.684,3.176c-1.315,2.555-3.892,4.854-6.736,4.453s-4.667-3.464-4.945-6.464c0,.166-.037.331-.037.5-.107,3.309,1.7,7.105,4.983,7.57,2.844.4,5.421-1.9,6.736-4.453a20.951,20.951,0,0,1,1.684-3.176,3.568,3.568,0,0,1,3.042-1.6c.834.08,1.6.577,2.438.615,1.77.08,2.962-1.8,3.432-3.5a14.1,14.1,0,0,0,.476-4.63,14.113,14.113,0,0,1-.476,3.021Z" transform="translate(-31.516 -30.399)"/><path d="M170.8,178.815a11.227,11.227,0,0,1,2.139,6.415,12.108,12.108,0,0,0-2.139-8.051,9.516,9.516,0,0,0-10.158-3.208,6,6,0,0,0-3.742,2.989c-.9,2.021-.139,4.432-.77,6.549-.711,2.384-3.063,4.02-3.742,6.415a6.138,6.138,0,0,0-.139,2.352,5.345,5.345,0,0,1,.139-.743c.658-2.4,3.01-4.031,3.742-6.415.631-2.138-.134-4.528.77-6.549a5.856,5.856,0,0,1,3.742-2.989,9.516,9.516,0,0,1,10.158,3.234Z" transform="translate(-31.516 -30.399)"/></g><g class="j"><circle class="u" cx="42.877" cy="42.877" r="42.877" transform="translate(260.714 267.642)"/><path class="v" d="M322.516,321.484a24.239,24.239,0,0,1,5.063.492,10.869,10.869,0,0,1,3.919,1.6,7.517,7.517,0,0,1,2.529,2.967,10.36,10.36,0,0,1,.9,4.576,8.554,8.554,0,0,1-1.337,4.9,9.7,9.7,0,0,1-3.945,3.208,9.362,9.362,0,0,1,5.346,3.619,11.879,11.879,0,0,1,.625,11.323,9.848,9.848,0,0,1-3.074,3.507,13.643,13.643,0,0,1-4.411,2.016,20.126,20.126,0,0,1-5.084.652H304.232V321.484Zm-1.069,15.729a6.159,6.159,0,0,0,3.742-1.069,4.063,4.063,0,0,0,1.47-3.539,4.528,4.528,0,0,0-.492-2.229,3.635,3.635,0,0,0-1.3-1.363,5.56,5.56,0,0,0-1.877-.679,12.69,12.69,0,0,0-2.208-.187h-8.019v9.089Zm.492,16.488a11.284,11.284,0,0,0,2.4-.246,5.822,5.822,0,0,0,2.01-.813,4.111,4.111,0,0,0,1.39-1.55,5.388,5.388,0,0,0,.535-2.507q0-2.983-1.689-4.277a7.185,7.185,0,0,0-4.464-1.283h-9.3v10.692Zm25.608-.818a7.894,7.894,0,0,0,9.046.5,4.854,4.854,0,0,0,2.069-2.475h6.8q-1.636,5.063-5.009,7.239a14.766,14.766,0,0,1-8.19,2.187,16.076,16.076,0,0,1-5.982-1.069,12.441,12.441,0,0,1-4.518-3.021,13.575,13.575,0,0,1-2.86-4.678,17.225,17.225,0,0,1-1.005-5.988,16.4,16.4,0,0,1,1.032-5.881,13.606,13.606,0,0,1,7.485-7.832,14.531,14.531,0,0,1,5.854-1.144,13.4,13.4,0,0,1,6.26,1.39,12.5,12.5,0,0,1,4.379,3.742,15.279,15.279,0,0,1,2.475,5.346,19.882,19.882,0,0,1,.535,6.26H345.6c.107,2.491.743,4.309,1.9,5.426Zm8.736-14.8a5.433,5.433,0,0,0-4.218-1.524,6.709,6.709,0,0,0-3.074.625,5.752,5.752,0,0,0-1.957,1.55A5.689,5.689,0,0,0,346,340.693a9.088,9.088,0,0,0-.353,1.85H358.2a8.8,8.8,0,0,0-1.935-4.459ZM344.3,323.446H360V327.8H344.3Z" transform="translate(-31.516 -30.399)"/></g><g class="j"><path class="w" d="M528.864,366.029v1.214a42.887,42.887,0,0,1-37.7,41.353,43.325,43.325,0,0,1-5.159.3,42.877,42.877,0,1,1,42.877-42.875Z" transform="translate(-31.516 -30.399)"/><path class="x" d="M528.843,367.242a42.887,42.887,0,0,1-37.7,41.353l-35.007-26.041,4.373-28.335,17.311,1.069,9.848,8.255,7-11.414,11.762,9.773,6.325,4.528v-14.29L528.7,366.895C528.741,367.013,528.8,367.125,528.843,367.242Z" transform="translate(-31.516 -30.399)"/><path class="x" d="M424.623,352.161Z"/><path class="v" d="M482.919,367.082c0-9.089-5.587-15.247-16.226-15.247H456.188v30.591h10.725C477.241,382.426,482.919,376.171,482.919,367.082Zm-7.629.048c0,6.56-3.368,9.4-8.773,9.4h-2.753v-18.8h2.753C471.7,357.732,475.29,360.7,475.29,367.13Zm37.819,15.3V351.835h-7.052v17.108L494.8,351.835h-7.362V382.42h7.052V364.115l12.056,18.305h6.565Z" transform="translate(-31.516 -30.399)"/></g><path class="y" d="M496.626,320.415c-.535-1.069-5.523-8.222-5.523-8.222h0l-.15-.642-1.636-7.3-.112-.535a3.509,3.509,0,0,0,2.08-1.032c1.176-2.058-.994-4.56-.994-4.56l-.454-10.821-1.176-26.2s-2.443-8.768-2.807-10.821-3.71-6.351-3.71-6.351a5.066,5.066,0,0,0-.182-3.667c-.9-1.529-2.9-8.677-2.9-8.677l-1.716-19.781-.818-19.46a12.158,12.158,0,0,1,2.443.23c.118.1.053-.144-.118-.577a.342.342,0,0,1,.118.043c.278.225-.465-1.449-1.267-3.154l-.1-.2c.385-1.4,1.978-7.046,3.085-9.089.823-1.508-.759-11.917-1.967-19.027-.086-.508-.171-.994-.251-1.465,1.962-3.432,4.213-7.324,4.213-7.324s5.7-16.274,8.051-23.342,0-25.395,0-25.395h0s0-.9-.128-2.3c-.369-3.785-1.78-11.19-7.2-14.066-7.421-3.935-9.773-8.762-9.773-8.762s-9.26-8.426-10.43-5.6l-.08-.16a18.506,18.506,0,0,1-1.513-4.453c-.032-.16-.059-.321-.086-.476a14.328,14.328,0,0,0,3.047-3.3c0,.235-.037.47-.053.706h0v.647a2.716,2.716,0,0,0,0,.294v.176a1.7,1.7,0,0,0,1.684-.936,6.624,6.624,0,0,0,.572-1.951,12.023,12.023,0,0,1,1.695-4.042c.791-1.214,1.85-2.433,1.989-3.817a2.906,2.906,0,0,0,0-.609c-.069-.706-.4-1.363-.5-2.064a4.383,4.383,0,0,1,0-1.069h0a4.017,4.017,0,0,1,.08-.62c.032-.2.086-.535.123-.834s.069-.465.1-.7v-.027a7.693,7.693,0,0,0,0-1.855,3.587,3.587,0,0,0-1.732-2.791c-.535-.273-1.149-.358-1.684-.631-1.411-.722-1.86-2.454-2.673-3.79a6.683,6.683,0,0,0-5.293-3.042c-2.138-.086-4.234.85-6.335.535-1.342-.214-2.577-.941-3.935-1.037-1.983-.139-3.769,1.069-5.378,2.229A6.3,6.3,0,0,0,440.5,41.8c-.3,1.1,0,2.368-.62,3.331-.4.626-1.128.984-1.577,1.6a2.673,2.673,0,0,0-.535,1.716c0,.053,0,.112,0,.171v.289c.037.412.112.829.182,1.235a1.184,1.184,0,0,1,0,.128h0a5.747,5.747,0,0,1-.609,3.021,4.624,4.624,0,0,0-.289,1.449s0,.048,0,.075v.107a2.9,2.9,0,0,0,0,.31h0a1.834,1.834,0,0,0,.481,1.026,1.6,1.6,0,0,1,.535-.535c0,.16,0,.321,0,.487v.032a14.1,14.1,0,0,0,4.277,10.1,3.544,3.544,0,0,1-.064.47c-.23,1.6-.535,3.368-.9,5.058l-.128.535h-2.673s.454-1.967-3.983.449-9.869,3.577-10.692,4.02-10.858,8.233-10.858,8.233-8.693,5-8.42,13.59h0l-.994,9.623-.722,17.974s-1.358,15.3,0,17.439,3.71,14.846,3.256,16.456c-.326,1.165,2.951,9.356,5.229,14.13a19.367,19.367,0,0,0-1.695,2.053s-.909,3.582-.909,3.94a.071.071,0,0,0,.043.059c-2,2.032-5.2,5.373-5.2,6.111,0,1.069.636,2-.358,1.941s-1.026,1.1-.968,1.812-1.208-.353-1.117.984-9.233,22.358-9.233,22.358-4.25,10.286-5.881,11.986-3.892,9.212-3.71,11.981.273,3.582-.454,3.582-2.171,2.5-2.171,2.5l-7.148,22s-2.085,6.8-2.716,6.71-2.053,11.676-2.053,11.676-1.534,3.486-1.807,3.486c-.053,0,.2.251.663.647l-.31.262a22.691,22.691,0,0,1-2.112,1.6c-.027,0-4.133-2.85-6.95-2.582s-8.6.978-11.5-1.069a15.864,15.864,0,0,0-7.709-2.181c-2.171-.032-3.929.535-4.052,2.181-.273,3.662,9.864,10.553,9.864,10.553s10.692,3.037,12.761,5.881,10.618,7.153,10.618,7.153a12.752,12.752,0,0,0,3.539-2.272h0a1.123,1.123,0,0,0,.353-.85c-.182-1.342,3.528-6.415,3.528-6.415l.535-2.518c.262-1.246.593-2.764.92-4.1q.064-.273.128-.535a3.117,3.117,0,0,0,1.246-.192,6.727,6.727,0,0,0,3.983-5.346l5.416-11.329s2.352-6.528,3.074-7.693,6.335-12.874,6.335-12.874.994-5.009,1.9-6.528.994-4.812.994-4.812,1.9-5.009,3.892-6.977a26.381,26.381,0,0,0,3.71-5.095s8.233-12.97,13.847-16.632c0,0,13.488-16.456,14.3-17.888s3.347-5.186,6.415-1.791,6.33,7.784,6.33,7.784l5.528,15.023,6.154,19.246s2.892,4.646,2.716,5.63,4.7,9.751,4.7,9.751,1.9,3.208,1.54,4.812,1.358,3.208,1.358,3.208l.535,6.528s1.994,6.415,1.449,7.426,1.9,7.153,1.9,7.153,0,5.453.9,7.244,2,8.939,1.914,9.474,0,5.458,0,5.458.636,0,1.647-.032l.043.535.449,5.384.043.5a2.138,2.138,0,0,0-.829,1.572c0,1.454.214,5.726.4,9.089.043.893.091,1.716.134,2.406a1.77,1.77,0,0,0,1.978,1.652,23.85,23.85,0,0,1,7.725.289,28.373,28.373,0,0,0,8.6.631s.2-2.016.23-3.823A7.541,7.541,0,0,0,496.626,320.415Z" transform="translate(-31.516 -30.399)"/><path class="z" d="M458.187,282.045H445.982l-.118-1.438-.444-5.368-.331-4.063h10.692l.652,2.956,1.609,7.271Z"/><path class="z" d="M377.518,290.877a12.728,12.728,0,0,0-.994,3.208c-.69,2.866-1.411,6.592-1.411,6.592l-.449.107-9.516,2.3s-4.988-11.4-2.673-11.671a5.881,5.881,0,0,0,2.261-1.005,21.76,21.76,0,0,0,2.187-1.657c1.267-1.069,2.235-2.064,2.235-2.064S378.143,290.252,377.518,290.877Z" transform="translate(-31.516 -30.399)"/><path class="f" d="M377.518,290.877a12.728,12.728,0,0,0-.994,3.208c-3.288-.192-8.26-4.1-9.623-5.346,1.267-1.069,2.235-2.064,2.235-2.064S378.143,290.252,377.518,290.877Z" transform="translate(-31.516 -30.399)"/><path class="f" d="M487.944,304.526c-2.93.791-8.3,1.032-11.013,1.107l-.331-4.063h10.692Z" transform="translate(-31.516 -30.399)"/><path class="aa" d="M410.4,179.5s-6.683,6.592-6.683,7.661.625,1.994-.353,1.935-1.01,1.1-.952,1.807-1.187-.358-1.1.978-9.089,22.278-9.089,22.278-4.186,10.249-5.79,11.938-3.833,9.179-3.651,11.943.267,3.561-.449,3.561-2.138,2.5-2.138,2.5l-7.036,21.92s-2.053,6.774-2.673,6.683-2.138,11.671-2.138,11.671-1.518,3.475-1.786,3.475,7.752,6.95,11.318,5.528a6.714,6.714,0,0,0,3.919-5.346l5.346-11.227s2.32-6.506,3.031-7.666,6.239-12.831,6.239-12.831.978-4.988,1.871-6.5.978-4.812.978-4.812,1.871-4.993,3.833-6.95a26.356,26.356,0,0,0,3.651-5.079s8.11-12.922,13.633-16.573c0,0,13.275-16.4,14.077-17.824s3.3-5.164,6.33-1.78,6.234,7.752,6.234,7.752l5.437,14.969,6.057,19.156s2.855,4.635,2.673,5.614,4.635,9.714,4.635,9.714,1.871,3.208,1.513,4.812,1.337,3.208,1.337,3.208l.535,6.506s1.962,6.415,1.427,7.394,1.871,7.127,1.871,7.127,0,5.437.893,7.217,1.957,8.912,1.871,9.447,0,5.437,0,5.437,13.446-.091,14.606-2.138-.978-4.544-.978-4.544l-.449-10.783-1.155-26.106s-2.406-8.736-2.764-10.783-3.651-6.325-3.651-6.325a5.1,5.1,0,0,0-.182-3.657c-.893-1.518-2.85-8.639-2.85-8.639l-1.695-19.7-.871-21.47Z" transform="translate(-31.516 -30.399)"/><path class="f" d="M477.76,193.309c-.535-.449-22.454-.626-22.721-.626s-8.554-3.3-8.554-3.3-18.444-3.026-21.294-1.689-11.676-2.5-11.676-2.5V183.5s-4.721-1.6-4.721-1.957.893-3.924.893-3.924l.535-.187,2.042-.7L474.9,186.8s.829,1.7,1.6,3.363S478.032,193.533,477.76,193.309Z" transform="translate(-31.516 -30.399)"/><path class="ab" d="M477.76,192.774c-.535-.449-22.454-.626-22.721-.626s-8.554-3.3-8.554-3.3-18.444-3.026-21.294-1.689-11.676-2.5-11.676-2.5v-1.695s-4.721-1.6-4.721-1.957.893-3.924.893-3.924l.535-.187,2.042-.7L474.9,186.268s.829,1.7,1.6,3.363S478.032,193,477.76,192.774Z" transform="translate(-31.516 -30.399)"/><path class="f" d="M375.62,297.624l-.535,2.518s-.176.246-.449.642l-9.49,2.3s-4.988-11.4-2.673-11.671a5.881,5.881,0,0,0,2.261-1.005c-.487,3.571,2.283,7.33,2.283,7.33C370.926,300.677,375.62,297.624,375.62,297.624Z" transform="translate(-31.516 -30.399)"/><path class="p" d="M375.62,298.164l-.535,2.518s-3.651,5.079-3.475,6.415a1.133,1.133,0,0,1-.348.85h0a12.519,12.519,0,0,1-3.486,2.261s-8.372-4.277-10.425-7.127-12.564-5.881-12.564-5.881-9.976-6.865-9.709-10.516c.118-1.6,1.85-2.2,3.988-2.171a15.437,15.437,0,0,1,7.592,2.171c2.855,2.048,8.554,1.337,11.318,1.069s6.827,2.577,6.827,2.577c-.925,3.742,2.171,7.939,2.171,7.939C370.926,301.217,375.62,298.164,375.62,298.164Z" transform="translate(-31.516 -30.399)"/><path class="ab" d="M371.29,307.942h0A12.519,12.519,0,0,1,367.8,310.2s-8.372-4.277-10.425-7.127-12.564-5.881-12.564-5.881-9.976-6.865-9.709-10.516c.118-1.6,1.85-2.2,3.988-2.171,1.6,2.673,3.972,6.389,5.72,7.426,2.855,1.695,8.468,4.9,8.468,4.9s8.907,5.614,9.532,6.239A39.915,39.915,0,0,0,371.29,307.942Z" transform="translate(-31.516 -30.399)"/><path class="f" d="M489.714,312.438H477.492L477.375,311c1.54-1.449,4.838-2.138,4.838-2.138,2.288-.7,6.506,2.3,7.34,2.924Z" transform="translate(-31.516 -30.399)"/><path class="p" d="M495.365,323.248c-.032,1.8-.23,3.806-.23,3.806a27.6,27.6,0,0,1-8.463-.625,23.1,23.1,0,0,0-7.6-.289,1.748,1.748,0,0,1-1.951-1.647c-.037-.684-.086-1.508-.128-2.4-.182-3.331-.39-7.586-.39-9.035,0-2.491,5.614-3.651,5.614-3.651,2.545-.781,7.485,3.031,7.485,3.031s4.9,7.127,5.437,8.2A7.551,7.551,0,0,1,495.365,323.248Z" transform="translate(-31.516 -30.399)"/><path class="ab" d="M495.365,323.248c-.032,1.8-.23,3.806-.23,3.806a27.6,27.6,0,0,1-8.463-.625,23.1,23.1,0,0,0-7.6-.289,1.748,1.748,0,0,1-1.951-1.647c-.037-.684-.086-1.508-.128-2.4a21.737,21.737,0,0,1,7.185-.123A102.981,102.981,0,0,0,495.365,323.248Z" transform="translate(-31.516 -30.399)"/><path class="f" d="M373.642,269.717s-1.871,3.208,0,4.678S373.642,269.717,373.642,269.717Z" transform="translate(-31.516 -30.399)"/><path class="f" d="M474.151,282.147c.535,1.069,1.957,2.673,1.711,4.544S474.151,282.147,474.151,282.147Z" transform="translate(-31.516 -30.399)"/><path class="z" d="M472.5,86.652s-8.164-.829-16.627-1.951l-.348-.048c-9.826-1.31-19.909-3-17.958-4.24a7.066,7.066,0,0,0,2.208-3.6,31.718,31.718,0,0,0,.946-3.341h0c.043-.176.08-.358.123-.535.369-1.684.663-3.443.893-5.036.454-3.245.642-5.833.642-5.833s20.941-7.934,18.359,1.957a10.8,10.8,0,0,0-.075,4.844,18.546,18.546,0,0,0,1.492,4.437C465.5,80.423,472.5,86.652,472.5,86.652Z" transform="translate(-31.516 -30.399)"/><path class="f" d="M460.742,64.016a10.8,10.8,0,0,0-.075,4.844,14.167,14.167,0,0,1-18.926-.968c.454-3.245.642-5.833.642-5.833S463.325,54.125,460.742,64.016Z" transform="translate(-31.516 -30.399)"/><path class="z" d="M465.907,57.322a14.168,14.168,0,0,1-28.335.032v-.032a14.167,14.167,0,0,1,28.335,0Z" transform="translate(-31.516 -30.399)"/><path class="f" d="M456.065,84.117a2.729,2.729,0,0,1-.187.583l-.348-.048c-9.826-1.31-19.909-3-17.958-4.24a7.066,7.066,0,0,0,2.208-3.6,31.727,31.727,0,0,0,.946-3.341h0c.043-.176.08-.358.123-.535h.412c.032.225,1.069,7.073,10.259,8.244l.31.037C455.418,81.615,456.332,82.792,456.065,84.117Z" transform="translate(-31.516 -30.399)"/><path class="ab" d="M455.53,84.652c-.449,2.219-4.234,4.849-4.234,4.849L440.78,87.539s-6.592-5.881-6.592-6.057,3.919-8.019,3.919-8.019h2.62c.032.225,1.069,7.073,10.259,8.244l.31.037C454.883,82.15,455.8,83.326,455.53,84.652Z" transform="translate(-31.516 -30.399)"/><path class="f" d="M472.5,86.652s-8.388-.85-16.974-2c-.449,2.219-4.234,4.849-4.234,4.849L440.78,87.539s-6.592-5.881-6.592-6.057,3.919-8.019,3.919-8.019h.134a12.487,12.487,0,0,0,1.54,3.347c1.652,2.523,4.812,5.287,10.692,4.94l.492-.037c8.827-.732,10.81-6.843,11.174-8.415C465.5,80.423,472.5,86.652,472.5,86.652Z" transform="translate(-31.516 -30.399)"/><path class="f" d="M476.508,189.63l-.176.647c-2.138-1.6-17.728-2.673-17.728-2.673s-4.1-.481-8.019-1.107a34.084,34.084,0,0,1-6.6-1.476,6.613,6.613,0,0,0-.722-.273c-3.55-1.112-14.435-2.4-14.435-2.4s-5.346,2.406-8.2,1.337-10.96-6.063-10.96-6.063.176-.267.535-.722l2.042-.7,62.642,10.067S475.739,187.968,476.508,189.63Z" transform="translate(-31.516 -30.399)"/><path class="p" d="M477.514,161.456c1.192,7.089,2.748,17.455,1.941,18.958-1.251,2.315-3.122,9.356-3.122,9.356-2.138-1.6-17.728-2.673-17.728-2.673s-4.1-.481-8.019-1.107a34.084,34.084,0,0,1-6.6-1.476,6.616,6.616,0,0,0-.722-.273c-3.55-1.112-14.435-2.4-14.435-2.4s-5.346,2.406-8.2,1.337-10.96-6.063-10.96-6.063a26.255,26.255,0,0,1,4.01-4.363c2.759-2.5,7.838-23.972,7.709-24.24a47.458,47.458,0,0,1-1.026-11.136c.358-4.01-1.069-23.614-1.069-23.614s-14.333-5.549-14.585-14.1S413,86.117,413,86.117s9.891-7.752,10.692-8.2,6.148-1.6,10.516-4.01,3.919-.444,3.919-.444,1.786,9.447,12.387,8.821,11.762-8.821,11.762-8.821c1.139-2.85,10.27,5.614,10.27,5.614s2.315,4.812,9.623,8.73c5.346,2.866,6.726,10.243,7.089,14.012.134,1.4.128,2.294.128,2.294l-21.476,15.418,8.442,35.194S476.883,157.6,477.514,161.456Z" transform="translate(-31.516 -30.399)"/><path class="z" d="M424.388,179.767s7.041,12.115,14.344,8.73a8.554,8.554,0,0,0,3.9-3.571,8.846,8.846,0,0,0-5.581-12.831,14.8,14.8,0,0,0-6.073-.535C425.9,172.458,424.388,179.767,424.388,179.767Z" transform="translate(-31.516 -30.399)"/><path class="f" d="M424.388,179.767s7.041,12.115,14.344,8.73a8.554,8.554,0,0,0,3.9-3.571,8.846,8.846,0,0,0-5.581-12.831,14.8,14.8,0,0,0-6.073-.535C425.9,172.458,424.388,179.767,424.388,179.767Z" transform="translate(-31.516 -30.399)"/><path class="f" d="M414.054,91.287s5.555,3.742,5.672,9.623Z" transform="translate(-31.516 -30.399)"/><path class="f" d="M422.784,94.136c0,.358-1.6,25.127,1.246,33.59S422.784,94.136,422.784,94.136Z" transform="translate(-31.516 -30.399)"/><path class="f" d="M465.907,57.322a14.066,14.066,0,0,1-2.294,7.731v-.535a9.449,9.449,0,0,0-1.641-4.111,8.185,8.185,0,0,0-2.138-2.641,4.057,4.057,0,0,1-.722-.535,3.783,3.783,0,0,1-.535-2.138,4.774,4.774,0,0,0-3.844-4.01,1.6,1.6,0,0,0-1.2.171c-.363.257-.535.732-.839,1.026a2.149,2.149,0,0,1-1.855.257c-1.4-.278-2.86-.786-4.218-.337-2.331.775-3.208,4-5.6,4.6a13.7,13.7,0,0,1-2.138.15,2.956,2.956,0,0,0-1.3.4v-.032a14.167,14.167,0,0,1,28.335,0Z" transform="translate(-31.516 -30.399)"/><path class="ac" d="M437.711,47.918c.444-.593,1.155-.952,1.556-1.577.609-.957.31-2.219.609-3.315a6.268,6.268,0,0,1,2.673-3.079c1.6-1.155,3.341-2.358,5.293-2.224,1.337.1,2.55.823,3.876,1.037,2.069.337,4.143-.593,6.239-.535a6.555,6.555,0,0,1,5.207,3.037c.829,1.326,1.267,3.053,2.673,3.742.535.273,1.133.358,1.657.631a3.577,3.577,0,0,1,1.705,2.785,12.579,12.579,0,0,1-.235,3.373,6.015,6.015,0,0,0-.075,1.695c.1.7.428,1.353.5,2.058.16,1.6-1.069,3.01-1.962,4.384a12.166,12.166,0,0,0-1.663,4.031,6.58,6.58,0,0,1-.567,1.946,1.679,1.679,0,0,1-1.657.936c-.1-.968.139-1.946.075-2.919a9.4,9.4,0,0,0-1.641-4.106,8.154,8.154,0,0,0-2.139-2.646,3.786,3.786,0,0,1-.716-.535,3.689,3.689,0,0,1-.535-2.138,4.774,4.774,0,0,0-3.844-4,1.6,1.6,0,0,0-1.2.166c-.364.257-.535.732-.839,1.026a2.132,2.132,0,0,1-1.855.257c-1.4-.273-2.86-.786-4.218-.337-2.331.775-3.208,4-5.6,4.6a13.019,13.019,0,0,1-2.138.15,2.256,2.256,0,0,0-1.839.957,2.876,2.876,0,0,1-.219-2.94,5.653,5.653,0,0,0,.583-3.144C437.214,50.03,436.946,48.939,437.711,47.918Z" transform="translate(-31.516 -30.399)"/><path class="f" d="M385.671,242.317s-5.079,2.673-2.406,3.208S385.671,242.317,385.671,242.317Z" transform="translate(-31.516 -30.399)"/><path class="f" d="M469.339,248.733s2.807-3.742,5.881-1.47S469.339,248.733,469.339,248.733Z" transform="translate(-31.516 -30.399)"/><path class="f" d="M475.862,251.139s3.5-1.2,5.64,0Z" transform="translate(-31.516 -30.399)"/><path class="f" d="M406.655,190.459s7.485,7.217,9.891,7.485S406.655,190.459,406.655,190.459Z" transform="translate(-31.516 -30.399)"/><path class="f" d="M407.724,95.564l-1.946,4.1-.984,9.623-.711,17.91s-1.337,15.237,0,17.375,3.651,14.793,3.208,16.4,5.881,16.573,7.041,17.466,5.255,1.069,7.57.62l4.234,4.026,11.986-11.061-7.4-5.614s1.695-2.855-3.026-5.972c0,0-2.138-3.566-2.229-5.437a39.733,39.733,0,0,0-1.962-11.227c-1.689-4.988-2.673-32.7-2.673-32.7S416.813,90.838,407.724,95.564Z" transform="translate(-31.516 -30.399)"/><path class="p" d="M406.655,95.564l-1.946,4.1-.984,9.623-.711,17.91s-1.337,15.237,0,17.375,3.651,14.793,3.208,16.4,5.881,16.573,7.041,17.466,5.255,1.069,7.57.62l4.234,4.026,11.986-11.061-7.4-5.614s1.695-2.855-3.026-5.972c0,0-2.138-3.566-2.229-5.437a39.734,39.734,0,0,0-1.962-11.227c-1.689-4.988-2.673-32.7-2.673-32.7S415.743,90.838,406.655,95.564Z" transform="translate(-31.516 -30.399)"/><path class="f" d="M425.281,162.568c-.535.267-11.318,10.249-7.308,10.516S425.281,162.568,425.281,162.568Z" transform="translate(-31.516 -30.399)"/><path class="z" d="M439,174.6s-15.413,1.6-14.611,7.843,11.762,12.248,15.237,10.356,6.415-3.7,6.415-3.7Z" transform="translate(-31.516 -30.399)"/><path class="f" d="M486.046,99.841l2.229,4.277s2.315,18.263,0,25.3-7.928,23.256-7.928,23.256-6.774,11.853-6.95,12.387-13.013,19.065-15.328,20.048-6.683.465-6.95-.615-6.148,4.6-6.148,4.6-11.334-13.7-9.532-15.124,7.26-1.78,7.26-1.78.4,1.337.845-1.427,2.5-4.186,4.01-4.01.893-1.422,1.16-3.117,4.453-4.721,4.453-4.721,2.053-3.3,2.053-5.261S459.5,150,459.85,150s.267-.8.267-3.651,2.138-7.934,2.138-7.934l1.32-16.039,2.32-16.306S472.237,86.208,486.046,99.841Z" transform="translate(-31.516 -30.399)"/><path class="f" d="M476.348,154.725s.535,2.871,1.182,6.7c-1.069,1.919-1.919,3.448-1.983,3.63-.176.535-13.007,19.07-15.322,20.048s-6.683.465-6.95-.609c-.118-.481-1.342.369-2.673,1.465-1.657,1.369-3.48,3.128-3.48,3.128s-1.8-2.171-3.844-4.876c-3.1-4.085-6.774-9.383-5.694-10.243,1.8-1.427,7.266-1.78,7.266-1.78s.4,1.337.845-1.427,2.5-4.186,4.01-4.01.893-1.427,1.16-3.117,4.453-4.726,4.453-4.726,2.048-3.293,2.048-5.255S461.641,150,462,150s.267-.8.267-3.657,2.138-7.928,2.138-7.928l1.32-16.039,2.315-16.306s6.33-19.872,20.139-6.239l1.032,1.983c.134,1.4.128,2.294.128,2.294l-21.476,15.418Z" transform="translate(-31.516 -30.399)"/><path class="p" d="M487.115,99.841l2.229,4.277s2.315,18.263,0,25.3-7.928,23.256-7.928,23.256-6.774,11.853-6.95,12.387-13.013,19.065-15.328,20.048-6.683.465-6.95-.615-6.148,4.6-6.148,4.6-11.334-13.7-9.532-15.124,7.26-1.78,7.26-1.78.4,1.337.845-1.427,2.5-4.186,4.01-4.01.893-1.422,1.16-3.117,4.453-4.721,4.453-4.721,2.053-3.3,2.053-5.261,4.277-3.651,4.63-3.651.267-.8.267-3.651,2.138-7.934,2.138-7.934l1.32-16.039,2.32-16.306S473.306,86.208,487.115,99.841Z" transform="translate(-31.516 -30.399)"/><path class="f" d="M447.377,171.443s.535,1.2,2.94,1.641S447.377,171.443,447.377,171.443Z" transform="translate(-31.516 -30.399)"/><path class="f" d="M476.156,99.926c-.086.267-8.019,9.233-6.415,11.569S476.156,99.926,476.156,99.926Z" transform="translate(-31.516 -30.399)"/><path class="f" d="M467.158,141.092s4.544,4.459,3.651,6.6S467.158,141.092,467.158,141.092Z" transform="translate(-31.516 -30.399)"/><path class="f" d="M467.869,132.629c.267.444,10.072,1.6,10.607,5.346S467.869,132.629,467.869,132.629Z" transform="translate(-31.516 -30.399)"/><g class="t"><path d="M468.863,52.489a4.193,4.193,0,0,1,.08-.62,14.057,14.057,0,0,0,.257-3.1c-.043.679-.16,1.358-.257,2.026a5.993,5.993,0,0,0-.08,1.689Z" transform="translate(-31.516 -30.399)"/><path d="M437.422,51.441a3.742,3.742,0,0,0,0-1.192c-.064-.38-.134-.759-.171-1.139a7.211,7.211,0,0,0,.171,2.208Z" transform="translate(-31.516 -30.399)"/><path d="M469.339,55.4a10.673,10.673,0,0,1-1.919,3.539,11.981,11.981,0,0,0-1.663,4.026,6.862,6.862,0,0,1-.567,1.946,1.668,1.668,0,0,1-1.657.936.2.2,0,0,0,0-.053,7.152,7.152,0,0,0,0,1.123,1.668,1.668,0,0,0,1.657-.936,6.863,6.863,0,0,0,.567-1.946,11.98,11.98,0,0,1,1.663-4.026c.887-1.374,2.139-2.759,1.957-4.389C469.4,55.547,469.35,55.478,469.339,55.4Z" transform="translate(-31.516 -30.399)"/><path d="M463.608,62.936a9.424,9.424,0,0,0-1.641-4.111,8.206,8.206,0,0,0-2.138-2.673,4.031,4.031,0,0,1-.722-.535,3.783,3.783,0,0,1-.535-2.138,4.774,4.774,0,0,0-3.844-4,1.6,1.6,0,0,0-1.2.166c-.364.257-.535.732-.839,1.032a2.171,2.171,0,0,1-1.855.257c-1.4-.278-2.86-.791-4.218-.337-2.331.77-3.208,3.994-5.6,4.592a13.584,13.584,0,0,1-2.139.155,2.224,2.224,0,0,0-1.834.952,1.807,1.807,0,0,1-.465-.936,2.3,2.3,0,0,0,.465,2,2.224,2.224,0,0,1,1.834-.952,13.585,13.585,0,0,0,2.138-.155c2.384-.6,3.272-3.823,5.6-4.592,1.358-.454,2.817.059,4.218.337a2.171,2.171,0,0,0,1.855-.257c.331-.3.476-.775.839-1.032a1.6,1.6,0,0,1,1.2-.166,4.774,4.774,0,0,1,3.844,4,3.808,3.808,0,0,0,.535,2.138,4.033,4.033,0,0,0,.722.535,8.206,8.206,0,0,1,2.138,2.673,9.426,9.426,0,0,1,1.6,3.988,7,7,0,0,0,.037-.946Z" transform="translate(-31.516 -30.399)"/></g><path class="ad" d="M287.894,108.9V165a.882.882,0,0,0,.9.893c15.451-.481,28.335-13.253,28.335-28.944S304.253,108.48,288.792,108a.877.877,0,0,0-.9.893Z" transform="translate(-31.516 -30.399)"/><path class="ae" d="M249.31,185.514V139.082a33.975,33.975,0,0,1,6.774-20.61c4.207-5.528,10.757-10.532,20.658-10.468a1.016,1.016,0,0,1,1.021,1.01v47.8s1.6,26.122-27.886,29.212a.535.535,0,0,1-.567-.508Z" transform="translate(-31.516 -30.399)"/><circle class="d" cx="16.841" cy="16.841" r="16.841" transform="translate(79.386 38.685)"/><circle class="d" cx="10.425" cy="10.425" r="10.425" transform="translate(50.516 5.004)"/><circle class="d" cx="6.415" cy="6.415" r="6.415" transform="translate(0 32.27)"/><path class="e" d="M250.641,389.627a9.186,9.186,0,0,0-1.219,2.294c-.075.2-.15.428-.225.647a1.97,1.97,0,0,0-.422-.144,5.909,5.909,0,0,0-1.909-.166c0-.246.032-.535.037-.781.08-2.817-.251-6.747-2.94-5.084-2.577,1.6-.738,4.277.925,5.993l.428.417c-1.518,1.069-1.807,3.6-2.058,6.223s-2.481,5.5-3.962,7.132c-.15.166-.283.315-.417.454a5.4,5.4,0,0,0-4.3-1.107c-.059-.23-.123-.47-.2-.727-1.192-4.346-3.678-11.831-6.854-13.435l.417-.535c1.347-1.764,2.866-4.384.626-5.052s-2.443,2.272-2.32,4.475c0,.273.043.535.064.781a3.282,3.282,0,0,0-2.342,1.144l-.348-.406c-1.818-2.138-5.148-5.544-6.159-2.973-.936,2.4,1.994,5.5,4.058,7.3l.128.112c-1.385,5.624,4.662,10.206,7.918,12.211l.422.257c-4.491,5.293-7.266,15.21-7.266,15.21l12.58,2.245s8.335-7.2,7.266-13.948h.086c8.335-1.668,10.227-10.553,8.934-15.83a.344.344,0,0,0,.144-.064,9.463,9.463,0,0,0,3.86-2.914C257.923,390.1,253.037,386.446,250.641,389.627Z" transform="translate(-31.516 -30.399)"/><path class="f" d="M250.641,389.627a9.186,9.186,0,0,0-1.219,2.294c-.075.2-.15.428-.225.647a1.97,1.97,0,0,0-.422-.144,5.909,5.909,0,0,0-1.909-.166c0-.246.032-.535.037-.781.08-2.817-.251-6.747-2.94-5.084-2.577,1.6-.738,4.277.925,5.993l.428.417c-1.518,1.069-1.807,3.6-2.058,6.223s-2.481,5.5-3.962,7.132c-.15.166-.283.315-.417.454a5.4,5.4,0,0,0-4.3-1.107c-.059-.23-.123-.47-.2-.727-1.192-4.346-3.678-11.831-6.854-13.435l.417-.535c1.347-1.764,2.866-4.384.626-5.052s-2.443,2.272-2.32,4.475c0,.273.043.535.064.781a3.282,3.282,0,0,0-2.342,1.144l-.348-.406c-1.818-2.138-5.148-5.544-6.159-2.973-.936,2.4,1.994,5.5,4.058,7.3l.128.112c-1.385,5.624,4.662,10.206,7.918,12.211l.422.257c-4.491,5.293-7.266,15.21-7.266,15.21l12.58,2.245s8.335-7.2,7.266-13.948h.086c8.335-1.668,10.227-10.553,8.934-15.83a.344.344,0,0,0,.144-.064,9.463,9.463,0,0,0,3.86-2.914C257.923,390.1,253.037,386.446,250.641,389.627Z" transform="translate(-31.516 -30.399)"/><path class="e" d="M225.61,393.252l-1.47,4.277s-.818-.577-1.85-1.486c-2.064-1.8-4.993-4.908-4.058-7.3,1.01-2.572,4.341.823,6.159,2.973C225.124,392.589,225.61,393.252,225.61,393.252Z" transform="translate(-31.516 -30.399)"/><path class="e" d="M228.711,390.809a20.787,20.787,0,0,1-1.433,1.684,22.573,22.573,0,0,1-.262-2.261c-.123-2.2.112-5.127,2.32-4.475S230.059,389.034,228.711,390.809Z" transform="translate(-31.516 -30.399)"/><path class="e" d="M247.674,391.477c-.043,1.417-.182,2.545-.182,2.545a18.179,18.179,0,0,1-1.834-1.609c-1.663-1.727-3.5-4.389-.925-5.993C247.423,384.73,247.754,388.67,247.674,391.477Z" transform="translate(-31.516 -30.399)"/><path class="e" d="M256.362,393.332a9.462,9.462,0,0,1-3.86,2.914,10.366,10.366,0,0,1-1.294.47l-1.732-2.432a17.667,17.667,0,0,1,.716-2.363,9.186,9.186,0,0,1,1.219-2.293C253.806,386.446,258.693,390.1,256.362,393.332Z" transform="translate(-31.516 -30.399)"/><path class="f" d="M224.391,391.739c.732.85,1.219,1.513,1.219,1.513l-1.47,4.277s-.818-.577-1.85-1.486a8.421,8.421,0,0,1,1.657-3.78C224.092,392.092,224.247,391.9,224.391,391.739Z" transform="translate(-31.516 -30.399)"/><path class="f" d="M228.711,390.809a20.787,20.787,0,0,1-1.433,1.684,22.573,22.573,0,0,1-.262-2.261A2.919,2.919,0,0,1,228.711,390.809Z" transform="translate(-31.516 -30.399)"/><path class="e" d="M235.945,407.879l-3.662,1.6s-.8-.385-1.946-1.1c-3.844-2.368-11.569-8.319-6.389-15.333s9.5,5.565,11.2,11.719C235.667,406.617,235.945,407.879,235.945,407.879Z" transform="translate(-31.516 -30.399)"/><path class="f" d="M245.659,392.412a2.989,2.989,0,0,1,2.016-.909c-.043,1.417-.182,2.545-.182,2.545A18.18,18.18,0,0,1,245.659,392.412Z" transform="translate(-31.516 -30.399)"/><path class="f" d="M252.5,396.246a10.36,10.36,0,0,1-1.294.47l-1.732-2.432a17.667,17.667,0,0,1,.716-2.363C251.31,392.578,252.133,394.2,252.5,396.246Z" transform="translate(-31.516 -30.399)"/><path class="e" d="M243.424,412.14l-.615.107c-12.259,1.866-4.042-4.753-4.042-4.753s.535-.535,1.3-1.337c1.481-1.631,3.7-4.491,3.962-7.132.385-3.972.829-7.7,5.517-6.6C254.149,393.482,255.015,409.814,243.424,412.14Z" transform="translate(-31.516 -30.399)"/><rect class="af" width="23.422" height="6.159" transform="translate(188.262 412.263)"/><rect class="af" width="30.602" height="21.492" transform="translate(184.541 392.247)"/><rect class="f" width="23.422" height="6.159" transform="translate(188.262 412.263)"/><rect class="f" width="30.602" height="21.492" transform="translate(184.541 392.247)"/><rect class="af" width="23.422" height="6.159" transform="translate(189.801 412.263)"/><path class="f" d="M235.148,404.778c.535,1.839.8,3.1.8,3.1l-3.662,1.6s-.8-.385-1.946-1.1A9.4,9.4,0,0,1,235.148,404.778Z" transform="translate(-31.516 -30.399)"/><path class="f" d="M243.424,412.14l-.615.107c-12.259,1.866-4.042-4.753-4.042-4.753s.535-.535,1.3-1.337A8.117,8.117,0,0,1,243.424,412.14Z" transform="translate(-31.516 -30.399)"/><path class="e" d="M223.472,423.859s6.865-24.593,16.493-17-3.913,19.246-3.913,19.246Z" transform="translate(-31.516 -30.399)"/><circle class="f" cx="0.77" cy="0.77" r="0.77" transform="translate(194.677 365.746)"/><circle class="f" cx="0.77" cy="0.77" r="0.77" transform="translate(194.613 369.338)"/><circle class="f" cx="0.77" cy="0.77" r="0.77" transform="translate(216.939 366.451)"/><circle class="f" cx="0.77" cy="0.77" r="0.77" transform="translate(198.976 384.869)"/><circle class="f" cx="0.77" cy="0.77" r="0.77" transform="translate(215.335 372.418)"/><circle class="f" cx="0.77" cy="0.77" r="0.77" transform="translate(207.38 380.378)"/><circle class="f" cx="0.77" cy="0.77" r="0.77" transform="translate(197.308 367.285)"/><circle class="f" cx="0.77" cy="0.77" r="0.77" transform="translate(214.822 368.761)"/><circle class="f" cx="0.77" cy="0.77" r="0.77" transform="translate(212.191 374.727)"/><circle class="f" cx="0.77" cy="0.77" r="0.77" transform="translate(204.108 384.292)"/><circle class="f" cx="0.77" cy="0.77" r="0.77" transform="translate(202.44 380.506)"/><circle class="f" cx="0.77" cy="0.77" r="0.77" transform="translate(198.462 371.969)"/><rect class="f" width="23.422" height="2.251" transform="translate(189.801 412.263)"/><rect class="af" width="30.602" height="21.492" transform="translate(186.081 392.247)"/><circle class="f" cx="0.77" cy="0.77" r="0.77" transform="translate(205.134 387.756)"/><circle class="f" cx="0.77" cy="0.77" r="0.77" transform="translate(200.515 388.718)"/></g></g></svg>