<svg xmlns="http://www.w3.org/2000/svg" xmlns:xlink="http://www.w3.org/1999/xlink" width="591.092" height="420.37" viewBox="0 0 591.092 420.37"><defs><style>.a,.n{fill:#fff;}.a{stroke:#707070;}.b{clip-path:url(#a);}.c,.d{fill:#f54747;}.c{opacity:0.18;}.e{fill:url(#b);}.f{fill:#3e3e54;}.g{fill:url(#c);}.h{fill:url(#d);}.i{fill:url(#e);}.j{fill:url(#f);}.k{fill:url(#g);}.l{fill:url(#h);}.m{fill:url(#i);}.o{fill:url(#j);}.p{fill:url(#k);}.q{fill:url(#l);}.r{fill:url(#m);}.s{fill:url(#n);}.t{fill:url(#o);}.u{fill:url(#p);}.v{fill:url(#q);}.w{fill:url(#r);}.x{fill:url(#s);}.y{fill:#08114f;}.z{fill:url(#t);}.aa{fill:url(#u);}</style><clipPath id="a"><rect class="a" width="591.092" height="420.37" transform="translate(1274 1528)"/></clipPath><linearGradient id="b" x1="0.682" y1="-0.023" x2="-0.181" y2="1.819" gradientUnits="objectBoundingBox"><stop offset="0" stop-opacity="0"/><stop offset="0.99"/></linearGradient><linearGradient id="c" x1="1.197" y1="1.088" x2="0.018" y2="-0.137" xlink:href="#b"/><linearGradient id="d" y1="0.5" x2="0.997" y2="0.5" gradientUnits="objectBoundingBox"><stop offset="0" stop-color="#e5c5d5"/><stop offset="0.42" stop-color="#ead4d1"/><stop offset="1" stop-color="#f0e9cb"/></linearGradient><linearGradient id="e" x1="0" y1="0.498" x2="0.996" y2="0.498" xlink:href="#d"/><linearGradient id="f" x1="0" y1="0.5" x2="1" y2="0.5" xlink:href="#b"/><linearGradient id="g" x1="0.494" y1="1.389" x2="0.51" y2="-1.128" xlink:href="#b"/><linearGradient id="h" x1="-0.005" y1="0.501" x2="1.001" y2="0.501" xlink:href="#d"/><linearGradient id="i" x1="-0.002" y1="0.5" x2="1" y2="0.5" xlink:href="#d"/><linearGradient id="j" x1="0.052" y1="0.57" x2="1.528" y2="0.229" xlink:href="#b"/><linearGradient id="k" x1="0.003" y1="0.498" x2="1" y2="0.498" xlink:href="#d"/><linearGradient id="l" x1="0.724" y1="0.942" x2="-0.052" y2="-0.286" xlink:href="#b"/><linearGradient id="m" x1="0.002" y1="0.499" x2="1.001" y2="0.499" xlink:href="#d"/><linearGradient id="n" x1="-0.002" y1="0.502" x2="1" y2="0.502" gradientUnits="objectBoundingBox"><stop offset="0" stop-color="#867580"/><stop offset="0.57" stop-color="#9b8f8e"/></linearGradient><linearGradient id="o" x1="0.291" y1="1.351" x2="0.697" y2="-1.001" xlink:href="#b"/><linearGradient id="p" x1="0.001" y1="0.499" x2="0.999" y2="0.499" xlink:href="#n"/><linearGradient id="q" x1="-0.349" y1="0.117" x2="2.003" y2="1.3" xlink:href="#b"/><linearGradient id="r" x1="0.002" y1="0.497" x2="0.999" y2="0.497" xlink:href="#n"/><linearGradient id="s" x1="0" y1="0.501" x2="1.002" y2="0.501" xlink:href="#d"/><linearGradient id="t" x1="-0.001" y1="0.502" x2="1" y2="0.502" xlink:href="#d"/><linearGradient id="u" x1="1.719" y1="0.581" x2="-1.813" y2="0.395" xlink:href="#b"/></defs><g class="b" transform="translate(-1274 -1528)"><g transform="translate(1282.637 1527.98)"><path class="c" d="M15.182,323.752c-3.16-38.218-6-78.461,10.2-113.21,9.171-19.67,23.849-36.116,36.219-53.954,14.885-21.424,26.558-44.99,42.01-66.04s35.677-39.985,60.855-46.886c51.7-14.188,105.69,25.8,158.29,15.478,23.32-4.579,43.558-18.6,65.782-27.087,23.565-9.029,50.072-11.738,74.2-4.347s45.415,25.629,53.5,49.53c9.235,27.267.967,57.682,7.739,85.659,6.875,28.57,28.377,51.013,42.565,76.746a162.6,162.6,0,0,1,18.961,96.61c-2,17.026-6.939,34.181-17.5,47.724-11.518,14.743-28.673,23.927-45.867,31.3a356.913,356.913,0,0,1-224.408,18.367c-26.648-6.578-52.781-16.278-80.164-18.058-27.616-1.819-55.025,4.527-82.55,7.662-26.6,3.044-66,3.56-89.451-11.789C20.315,394.835,17.4,350.4,15.182,323.752Z" transform="translate(-12.744 -23.424)"/><path class="d" d="M145.4,223.414a2.36,2.36,0,0,1,1.857.181,2.244,2.244,0,0,1,.671,1.29,25,25,0,0,1,.787,5.521,4.979,4.979,0,0,1-.361,2.386,5.508,5.508,0,0,1-1.844,1.9A251.239,251.239,0,0,1,117.441,253.2c-.426.232-4.3-12.9-4.36-14.188-.206-3.457.89-5.018,3.87-6.578C125.476,228.019,136.066,225.207,145.4,223.414Z" transform="translate(-12.744 -23.424)"/><path class="e" d="M145.4,223.518a2.309,2.309,0,0,1,1.857.181,2.244,2.244,0,0,1,.671,1.29,25,25,0,0,1,.787,5.521,5,5,0,0,1-.361,2.386,5.482,5.482,0,0,1-1.844,1.883A249.617,249.617,0,0,1,117.441,253.3c-.426.232-4.3-12.9-4.36-14.188-.206-3.457.89-5.018,3.87-6.578C125.476,228.109,136.066,225.31,145.4,223.518Z" transform="translate(-12.744 -23.424)"/><path class="f" d="M217.184,345.15a10.32,10.32,0,0,1,3.418,1.29,3.263,3.263,0,0,1,1.522,3.121c-.387,2-2.928,2.58-4.953,2.7a117.38,117.38,0,0,1-24.069-1.148c-.735-.116-1.625-.181-2.09.4s-.31,1.032-.477,1.548c-.555,1.741-3.2,1.844-4.54.606a9.029,9.029,0,0,1-2.077-4.94,72.3,72.3,0,0,0-7.326-19.812,19.349,19.349,0,0,1-2.064-4.6c-1.083-4.5,3.573-8.255,7.468-5.366,3.5,2.58,5.856,7.881,9.029,11.041a59.191,59.191,0,0,0,26.158,15.169Z" transform="translate(-12.744 -23.424)"/><path class="f" d="M170.866,395.7a14.769,14.769,0,0,0,.284,5.159,4,4,0,0,0,3.766,3.005c2.3-.206,3.379-2.889,3.973-5.159,8.268,6.746,20.031,7.184,30.582,5.533a1.858,1.858,0,0,0,1.29-.542c.684-.864-.5-1.973-1.5-2.451L191.916,393c-4.089-1.948-8.345-4.037-10.977-7.739-1.948-2.722-5.675-16.51-10.8-9.029C166.726,381.227,171.06,390.282,170.866,395.7Z" transform="translate(-12.744 -23.424)"/><path class="d" d="M112.836,310.311l26.21,9.326a8.939,8.939,0,0,1,4.282,2.5,9.029,9.029,0,0,1,1.419,3.87,506.541,506.541,0,0,1,7.365,52.484,55.747,55.747,0,0,0,24.894.387,2.657,2.657,0,0,0,1.883-1.032,2.58,2.58,0,0,0,.206-1.29c-.335-20.354-2.58-40.966-10.319-59.823a21.54,21.54,0,0,0-5.263-8.436c-2.58-2.219-5.895-3.225-9.029-4.5-5.159-2.141-10.228-5.159-15.852-5.637-8.281-.645-15.917,4.54-21.76,10.448C115.686,308.506,113.881,309.744,112.836,310.311Z" transform="translate(-12.744 -23.424)"/><path class="g" d="M112.629,310.118l26.21,9.313a9.029,9.029,0,0,1,4.282,2.5,8.771,8.771,0,0,1,1.419,3.87,509.817,509.817,0,0,1,7.378,52.471,55.7,55.7,0,0,0,24.881.4,2.58,2.58,0,0,0,1.883-1.032,2.786,2.786,0,0,0,.219-1.29c-.335-20.341-2.657-40.966-10.319-59.81a21.385,21.385,0,0,0-5.275-8.448c-2.58-2.206-5.882-3.212-9.029-4.489-5.159-2.141-10.228-5.159-15.852-5.637-8.281-.658-15.917,4.54-21.76,10.448C115.48,308.273,113.687,309.563,112.629,310.118Z" transform="translate(-12.744 -23.424)"/><rect class="d" width="5.121" height="59.075" transform="translate(73.986 307.319)"/><rect class="d" width="36.103" height="7.223" transform="translate(56.186 366.884)"/><rect class="d" width="5.121" height="59.075" transform="translate(232.224 284.837)"/><rect class="d" width="36.103" height="7.223" transform="translate(214.411 344.402)"/><path class="f" d="M229.3,285.495a24.947,24.947,0,0,0-1.432,4.321,3.87,3.87,0,0,0,1.548,3.986,3.663,3.663,0,0,0,1.47.387,4.992,4.992,0,0,0,3.947-1.612,8.913,8.913,0,0,0,1.806-4.334,39.521,39.521,0,0,0,.555-11.364c-.284-2.954-3.276-6.449-5.637-3.109C229.464,276.775,230.47,282.051,229.3,285.495Z" transform="translate(-12.744 -23.424)"/><path class="f" d="M218.552,282.812c-3.328,3.018,1.509,14.923,4.14,18.561s4.7,7.739,9.029,8.887a82.629,82.629,0,0,0,16.252,2.025c11.776.645,23.591.98,35.381.5a74.5,74.5,0,0,0,15.478-1.87c3.276-.838,6.785-2.36,8.074-5.482,1.2-2.9,0-6.359-2.18-8.59a19.076,19.076,0,0,0-8.2-4.4c-10.744-3.341-22.108-3.586-33.278-3.766-5.495-.077-11.054,0-16.536-.58-3.47-.348-6.823-1.135-10.319-.89C231.76,287.546,222.176,279.549,218.552,282.812Z" transform="translate(-12.744 -23.424)"/><path class="f" d="M239.679,302.972c4.308,2.863,9.493,2.825,14.433,2.734l28.273-.58c3.238-.064,6.578-.155,9.545-1.715,5-2.58,8.126-9.842,6.54-16.072a6.449,6.449,0,0,0-2.128-3.689,6.024,6.024,0,0,0-3.934-.684c-14.666.826-33.343-4.257-48.008-3.431-3.431.193-8.5,4.76-10.938,8.823C230.612,293.118,236.429,300.818,239.679,302.972Z" transform="translate(-12.744 -23.424)"/><path class="f" d="M253.648,364.511c.116,1.728.439,3.741,2.038,4.527a5.468,5.468,0,0,0,2.283.387l9.725.3a2.5,2.5,0,0,0,1.6-.322,2.206,2.206,0,0,0,.7-1.445c2.167-11.48,2.077-67.24,3.87-81.454.838-6.939-5.533-9.2-13.866-10.551-7.2-1.174-8.823,3.6-8.681,9.4.451,17.065.142,34.116.851,51.181Q252.668,350.529,253.648,364.511Z" transform="translate(-12.744 -23.424)"/><path class="f" d="M279.9,375.165c.129,1.793.439,3.87,2.051,4.734a5.249,5.249,0,0,0,2.283.413l9.713.3a2.373,2.373,0,0,0,1.612-.322,2.412,2.412,0,0,0,.684-1.509c2.18-12.034,2.09-70.451,3.87-85.336.838-7.275-5.533-9.648-13.853-11.067-7.21-1.225-8.835,3.779-8.681,9.854.451,17.877.142,35.742.838,53.619Q278.929,360.512,279.9,375.165Z" transform="translate(-12.744 -23.424)"/><path class="f" d="M451.679,255.39c-2.154,30.337-19.348,59.165-15.775,89.374,1.006,8.629,3.728,17.181,2.941,25.8-.838,9.106-.258,18.29-.258,27.435a4.979,4.979,0,0,0,.374,2.347,4.244,4.244,0,0,0,1.767,1.561,12.241,12.241,0,0,0,8.526,1.148A373.464,373.464,0,0,0,453.239,356c.1-4.992.116-10.061,1.47-14.859a53.952,53.952,0,0,1,4.14-9.648q6.449-12.628,12.769-25.32l4.192-8.345,3.87-7.739c3.109-6.527,5.933-13.44,5.83-20.638-.077-5.056-1.909-10.435-6.088-13.273-3.018-2.051-6.81-2.58-10.448-2.7C463.842,253.223,456.748,254.758,451.679,255.39Z" transform="translate(-12.744 -23.424)"/><path class="f" d="M482.209,294.5c-.8,7.12-2.5,14.111-3.3,21.231-.568,5.159-.671,10.319-.735,15.478q-.464,33.536.606,67.072c0,1.664,0,3.508-1.045,4.76-1.677,1.9-4.721,1.29-7.133.568-1.29-18.935-6.772-40.824-8.023-59.746-.722-10.77-5.869-21.592-5.533-32.375.335-10.319,10.319-17.723,14.253-27.28,1.187-2.9,5.817-12.9,10.461-8.629C484.983,278.607,482.661,290.486,482.209,294.5Z" transform="translate(-12.744 -23.424)"/><path class="h" d="M437.916,411.874c-.864.774-2.1,1.445-2.128,2.58a2.863,2.863,0,0,0,.477,1.419,2.038,2.038,0,0,0,1.032,1.109,2.012,2.012,0,0,0,1.032,0l5.159-1.135a6.734,6.734,0,0,0,2.386-.877c1.664-1.187,1.819-3.547,1.832-5.585v-3.173c0-2.09-.064-4.8-2.128-5.985a2.954,2.954,0,0,0-4.063.8C439.4,404.264,441.128,408.946,437.916,411.874Z" transform="translate(-12.744 -23.424)"/><path class="f" d="M430.809,415.021a2.58,2.58,0,0,0-1.109,1.29,1.832,1.832,0,0,0,.709,1.844,4.256,4.256,0,0,0,1.922.761,26.705,26.705,0,0,0,4.54.322l8.229.1a2.709,2.709,0,0,0,1.832-.413,2.58,2.58,0,0,0,.709-1.664,16.764,16.764,0,0,0,.1-3.689.813.813,0,0,0-.245-.593.7.7,0,0,0-.58-.064c-2.657.451-6.578,2.915-9.029,1.045-.838-.645-1.29-1.122-2.464-.954a11.776,11.776,0,0,0-4.618,2.012Z" transform="translate(-12.744 -23.424)"/><path class="i" d="M463.391,412.2a1.421,1.421,0,0,0-.864,1.29c.077.568.9.9,1.574.967a24.7,24.7,0,0,0,7.546-.374,7.353,7.353,0,0,0,2.941-1.122c1.793-1.29,2.27-3.766,2.477-5.985a9.029,9.029,0,0,0-.9-5.933c-1.935-2.889-5.417,2.244-5.908,4.14a8.848,8.848,0,0,1-2.064,4.6C466.847,411.01,464.925,411.281,463.391,412.2Z" transform="translate(-12.744 -23.424)"/><path class="f" d="M471.349,408.972c-.58-.374-1.083-.967-1.78-1.006a2.4,2.4,0,0,0-1.406.5c-2.193,1.29-4.347,2.773-6.449,4.269a5.88,5.88,0,0,0-1.677,1.561,2.115,2.115,0,0,0-.193,2.18,2.206,2.206,0,0,0,1.29.929,6.952,6.952,0,0,0,3.134,0c4.747-.787,10.254-1.29,14.743-3.044,3.366-1.29,1.612-5.263-1.522-5.3C475.412,409.023,473.374,410.262,471.349,408.972Z" transform="translate(-12.744 -23.424)"/><path class="f" d="M216.694,227.155l-.606,24.275c-.335,13.118-.619,26.635,3.134,38.876a15.646,15.646,0,0,0,3.753,7.094,10.835,10.835,0,0,0,7,2.322c6.449.374,13.44-.761,18.058-6.333,4.089-4.863,5.624-12.189,6.307-19.206a220.2,220.2,0,0,0,.219-29.176c-.31-8.552-.774-17.684-4.876-24.507a36.542,36.542,0,0,0-6.926-7.894C230.883,201.513,217.21,208.259,216.694,227.155Z" transform="translate(-12.744 -23.424)"/><ellipse class="d" cx="151.002" cy="15.878" rx="151.002" ry="15.878" transform="translate(124.057 224.317)"/><path class="d" d="M438.793,268.533c0,8.771-67.6,15.878-151,15.878s-151-7.094-151-15.878c0-.838.619-1.664,1.806-2.464,11.235,7.61,73.753,13.427,149.2,13.427S425.8,273.68,437,266.07C438.187,266.869,438.793,267.695,438.793,268.533Z" transform="translate(-12.744 -23.424)"/><path class="j" d="M438.793,268.533c0,8.771-67.6,15.878-151,15.878s-151-7.094-151-15.878c0-.838.619-1.664,1.806-2.464,11.235,7.61,73.753,13.427,149.2,13.427S425.8,273.68,437,266.07C438.187,266.869,438.793,267.695,438.793,268.533Z" transform="translate(-12.744 -23.424)"/><path class="d" d="M437,266.07c-11.235,7.61-73.766,13.427-149.21,13.427s-138.014-5.817-149.2-13.427c11.235-7.6,73.753-13.414,149.2-13.414S425.766,258.472,437,266.07Z" transform="translate(-12.744 -23.424)"/><path class="k" d="M438.793,263.619c0,.838-.606,1.651-1.793,2.451-11.235,7.61-73.766,13.427-149.21,13.427s-138.014-5.817-149.2-13.427c-1.187-.8-1.806-1.612-1.806-2.451,0-8.771,67.614-15.891,151-15.891S438.793,254.848,438.793,263.619Z" transform="translate(-12.744 -23.424)"/><path class="l" d="M485.924,195.128a25.628,25.628,0,0,1,2.825,9.158,21.926,21.926,0,0,1-1.741,8.616,147.33,147.33,0,0,1-8.474,17.98c.8-1.509-.438-6.449-.555-8.165q-.271-4.269-.5-8.565-.477-8.771-.813-17.555c-.1-2.773-1.909-11.338,2.257-12.447C482.4,183.223,484.7,192.419,485.924,195.128Z" transform="translate(-12.744 -23.424)"/><path class="d" d="M445.784,228.032a50.645,50.645,0,0,0,.477-9.274,43.174,43.174,0,0,0-.7-7.958c-1.122-5.34-4.1-10.319-3.87-15.814.206-6.088,4.269-11.273,8.152-15.981a33.708,33.708,0,0,1,5.082-5.327,11.389,11.389,0,0,1,6.759-2.58c4.489,0,9.326-1.393,12.976,1.225s4.927,7.455,5.624,11.931c2.863,18.535.271,37.56,2.58,56.173.89,7.21,2.58,14.317,3.212,21.553a2.773,2.773,0,0,1-.477,2.3,2.7,2.7,0,0,1-1.664.555,117.531,117.531,0,0,1-33.884-1.419,2.012,2.012,0,0,1-1.148-.49,2.051,2.051,0,0,1-.387-1.045C446.635,250.837,443.927,239.022,445.784,228.032Z" transform="translate(-12.744 -23.424)"/><path class="m" d="M124.741,179.7a3.689,3.689,0,0,1,0,2.36c-.426.89-1.47,1.29-2.206,1.948-1.832,1.638-1.522,4.553-2.451,6.823a6.552,6.552,0,0,1-8.2,3.457,2.4,2.4,0,0,0-1.29-.3,1.638,1.638,0,0,0-.864.671c-1.29,1.754-1.29,4.385-2.838,5.882a4.411,4.411,0,0,1-4.669.606,7.662,7.662,0,0,1-3.483-3.431c-2.58-4.54-1.922-10.1-1.29-15.246s1.29-10.009,3.225-14.627a9.545,9.545,0,0,1,2.451-3.741c1.832-1.548,4.385-1.793,6.772-1.935a21.8,21.8,0,0,1,6.914.348C123.825,164.378,123.451,173.82,124.741,179.7Z" transform="translate(-12.744 -23.424)"/><path class="f" d="M124.38,158.032a3.315,3.315,0,0,1,1.728,2.58,4.269,4.269,0,0,1-2.219,3.87,9.661,9.661,0,0,1-4.54,1.122,29.921,29.921,0,0,0-4.7.348,5.959,5.959,0,0,0-3.87,2.386c-1.135,1.767-.813,4.063-.8,6.165a3.366,3.366,0,0,1-.335,1.754,1.29,1.29,0,0,1-1.535.658,1.922,1.922,0,0,1-.748-.722,24.649,24.649,0,0,0-1.6-2.412,3.237,3.237,0,0,0-2.425-1.29,3.121,3.121,0,0,0-2.219,1.2,3.986,3.986,0,0,0-.993,2.115c-.219,1.728.9,3.328,1.961,4.708a11.273,11.273,0,0,1-4.7,4.592,3.392,3.392,0,0,1-1.819.5c-1.122-.1-1.909-1.135-2.58-2.064l-4.747-6.991a8.242,8.242,0,0,1-1.664-3.715,8.371,8.371,0,0,1,1.006-4.153,27.886,27.886,0,0,1,4.115-7.275,36.567,36.567,0,0,0,3.405-5.74,8.152,8.152,0,0,1,5.069-4.282c2.348-.451,4.656.813,7,1.29s4.863.206,7.249.671C117.621,154.021,121.5,156.536,124.38,158.032Z" transform="translate(-12.744 -23.424)"/><path class="n" d="M103.188,197.218a11.725,11.725,0,0,1,3.87,3.87c1.367,2.58.89,5.675.374,8.526a45.79,45.79,0,0,1-14.524-12c-1.47-1.948-.916-5.508,2.154-5.314C97.745,192.445,101.176,195.786,103.188,197.218Z" transform="translate(-12.744 -23.424)"/><path class="d" d="M105.355,207.833a19.5,19.5,0,0,1,2.683,3.7c1.032,1.973,11.389,35.342,11.686,37.406a24.829,24.829,0,0,1-.077,5.869l-2.915,31.537a2.98,2.98,0,0,1-.464,1.612,2.9,2.9,0,0,1-1.29.787l-20.728,7.739a53.193,53.193,0,0,1-9.48,2.876,16.1,16.1,0,0,0-6.9,2.876c-3.56,2.58-4.708,10.409-7.8,10.461-2.36-6.707,5.275-33.949,6.591-38.94,4.643-17.71-1.432-36.3-1.69-54.612a37.07,37.07,0,0,1,.774-9.029c1.47-6.269,6.049-12.9,12.086-15.62,1.986-.877,1.715-.98,3.779.516,1.625,1.2,3.212,2.5,4.747,3.87a90.019,90.019,0,0,1,9,8.952Z" transform="translate(-12.744 -23.424)"/><path class="o" d="M83.995,234.752l18.793,38.05.4,20.921s13.221-4.244,13.866-10.706,1.225-20.38,1.225-20.38l-29.55-35.626Z" transform="translate(-12.744 -23.424)"/><path class="d" d="M82.55,211.78a106.812,106.812,0,0,0-1.29,18.148,16.2,16.2,0,0,0,.464,4.166,16.613,16.613,0,0,0,2.58,4.8,202.981,202.981,0,0,0,24.507,29.022,6.449,6.449,0,0,0,2.915,1.961,6.539,6.539,0,0,0,2.4,0l33.033-4.824a2.064,2.064,0,0,0,2.257-2.644l-.838-10.009a104.129,104.129,0,0,1-31.679-2,7.042,7.042,0,0,1-3.173-1.29,7.236,7.236,0,0,1-1.638-2.747c-4.669-10.9-9.274-21.811-13.982-32.685-1.29-3.1-2.722-6.694-6.449-7.507C87.413,205.189,83.285,207.407,82.55,211.78Z" transform="translate(-12.744 -23.424)"/><path class="n" d="M150.138,253.881c1.109-.193,2.489-.271,3.121.658a2.928,2.928,0,0,1,.374,1.29c.168,1.29.3,2.683.374,4.037a7.211,7.211,0,0,1-.529,3.87c-2.012,0-4.037-.064-6.049-.193a1.6,1.6,0,0,1-.813-.219,1.651,1.651,0,0,1-.4-.645c-.658-1.7-2.077-5.159-1.406-6.965S148.655,254.1,150.138,253.881Z" transform="translate(-12.744 -23.424)"/><path class="p" d="M158.109,252.139a13.646,13.646,0,0,1,4.166-2,8.784,8.784,0,0,1,6.32,1.612c1.87,1.212,3.5,2.76,5.392,3.947s4.179,2.09,5.882,3.65a1.135,1.135,0,0,1,.451.748,1.1,1.1,0,0,1-.735.89c-2.18,1.071-4.772.387-7.133-.193-1.9-.464-4.011-.826-5.675.168-1.419.838-2.257,2.58-3.87,3.083a5.636,5.636,0,0,1-3.031-.077,44.125,44.125,0,0,1-7.842-2.58,3.224,3.224,0,0,1-1.045-.645c-1.29-1.29-.9-4.708.658-5.675a15.879,15.879,0,0,1,2.58-1.006,28.722,28.722,0,0,0,3.882-1.922Z" transform="translate(-12.744 -23.424)"/><path class="d" d="M147.971,275.46a5.624,5.624,0,0,1,7.739,1.728,288.588,288.588,0,0,1,27.912,36.928,2.67,2.67,0,0,1,.49,1.109,2.773,2.773,0,0,1-1.29,2.167l-9.261,8.513a1.862,1.862,0,0,1-2.992.206l-24.662-18.858a3.986,3.986,0,0,0-2.115-1.032,3.741,3.741,0,0,0-1.612.413c-4.218,1.844-8,4.566-12.176,6.527-9.222,4.321-19.773,4.643-29.963,4.463-10-.181-20.16-.813-29.5-4.36-1.909-.722,5.779-14.537,9.467-14.872a59.256,59.256,0,0,0,18.058-4.618c4.45-1.935,8.694-4.514,13.4-5.817,2.98-.826,2.722-3.87,5.65-4.94C126.405,279.755,138.633,278.607,147.971,275.46Z" transform="translate(-12.744 -23.424)"/><path class="q" d="M147.971,275.46a5.624,5.624,0,0,1,7.739,1.728,288.588,288.588,0,0,1,27.912,36.928,2.67,2.67,0,0,1,.49,1.109,2.773,2.773,0,0,1-1.29,2.167l-9.261,8.513a1.862,1.862,0,0,1-2.992.206l-24.662-18.858a3.986,3.986,0,0,0-2.115-1.032,3.741,3.741,0,0,0-1.612.413c-4.218,1.844-8,4.566-12.176,6.527-9.222,4.321-19.773,4.643-29.963,4.463-10-.181-20.16-.813-29.5-4.36-1.909-.722,5.779-14.537,9.467-14.872a59.256,59.256,0,0,0,18.058-4.618c4.45-1.935,8.694-4.514,13.4-5.817,2.98-.826,2.722-3.87,5.65-4.94C126.405,279.755,138.633,278.607,147.971,275.46Z" transform="translate(-12.744 -23.424)"/><path class="f" d="M64.2,236.042c2.5,6.888,2.7,14.369,2.851,21.7l1.006,47.054a11.08,11.08,0,0,0,.58,3.973c1.638,4.089,7.055,4.721,11.454,4.721h35.471c4.024,0,8.255,0,11.776,1.986s6.024,6.449,4.334,10.074c-1.909,4.166-7.481,4.76-12.06,4.76H61.087a9.209,9.209,0,0,1-4.553-.787c-2.58-1.419-3.083-4.747-3.367-7.636L44.9,237.59c-.464-4.785-1.29-15.736,5.159-16.446C56.173,220.564,62.583,231.618,64.2,236.042Z" transform="translate(-12.744 -23.424)"/><path class="r" d="M143.173,228.148a50.162,50.162,0,0,1,13.44-13.053l-.658,4.914a58.83,58.83,0,0,1,17.31-6c1.058-.181,2.451-.155,2.812.851.284.8-.348,1.6-.929,2.219a74.244,74.244,0,0,1-10.035,9.39,25.023,25.023,0,0,1-12.615,5.056,8.384,8.384,0,0,1-5.018-.942,4.024,4.024,0,0,1-1.9-4.424" transform="translate(-12.744 -23.424)"/><path class="d" d="M234.907,195.064a9.674,9.674,0,0,0-4.1,2.167,9.029,9.029,0,0,0-1.844,4.876L221.3,249.431c-.348,2.154-.658,4.5.516,6.372,1.393,2.231,4.373,2.954,7.068,3.405a147.829,147.829,0,0,0,26.79,2.064,2.051,2.051,0,0,0,1.29-.322,1.883,1.883,0,0,0,.5-1.29,39.018,39.018,0,0,0-.219-10.615l-16.6-2.09c-1.432-.181-1.367,0-2.012-1.225a3.947,3.947,0,0,1-.3-2.051c.284-6.681-.077-13.814,2.3-20.109,2.038,6.333,3.289,18.355,3.405,24.971,16.046-.671,31.988-1.161,48.047-.439a190.291,190.291,0,0,1,1.728-28.673l6.307,13.453a14.059,14.059,0,0,1,1.832,6.449c-.1,2.76-1.832,5.443-1.2,8.139l20.38-.658-2.747-14.021a35.716,35.716,0,0,0-4.656-13.079l-9.958-18.638a15.22,15.22,0,0,0-2.967-4.3,14.949,14.949,0,0,0-4.011-2.386,85.956,85.956,0,0,0-33.149-7.365C253.906,186.9,243.884,192.02,234.907,195.064Z" transform="translate(-12.744 -23.424)"/><path class="n" d="M267.8,243.123c6.656-6.372,8.59-15.852,10.2-24.726l2.851-15.685a50.64,50.64,0,0,0,1.174-11.3,1.69,1.69,0,0,0-.361-1.135,1.909,1.909,0,0,0-1.393-.361c-7.378,0-19.193-2.812-20.431,6.668a79.479,79.479,0,0,0,2.219,30.041C262.51,228.3,268.288,242.607,267.8,243.123Z" transform="translate(-12.744 -23.424)"/><path class="s" d="M262.355,185.738a13.169,13.169,0,0,0-.193,4.076,7.739,7.739,0,0,0,1.135,2.722,8.706,8.706,0,0,0,5.688,4.347c2.115.31,4.2-.658,6.191-1.651a6.45,6.45,0,0,0,2.373-1.7,6.978,6.978,0,0,0,1.29-3.87,25.619,25.619,0,0,0-.335-5.521l-.9-6.772a1.883,1.883,0,0,0-.258-.825,1.019,1.019,0,0,0-.645-.335c-3.444-.825-8.19-2.348-11.673-1.109S262.819,182.359,262.355,185.738Z" transform="translate(-12.744 -23.424)"/><path class="t" d="M277.575,177.444s-5.74,11.609-11.505,10.59-3.263-9.777-3.263-9.777Z" transform="translate(-12.744 -23.424)"/><path class="u" d="M280.052,164.984c.761-1.148,1.922-2.451,3.289-2.1a2.309,2.309,0,0,1,1.29,3.018,11.866,11.866,0,0,1-2.064,3.044c-2.477,3.3-2.915,7.855-5.972,10.68a13.015,13.015,0,0,1-8.655,2.889,10.319,10.319,0,0,1-3.676-.451c-2.786-.98-4.463-3.689-5.456-6.346a36.284,36.284,0,0,1-1.986-9.648,22.056,22.056,0,0,1,.671-8.719,10.241,10.241,0,0,1,5.779-6.449c4.45-1.716,9.738.735,12.5,4.489s3.573,8.474,4.14,13.04" transform="translate(-12.744 -23.424)"/><path class="f" d="M256.847,159.67c0,.5-.271,1.019,0,1.47a1.109,1.109,0,0,0,1.367.426,2.721,2.721,0,0,0,1.161-1.032c1.135-1.548,1.973-3.354,3.521-4.527s4.2-1.29,5.263.232a.9.9,0,0,0,.271.31.864.864,0,0,0,.593,0,7,7,0,0,1,6.772,1.986,9.674,9.674,0,0,1,2.477,6.565c0,.722.9,3.263,1.625,3.044.206-.064.271-2.141.413-2.3.5-.568.529-.748,1.032-1.29a1.483,1.483,0,0,1,.58-.477c.555-.206,1.122.232,1.715.361a2.219,2.219,0,0,0,2.4-1.612,6.024,6.024,0,0,0-.129-3.057,5.688,5.688,0,0,1-.09-3.044c.49-1.47,2.128-2.58,2.077-4.089a3.392,3.392,0,0,0-.4-1.29,12.073,12.073,0,0,0-3.418-4.282,11.223,11.223,0,0,0-1.948-2.941,4.1,4.1,0,0,0-3.263-1.29c-.542.077-1.071.3-1.612.335-2.154.142-3.87-2.438-5.985-1.973-.684.155-1.29.619-1.948.735-1.225.219-2.386-.684-3.624-.658s-2.193.916-3.3,1.393-2.709.7-3.25,1.806c-.232.464-.3,1.071-.774,1.29a2.154,2.154,0,0,1-1.174,0,3.289,3.289,0,0,0-2.98,1.29,11.351,11.351,0,0,0-1.922,7.546,3.444,3.444,0,0,0,1.78,3.134C254.99,158.135,256.77,158.29,256.847,159.67Z" transform="translate(-12.744 -23.424)"/><path class="n" d="M269.268,194.6a6.94,6.94,0,0,0-4.166,3.289,19.451,19.451,0,0,0-1.857,4.979c.142-.542-1.29-2.657-1.561-3.25-.516-1.187-.967-2.4-1.406-3.612-.568-1.587-2.348-4.708-1.509-6.359C260.768,185.738,267.785,193.026,269.268,194.6Z" transform="translate(-12.744 -23.424)"/><path class="n" d="M271.681,195.1c2.747,1.058,4.385,3.715,6.694,5.495a.877.877,0,0,0,.4.181.709.709,0,0,0,.426-.193,9.532,9.532,0,0,0,2.928-4.36c.619-1.664,1.47-8.152-2.154-6.6a24.108,24.108,0,0,0-3.805,2.773A41.457,41.457,0,0,1,271.681,195.1Z" transform="translate(-12.744 -23.424)"/><path class="d" d="M268.03,217.739a57.178,57.178,0,0,1,.335-13.363,7.327,7.327,0,0,0,.077-2.58c-.361-1.741-2.051-3.147-2-4.914.077-2.322,3.044-3.637,5.366-2.967a4.115,4.115,0,0,1,2.58,5.624c-.3.555-.735,1.058-.98,1.638a5.469,5.469,0,0,0,.4,3.87c1.212,3.392,2.683,21.063,2.58,22.521,0,1.083-2.3,5.959-2.67,6.978-2.219,5.959-4.837,8.01-5.895,8.5C267,235.745,268.727,225.13,268.03,217.739Z" transform="translate(-12.744 -23.424)"/><path class="v" d="M268.03,217.739a57.178,57.178,0,0,1,.335-13.363,7.327,7.327,0,0,0,.077-2.58c-.361-1.741-2.051-3.147-2-4.914.077-2.322,3.044-3.637,5.366-2.967a4.115,4.115,0,0,1,2.58,5.624c-.3.555-.735,1.058-.98,1.638a5.469,5.469,0,0,0,.4,3.87c1.212,3.392,2.683,21.063,2.58,22.521,0,1.083-2.3,5.959-2.67,6.978-2.219,5.959-4.837,8.01-5.895,8.5C267,235.745,268.727,225.13,268.03,217.739Z" transform="translate(-12.744 -23.424)"/><path class="n" d="M261.091,250.54a1.483,1.483,0,0,1,1.29.413,1.29,1.29,0,0,1,.181.606,21.412,21.412,0,0,1-.155,5.882,2.58,2.58,0,0,1-.722,1.612,3.018,3.018,0,0,1-2.115.426l-3.044-.116a1.393,1.393,0,0,1-.645-.142,1.122,1.122,0,0,1-.426-.58c-.761-1.767-1.587-5-.684-6.849S259.362,250.514,261.091,250.54Z" transform="translate(-12.744 -23.424)"/><path class="w" d="M269.862,250.463a1.29,1.29,0,0,1-.813,1.367,9.532,9.532,0,0,0,3.418.929,23.114,23.114,0,0,1,6.656,2.154c1.509.761,3.057,1.857,3.328,3.457a1.019,1.019,0,0,1,0,.619,1.29,1.29,0,0,1-.4.413,8.822,8.822,0,0,1-5.159.942c-5.159-.09-10.6-.09-15.478-1.986a2.9,2.9,0,0,1-1.058-.619,2.219,2.219,0,0,1-.516-1.148c-.426-2.038,0-3.637,1.922-4.527a17.826,17.826,0,0,1,8.1-1.6Z" transform="translate(-12.744 -23.424)"/><path class="f" d="M253.7,380.144a6.294,6.294,0,0,0,1.909,2.27,25.306,25.306,0,0,0,6.978,4.773c3.263,1.29,6.9,1.29,10.435,1.2,1.29,0,2.734-.155,3.392-1.187s.1-2.36-.5-3.418c-2.4-4.192-5.585-8.113-6.656-12.782-.348-1.47-.529-3.109-1.7-4.128-2.58-2.206-9.106-1.406-11.222,1.161a10.835,10.835,0,0,0-1.78,4.618C254.1,374.791,252.81,378,253.7,380.144Z" transform="translate(-12.744 -23.424)"/><path class="f" d="M282.386,381.072c1.212.58,2.451,1.122,3.7,1.612a1.458,1.458,0,0,0,1.058.116,1.367,1.367,0,0,0,.568-.58l1.69-2.58c3.121,3.444,8.487,3.87,13.26,3.779,2.27,0,4.527-.09,6.785-.193.993,0,2.206-.258,2.58-1.161s-.464-1.677-1.2-2.219c-3.947-2.9-9.467-3.7-12.666-7.339-1.29-1.5-2.193-3.431-3.87-4.476a10.318,10.318,0,0,0-5.159-1.058c-2.889-.077-6.114-.361-6.449,2.838A74.954,74.954,0,0,0,282.386,381.072Z" transform="translate(-12.744 -23.424)"/><path class="f" d="M288.062,229.077l11.97-47.3h51.194l-16.742,46.28-.49,5.172-62.841,1.715v-3.934Z"/><path class="x" d="M445.281,151.428c-.7.916-1.664,1.9-1.367,3.005.219.877,1.122,1.29,1.715,2.012,1.445,1.625.98,4.231,2.051,6.114a5.908,5.908,0,0,0,4.1,2.58,32.554,32.554,0,0,0,5.017.284,4.231,4.231,0,0,1,3.212,1.122c1.29,1.5.49,4.385,2.27,5.224a3.121,3.121,0,0,0,1.457.219,41.582,41.582,0,0,0,5.766-.439,3.263,3.263,0,0,0,1.87-.709,3.34,3.34,0,0,0,.774-2.193,55.387,55.387,0,0,0-4.089-26.6,13.97,13.97,0,0,0-2.464-4.192,11.725,11.725,0,0,0-4.6-2.838,20.767,20.767,0,0,0-6.449-1.29,7.958,7.958,0,0,0-5.3,1.29C444.288,138.981,449.047,146.475,445.281,151.428Z" transform="translate(-12.744 -23.424)"/><path class="y" d="M441.669,132.08a8.667,8.667,0,0,0,.387,2.876c.748,2.154,2.838,3.637,3.612,5.791a8.191,8.191,0,0,1,3.5-4.54,5.34,5.34,0,0,0,2.012,2.734,3.07,3.07,0,0,1,.993.864,2.825,2.825,0,0,1,.168,1.574,6.785,6.785,0,0,0,2.992,5.8c.813.529,1.741.864,2.58,1.419a11.97,11.97,0,0,1,3.044,3.573c2.025,3.121,4.1,6.449,4.437,10.112.232,2.58-.413,5.288.348,7.739a7.378,7.378,0,0,0,7.8,4.966,11.428,11.428,0,0,0,6,9.326,12.086,12.086,0,0,0,11.157-.065,7.894,7.894,0,0,0,3.637-3.612,9.48,9.48,0,0,0,.593-4.076c-.116-4.308-1.458-8.8-4.708-11.609a4.256,4.256,0,0,1-1.071-1.135c-.58-1.1,0-2.386.555-3.521a14.988,14.988,0,0,0-3.766-16.768,5.829,5.829,0,0,1-1.509-1.625,4.9,4.9,0,0,1-.361-1.986c-.181-4.308-.387-8.848-2.67-12.524a16.136,16.136,0,0,0-9.519-6.591,38.4,38.4,0,0,0-11.776-.942C452.169,120.188,441.682,122.342,441.669,132.08Z" transform="translate(-12.744 -23.424)"/><path class="z" d="M436.394,201.68a11.609,11.609,0,0,1-3.586,2.257,12.46,12.46,0,0,1-4.373.451c-12.047-.284-24.507-3.173-33.794-10.8-1.819-1.483-3.637-3.212-5.959-3.56l2.141,4.476H382.1a5.933,5.933,0,0,0-2.734.439,2.051,2.051,0,0,0-1.174,2.283,2.992,2.992,0,0,0,1.071,1.29c2.58,2.09,5.3,4.192,8.552,4.785,1.612.3,3.276.193,4.914.348,3.715.361,7.146,2.051,10.525,3.637q9.248,4.36,18.767,8.087c3.147,1.29,6.54,2.438,9.842,1.677a17.1,17.1,0,0,0,4.656-2.077c9.029-5.159,18.2-10.383,25.294-17.968,2.76-2.954,5.288-6.449,5.43-10.551.116-3.3-2.012-7.068-5.366-7.933s-6.449,2.786-8.784,5.043C447.242,189.388,442.7,196.379,436.394,201.68Z" transform="translate(-12.744 -23.424)"/><path class="n" d="M142.464,223.556a2.76,2.76,0,0,0-1.393.464,2.451,2.451,0,0,0-.722,1.909,11.609,11.609,0,0,0,1.174,4.747,7.906,7.906,0,0,0,1.844,2.786,3.328,3.328,0,0,0,3.109.838,4.734,4.734,0,0,0,2.477-2.58,1.29,1.29,0,0,0,.206-.709c0-.413-.387-.7-.684-.98-1.961-1.832-.555-3.728-1.509-5.624S144.179,223.324,142.464,223.556Z" transform="translate(-12.744 -23.424)"/><rect class="d" width="36.103" height="7.223" transform="translate(246.245 366.884)"/><rect class="d" width="7.107" height="110.076" transform="translate(260.485 261.039)"/><path class="aa" d="M281.561,166.906a.49.49,0,0,0,0-.271,2.167,2.167,0,0,1,0-1.29,1.083,1.083,0,0,1,.4-.4,1.767,1.767,0,0,1,.826-.258.49.49,0,0,1,.245,0,.439.439,0,0,1,.194.258,2.3,2.3,0,0,1,0,1.5,3.869,3.869,0,0,1-.9,1.509,1.973,1.973,0,0,1-1.29.671.5.5,0,0,1-.194,0,.258.258,0,0,1-.116-.142.774.774,0,0,1,0-.89C280.993,167.371,281.419,167.242,281.561,166.906Z" transform="translate(-12.744 -23.424)"/></g></g></svg>