<svg xmlns="http://www.w3.org/2000/svg" width="30" height="30" viewBox="0 0 30 30"><defs><style>.b{fill:#980b0b;}</style></defs><g transform="translate(7.321 7.203)"><path class="b" d="M95.09,102.186c.053-.38.093-.762.161-1.138a4.139,4.139,0,0,1,4-3.662c2.566-.089,5.14-.094,7.706,0a4.153,4.153,0,0,1,4.072,4.179q.116,3.748,0,7.5a4.153,4.153,0,0,1-4.072,4.179c-2.566.094-5.14.1-7.706,0a4.225,4.225,0,0,1-4.079-4.191c-.013-.2-.057-.406-.086-.609v-6.259Zm8,9.665c1.174,0,2.35.036,3.522-.008a2.885,2.885,0,0,0,3.012-3.044q.08-3.481,0-6.966a2.867,2.867,0,0,0-3.012-3.04q-3.5-.075-7,0a2.849,2.849,0,0,0-3.008,3q-.094,3.525,0,7.055a2.868,2.868,0,0,0,3.008,3c1.158.044,2.319.008,3.478.008Zm0,0" transform="translate(-95.09 -97.317)"/><path class="b" d="M178.069,174a4.135,4.135,0,1,0,4.077,4.134A4.106,4.106,0,0,0,178.069,174Zm0,6.845a2.711,2.711,0,1,1,2.673-2.711A2.692,2.692,0,0,1,178.069,180.841Zm0,0" transform="translate(-170.069 -170.13)"/><path class="b" d="M325.225,151.726a.97.97,0,1,1-.97-.984A.977.977,0,0,1,325.225,151.726Zm0,0" transform="translate(-311.94 -148.049)"/></g></svg>