<svg xmlns="http://www.w3.org/2000/svg" xmlns:xlink="http://www.w3.org/1999/xlink" width="100" height="100" viewBox="0 0 100 100"><defs><style>.a{fill:url(#a);}.b{fill:url(#b);}.c{fill:url(#c);}.d{fill:url(#d);}.e{fill:url(#e);}.f{fill:url(#f);}.g{fill:url(#g);}.h{fill:url(#h);}.i{fill:#fff;}</style><radialGradient id="a" cx="0.205" cy="0.874" r="1.103" gradientTransform="translate(0)" gradientUnits="objectBoundingBox"><stop offset="0" stop-color="#fae100"/><stop offset="0.054" stop-color="#fadc04"/><stop offset="0.117" stop-color="#fbce0e"/><stop offset="0.183" stop-color="#fcb720"/><stop offset="0.251" stop-color="#fe9838"/><stop offset="0.305" stop-color="#ff7950"/><stop offset="0.492" stop-color="#ff1c74"/><stop offset="1" stop-color="#6c1cd1"/></radialGradient><linearGradient id="b" x1="0.369" y1="0.426" x2="-1.54" y2="-0.648" gradientUnits="objectBoundingBox"><stop offset="0" stop-color="#a1b5d8" stop-opacity="0"/><stop offset="0.309" stop-color="#90a2bd" stop-opacity="0.31"/><stop offset="0.755" stop-color="#7c8b9c" stop-opacity="0.757"/><stop offset="1" stop-color="#748290"/></linearGradient><linearGradient id="c" x1="0.5" y1="0.413" x2="0.5" y2="1.193" gradientUnits="objectBoundingBox"><stop offset="0" stop-color="#fae100" stop-opacity="0"/><stop offset="0.307" stop-color="#fca800" stop-opacity="0.306"/><stop offset="0.627" stop-color="#fe7300" stop-opacity="0.627"/><stop offset="0.868" stop-color="#ff5200" stop-opacity="0.867"/><stop offset="1" stop-color="#ff4500"/></linearGradient><linearGradient id="d" x1="0.316" y1="0.311" x2="0.012" y2="0.005" gradientUnits="objectBoundingBox"><stop offset="0" stop-color="#833ab4" stop-opacity="0"/><stop offset="1" stop-color="#833ab4"/></linearGradient><linearGradient id="e" x1="0.582" y1="0.887" x2="0.418" y2="0.113" xlink:href="#d"/><linearGradient id="f" x1="0.605" y1="0.605" x2="-0.16" y2="-0.16" xlink:href="#d"/><linearGradient id="g" x1="0.376" y1="0.332" x2="-0.072" y2="-0.063" xlink:href="#d"/><linearGradient id="h" x1="0.816" y1="0.182" x2="0.172" y2="0.835" gradientUnits="objectBoundingBox"><stop offset="0" stop-color="#833ab4"/><stop offset="0.092" stop-color="#9c3495"/><stop offset="0.293" stop-color="#dc2546"/><stop offset="0.392" stop-color="#fd1d1d"/><stop offset="0.559" stop-color="#fc6831"/><stop offset="0.689" stop-color="#fc9b40"/><stop offset="0.752" stop-color="#fcaf45"/><stop offset="0.781" stop-color="#fdb750"/><stop offset="0.866" stop-color="#fecb6a"/><stop offset="0.942" stop-color="#ffd87a"/><stop offset="1" stop-color="#ffdc80"/></linearGradient></defs><g transform="translate(0)"><path class="a" d="M98.287,17.886A18.207,18.207,0,0,0,82.113,1.712a302.036,302.036,0,0,0-64.227,0A18.209,18.209,0,0,0,1.712,17.886a302.036,302.036,0,0,0,0,64.227A18.209,18.209,0,0,0,17.886,98.288a302.044,302.044,0,0,0,64.227,0A18.208,18.208,0,0,0,98.287,82.113a302.034,302.034,0,0,0,0-64.227Zm0,0" transform="translate(0)"/><path class="b" d="M115.6,44.623a16.073,16.073,0,0,0-14.277-14.278,266.72,266.72,0,0,0-56.7,0A16.075,16.075,0,0,0,30.345,44.623a266.713,266.713,0,0,0,0,56.694A16.073,16.073,0,0,0,44.623,115.6a266.613,266.613,0,0,0,56.694,0,16.072,16.072,0,0,0,14.278-14.278,266.613,266.613,0,0,0,0-56.694Zm0,0" transform="translate(-22.971 -22.971)"/><path class="c" d="M7.672,409.8q.1,1.08.213,2.159A18.586,18.586,0,0,0,24.04,428.8a289.417,289.417,0,0,0,64.145,0,18.585,18.585,0,0,0,16.154-16.841q.111-1.08.214-2.159Zm0,0" transform="translate(-6.112 -330.588)"/><path class="d" d="M178.091,163.024a314.759,314.759,0,0,0,1.771-35.934l-23.8-23.8a17.046,17.046,0,0,0-12.419-5.7c-10.495-.378-21.022-.359-31.519,0-8.718.3-14.814,6.16-16.377,14.772-.276,1.52-.441,3.061-.658,4.592v25.247c.12.818.3,1.632.351,2.455a18.354,18.354,0,0,0,5.949,12.76l24.219,24.218a314.777,314.777,0,0,0,35.641-1.775,18.958,18.958,0,0,0,16.841-16.842Zm0,0" transform="translate(-79.874 -81.648)"/><path class="e" d="M202.917,186.484a18.959,18.959,0,0,1-16.841,16.841,314.939,314.939,0,0,1-35.64,1.775l-24.183-24.183a16.956,16.956,0,0,0,10.7,4.108c10.494.394,21.024.384,31.518.006,9.491-.343,16.359-7.368,16.656-16.859.316-10.078.316-20.181,0-30.259a17.568,17.568,0,0,0-4.221-11.147l23.785,23.785a315.331,315.331,0,0,1-1.772,35.934Zm0,0" transform="translate(-104.7 -105.108)"/><path class="f" d="M202.955,179.4a16.675,16.675,0,1,0-23.561,23.561l38.585,38.585q3.064-.267,6.125-.593a18.959,18.959,0,0,0,16.842-16.842q.327-3.061.593-6.125Zm0,0" transform="translate(-142.73 -142.73)"/><path class="g" d="M361.461,183.363,330.407,152.31a3.964,3.964,0,1,0-5.554,5.553l36.052,36.053q.367-5.275.555-10.553Zm0,0" transform="translate(-261.663 -122.16)"/><path class="h" d="M95.09,115.7c.2-1.434.358-2.876.616-4.3,1.464-8.062,7.177-13.547,15.346-13.828,9.835-.338,19.7-.355,29.534,0a15.8,15.8,0,0,1,15.607,15.782q.443,14.152,0,28.327a15.8,15.8,0,0,1-15.606,15.782c-9.834.355-19.7.364-29.534-.005-8.892-.334-15.039-6.926-15.634-15.824-.051-.77-.217-1.533-.329-2.3V115.7Zm30.671,36.5c4.5,0,9.005.135,13.5-.031,7.047-.261,11.381-4.463,11.546-11.5q.306-13.146,0-26.3c-.164-7.032-4.5-11.332-11.546-11.481q-13.411-.283-26.831,0c-6.99.146-11.337,4.359-11.527,11.314q-.362,13.312,0,26.64c.19,6.954,4.537,11.069,11.528,11.328,4.438.165,8.887.031,13.331.031Zm0,0" transform="translate(-75.753 -77.526)"/><g transform="translate(17.277 17.73)"><path class="i" d="M95.09,116.959c.217-1.532.382-3.072.658-4.592,1.563-8.612,7.659-14.471,16.377-14.772,10.5-.361,21.024-.38,31.519,0,9.488.342,16.359,7.367,16.656,16.858q.473,15.117,0,30.26c-.3,9.491-7.165,16.516-16.655,16.858-10.495.379-21.025.388-31.519-.006-9.49-.357-16.05-7.4-16.684-16.9-.055-.822-.231-1.637-.351-2.455V116.958Zm32.732,38.986c4.8,0,9.61.144,14.407-.033,7.52-.279,12.146-4.767,12.322-12.28q.326-14.043,0-28.1c-.176-7.512-4.8-12.1-12.322-12.264q-14.312-.3-28.634,0c-7.46.156-12.1,4.657-12.3,12.086q-.386,14.22,0,28.457c.2,7.428,4.842,11.824,12.3,12.1,4.736.176,9.484.033,14.227.033Zm0,0" transform="translate(-95.09 -97.317)"/><path class="i" d="M190.669,174a16.677,16.677,0,1,0,16.677,16.676A16.677,16.677,0,0,0,190.669,174Zm0,27.612A10.935,10.935,0,1,1,201.6,190.672,10.935,10.935,0,0,1,190.669,201.608Zm0,0" transform="translate(-157.946 -158.402)"/><path class="i" d="M331.221,154.71a3.968,3.968,0,1,1-3.967-3.968A3.967,3.967,0,0,1,331.221,154.71Zm0,0" transform="translate(-276.879 -139.878)"/></g></g></svg>