<svg xmlns="http://www.w3.org/2000/svg" width="30" height="30" viewBox="0 0 30 30"><defs><style>.a{fill:#eb0101;}.b{fill:#4a86c5;}.c{fill:#ce0404;}.d{fill:#fff;}</style></defs><circle class="a" cx="15" cy="15" r="15" transform="translate(0 0)"/><path class="a" d="M90.6,69.383A15,15,0,1,1,69.384,90.6Z" transform="translate(-64.992 -64.991)"/><path class="b" d="M462.646,301.588c.055-.172.1-.345.154-.519Q462.727,301.331,462.646,301.588Z" transform="translate(-433.36 -282.011)"/><g transform="translate(7.828 6.134)"><path class="c" d="M465.083,301.017h0v0Z" transform="translate(-443.47 -288.097)"/><path class="c" d="M145.275,109.824l-8.126-8.126-1.849,1.849-1.285-1.285-1.073,1.073-6.282-6.282-.39-.149-2.41,2.41,2.91,2.91-2.848,2.848,2.782,2.782-3.041,3.042,9.673,9.663a15.017,15.017,0,0,0,11.785-10.211q.081-.258.154-.519A.009.009,0,0,1,145.275,109.824Z" transform="translate(-123.662 -96.904)"/></g><path class="d" d="M135.909,100.013v5.563h-3.225v-5.19c0-1.3-.467-2.194-1.634-2.194a1.765,1.765,0,0,0-1.655,1.18,2.208,2.208,0,0,0-.107.786v5.418h-3.225s.043-8.791,0-9.7h3.225V97.25c-.006.01-.015.022-.021.032h.021V97.25a3.2,3.2,0,0,1,2.907-1.6C134.318,95.647,135.909,97.033,135.909,100.013ZM122.687,91.2a1.681,1.681,0,1,0-.043,3.353h.022a1.682,1.682,0,1,0,.021-3.353Zm-1.634,14.378h3.225v-9.7h-3.225Z" transform="translate(-113.211 -85.425)"/></svg>