<svg xmlns="http://www.w3.org/2000/svg" width="45.2" height="45" viewBox="0 0 45.2 45"><defs><style>.a,.b{fill:#fff;}.a{fill-rule:evenodd;}</style></defs><g transform="translate(-107.997 -408.875)"><g transform="translate(107.997 408.875)"><path class="a" d="M161.517,451.484a2.244,2.244,0,0,1,.055.343c0,1.239.015,2.48-.013,3.719a.677.677,0,0,1-.332.474,12.022,12.022,0,0,1-6.451,1.3c-4.376-.247-7.7-2.159-9.6-5.841-1.992-3.865-1.4-7.591,1.408-10.984a10.7,10.7,0,0,1,7.088-4.018,11.677,11.677,0,0,1,9.657,2.645,9.176,9.176,0,0,1,3.064,5.822c.264,2.073.239,4.178.325,6.271.028.639.005,1.281.005,1.972a2.7,2.7,0,0,0,1.629-.674,5.213,5.213,0,0,0,1.607-3.186,13.031,13.031,0,0,0-4.52-12.717,15.473,15.473,0,0,0-16.864-1.937c-5.391,2.932-7.98,7.393-7.6,13.269.4,6.241,5.749,11.021,10.966,12.119a15.8,15.8,0,0,0,10.981-1.486.819.819,0,0,1,1.151.16c.413.491.768,1.024,1.128,1.55.229.333.426.686.67,1.081-.557.289-1.088.58-1.637.846a19.764,19.764,0,0,1-9.536,2.2,18.847,18.847,0,0,1-14.522-7.364,16.226,16.226,0,0,1-3.493-11.315c.322-7.307,6.076-14.108,13.678-15.944,8.108-1.959,15.98.491,21.013,7.352a16.07,16.07,0,0,1,2.956,11.618,10.616,10.616,0,0,1-1.443,4.489,7.725,7.725,0,0,1-6.94,3.8c-1.05.015-2.1-.017-3.153.012-.446.012-.589-.1-.587-.533.02-2.907.013-5.814.01-8.721a8.087,8.087,0,0,0-1.327-4.679,6.473,6.473,0,0,0-9.695-.987,6.616,6.616,0,0,0-2.3,4.491c-.121,2.665,1.284,4.556,3.641,5.876,2.39,1.338,4.807,1,7.182-.089C160.323,452.135,160.892,451.807,161.517,451.484Z" transform="translate(-129.446 -424.135)"/><path class="a" d="M129.059,409.316c.013-.333-.1-.479-.483-.432-1.088.133-2.2.173-3.263.39a19.535,19.535,0,0,0-9.108,4.778c-6.91,6.11-9.428,13.6-7.663,22.245,1.355,6.631,5.62,11.512,11.56,15.182a16.466,16.466,0,0,0,8.262,2.4c.438.015.567-.111.569-.508,0-.871.04-1.745.093-2.613.02-.338-.088-.457-.456-.469a11.473,11.473,0,0,1-5.238-1.579,25.409,25.409,0,0,1-5.865-4.723,17.256,17.256,0,0,1-4.837-14.965,18.5,18.5,0,0,1,6.942-12.154,17.484,17.484,0,0,1,9.264-4.343.439.439,0,0,0,.279-.313c.03-.489.013-.977.013-1.468Z" transform="translate(-107.997 -408.875)"/></g></g></svg>