<svg xmlns="http://www.w3.org/2000/svg" width="83.238" height="84.9" viewBox="0 0 83.238 84.9"><defs><style>.a{fill:#f1d0a5;}.b{fill:#365e7d;}.c{fill:#2b4d66;}.d{fill:#d3effb;}.e{fill:#b1e4f9;}.f{fill:#f1b986;}.g{fill:#ffc250;}.h{fill:#ebb044;}</style></defs><g transform="translate(0 -2.087)"><path class="a" d="M16.413,232.188l-.324-8.924a8.61,8.61,0,0,0-1.424-4.447L9.378,210.85a11.187,11.187,0,0,1-.154-12.081l8.429-13.448,6.639,19.986L21.9,231.555Z" transform="translate(-6.305 -152.602)"/><path class="b" d="M136.665,60.853H74.429a4.242,4.242,0,0,1-4.182-4.3V13.887a4.242,4.242,0,0,1,4.182-4.3h62.236a4.242,4.242,0,0,1,4.182,4.3V56.553a4.242,4.242,0,0,1-4.182,4.3Z" transform="translate(-58.827 -6.246)"/><path class="c" d="M464.179,9.587h-2.84a4.242,4.242,0,0,1,4.182,4.3V56.553a4.242,4.242,0,0,1-4.182,4.3h2.84a4.242,4.242,0,0,0,4.182-4.3V13.887a4.242,4.242,0,0,0-4.182-4.3Z" transform="translate(-386.341 -6.246)"/><g transform="translate(18.76 9.065)"><path class="d" d="M172.861,43.83H115.623a.238.238,0,0,0-.227.247V83.4a.238.238,0,0,0,.227.247h57.238a.238.238,0,0,0,.228-.247V44.077A.238.238,0,0,0,172.861,43.83Z" transform="translate(-115.396 -43.83)"/><path class="e" d="M453.238,43.83H450.2a.238.238,0,0,1,.228.247V83.4a.238.238,0,0,1-.228.247h3.038a.238.238,0,0,0,.228-.247V44.077A.238.238,0,0,0,453.238,43.83Z" transform="translate(-395.772 -43.83)"/></g><path class="a" d="M80.392,267.987l.148-6.544a10.242,10.242,0,0,1,.541-3.062,8.583,8.583,0,0,0-1.4-8.1,1.539,1.539,0,0,1-.15-1.684l7.7-14.307a3.008,3.008,0,0,0-.5-3.534,2.81,2.81,0,0,0-4.108.11l-12.81,14.285.843,9.955,3.405,13.59Z" transform="translate(-58.457 -189.741)"/><path class="f" d="M108.615,234.3a3.008,3.008,0,0,0-.5-3.533,2.8,2.8,0,0,0-3.76-.215,2.913,2.913,0,0,1,.24.215,3.008,3.008,0,0,1,.5,3.533l-7.7,14.307a1.539,1.539,0,0,0,.15,1.684,8.583,8.583,0,0,1,1.4,8.1,10.248,10.248,0,0,0-.541,3.062l-.08,3.53a3.4,3.4,0,0,1-2.983,3.338l.1.381,6.339-.706.144-6.366a10.773,10.773,0,0,1,.542-3.232,8.584,8.584,0,0,0-1.4-8.111,1.539,1.539,0,0,1-.15-1.684Z" transform="translate(-79.846 -189.75)"/><path class="g" d="M220.029,106.216H180.982a1.832,1.832,0,0,1-1.806-1.857V86.235a1.832,1.832,0,0,1,1.806-1.857h39.047a1.832,1.832,0,0,1,1.806,1.857v18.124A1.832,1.832,0,0,1,220.029,106.216Z" transform="translate(-150.048 -68.534)"/><path class="h" d="M410.9,84.378h-3.8a1.832,1.832,0,0,1,1.806,1.857v18.124a1.832,1.832,0,0,1-1.806,1.857h3.8a1.832,1.832,0,0,0,1.806-1.857V86.235A1.832,1.832,0,0,0,410.9,84.378Z" transform="translate(-340.919 -68.534)"/><g transform="translate(41.375 36.362)"><g transform="translate(0 19.79)"><path class="a" d="M283.482,355.077v-7.971a5.945,5.945,0,0,1,.847-3.082l2.421-3.977a7.6,7.6,0,0,0,.674-6.292l-1.147-3.429-2.217-4.828H267.677l-3.764,4.828-5.634-2.821a2.46,2.46,0,0,0-3,.651,3.335,3.335,0,0,0,.034,4.3l7.3,8.132a5.257,5.257,0,0,1,1.3,3.5v10.985h19.569Z" transform="translate(-254.509 -325.497)"/></g><g transform="translate(25.927 19.697)"><path class="f" d="M420.982,333.29l-1.147-3.429-2.217-4.828-2.578-.093,2,4.922.9,3.429a7.6,7.6,0,0,1-.674,6.292l-2.421,3.977a5.945,5.945,0,0,0-.847,3.082v7.971h3.047v-7.971a5.945,5.945,0,0,1,.847-3.082l2.421-3.977A7.6,7.6,0,0,0,420.982,333.29Z" transform="translate(-413.993 -324.939)"/></g><g transform="translate(9.404)"><path class="a" d="M317.948,231.733V210.281a2.817,2.817,0,1,0-5.591,0v21.451Z" transform="translate(-312.357 -207.114)"/><path class="a" d="M352.342,298.609v-9.273a2.014,2.014,0,0,0-2.1-1.922h-1.4a2.014,2.014,0,0,0-2.1,1.922v9.273Z" transform="translate(-341.16 -273.99)"/><path class="a" d="M386.735,298.609v-9.273a2.014,2.014,0,0,0-2.1-1.922h-1.4a2.014,2.014,0,0,0-2.1,1.922v9.273Z" transform="translate(-369.962 -273.99)"/><path class="a" d="M421.128,298.609v-9.273a2.014,2.014,0,0,0-2.1-1.922h-1.4a2.014,2.014,0,0,0-2.1,1.922v9.273Z" transform="translate(-398.763 -273.99)"/></g><path class="f" d="M426.233,287.414h-1.4a2.256,2.256,0,0,0-.7.111,1.94,1.94,0,0,1,1.4,1.81v9.273h2.8v-9.273A2.014,2.014,0,0,0,426.233,287.414Z" transform="translate(-396.56 -273.99)"/></g><g transform="translate(0 2.087)"><path d="M77.837,2.087H15.6a5.485,5.485,0,0,0-5.4,5.554v11.35a1.22,1.22,0,1,0,2.438,0V7.641A3.009,3.009,0,0,1,15.6,4.595H77.837A3.009,3.009,0,0,1,80.8,7.641V50.307a3.009,3.009,0,0,1-2.962,3.046H74.363V51.708a3.052,3.052,0,0,0-.438-1.571h2.3a1.476,1.476,0,0,0,1.447-1.5V9.313a1.476,1.476,0,0,0-1.447-1.5H18.987a1.476,1.476,0,0,0-1.447,1.5V46.652L12.987,51.73a3.112,3.112,0,0,1-.348-1.423V24.135a1.22,1.22,0,1,0-2.438,0v8.1L1.894,45.487a12.446,12.446,0,0,0,.172,13.467l5.288,7.969a7.322,7.322,0,0,1,1.212,3.787l.324,8.924a1.22,1.22,0,1,0,2.437-.093L11,70.616a9.877,9.877,0,0,0-1.635-5.107L4.08,57.54a9.884,9.884,0,0,1-.137-10.695L10.2,36.863V50.307a5.661,5.661,0,0,0,1.078,3.328l-.827.923a1.279,1.279,0,0,0,.07,1.772,1.2,1.2,0,0,0,1.723-.072L25.054,41.972a1.613,1.613,0,0,1,2.36-.063,1.733,1.733,0,0,1,.29,2.03L20,58.246a2.806,2.806,0,0,0,.276,3.089,7.344,7.344,0,0,1,1.195,6.893,11.521,11.521,0,0,0-.608,3.446l-.148,6.544a1.22,1.22,0,1,0,2.438.059l.148-6.544a8.946,8.946,0,0,1,.473-2.678,9.923,9.923,0,0,0-1.614-9.314.255.255,0,0,1-.025-.28l1.937-3.6H49.559v3.115l-3.881-1.943a3.658,3.658,0,0,0-4.445.944,4.589,4.589,0,0,0,.049,5.986l7.3,8.132a4,4,0,0,1,.973,2.653V85.733a1.22,1.22,0,1,0,2.438,0V74.748a6.486,6.486,0,0,0-1.62-4.355l-7.3-8.132a2.058,2.058,0,0,1-.019-2.616,1.271,1.271,0,0,1,1.557-.358l5.634,2.821A1.223,1.223,0,0,0,52,60.981V39.529a1.606,1.606,0,1,1,3.153,0V60.981a1.22,1.22,0,1,0,2.438,0V51.707a.8.8,0,0,1,.876-.668h1.4a.8.8,0,0,1,.876.668v9.273a1.22,1.22,0,1,0,2.438,0V51.707a.8.8,0,0,1,.876-.668h1.4a.8.8,0,0,1,.876.668v9.273a1.22,1.22,0,1,0,2.438,0V51.707a.8.8,0,0,1,.876-.668h1.4a.8.8,0,0,1,.876.668v9.273a1.4,1.4,0,0,0,.066.408l1.147,3.429a6.41,6.41,0,0,1,.3,2.529A1.244,1.244,0,0,0,74.555,68.7c.034,0,.069,0,.1,0a1.234,1.234,0,0,0,1.214-1.15A9,9,0,0,0,75.443,64l-1.081-3.231V55.861h3.475a5.485,5.485,0,0,0,5.4-5.554V7.641a5.485,5.485,0,0,0-5.4-5.554ZM25.423,53.353l1.731-3.217H49.56v3.217ZM53.574,35.108a3.831,3.831,0,0,0-2.858,1.32H30.934a.6.6,0,0,1-.587-.6V17.7a.6.6,0,0,1,.587-.6H61.306a1.254,1.254,0,0,0,0-2.508H30.934A3.073,3.073,0,0,0,27.909,17.7V35.825a3.073,3.073,0,0,0,3.025,3.111H49.6a4.887,4.887,0,0,0-.037.593v8.1H28.5l1.332-2.476a4.3,4.3,0,0,0-.719-5.037,4,4,0,0,0-5.856.157l-3.282,3.66V10.319H75.233V47.628H57.589v-8.1a4.89,4.89,0,0,0-.037-.593H69.981a3.073,3.073,0,0,0,3.026-3.111V17.7a3.073,3.073,0,0,0-3.026-3.111h-3.8a1.254,1.254,0,0,0,0,2.508h3.8a.6.6,0,0,1,.587.6V35.825a.6.6,0,0,1-.587.6H56.432a3.831,3.831,0,0,0-2.858-1.32Z" transform="translate(0 -2.087)"/><path d="M87.98,152.613v-2.039a1.22,1.22,0,1,0-2.438,0v2.039a1.22,1.22,0,1,0,2.438,0Z" transform="translate(-71.636 -124.707)"/><path d="M353.045,139.184a1.519,1.519,0,0,1-1.142-.483,1.2,1.2,0,0,0-1.8,0,1.308,1.308,0,0,0,.035,1.728,3.923,3.923,0,0,0,2.912,1.265,2.921,2.921,0,0,0,2.947-2.341,2.825,2.825,0,0,0-2.016-3.058c-.551-.209-1.073-.433-1.373-.565a.391.391,0,0,1,.07-.028,4.115,4.115,0,0,1,1.512.068,1.185,1.185,0,0,0,1.128-.431,1.251,1.251,0,0,0-.647-2,5.282,5.282,0,0,0-2.7-.039,2.593,2.593,0,0,0-1.836,2.121,2.44,2.44,0,0,0,1.047,2.388,1.192,1.192,0,0,0,.169.095c.035.016.857.392,1.782.743a1.012,1.012,0,0,1,.454.281A.584.584,0,0,1,353.045,139.184Z" transform="translate(-292.926 -111.23)"/><path d="M239.1,132.431a1.216,1.216,0,0,0-1.092.7,3.752,3.752,0,0,0-1.553-.336,3.976,3.976,0,0,0,0,7.948,3.753,3.753,0,0,0,1.554-.336,1.216,1.216,0,0,0,1.092.7,1.237,1.237,0,0,0,1.219-1.254v-6.164A1.237,1.237,0,0,0,239.1,132.431Zm-2.645,5.8a1.467,1.467,0,1,1,1.426-1.466A1.448,1.448,0,0,1,236.454,138.233Z" transform="translate(-194.779 -110.641)"/><path d="M296.73,115.085a1.237,1.237,0,0,0-1.219,1.254v2.122a4.052,4.052,0,0,0-1.736-.39,4.295,4.295,0,0,0,0,8.586,4.057,4.057,0,0,0,1.974-.512,1.206,1.206,0,0,0,.981.512,1.237,1.237,0,0,0,1.219-1.254v-9.064A1.237,1.237,0,0,0,296.73,115.085Zm-2.955,9.064a1.786,1.786,0,1,1,1.736-1.785A1.763,1.763,0,0,1,293.775,124.149Z" transform="translate(-242.521 -96.195)"/><path d="M429.443,414.32a1.2,1.2,0,0,0-1.68.4l-1.495,2.456a7.2,7.2,0,0,0-1.033,3.748v7.971a1.22,1.22,0,1,0,2.438,0v-7.971a4.641,4.641,0,0,1,.661-2.417l1.495-2.456A1.275,1.275,0,0,0,429.443,414.32Z" transform="translate(-356.106 -345.246)"/></g></g></svg>