<svg xmlns="http://www.w3.org/2000/svg" xmlns:xlink="http://www.w3.org/1999/xlink" width="591.092" height="420.37" viewBox="0 0 591.092 420.37"><defs><style>.a,.m{fill:#fff;}.a{stroke:#707070;}.b{clip-path:url(#a);}.c,.d{fill:#f54747;}.c{opacity:0.24;}.e{fill:url(#b);}.f{fill:url(#c);}.g{fill:#606161;}.h{fill:url(#d);}.i{fill:url(#e);}.j{fill:url(#f);}.k{fill:#f5e0cd;}.l{fill:url(#g);}.n,.p,.v,.w{fill:none;}.n{stroke:#000;stroke-width:1.76px;}.n,.v,.w{stroke-miterlimit:10;}.o{fill:url(#h);}.q{fill:url(#i);}.r{fill:url(#j);}.s{fill:url(#k);}.t{fill:url(#l);}.u{fill:url(#m);}.v,.w{stroke:#fff;}.v{stroke-width:1.484px;}.w{stroke-width:0.738px;}</style><clipPath id="a"><rect class="a" width="591.092" height="420.37" transform="translate(1274 1528)"/></clipPath><linearGradient id="b" x1="0.413" y1="1.33" x2="0.774" y2="-1.764" gradientUnits="objectBoundingBox"><stop offset="0" stop-color="#010101" stop-opacity="0"/><stop offset="0.95" stop-color="#010101"/></linearGradient><linearGradient id="c" x1="0.443" y1="1.323" x2="0.628" y2="-1.068" xlink:href="#b"/><linearGradient id="d" x1="0.098" y1="0.688" x2="0.9" y2="0.222" xlink:href="#b"/><linearGradient id="e" x1="0.144" y1="0.532" x2="1.725" y2="0.43" xlink:href="#b"/><linearGradient id="f" x1="1.194" y1="0.566" x2="-2.164" y2="0.305" xlink:href="#b"/><linearGradient id="g" x1="0.416" y1="0.847" x2="0.769" y2="-1.337" xlink:href="#b"/><linearGradient id="h" x1="0.568" y1="-2.056" x2="0.331" y2="6.825" xlink:href="#b"/><linearGradient id="i" x1="0" y1="0.501" x2="1" y2="0.501" xlink:href="#b"/><linearGradient id="j" x1="0.497" y1="-0.325" x2="0.513" y2="3.892" xlink:href="#b"/><linearGradient id="k" x1="0.47" y1="1.325" x2="0.562" y2="-1.48" gradientUnits="objectBoundingBox"><stop offset="0" stop-color="#fff" stop-opacity="0"/><stop offset="0.95" stop-color="#fff"/></linearGradient><linearGradient id="l" x1="0.48" y1="0.065" x2="0.573" y2="1.763" xlink:href="#k"/><linearGradient id="m" x1="0.409" y1="-0.407" x2="0.703" y2="1.933" xlink:href="#k"/></defs><g class="b" transform="translate(-1274 -1528)"><g transform="translate(1344.831 1528)"><path class="c" d="M70.419,282.841c-6.857-12.432-12.877-25.72-14.084-39.87C52.982,203.645,86,171.78,101.378,135.422c6.338-14.989,9.725-31.118,16.272-46.015,19.441-44.221,65.5-72.749,113.089-80.982,12.944-2.238,26.742-3.085,38.764,2.213C284.224,17.135,293.638,31.6,306.3,41.5c37.884,29.76,94.06,13.723,139.689,29.232,36.45,12.382,65.389,50.5,58.423,88.367-6.816,37.18-43.978,64.484-46.577,102.191-1.174,17.06,5.072,33.742,6.338,50.794,2.515,33.8-16.641,68.214-46.627,84-15.09,7.931-32.057,11.309-48.765,14.587-29.207,5.726-62.555,17.663-92.458,16.272-27.665-1.291-57.785-14.033-82.239-26.273C143.9,375.567,95.8,333.7,70.419,282.841Z" transform="translate(-56.058 -6.681)"/><path class="d" d="M269.2,406.267a10.059,10.059,0,0,0-2.775,3.093,3.487,3.487,0,0,0,.327,3.907c1.031,1.065,2.716,1.048,4.192.9a60.7,60.7,0,0,0,16.2-3.957c1.559-.62,3.219-1.408,3.99-2.909a7.445,7.445,0,0,0,.6-3l.285-4.619c.067-1.081-.075-2.473-1.115-2.775a2.355,2.355,0,0,0-.838-.042c-3.353.184-8.232-.495-11.183,1.232C275.38,400.164,272.4,403.7,269.2,406.267Z" transform="translate(-56.058 -6.681)"/><path class="d" d="M329.586,409.595a10.262,10.262,0,0,1,2.347,3.429,3.513,3.513,0,0,1-.838,3.831c-1.165.922-2.834.679-4.267.335a60.509,60.509,0,0,1-15.534-6.069c-1.467-.838-3.01-1.819-3.571-3.4a7.544,7.544,0,0,1-.2-3.06l.327-4.619c.075-1.081.4-2.44,1.467-2.6a2.423,2.423,0,0,1,.838.059c3.269.629,8.224.6,10.9,2.708C324.262,402.729,326.752,406.627,329.586,409.595Z" transform="translate(-56.058 -6.681)"/><path class="e" d="M269.2,406.267a10.059,10.059,0,0,0-2.775,3.093,3.487,3.487,0,0,0,.327,3.907c1.031,1.065,2.716,1.048,4.192.9a60.7,60.7,0,0,0,16.2-3.957c1.559-.62,3.219-1.408,3.99-2.909a7.445,7.445,0,0,0,.6-3l.285-4.619c.067-1.081-.075-2.473-1.115-2.775a2.355,2.355,0,0,0-.838-.042c-3.353.184-8.232-.495-11.183,1.232C275.38,400.164,272.4,403.7,269.2,406.267Z" transform="translate(-56.058 -6.681)"/><path class="f" d="M329.586,409.595a10.262,10.262,0,0,1,2.347,3.429,3.513,3.513,0,0,1-.838,3.831c-1.165.922-2.834.679-4.267.335a60.509,60.509,0,0,1-15.534-6.069c-1.467-.838-3.01-1.819-3.571-3.4a7.544,7.544,0,0,1-.2-3.06l.327-4.619c.075-1.081.4-2.44,1.467-2.6a2.423,2.423,0,0,1,.838.059c3.269.629,8.224.6,10.9,2.708C324.262,402.729,326.752,406.627,329.586,409.595Z" transform="translate(-56.058 -6.681)"/><path class="g" d="M274.877,258.077l2.087,55.086,2.1,84.377s3.689,2.666,12.734.436l8.182-86.909,4.192-39.049,10.454,42.536L309.047,398.2a21.445,21.445,0,0,0,13.245,4.192l15.341-87.864-11.158-64.123Z" transform="translate(-56.058 -6.681)"/><path class="h" d="M274.877,258.077l2.087,55.086,2.1,84.377s3.663,1.132,12.734.436l8.182-86.909,4.192-39.049,10.454,42.536L309.047,398.2a21.445,21.445,0,0,0,13.245,4.192l15.341-87.864-11.158-64.123Z" transform="translate(-56.058 -6.681)"/><path class="d" d="M278.364,157.654s-13.782,7.545-15.341,9.071c-1.4,1.392,10.454,87.185,11.158,91.377s23.708,2.783,33.466,0a108.211,108.211,0,0,0,18.829-7.671s-4.879-89.264-6.966-90.656-21.62-5.583-21.62-5.583Z" transform="translate(-56.058 -6.681)"/><path class="d" d="M319.509,159.75s4.192,1.392,6.271,4.192,18.829,36.257,16.766,43.232-9.071,9.071-11.158,7.671-6.3-11.133-6.958-13.95-2.046-11.98-2.046-11.98Z" transform="translate(-56.058 -6.681)"/><path class="d" d="M340.14,220.344a6.706,6.706,0,0,0,3.077-.344,9.347,9.347,0,0,0,2.792-2,33.791,33.791,0,0,0,4.552-4.8,26.366,26.366,0,0,0,2.775-5.105,59.9,59.9,0,0,0,4.644-18.024c.26-2.624.319-5.374-.8-7.754a2.323,2.323,0,0,0-.671-.922,2.087,2.087,0,0,0-1.677-.218c-2.884.587-4.544,3.529-5.994,6.095a71.574,71.574,0,0,1-9.942,13.547,61.934,61.934,0,0,0-5.4,6.095c-1.769,2.515-3.806,6.086-1.677,8.819A11.98,11.98,0,0,0,340.14,220.344Z" transform="translate(-56.058 -6.681)"/><path class="i" d="M340.14,220.344a6.706,6.706,0,0,0,3.077-.344,9.347,9.347,0,0,0,2.792-2,33.791,33.791,0,0,0,4.552-4.8,26.366,26.366,0,0,0,2.775-5.105,59.9,59.9,0,0,0,4.644-18.024c.26-2.624.319-5.374-.8-7.754a2.323,2.323,0,0,0-.671-.922,2.087,2.087,0,0,0-1.677-.218c-2.884.587-4.544,3.529-5.994,6.095a71.574,71.574,0,0,1-9.942,13.547,61.934,61.934,0,0,0-5.4,6.095c-1.769,2.515-3.806,6.086-1.677,8.819A11.98,11.98,0,0,0,340.14,220.344Z" transform="translate(-56.058 -6.681)"/><path class="d" d="M263.677,166.2s-9.725,4.711-11.812,11.686S235.1,219.715,240.011,224.6c.419.419,1.048,1.107,1.811,1.945a8.576,8.576,0,0,0,14.62-3.4l8.978-31.613S267.818,171.252,263.677,166.2Z" transform="translate(-56.058 -6.681)"/><path class="d" d="M253.072,226.212a2.238,2.238,0,0,1-.9,1.09,8.617,8.617,0,0,1-1.861,1.081v.042a11.5,11.5,0,0,1-6.455,1.048c-4.309-.578-8.316-5.281-11.041-9.674-.461-.746-.428-2.456-.738-3.269a4.737,4.737,0,0,1-.235-2.213c.2-4.317-.193-11.2.2-15.827a7.669,7.669,0,0,1,.075-1.006c.075-.662.268-1.442.838-1.559a1.568,1.568,0,0,1,1.09.277c4.116,2.406,8.7,13.522,11.275,17.6,2.331,3.622,6.447,6.958,7.7,11.124A2.054,2.054,0,0,1,253.072,226.212Z" transform="translate(-56.058 -6.681)"/><path class="j" d="M250.431,228.073c-.042.117-.084.235-.117.31v.042a11.5,11.5,0,0,1-6.455,1.048c-4.309-.578-8.316-5.281-11.041-9.674-.461-.746-.428-2.456-.738-3.269a4.737,4.737,0,0,1-.235-2.213c.2-4.317-.193-11.2.2-15.827,3.965,3.077,8.2,13.3,10.647,17.186,2.331,3.613,6.455,6.958,7.7,11.116A2.129,2.129,0,0,1,250.431,228.073Z" transform="translate(-56.058 -6.681)"/><path class="k" d="M276.964,149.288s2.1,9.062,1.4,12.575,4.879,13.254,11.854,13.254,6.975-11.854,6.975-13.254-2.934-4.326-2.238-7.813S277.668,145.1,276.964,149.288Z" transform="translate(-56.058 -6.681)"/><path class="l" d="M280.837,160.052a11.987,11.987,0,0,0,2.456,2.641,9.456,9.456,0,0,0,5.734,1.786,5.768,5.768,0,0,0,4.083-1.442,5.2,5.2,0,0,0,1.157-3,40.622,40.622,0,0,0,.4-5.525c0-.838-.168-1.945-1.148-2.272a3.445,3.445,0,0,0-1.6,0,42.753,42.753,0,0,1-9.481.453c-2.18-.143-5.1-.771-4.586,1.6a16.28,16.28,0,0,0,2.984,5.759Z" transform="translate(-56.058 -6.681)"/><path class="m" d="M278.5,160.538s5.617,13.153,10.412,14.553c0,0,1.308.7-2.18,2.792s-13.254-8.383-11.854-16.045a5.751,5.751,0,0,1,3.471-4.451Z" transform="translate(-56.058 -6.681)"/><path class="m" d="M294.745,155.458s2.6,11.871-1.316,18.544c0,0,1.677,2.515,3.068,2.515s4.879-8.383,3.479-14.645C299.163,158.174,295.441,154.46,294.745,155.458Z" transform="translate(-56.058 -6.681)"/><path class="n" d="M260.231,213.445" transform="translate(-56.058 -6.681)"/><path class="k" d="M297.109,127.693s1.392,18.133,0,23.02-5.583,9.062-9.766,9.062-10.462-3.487-13.245-9.766S269.906,128.4,270.61,126.3s4.9-8.685,16.037-7.671C294.317,119.326,297.109,124.91,297.109,127.693Z" transform="translate(-56.058 -6.681)"/><path class="k" d="M299.926,138.776a6.63,6.63,0,0,1-.428,1.442,2.851,2.851,0,0,1-.528,1,2.817,2.817,0,0,1-1.266.679,1.107,1.107,0,0,1-.612.067c-1.366-.377-1.2-3.8-.511-4.728.377-.5,1.744-1.593,2.347-1.4C299.825,136.11,300.035,138.055,299.926,138.776Z" transform="translate(-56.058 -6.681)"/><path class="k" d="M271.331,140.544a1.266,1.266,0,0,0-.646-.335.888.888,0,0,0-.52.143,1.8,1.8,0,0,0-.788,1.392,4.4,4.4,0,0,0,.218,1.677,4.5,4.5,0,0,0,2.012,3.051.78.78,0,0,0,.838,0,.838.838,0,0,0,.235-.4,7.8,7.8,0,0,0,.654-3.119C273.2,141.986,272.052,141.14,271.331,140.544Z" transform="translate(-56.058 -6.681)"/><path class="d" d="M349.58,75.34H232.433a8.492,8.492,0,0,0-8.475,8.492V300.345a8.467,8.467,0,0,0,8.475,8.475H349.58a8.484,8.484,0,0,0,8.517-8.475V83.832a8.5,8.5,0,0,0-8.517-8.492Zm-3.261,207.241H234.143V85.014H346.335Z" transform="translate(-56.058 -6.681)"/><circle class="o" cx="8.073" cy="8.073" r="8.073" transform="translate(231.988 279.991)"/><path class="p" d="M281.072,162.207a8.518,8.518,0,0,0,1.828,2.565,5.617,5.617,0,0,0,4.074,1.207,4.317,4.317,0,0,0,2.322-.746,6.349,6.349,0,0,0,1.165-1.291,27.6,27.6,0,0,0,3.705-5.868,6.271,6.271,0,0,0,.578-2.6,2.968,2.968,0,0,0-1.107-2.331,4.259,4.259,0,0,0-2.054-.587,27.823,27.823,0,0,0-6.413-.092c-1.811.235-5.2.931-6.137,2.859S280.209,160.555,281.072,162.207Z" transform="translate(-56.058 -6.681)"/><path class="k" d="M223.831,177.246a31.127,31.127,0,0,1,9.4.947,5.214,5.214,0,0,1,1.744.713,2.012,2.012,0,0,1,.914,1.568c0,.922-.8,1.61-1.526,2.163a4.821,4.821,0,0,1,1.568,1.8,1.677,1.677,0,0,1-.637,2.087c-.2.092-.461.159-.52.369s.126.4.268.562a2.222,2.222,0,0,1-1.148,3.68,1.115,1.115,0,0,1,1.006,1.325,1.794,1.794,0,0,1-1.291,1.274,5.315,5.315,0,0,1-1.895.126,15.26,15.26,0,0,0-6.522.637,5.029,5.029,0,0,1-2.339.646,2.423,2.423,0,0,1-1.761-1.308,5.366,5.366,0,0,1-.528-2.2c-.184-3.2.838-6.43.31-9.6C220.42,179.4,220.621,177.405,223.831,177.246Z" transform="translate(-56.058 -6.681)"/><path class="k" d="M351,167.664a11.105,11.105,0,0,0-5.131,1.677c-1.45,1.1-2.263,3.261-1.283,4.787.3.469.763.889.8,1.442a2.515,2.515,0,0,1-.377,1.2,5.382,5.382,0,0,0,.52,5.323c-.6,1.769-.981,4.024.419,5.256,1.216,1.065,3.077.729,4.644.335l4.192-1.056a4.015,4.015,0,0,0,2.339-1.2,3.714,3.714,0,0,0,.545-1.316,34.852,34.852,0,0,0,1.2-13.757C358.2,165.887,354.609,167.1,351,167.664Z" transform="translate(-56.058 -6.681)"/><path class="g" d="M274.223,112.5c3-2.674,6.707-4.628,9-7.947l.369,3.622,4.116-3.353a4.192,4.192,0,0,0,.293,2.515,5.374,5.374,0,0,1,2.138-2.1,6.984,6.984,0,0,0,.562,3.035,17.663,17.663,0,0,0,2.691-3.353,4.057,4.057,0,0,0,.344,3.093,3.353,3.353,0,0,0,1.735-2.222c1.1,3.923,3.295,7.486,4.192,11.46a36.674,36.674,0,0,1,.428,9.825,24.872,24.872,0,0,1-2.649,10.06,76.433,76.433,0,0,0-2.666-8.509,12.14,12.14,0,0,0-2.515-4.192c-2.515-2.423-6.514-2.356-10.06-2.071-3.228.26-6.774.738-8.895,3.177-1.735,2-2.062,4.862-1.895,7.5s.754,5.273.52,7.914c-2.28-2.683-4.493-5.6-5.231-9.037a9.658,9.658,0,0,1,.293-5.231c.62-1.727,2.381-2.6,2.993-4.074s0-3.4.545-5.03A13.019,13.019,0,0,1,274.223,112.5Z" transform="translate(-56.058 -6.681)"/><path class="q" d="M274.223,112.5c3-2.674,6.707-4.628,9-7.947l.369,3.622,4.116-3.353a4.192,4.192,0,0,0,.293,2.515,5.374,5.374,0,0,1,2.138-2.1,6.984,6.984,0,0,0,.562,3.035,17.663,17.663,0,0,0,2.691-3.353,4.057,4.057,0,0,0,.344,3.093,3.353,3.353,0,0,0,1.735-2.222c1.1,3.923,3.295,7.486,4.192,11.46a36.674,36.674,0,0,1,.428,9.825,24.872,24.872,0,0,1-2.649,10.06,76.433,76.433,0,0,0-2.666-8.509,12.14,12.14,0,0,0-2.515-4.192c-2.515-2.423-6.514-2.356-10.06-2.071-3.228.26-6.774.738-8.895,3.177-1.735,2-2.062,4.862-1.895,7.5s.754,5.273.52,7.914c-2.28-2.683-4.493-5.6-5.231-9.037a9.658,9.658,0,0,1,.293-5.231c.62-1.727,2.381-2.6,2.993-4.074s0-3.4.545-5.03A13.019,13.019,0,0,1,274.223,112.5Z" transform="translate(-56.058 -6.681)"/><rect class="d" width="50.911" height="38.395" rx="12.39" transform="translate(279.831 92.358)"/><rect class="r" width="50.911" height="38.395" rx="12.39" transform="translate(279.831 92.358)"/><path class="d" d="M300.7,102.795l13.983,8.76L300.7,120.115Z"/><path class="d" d="M434.946,177.347v20.9a8.744,8.744,0,0,1-8.744,8.744h-1.576v9.222l-4.77-9.222H383.573a8.735,8.735,0,0,1-8.744-8.744v-20.9a8.735,8.735,0,0,1,8.744-8.744H426.2a8.735,8.735,0,0,1,8.744,8.744Z" transform="translate(-56.058 -6.681)"/><path class="s" d="M434.946,177.347v20.9a8.744,8.744,0,0,1-8.744,8.744h-1.576v9.222l-4.77-9.222H383.573a8.735,8.735,0,0,1-8.744-8.744v-20.9a8.735,8.735,0,0,1,8.744-8.744H426.2a8.735,8.735,0,0,1,8.744,8.744Z" transform="translate(-56.058 -6.681)"/><rect class="d" width="44.791" height="2.507" transform="translate(326.341 169.508)"/><rect class="d" width="44.791" height="2.507" transform="translate(326.341 176.123)"/><rect class="d" width="44.791" height="2.507" transform="translate(326.341 182.729)"/><path class="d" d="M198.447,240.363c0,12.457-12.952,22.534-28.93,22.534a35.316,35.316,0,0,1-7.972-.889l-12.625,6.463,5.03-9.138c-8.056-3.965-13.413-10.965-13.413-18.971,0-12.449,12.952-22.526,28.93-22.526S198.447,227.914,198.447,240.363Z" transform="translate(-56.058 -6.681)"/><path class="t" d="M198.447,240.363c0,12.457-12.952,22.534-28.93,22.534a35.316,35.316,0,0,1-7.972-.889l-12.625,6.463,5.03-9.138c-8.056-3.965-13.413-10.965-13.413-18.971,0-12.449,12.952-22.526,28.93-22.526S198.447,227.914,198.447,240.363Z" transform="translate(-56.058 -6.681)"/><path class="d" d="M390.137,241.344s-6.707-8.76-12.935-.419,14.184,18.368,14.184,18.368,14.612-10.437,12.944-16.7A7.634,7.634,0,0,0,390.137,241.344Z" transform="translate(-56.058 -6.681)"/><path class="d" d="M167.01,156.213s-6.707-8.76-12.935-.419,14.193,18.368,14.193,18.368,14.6-10.437,12.935-16.7A7.634,7.634,0,0,0,167.01,156.213Z" transform="translate(-56.058 -6.681)"/><path class="u" d="M167.01,156.213s-6.707-8.76-12.935-.419,14.193,18.368,14.193,18.368,14.6-10.437,12.935-16.7A7.634,7.634,0,0,0,167.01,156.213Z" transform="translate(-56.058 -6.681)"/><rect class="d" width="36.727" height="32.552" rx="8.358" transform="translate(119.167 89.021)"/><rect class="v" width="21.419" height="21.419" rx="4.56" transform="translate(126.955 95.007)"/><circle class="v" cx="3.907" cy="3.907" r="3.907" transform="translate(133.821 100.615)"/><circle class="w" cx="1.299" cy="1.299" r="1.299" transform="translate(142.414 98.167)"/><path class="d" d="M253.91,53.761s7.394,12.986,19.474,11.477S286.37,53.761,286.37,53.761h4.376l-3.622-2.867s-1.207-4.376-4.527-3.353-7.855,5.281-7.855,5.281L261.33,40.751a5.315,5.315,0,0,0,.3,5.583s-1.811,2.565.151,4.074c0,0,0,2.565,1.962,3.622A7.657,7.657,0,0,1,253.91,53.761Z" transform="translate(-56.058 -6.681)"/></g></g></svg>