<svg xmlns="http://www.w3.org/2000/svg" width="86.378" height="82" viewBox="0 0 86.378 82"><defs><style>.a{fill:#436375;}.b{fill:#274a59;}.c{fill:#fff;}.d{fill:#e9edf5;}.e{fill:#ffaa20;}.f{fill:#ff8900;}.g{fill:#9e653e;}.h{fill:#835637;}</style></defs><g transform="translate(0.335 0.331)"><g transform="translate(0 0.08)"><ellipse class="a" cx="43" cy="41" rx="43" ry="41" transform="translate(-0.335 -0.411)"/></g><path class="b" d="M206.879,101.176c0-.157,0-.313-.006-.47L176.414,71.8s-15.2-.289-18.5,5.134-12.669,52.322-12.669,52.322l13.087,12.421a45.737,45.737,0,0,0,5.526.334C187.618,142.009,206.879,123.728,206.879,101.176Z" transform="translate(-120.836 -60.34)"/><g transform="translate(18.885 6.02)"><g transform="translate(6.316)"><path class="c" d="M184.878,66.833H174.654V54.293a7.243,7.243,0,0,0-14.466,0V66.832H149.964V54.293c0-9.136,7.831-16.569,17.457-16.569s17.457,7.433,17.457,16.569Z" transform="translate(-149.964 -37.724)"/></g><g transform="translate(24.136 0.003)"><path class="d" d="M273.094,54.306v12.54H262.87V54.306A7.041,7.041,0,0,0,256,47.451V37.74C265.46,37.925,273.094,45.285,273.094,54.306Z" transform="translate(-256 -37.74)"/></g><g transform="translate(0 28.167)"><path class="e" d="M143.877,253.155H129.151c-9.264,0-16.773-7.128-16.773-15.92V214.317H160.65v22.918C160.65,246.027,153.14,253.155,143.877,253.155Z" transform="translate(-112.378 -214.317)"/></g><g transform="translate(24.136 28.168)"><path class="f" d="M280.136,214.32v22.917c0,8.792-7.509,15.92-16.773,15.92H256V214.32Z" transform="translate(-256 -214.32)"/></g><path class="g" d="M232.518,281.187a5.952,5.952,0,0,0-11.888,0,5.511,5.511,0,0,0,2.038,4.251l-1.556,9.414h10.923l-1.556-9.414A5.511,5.511,0,0,0,232.518,281.187Z" transform="translate(-202.438 -237.612)"/><path class="h" d="M259.906,285.441l1.556,9.414H256v-19.3a5.8,5.8,0,0,1,5.944,5.642A5.507,5.507,0,0,1,259.906,285.441Z" transform="translate(-231.864 -237.616)"/></g></g></svg>