<svg xmlns="http://www.w3.org/2000/svg" width="30" height="30" viewBox="0 0 30 30"><defs><style>.b{fill:#980b0b;}</style></defs><g transform="translate(7 6.979)"><path class="b" d="M277.125,271h-4.719a1.406,1.406,0,0,0,0,2.813h4.719a1.406,1.406,0,0,0,0-2.813Zm0,1.875h-4.719a.469.469,0,1,1,0-.937h4.719a.469.469,0,1,1,0,.937Z" transform="translate(-262.531 -262.531)"/><path class="b" d="M6.125,151H1.406a1.406,1.406,0,0,0,0,2.813H6.125a1.406,1.406,0,0,0,0-2.813Zm0,1.875H1.406a.469.469,0,0,1,0-.938H6.125a.469.469,0,0,1,0,.938Z" transform="translate(0 -146.281)"/><path class="b" d="M272.406,7.531a1.408,1.408,0,0,0,1.406-1.406V1.406a1.406,1.406,0,1,0-2.812,0V6.125A1.408,1.408,0,0,0,272.406,7.531Zm-.469-6.125a.469.469,0,0,1,.938,0V6.125a.469.469,0,0,1-.938,0Z" transform="translate(-262.531 0)"/><path class="b" d="M152.406,271A1.408,1.408,0,0,0,151,272.406v4.719a1.406,1.406,0,0,0,2.812,0v-4.719A1.408,1.408,0,0,0,152.406,271Zm.469,6.125a.469.469,0,0,1-.937,0v-4.719a.469.469,0,0,1,.938,0Z" transform="translate(-146.281 -262.531)"/><path class="b" d="M392.469,124.75h1.406A1.875,1.875,0,1,0,392,122.875v1.406A.469.469,0,0,0,392.469,124.75Zm.469-1.875a.938.938,0,1,1,.938.938h-.938Z" transform="translate(-379.75 -117.219)"/><path class="b" d="M3.281,271H1.875a1.875,1.875,0,1,0,1.875,1.875v-1.406A.469.469,0,0,0,3.281,271Zm-.469,1.875a.937.937,0,1,1-.937-.937h.937Z" transform="translate(0 -262.531)"/><path class="b" d="M122.875,0a1.875,1.875,0,0,0,0,3.75h1.406a.469.469,0,0,0,.469-.469V1.875A1.877,1.877,0,0,0,122.875,0Zm.938,2.813h-.937a.938.938,0,1,1,.938-.938Z" transform="translate(-117.219 0)"/><path class="b" d="M272.875,392h-1.406a.469.469,0,0,0-.469.469v1.406A1.875,1.875,0,1,0,272.875,392Zm0,2.813a.939.939,0,0,1-.938-.938v-.937h.938a.938.938,0,0,1,0,1.875Z" transform="translate(-262.531 -379.75)"/></g></svg>