<svg xmlns="http://www.w3.org/2000/svg" width="490.341" height="175.029" viewBox="0 0 490.341 175.029"><defs><style>.a{fill:#fff;}</style></defs><g transform="translate(929.065 30.158)"><path class="a" d="M-852.554-30.158c-25.134,0-44.321,16.9-52.177,25.771-14.458,15.906-24.335,33.2-24.335,60.865,1.667,51.478,42.605,82.848,75.813,88.393V130.359c-38.948-7.982-59.949-45.84-59.824-75.914.377-23.64,14.657-43.373,21.141-49.406,7.446-7.539,21.045-19.019,39.566-21.321Zm17.231,19.185a71.673,71.673,0,0,0-22.913,3.522c-20.029,6.835-34.444,21.485-41,36.42-9.382,21.115-7.1,49.731,8.635,69.917,21.361,23.788,52.346,31.124,78.118,21.3a129.34,129.34,0,0,0,14.26-6.341l-7.663-12.171a109.51,109.51,0,0,1-12.653,5.678c-47.46,13.475-86.965-31.91-66.54-71.995,3.782-9.02,14.129-22.433,31.533-28.831,6.015-2.212,29.676-6.486,46.935,5.756,16.974,10.746,33.8,36.806,23.2,61.42a14.075,14.075,0,0,1-11.953,8.478c.057-4.982-.161-12.315-.119-18.286.07-9.873-1.141-15.822-2.521-19.961-5.453-17.958-23.091-25.691-37.784-25.469-17.768.4-24.432,6.261-31.926,16.007-14.7,20.581-7.566,44.5,10,55.733a43.2,43.2,0,0,0,29.423,5.927,45.676,45.676,0,0,0,9.222-2.539c2.611-1.095,6.067-2.541,4.824-2.6V75.5a86.323,86.323,0,0,1-10.269,5.054,30.023,30.023,0,0,1-6.251,1.783c-8.459.555-12.568-.563-19.4-4.794-19.479-11.974-11.666-44.518,14.2-45.5,11.176,1.177,18.711,5.644,22.562,16.582a47.854,47.854,0,0,1,2.08,15.7c-.129,9.971-.081,23.885-.081,23.885l.213,8.163h6.118s3.652.116,8.089-.029a45.308,45.308,0,0,0,7.18-.943,19.891,19.891,0,0,0,7.995-3.61,32.472,32.472,0,0,0,10.251-12.372c3.094-6.514,4.884-15.759,4.047-28.355C-769.1,27.148-781.449,12.22-798.258-.07c-11.871-7.148-25.474-10.817-37.064-10.9Z" transform="translate(0 0)"/><path class="a" d="M437.2,151.831a18.675,18.675,0,0,0-16.954,11.384c-8.191,18.012-10.333,22.109-18.772,41.553-5.651,13.021-8.8,19.388-16.063,35.7-2.2,4.951-13.083,29.062-13.083,29.062l27.066.117c6.542-14.741,7.147-15.854,9.278-21.107,5.456-10.652,8.692-19.3,14.639-31.986,4.71-10.05,7.164-15.9,9.128-20.1,2.182-4.658,2.319-6.761,4.92-6.858,1.835-.068,3.731,5.732,8.66,16.163,2.913,6.167,8.179,17.885,10.065,22.03,1.784,3.92,2.888,7.255,4.311,9.6a40.281,40.281,0,0,1,3.1,6.333c.338,1.127-4.653.445-10.956.5-11.952.1-29.156-.039-29.156-.039l-11.406,25.342c32.9.533,57.08-.849,89.773.136-14.737-33.227-42.369-93.89-43.72-97s-3.222-6.895-4.067-8.956c-3.285-8.009-10.01-11.876-16.766-11.87Zm-130.1,1.914s-9.374.937-11.481,2.506c-9.16,4.151-16.851,12.287-19.662,42.311-.587,18.37-.805,34.729,3.992,49,3.9,11.276,13.336,21.676,21.48,21.835h61.854l10.628-25.468s-42.441.481-62.7.427c-12.053-.032-9.7-27.4-10.15-43.467,0,0,1.012-21.516,8.107-21.379,22.452.433,90.589-.165,90.589-.165L412.45,154.24l-105.349-.5Zm154.129.359c.061.65,12.3,25.414,11.93,25.478,13.317.071,27.238-.535,41.92,0l-.019,89.789,24.817.087.047-90.139,43.289-.068c.24-12.115-.106-18.319,0-25.021-41.74-.143-77.958-.1-121.984-.126Z" transform="translate(-1022.025 -153.385)"/></g></svg>