<svg xmlns="http://www.w3.org/2000/svg" xmlns:xlink="http://www.w3.org/1999/xlink" width="591.092" height="420.37" viewBox="0 0 591.092 420.37"><defs><style>.a,.k{fill:#fff;}.a{stroke:#707070;}.b{clip-path:url(#a);}.c,.f,.h{fill:#f54747;}.c,.d{opacity:0.2;}.e{fill:none;stroke:#535461;stroke-miterlimit:10;stroke-width:1.041px;}.g{opacity:0.25;}.h{opacity:0.1;}.i{fill:#535461;}.j{fill:#eaeaf3;}</style><clipPath id="a"><rect class="a" width="591.092" height="420.37" transform="translate(1274 1528)"/></clipPath></defs><g class="b" transform="translate(-1274 -1528)"><g transform="translate(1284.132 1528.01)"><path class="c" d="M32.936,247.669c9.033,38.607,28.154,71.98,58.374,88.157,62.8,33.617,204.436,16.281,310.143-3.642A242.054,242.054,0,0,0,539.1,253.5Z" transform="translate(-26.77 -23.96)"/><path class="c" d="M587.251,65.955h-58a5.013,5.013,0,0,1,0-10.026h10.026a5.013,5.013,0,0,1,0-10.026h-7.159a5.013,5.013,0,1,1,0-10.026h30.272a80.1,80.1,0,0,0-23.612-6.509c-82.542-10.6-112.013-3.59-122.409,3.642a115.594,115.594,0,0,1-42.426,18.6c-50.928,10.505-146.172,23.149-232.5-4.048-42.905-13.528-74.8,9.324-93.906,47.494H597.319c-.718-11.093-2.867-21.333-6.811-30.3a4.985,4.985,0,0,1-3.257,1.207Z" transform="translate(-26.77 -23.96)"/><path class="c" d="M28.014,167.1a255.505,255.505,0,0,0,2.248,67.355l509.22,18.622a239.346,239.346,0,0,0,35.381-53.956Zm201.4,48.051H219.39a5.013,5.013,0,0,1,0,10.026h-58a5.013,5.013,0,1,1,0-10.026h10.026a5.013,5.013,0,1,1,0-10.026h-7.159a5.013,5.013,0,1,1,0-10.026h58a5.013,5.013,0,0,1,0,10.026h7.16a5.013,5.013,0,0,1,0,10.026Z" transform="translate(-26.77 -23.96)"/><path class="c" d="M597.345,95.394,41.4,108.922c-6.759,17.378-11.218,37.031-13.3,57.406H587.605a237.5,237.5,0,0,0,8.08-36.594A173.409,173.409,0,0,0,597.345,95.394ZM140.963,139.7H130.937a5.013,5.013,0,1,1,0,10.026h-58a5.013,5.013,0,1,1,0-10.026H82.964a5.013,5.013,0,0,1,0-10.026H75.8a5.013,5.013,0,1,1,0-10.026h58a5.013,5.013,0,1,1,0,10.026h7.16a5.013,5.013,0,1,1,0,10.026Z" transform="translate(-26.77 -23.96)"/><g class="d"><path class="e" d="M379.308,348.261s14.673-36.162,42.073-49.575a59.134,59.134,0,0,0,26.853-26.042,99.45,99.45,0,0,0,6.728-16.91" transform="translate(-26.77 -23.96)"/><path class="f" d="M472.179,247.175c-2.857,3.59-17.639,8.845-17.639,8.845s1.779-15.609,4.636-19.174a8.325,8.325,0,0,1,13.008,10.344Z" transform="translate(-26.77 -23.96)"/><path class="f" d="M467.106,275.615c-4.35,1.462-19.605-2.175-19.605-2.175s9.964-12.113,14.314-13.575a8.325,8.325,0,0,1,5.292,15.75Z" transform="translate(-26.77 -23.96)"/><path class="f" d="M439.6,309.227c-4.49-.931-15.828-11.775-15.828-11.775s14.714-5.427,19.21-4.5a8.325,8.325,0,0,1-3.382,16.265Z" transform="translate(-26.77 -23.96)"/><path class="f" d="M413.066,329.977c-4.584-.161-17.592-8.929-17.592-8.929s13.591-7.82,18.175-7.675a8.325,8.325,0,1,1-.583,16.6Z" transform="translate(-26.77 -23.96)"/><path class="f" d="M433.3,263.278c.588,4.553,10.521,16.686,10.521,16.686s6.54-14.257,5.958-18.809a8.325,8.325,0,0,0-16.478,2.123Z" transform="translate(-26.77 -23.96)"/><path class="f" d="M402.566,287.936c1.92,4.163,15.032,12.774,15.032,12.774s1.977-15.563.057-19.725a8.325,8.325,0,1,0-15.089,6.957Z" transform="translate(-26.77 -23.96)"/><path class="f" d="M375.989,316c1.186,4.433,12.659,15.131,12.659,15.131s4.579-15,3.387-19.434a8.325,8.325,0,0,0-16.046,4.3Z" transform="translate(-26.77 -23.96)"/><path class="g" d="M472.179,247.175c-2.857,3.59-17.639,8.845-17.639,8.845s1.779-15.609,4.636-19.174a8.325,8.325,0,0,1,13.008,10.344Z" transform="translate(-26.77 -23.96)"/><path class="g" d="M467.106,275.615c-4.35,1.462-19.605-2.175-19.605-2.175s9.964-12.113,14.314-13.575a8.325,8.325,0,0,1,5.292,15.75Z" transform="translate(-26.77 -23.96)"/><path class="g" d="M439.6,309.227c-4.49-.931-15.828-11.775-15.828-11.775s14.714-5.427,19.21-4.5a8.325,8.325,0,0,1-3.382,16.265Z" transform="translate(-26.77 -23.96)"/><path class="g" d="M413.066,329.977c-4.584-.161-17.592-8.929-17.592-8.929s13.591-7.82,18.175-7.675a8.325,8.325,0,1,1-.583,16.6Z" transform="translate(-26.77 -23.96)"/><path class="g" d="M433.3,263.278c.588,4.553,10.521,16.686,10.521,16.686s6.54-14.257,5.958-18.809a8.325,8.325,0,0,0-16.478,2.123Z" transform="translate(-26.77 -23.96)"/><path class="g" d="M402.566,287.936c1.92,4.163,15.032,12.774,15.032,12.774s1.977-15.563.057-19.725a8.325,8.325,0,1,0-15.089,6.957Z" transform="translate(-26.77 -23.96)"/><path class="g" d="M375.989,316c1.186,4.433,12.659,15.131,12.659,15.131s4.579-15,3.387-19.434a8.325,8.325,0,0,0-16.046,4.3Z" transform="translate(-26.77 -23.96)"/></g><g class="d"><path class="e" d="M368.9,295.387s1.852-38.982,23.253-60.726a59.134,59.134,0,0,0,16.65-33.482,99.448,99.448,0,0,0,.744-18.169" transform="translate(-26.77 -23.96)"/><path class="f" d="M423.015,169.227c-1.5,4.334-13.71,14.184-13.71,14.184s-3.486-15.292-1.982-19.626a8.325,8.325,0,1,1,15.693,5.442Z" transform="translate(-26.77 -23.96)"/><path class="f" d="M427.635,197.719c-3.642,2.82-19.22,4.454-19.22,4.454s5.385-14.735,9-17.555a8.325,8.325,0,1,1,10.219,13.1Z" transform="translate(-26.77 -23.96)"/><path class="f" d="M412.832,238.574c-4.548.609-18.835-5.859-18.835-5.859s12.087-10,16.65-10.609a8.325,8.325,0,1,1,2.206,16.468Z" transform="translate(-26.77 -23.96)"/><path class="f" d="M394.678,266.947c-4.381,1.368-19.559-2.6-19.559-2.6s10.219-11.9,14.6-13.268a8.325,8.325,0,0,1,4.959,15.859Z" transform="translate(-26.77 -23.96)"/><path class="f" d="M391.645,197.313c2.081,4.1,15.464,12.253,15.464,12.253s1.441-15.609-.619-19.72a8.325,8.325,0,0,0-14.845,7.466Z" transform="translate(-26.77 -23.96)"/><path class="f" d="M370.832,230.769c3.195,3.294,18.419,7.066,18.419,7.066s-3.294-15.334-6.488-18.627a8.325,8.325,0,0,0-11.931,11.567Z" transform="translate(-26.77 -23.96)"/><path class="f" d="M355.067,266.057c2.6,3.788,16.962,10.078,16.962,10.078s-.656-15.672-3.247-19.46a8.325,8.325,0,0,0-13.71,9.366Z" transform="translate(-26.77 -23.96)"/></g><path class="h" d="M182.729,427.6c20.459,6.879,45.418,2.7,68.629,3.179,3.179.068,6.54.265,9.09,1.452s3.8,3.122,5.552,4.761c6.5,6.134,19.829,8.106,31.479,7.066s22.332-4.485,33.3-7.107c19-4.537,40.725-6.6,59.467-1.655a15.488,15.488,0,0,0,5.375.8c4.111-.406,5.333-3.694,8.205-5.573,5.2-3.392,16.458-2.471,18.731-6.941,1.337-2.6-1.738-5.307-5.083-7.1-12.81-6.847-31.136-7.976-47.9-6.92s-33.248,3.97-50.1,3.98c-20.995,0-41.282-4.469-62.073-6.3-14.4-1.27-30.121-1.113-43.623,2.6C199.181,413.909,195.955,422.983,182.729,427.6Z" transform="translate(-26.77 -23.96)"/><rect class="i" width="3.642" height="51.511" transform="translate(190.18 96.206)"/><rect class="i" width="3.642" height="29.138" transform="translate(190.18 165.408)"/><rect class="i" width="163.899" height="355.894" rx="24.507" transform="translate(192.781 45.736)"/><rect class="f" width="163.899" height="324.155" rx="24.507" transform="translate(192.781 62.386)"/><rect class="j" width="27.056" height="3.642" rx="1.821" transform="translate(261.463 53.54)"/><circle class="j" cx="2.602" cy="2.602" r="2.602" transform="translate(295.283 53.02)"/><path class="k" d="M258.991,230.056v37.983a8.986,8.986,0,0,1-9.017,9.085c-5.016,0-9.886-4.064-9.886-9.085V230.056c0-4.953,4.855-9.017,9.886-9.017A9.053,9.053,0,0,1,258.991,230.056Zm3.543,51.48a9.683,9.683,0,0,0,9.7,9.7h6.525l.1,20.037c0,12.1,18.1,12,18.1,0V291.245h12.2v20.037c0,12.035,18.211,12.066,18.211,0V291.245h6.624a9.673,9.673,0,0,0,9.641-9.7V222.694h-81.1Zm81.32-62.006H262.165c0-14.048,8.393-26.234,20.854-32.592l-6.244-11.577c-.916-1.608,1.41-2.6,2.2-1.244l6.363,11.676a44.3,44.3,0,0,1,35.511,0l6.327-11.639a1.262,1.262,0,1,1,2.2,1.244l-6.244,11.541C335.461,193.3,343.854,205.5,343.854,219.531ZM287.879,201.32a3.424,3.424,0,1,0,0,.01Zm37.187,0a3.43,3.43,0,1,0,0,.01Zm31.083,19.709a8.991,8.991,0,0,0-9.017,9.017v37.983a9.048,9.048,0,0,0,9.017,9.085c5.052,0,9.886-4.064,9.886-9.085V230.046c-.016-5.037-4.87-9.007-9.886-9.007Z" transform="translate(-26.77 -23.96)"/><rect class="i" width="33.82" height="1.561" transform="translate(236.227 296.298)"/><rect class="i" width="22.373" height="1.561" transform="translate(282.535 296.298)"/><rect class="i" width="22.373" height="1.561" transform="translate(206.57 296.298)"/><rect class="i" width="22.373" height="1.561" transform="translate(317.917 296.298)"/></g></g></svg>