<svg xmlns="http://www.w3.org/2000/svg" width="21.15" height="22.85" viewBox="0 0 21.15 22.85"><defs><style>.a{fill:#fff;fill-rule:evenodd;}</style></defs><path class="a" d="M3.1,5.456c0,.409.248,1.527.619,1.527H6.192c.31,0,.619-1.117.619-1.527a.617.617,0,0,0-.619-.682H3.715A.653.653,0,0,0,3.1,5.456ZM0,3.41A3.232,3.232,0,0,1,3.1,0H6.811a3.232,3.232,0,0,1,3.1,3.41v6.82a.617.617,0,0,1-.619.682H3.1A3.232,3.232,0,0,1,0,7.5Z"/><path class="a" d="M6.811,5.456c0,.409-.248,1.586-.619,1.586H3.715c-.31,0-.619-1.177-.619-1.586a.617.617,0,0,1,.619-.682H6.192A.653.653,0,0,1,6.811,5.456Zm3.1-2.046A3.232,3.232,0,0,0,6.811,0H3.1A3.232,3.232,0,0,0,0,3.41v6.82a.617.617,0,0,0,.619.682H6.811a3.232,3.232,0,0,0,3.1-3.41Z" transform="translate(11.243)"/><path class="a" d="M3.1,5.456c0-.409.248-1.373.619-1.373H6.192c.31,0,.619.964.619,1.373a.617.617,0,0,1-.619.682H3.715A.653.653,0,0,1,3.1,5.456ZM0,7.5a3.232,3.232,0,0,0,3.1,3.41H6.811a3.232,3.232,0,0,0,3.1-3.41V.682A.617.617,0,0,0,9.288,0H3.1A3.232,3.232,0,0,0,0,3.41Z" transform="translate(0 11.938)"/><path class="a" d="M6.811,5.456c0-.409-.248-1.373-.619-1.373H3.715c-.31,0-.619.964-.619,1.373a.617.617,0,0,0,.619.682H6.192A.653.653,0,0,0,6.811,5.456ZM9.907,7.5a3.232,3.232,0,0,1-3.1,3.41H3.1A3.232,3.232,0,0,1,0,7.5V.682A.617.617,0,0,1,.619,0H6.811a3.232,3.232,0,0,1,3.1,3.41Z" transform="translate(11.243 11.938)"/></svg>