<svg xmlns="http://www.w3.org/2000/svg" width="83.177" height="77.75" viewBox="0 0 83.177 77.75"><defs><style>.a{fill:#57a4ff;}.b{fill:#78b9eb;}.c{fill:#ffb655;}.d{fill:#ffe477;}.e{fill:#ffd422;}.f{fill:#ff3f62;}.g{fill:#006df0;}.h{fill:#ff9811;}.i{fill:#c70024;}.j{fill:#1d1d1f;}.k{fill:#fff;}</style></defs><rect class="a" width="64.158" height="59.972" transform="translate(9.51 8.89)"/><g transform="translate(32.883 21.513)"><rect class="b" width="23.909" height="22.349" transform="translate(0 6.187)"/><rect class="b" width="5.442" height="5.087" transform="translate(33.237)"/><rect class="b" width="5.442" height="5.087" transform="translate(33.237 8.554)"/></g><rect class="c" width="23.909" height="22.349" transform="translate(29.633 27.7)"/><rect class="d" width="8.292" height="4.151" transform="translate(73.667 12.882)"/><rect class="d" width="8.292" height="4.151" transform="translate(73.667 22.449)"/><rect class="d" width="8.292" height="4.151" transform="translate(73.667 32.016)"/><rect class="d" width="8.292" height="4.151" transform="translate(73.667 41.583)"/><rect class="d" width="8.292" height="4.151" transform="translate(73.667 51.15)"/><rect class="d" width="8.292" height="4.151" transform="translate(73.667 60.716)"/><g transform="translate(1.218 12.882)"><rect class="d" width="8.292" height="4.151"/><rect class="d" width="8.292" height="4.151" transform="translate(0 9.567)"/><rect class="d" width="8.292" height="4.151" transform="translate(0 19.134)"/><rect class="d" width="8.292" height="4.151" transform="translate(0 28.701)"/><rect class="d" width="8.292" height="4.151" transform="translate(0 38.268)"/><rect class="d" width="8.292" height="4.151" transform="translate(0 47.834)"/></g><rect class="e" width="4.44" height="7.751" transform="translate(64.954 68.86)"/><rect class="e" width="4.44" height="7.751" transform="translate(54.72 68.86)"/><rect class="e" width="4.44" height="7.751" transform="translate(44.485 68.86)"/><rect class="e" width="4.44" height="7.751" transform="translate(34.25 68.86)"/><rect class="e" width="4.44" height="7.751" transform="translate(24.016 68.86)"/><rect class="e" width="4.44" height="7.751" transform="translate(13.781 68.86)"/><rect class="e" width="4.44" height="7.751" transform="translate(64.954 1.139)"/><rect class="e" width="4.44" height="7.751" transform="translate(54.72 1.139)"/><rect class="e" width="4.44" height="7.751" transform="translate(44.485 1.139)"/><rect class="e" width="4.44" height="7.751" transform="translate(34.25 1.139)"/><rect class="e" width="4.44" height="7.751" transform="translate(24.016 1.139)"/><rect class="e" width="4.44" height="7.751" transform="translate(13.781 1.139)"/><g transform="translate(62.87 21.513)"><rect class="f" width="5.442" height="5.087"/><rect class="f" width="5.442" height="5.087" transform="translate(0 8.554)"/></g><g transform="translate(73.667 12.882)"><rect class="d" width="8.292" height="4.151"/></g><g transform="translate(73.667 22.449)"><rect class="d" width="8.292" height="4.151"/></g><g transform="translate(73.667 32.016)"><rect class="d" width="8.292" height="4.151"/></g><g transform="translate(73.667 41.583)"><rect class="d" width="8.292" height="4.151"/></g><g transform="translate(73.667 51.15)"><rect class="d" width="8.292" height="4.151"/></g><g transform="translate(73.667 60.716)"><rect class="d" width="8.292" height="4.151"/></g><g transform="translate(64.954 68.86)"><rect class="e" width="4.44" height="7.751"/></g><g transform="translate(54.72 68.86)"><rect class="e" width="4.44" height="7.751"/></g><g transform="translate(44.485 68.86)"><rect class="e" width="4.44" height="7.751"/></g><g transform="translate(34.25 68.86)"><rect class="e" width="4.44" height="7.751"/></g><g transform="translate(24.016 68.86)"><rect class="e" width="4.44" height="7.751"/></g><g transform="translate(13.781 68.86)"><rect class="e" width="4.44" height="7.751"/></g><g transform="translate(64.954 1.139)"><rect class="e" width="4.44" height="7.751"/></g><g transform="translate(54.72 1.139)"><rect class="e" width="4.44" height="7.751"/></g><g transform="translate(44.485 1.139)"><rect class="e" width="4.44" height="7.751"/></g><g transform="translate(34.25 1.139)"><rect class="e" width="4.44" height="7.751"/></g><g transform="translate(24.016 1.139)"><rect class="e" width="4.44" height="7.751"/></g><g transform="translate(13.781 1.139)"><rect class="e" width="4.44" height="7.751"/></g><rect class="g" width="9.747" height="59.972" transform="translate(9.51 8.89)"/><rect class="h" width="3.249" height="22.349" transform="translate(29.633 27.7)"/><g transform="translate(1.218 12.882)"><rect class="e" width="3.249" height="4.151" transform="translate(0 19.134)"/><rect class="e" width="3.249" height="4.151" transform="translate(0 9.567)"/><rect class="e" width="3.249" height="4.151"/><rect class="e" width="3.249" height="4.151" transform="translate(0 47.834)"/><rect class="e" width="3.249" height="4.151" transform="translate(0 28.701)"/><rect class="e" width="3.249" height="4.151" transform="translate(0 38.268)"/><rect class="e" width="3.249" height="4.151" transform="translate(72.445 19.134)"/><rect class="e" width="3.249" height="4.151" transform="translate(72.445 9.567)"/><rect class="e" width="3.249" height="4.151" transform="translate(72.445)"/><rect class="e" width="3.249" height="4.151" transform="translate(72.445 47.834)"/><rect class="e" width="3.249" height="4.151" transform="translate(72.445 28.701)"/><rect class="e" width="3.249" height="4.151" transform="translate(72.445 38.268)"/></g><g transform="translate(62.87 21.513)"><rect class="i" width="3.249" height="5.087"/><rect class="i" width="3.249" height="5.087" transform="translate(0 8.554)"/></g><rect class="j" width="2.437" height="2.278" transform="translate(65.944 61.653)"/><rect class="j" width="2.437" height="2.278" transform="translate(61.882 61.653)"/><rect class="j" width="2.437" height="2.278" transform="translate(53.76 61.653)"/><rect class="j" width="2.437" height="2.278" transform="translate(57.821 61.653)"/><rect class="j" width="2.437" height="2.278" transform="translate(65.944 57.731)"/><rect class="j" width="2.437" height="2.278" transform="translate(61.882 57.731)"/><rect class="j" width="2.437" height="2.278" transform="translate(53.76 57.731)"/><rect class="j" width="2.437" height="2.278" transform="translate(57.821 57.731)"/><rect class="j" width="3" height="3" transform="translate(36.734 29.75)"/><rect class="j" width="2" height="3" transform="translate(41.734 29.75)"/><rect class="j" width="2" height="3" transform="translate(33.734 29.75)"/><path class="j" d="M83.177,18.172V11.743H74.885V7.751H70.614V0H63.736V7.751H60.379V0H53.5V7.751H50.145V0H43.267V7.751H39.91V0H33.032V7.758H29.675V0H22.8V7.755H19.44V0H12.563V7.752H8.292v3.993H0v6.429H8.292V21.31H0v6.429H8.292v3.138H0v6.429H8.292v3.138H0v6.429H8.292v3.138H0V56.44H8.292v3.138H0v6.429H8.292v3.985h4.271V77.75H19.44V69.993H22.8V77.75h6.877V69.994h3.357V77.75H39.91V70h3.357V77.75h6.877V70H53.5V77.75h6.877V70h3.357V77.75h6.877V70h4.271V66.007h8.292V59.578H74.885v-.392l-2.437-.008v8.543H10.727V10.027H72.448V56.908l2.437.008V56.44h8.292V50.011H74.885V46.873h8.292V40.444H74.885V37.306h8.292V30.877H74.885V27.739h8.292V21.31H74.885V18.172Zm-8.291-4.151H80.74v1.873H74.886ZM66.173,2.278h2V7.75h-2Zm-10.235,0h2V7.75h-2Zm-10.235,0h2V7.75h-2Zm-20.469,0h2V7.75h-2V2.278ZM15,2.278h2V7.75H15ZM8.291,15.894H2.437V14.021H8.291Zm0,9.567H2.437V23.588H8.291Zm0,9.567H2.437V33.155H8.291Zm0,19.134H2.437V52.289H8.291Zm0,9.567H2.437V61.856H8.291ZM17,75.472H15V70h2v5.472Zm10.235,0h-2V70h2v5.472Zm10.235,0h-2V70h2v5.472Zm10.235,0h-2V70h2Zm10.235,0h-2V70h2Zm10.235,0h-2V70h2Zm6.709-13.616H80.74v1.873H74.886ZM8.291,44.595H2.437V42.722H8.291ZM35.469,2.278h2V7.75h-2V2.278ZM74.886,52.289H80.74v1.873H74.886Zm0-9.567H80.74v1.873H74.886Zm0-9.567H80.74v1.873H74.886Zm0-9.567H80.74v1.873H74.886Z"/><path class="j" d="M189.132,164.323v-2.278h-2.918v-2.367h-2.532v-2.72l-2.437-.008v2.728h-2.274v-2.72l-2.437-.008v2.728H174.26v-2.72l-2.437-.008v2.728h-2.274v-2.72l-2.437-.008v2.728h-2.274v-2.72l-2.437-.008v2.728h-2.532v2.367h-2.91l-.008,2.27,2.918.005v2.128h-2.91l-.008,2.27,2.918.005v2.128h-2.91l-.008,2.27,2.918.005v2.128h-2.91l-.008,2.27,2.918.005v2.128h-2.91l-.008,2.27,2.918.005V184.3H162.4v2.72l2.437.008V184.3h2.274v2.72l2.437.008V184.3h2.274v2.72l2.437.008V184.3h2.274v2.72l2.437.008V184.3h2.274v2.72l2.437.008V184.3h2.532v-2.372l2.918.005V179.66h-2.918v-2.131l2.918.005v-2.278h-2.918v-2.131l2.918.005v-2.278h-2.918v-2.131l2.918.005v-2.278h-2.918v-2.131Zm-5.355,17.7H162.3V161.956h21.472v20.071Z" transform="translate(-131.453 -133.116)"/><g transform="translate(47.708 31.902)"><rect class="k" width="2.437" height="6.378" transform="translate(0 7.593)"/><rect class="k" width="2.437" height="2.278"/><rect class="k" width="2.437" height="2.278" transform="translate(0 3.796)"/></g><path class="j" d="M204.28,296.85l5.514.008V294.58h-5.506Z" transform="translate(-171.094 -249.846)"/><g transform="translate(38.476 13.819)"><rect class="k" width="2.437" height="2.278" transform="translate(4.061)"/><rect class="k" width="2.437" height="2.278"/><rect class="k" width="22.013" height="2.278" transform="translate(8.123)"/></g><g transform="translate(12.636 13.819)"><path class="j" d="M89.033,163.947H83.989V154h-6.2l-.008,2.278h3.772v9.939l7.481.008Z" transform="translate(-77.78 -144.433)"/><path class="j" d="M89.033,106.117l-1.227-.008V91H77.788l-.008,2.278h7.59v15.1l3.663.008Z" transform="translate(-77.78 -91)"/><path class="j" d="M79.25,248.5v4.783H77.788l-.008,2.278h3.907v-4.783h7.338l.008-2.27Z" transform="translate(-77.78 -224.583)"/><path class="j" d="M89.033,277.508l-6.506-.008v9.947H77.788l-.008,2.27,7.184.008v-9.947h4.061Z" transform="translate(-77.78 -249.179)"/><path class="j" d="M77.833,321.61v2.278h10.4v-15.11h.839V306.5H85.793v15.11Z" transform="translate(-77.824 -273.775)"/></g><g transform="translate(30.163 61.653)"><rect class="k" width="9.206" height="2.278"/><rect class="k" width="2.437" height="2.278" transform="translate(14.891)"/><rect class="k" width="2.437" height="2.278" transform="translate(10.829)"/></g><g transform="translate(61.652 20.374)"><path class="j" d="M387.379,134.167H379.5v7.365h7.879Zm-2.437,5.087h-3.005v-2.809h3.005Z" transform="translate(-379.5 -134.167)"/><path class="j" d="M387.379,190.5H379.5v7.365h7.879Zm-2.437,5.087h-3.005v-2.809h3.005Z" transform="translate(-379.5 -181.946)"/><path class="j" d="M408.437,278.037,406,278.029V287.6l2.437.008Z" transform="translate(-401.695 -256.183)"/></g></svg>