<svg xmlns="http://www.w3.org/2000/svg" xmlns:xlink="http://www.w3.org/1999/xlink" width="100" height="100" viewBox="0 0 100 100"><defs><style>.a{fill:url(#a);}.b{fill:url(#b);}.c{fill:url(#c);}.d{fill:url(#d);}.e{fill:#fff;}</style><linearGradient id="a" x1="0.332" y1="0.141" x2="0.585" y2="0.682" gradientUnits="objectBoundingBox"><stop offset="0" stop-color="#3457a0"/><stop offset="1" stop-color="#3b5998"/></linearGradient><linearGradient id="b" x1="0.714" y1="0.647" x2="-0.271" y2="-0.03" gradientUnits="objectBoundingBox"><stop offset="0" stop-color="#3457a0" stop-opacity="0"/><stop offset="1" stop-color="#1f3f77"/></linearGradient><linearGradient id="c" x1="0.5" y1="0.177" x2="0.5" y2="0.855" xlink:href="#b"/><linearGradient id="d" x1="1.26" y1="0.791" x2="0.043" y2="0.371" gradientUnits="objectBoundingBox"><stop offset="0" stop-color="#3457a0" stop-opacity="0"/><stop offset="0.325" stop-color="#2a4c8d" stop-opacity="0.325"/><stop offset="0.705" stop-color="#22427d" stop-opacity="0.706"/><stop offset="1" stop-color="#1f3f77"/></linearGradient></defs><g transform="translate(0 0)"><path class="a" d="M82.114,98.287a302.042,302.042,0,0,1-64.227,0A18.209,18.209,0,0,1,1.712,82.112a302.036,302.036,0,0,1,0-64.226A18.209,18.209,0,0,1,17.886,1.712a302.036,302.036,0,0,1,64.227,0A18.209,18.209,0,0,1,98.288,17.886a302.037,302.037,0,0,1,0,64.226A18.208,18.208,0,0,1,82.114,98.287Zm0,0" transform="translate(0 0)"/><path class="b" d="M116.051,44.706A16.157,16.157,0,0,0,101.7,30.353a268.123,268.123,0,0,0-56.993,0A16.159,16.159,0,0,0,30.353,44.706a268.116,268.116,0,0,0,0,56.992,16.158,16.158,0,0,0,14.353,14.353,268.015,268.015,0,0,0,56.992,0A16.157,16.157,0,0,0,116.051,101.7a268.016,268.016,0,0,0,0-56.992Zm0,0" transform="translate(-23.202 -23.203)"/><path class="c" d="M7.672,409.8q.1,1.037.214,2.074a18.209,18.209,0,0,0,16.175,16.174,302.036,302.036,0,0,0,64.227,0,18.208,18.208,0,0,0,16.174-16.174q.111-1.037.214-2.074Zm0,0" transform="translate(-6.174 -329.765)"/><path class="d" d="M244.242,85.27a15.776,15.776,0,0,0-15.775,15.776v11.784h-8.49v14.59l8.49,7.6v33.588a302.683,302.683,0,0,0,30.66-1.707A18.208,18.208,0,0,0,275.3,150.728a301.981,301.981,0,0,0,1.3-47.793L258.939,85.27Zm0,0" transform="translate(-177.013 -68.616)"/><path class="e" d="M228.466,168.611q8.74-.042,17.476-.592v-40.6h11.6l1.4-14.59h-13v-9.264a3.7,3.7,0,0,1,3.7-3.7h9.291V85.27h-14.7a15.776,15.776,0,0,0-15.775,15.776V112.83h-8.49v14.59h8.49Zm0,0" transform="translate(-177.012 -68.616)"/></g></svg>