<svg xmlns="http://www.w3.org/2000/svg" xmlns:xlink="http://www.w3.org/1999/xlink" width="591.092" height="420.37" viewBox="0 0 591.092 420.37"><defs><style>.a{fill:#fff;stroke:#707070;}.b{clip-path:url(#a);}.c,.e,.g{fill:#f54747;}.c{opacity:0.2;}.d,.o,.p,.r{fill:none;}.d{stroke:#535461;}.d,.o,.p{stroke-miterlimit:10;stroke-width:1.001px;}.f{fill:#fc6681;}.g,.k,.o{opacity:0.1;}.h{fill:url(#b);}.i{fill:#555388;}.j{fill:#603556;}.l{fill:url(#c);}.m{fill:#535461;}.n{fill:#e2e2ec;}.o{stroke:#000;}.p{stroke:#e2e2ec;}.q{fill:#c87486;}.s{fill:#dfe5ee;}.t{fill:#603456;}</style><clipPath id="a"><rect class="a" width="591.092" height="420.37" transform="translate(1274 1528)"/></clipPath><linearGradient id="b" x1="0.5" y1="1" x2="0.5" gradientUnits="objectBoundingBox"><stop offset="0" stop-color="gray" stop-opacity="0.251"/><stop offset="0.54" stop-color="gray" stop-opacity="0.122"/><stop offset="1" stop-color="gray" stop-opacity="0.102"/></linearGradient><linearGradient id="c" x1="0.5" y1="1" x2="0.5" y2="0" xlink:href="#b"/></defs><g class="b" transform="translate(-1274 -1528)"><g transform="translate(1325.261 1528.004)"><path class="c" d="M501.259,243.036c-18.985,32.372-16.4,75.9-9,110.1,2.471,11.451,5.348,23.512,2.786,36.459-3.132,15.808-13.657,28.39-24.208,35.673-19.23,13.282-40.891,13.377-56.4.25-13.4-11.346-21.976-31.436-35.678-42.157-22.927-17.934-55.068-6.093-83.148,11.711-19.865,12.6-41.762,28.49-59.721,20.135-12.637-5.878-20.25-23.057-23.592-41.857-1.616-9.075-2.5-19.01-6.478-25.868a26.338,26.338,0,0,0-9.11-8.96c-31.4-20.01-74.769-1.806-104.979-24.553-20.406-15.363-31.546-47.735-34.733-82.543s.725-72.2,5.433-109.056c3.347-26.179,7.734-54.228,20.881-75.744,13.907-22.762,35.338-33.247,53.748-31.516s34.188,14.007,47.7,29.105c16.884,18.88,31.972,43.122,54.188,48.86,15.133,3.907,31.846-1.336,48.065-4.447,27.109-5.2,53.723-4.432,80.141-3.252,25.293,1.131,50.731,2.671,74.138,11.781,16.564,6.448,29.1,20.331,44.523,29.205,10.04,5.783,21.486,6.3,30.791,14.1,11.466,9.61,21.2,27.589,16.078,50.676C527.813,213.11,511.354,225.852,501.259,243.036Z" transform="translate(-55.859 -14.933)"/><path class="d" d="M137.276,345.093S103.9,289.81,113.264,240.2a97.815,97.815,0,0,0-7.934-61.382,164.585,164.585,0,0,0-15.723-25.663" transform="translate(-55.859 -14.933)"/><path class="e" d="M95.349,121.868c1.926,7.344-5.778,32.127-5.778,32.127s-18.885-17.8-20.816-25.148a13.75,13.75,0,1,1,26.594-7Z" transform="translate(-55.859 -14.933)"/><path class="e" d="M128.006,156.776c-2.371,7.214-22.312,23.827-22.312,23.827s-6.178-25.208-3.8-32.422a13.746,13.746,0,1,1,26.115,8.595Z" transform="translate(-55.859 -14.933)"/><path class="e" d="M145.29,226.537c-5.688,5-31.291,9.3-31.291,9.3s7.394-24.878,13.082-29.905a13.746,13.746,0,1,1,18.205,20.6Z" transform="translate(-55.859 -14.933)"/><path class="e" d="M146.486,282.266c-4.757,5.918-29.265,14.457-29.265,14.457s3.082-25.773,7.839-31.686a13.747,13.747,0,1,1,21.426,17.229Z" transform="translate(-55.859 -14.933)"/><path class="e" d="M78.15,189.353c6.608,3.732,32.517,2.591,32.517,2.591s-12.406-22.8-19.01-26.514A13.747,13.747,0,1,0,78.15,189.368Z" transform="translate(-55.859 -14.933)"/><path class="e" d="M80.372,254.512c7.424,1.586,31.826-7.264,31.826-7.264s-18.65-18.039-26.088-19.63a13.747,13.747,0,0,0-5.738,26.889Z" transform="translate(-55.859 -14.933)"/><path class="e" d="M91.222,317.544c7.049,2.816,32.6-1.781,32.6-1.781s-15.343-20.936-22.392-23.752a13.747,13.747,0,0,0-10.2,25.513Z" transform="translate(-55.859 -14.933)"/><path class="e" d="M95.349,121.868c1.926,7.344-5.778,32.127-5.778,32.127s-18.885-17.8-20.816-25.148a13.75,13.75,0,1,1,26.594-7Z" transform="translate(-55.859 -14.933)"/><path class="e" d="M128.006,156.776c-2.371,7.214-22.312,23.827-22.312,23.827s-6.178-25.208-3.8-32.422a13.746,13.746,0,1,1,26.115,8.595Z" transform="translate(-55.859 -14.933)"/><path class="f" d="M145.29,226.537c-5.688,5-31.291,9.3-31.291,9.3s7.394-24.878,13.082-29.905a13.746,13.746,0,1,1,18.205,20.6Z" transform="translate(-55.859 -14.933)"/><path class="f" d="M146.486,282.266c-4.757,5.918-29.265,14.457-29.265,14.457s3.082-25.773,7.839-31.686a13.747,13.747,0,1,1,21.426,17.229Z" transform="translate(-55.859 -14.933)"/><path class="e" d="M78.15,189.353c6.608,3.732,32.517,2.591,32.517,2.591s-12.406-22.8-19.01-26.514A13.747,13.747,0,1,0,78.15,189.368Z" transform="translate(-55.859 -14.933)"/><path class="e" d="M80.372,254.512c7.424,1.586,31.826-7.264,31.826-7.264s-18.65-18.039-26.088-19.63a13.747,13.747,0,0,0-5.738,26.889Z" transform="translate(-55.859 -14.933)"/><path class="e" d="M91.222,317.544c7.049,2.816,32.6-1.781,32.6-1.781s-15.343-20.936-22.392-23.752a13.747,13.747,0,0,0-10.2,25.513Z" transform="translate(-55.859 -14.933)"/><ellipse class="g" cx="240.374" cy="16.509" rx="240.374" ry="16.509" transform="translate(7.844 319.955)"/><path class="h" d="M510.919,337.254s-.4-.535-.955-1.136l.16-.055s-7.144-17.854-5.553-25.393-6.348-25.788-6.348-25.788-11.711-23.982-6.168-43.122a51.4,51.4,0,0,0,1.431-6.869c1.656-11.336,1.071-13.672-1.706-17.814l-.305-.445a3.5,3.5,0,0,0,.8-1.176c2.381-6.348-11.106-17.854-7.519-28.57,3.312-9.93-5.308-30.421-6.588-33.367h0l-.145-.335-.43.14a10.466,10.466,0,0,1,2.831-6.869l.08-.08c1.191-1.1,2.636-1.9,3.752-3.077l.065-.075c.11-.105.225-.21.33-.32,1.106-1.161,1.861-2.882,1.261-4.372-.545-1.361-2.076-2.191-2.436-3.612a18.586,18.586,0,0,1-.16-1.926c-.29-2-2.236-3.257-4-4.247-2.2-1.241-4.5-2.5-7.039-2.531-3.432,0-6.5,2.3-9.91,2.586a14.02,14.02,0,0,0-3.467.345,7.719,7.719,0,0,0-2.276,1.461,11.191,11.191,0,0,0-1.111,1,3.565,3.565,0,0,0-1.4,2.591,2.821,2.821,0,0,0,.97,1.926,12.7,12.7,0,0,0,4.6,18.9c.04.275.08.555.12.85.5,3.757.8,9.07-.54,13.232-5.7,2.937-14.578,7.724-16.168,9.85a1.5,1.5,0,0,0-.21,1.246,1.7,1.7,0,0,0-.03.6c-1.246.285-2.9,0-4.918-1.841C433.169,174.6,418.1,161.5,418.1,161.5s-6.743-16.664-11.506-13.507,5.553,18.65,5.553,18.65l22.582,24.213s.8,5.158,9.125,2.381c2.751-.915,5.238-1.791,7.339-2.546l.5.425c-1.876,10.976-2.846,25.6,4.072,29.9a6.7,6.7,0,0,1,1.151,2.411c-.035.13-.07.265-.1.4a38.1,38.1,0,0,0-1,6.673,21.22,21.22,0,0,0-1.756,9.475L451.4,277.739s-.4,8.329,2.381,14.678,11.506,38.09,5.553,40.471l.565.075c-1.706,1.756-4.577,4.417-6.764,4.943-3.322.79-2.391,5.883,4.973,6.733s8.249.78,13.427-3.537c4.562-3.8,5.288-5.5,5.393-5.868l.26.035s-2.776-10.315,0-14.678-6.343-30.941-6.343-30.941a85.774,85.774,0,0,1,.375-10.175c1.4,3.667,2.4,6.208,2.4,6.208s2.381,11.506,5.158,13.507,17.459,29.36,15.078,41.261l-.275,1.386.67-.2h.06c-.915,2.266-2.581,5.848-4.422,7.164-2.776,2,0,6.348,7.144,4.362s7.934-2.381,11.111-8.329S510.919,337.254,510.919,337.254Z" transform="translate(-55.859 -14.933)"/><path class="i" d="M458.342,231.32l-1.741-2.146a20.751,20.751,0,0,0-2.456,10.791L451.554,276.9s-.39,8.144,2.326,14.352,11.251,37.239,5.433,39.565l17.434,2.356s-2.716-10.085,0-14.352-6.208-30.256-6.208-30.256-.775-21.721,6.593-26.769S458.342,231.32,458.342,231.32Z" transform="translate(-55.859 -14.933)"/><path class="j" d="M461.284,329.36s-4.787,5.593-8.029,6.368-2.336,5.748,4.862,6.583,8.064.765,13.132-3.457,5.293-5.808,5.293-5.808-1-3.752-2.211-3.832S461.284,329.36,461.284,329.36Z" transform="translate(-55.859 -14.933)"/><path class="k" d="M459.508,232.485l-2.9-3.312a20.751,20.751,0,0,0-2.456,10.791L451.559,276.9s-.39,8.144,2.326,14.352,11.251,37.239,5.433,39.565l17.429,2.356s-2.716-10.085,0-14.352-6.208-30.256-6.208-30.256-.775-21.721,6.593-26.769S459.508,232.485,459.508,232.485Z" transform="translate(-55.859 -14.933)"/><path class="l" d="M476.777,283.106s-4.848-95.154-24.748-128.832c0,0-14.593-26.654-26.789-34.428v-3.072c-19.9-13.777-44.388,0-44.388,0v1.361l-5.1,4.252-22.977-.08a11.071,11.071,0,0,0-8.529-4H239.4a11.066,11.066,0,0,0-8.154,3.572H207.382a15.25,15.25,0,0,0-5.1-3.282v-1.821c-19.9-13.777-44.388,0-44.388,0v3.7a6.553,6.553,0,0,0-1.531,1.406s-20.155,13.507-24.748,30.356c0,0-24.748,74.238-25.258,132.4s21.941,66.329,33.672,67.86,32.652-.5,53.062-52.027l8.674-30.1s1.531-17.859,19.9-6.633,34.693-6.123,34.693-6.123h68.886s22.937,14.267,43.878,3.022c0,0,8.164-10.716,15.818,25.513,0,0,23.472,74.494,59.7,66.84S476.777,283.106,476.777,283.106Z" transform="translate(-55.859 -14.933)"/><path class="m" d="M160.5,124.529v-5.5s24.012-13.507,43.523,0v5Z" transform="translate(-55.859 -14.933)"/><path class="m" d="M379.116,124.529v-5.5s24.012-13.507,43.522,0v5Z" transform="translate(-55.859 -14.933)"/><path class="k" d="M160.5,124.529v-5.5s24.012-13.507,43.523,0v5Z" transform="translate(-55.859 -14.933)"/><path class="k" d="M379.116,124.529v-5.5s24.012-13.507,43.522,0v5Z" transform="translate(-55.859 -14.933)"/><path class="m" d="M232.54,124.029H209.028s-6-7-26.013-6.5-24.012,6.5-24.012,6.5-19.76,13.257-24.263,29.765c0,0-24.263,72.788-24.763,129.817s21.511,65.034,33.017,66.534,32.017-.5,52.027-51.026l8.5-29.515s1.5-17.509,19.51-6.5,34.018-6,34.018-6h67.535s22.512,14.007,43.022,3c0,0,8-10.505,15.508,25.013,0,0,23.012,73.038,58.53,65.534s31.516-68.535,31.516-68.535-4.752-93.3-24.263-126.315c0,0-18.76-34.268-31.266-35.769,0,0-27.014-5-37.519-.5l-6,5Z" transform="translate(-55.859 -14.933)"/><circle class="n" cx="43.523" cy="43.523" r="43.523" transform="translate(78.631 114.599)"/><circle class="n" cx="43.523" cy="43.523" r="43.523" transform="translate(305.748 114.599)"/><path class="m" d="M185.6,163.349l-5.8,5.133a2.691,2.691,0,0,1-3.557,0l-5.813-5.133a2.686,2.686,0,0,1-.91-2V147.226a2.691,2.691,0,0,1,2.691-2.686h11.631a2.686,2.686,0,0,1,2.691,2.691v14.107a2.686,2.686,0,0,1-.93,2.011Z" transform="translate(-55.859 -14.933)"/><path class="m" d="M185.6,182.755l-5.8-5.128a2.691,2.691,0,0,0-3.557,0l-5.813,5.133a2.686,2.686,0,0,0-.91,2v14.107a2.686,2.686,0,0,0,2.691,2.691h11.631a2.686,2.686,0,0,0,2.691-2.686V184.766a2.686,2.686,0,0,0-.93-2.011Z" transform="translate(-55.859 -14.933)"/><path class="m" d="M168.312,180.648l5.133-5.813a2.691,2.691,0,0,0,0-3.557l-5.133-5.813a2.691,2.691,0,0,0-2-.91H152.2a2.691,2.691,0,0,0-2.686,2.691v11.631a2.686,2.686,0,0,0,2.691,2.691h14.107a2.686,2.686,0,0,0,2-.921Z" transform="translate(-55.859 -14.933)"/><path class="m" d="M187.717,180.648l-5.123-5.818a2.686,2.686,0,0,1,0-3.557l5.133-5.813a2.687,2.687,0,0,1,2-.91h14.107a2.686,2.686,0,0,1,2.691,2.691v11.631a2.686,2.686,0,0,1-2.686,2.691H189.733a2.686,2.686,0,0,1-2.016-.916Z" transform="translate(-55.859 -14.933)"/><path class="d" d="M114.649,126.105h15.008l-7.5-6.5Z"/><path class="d" d="M114.649,190.138h15.008l-7.5,6.5Z"/><path class="d" d="M90.137,150.618v15.008l-6.5-7.5Z"/><path class="d" d="M154.17,150.618v15.008l6.5-7.5Z"/><circle class="n" cx="31.516" cy="31.516" r="31.516" transform="translate(149.667 174.13)"/><circle class="m" cx="21.011" cy="21.011" r="21.011" transform="translate(159.172 179.633)"/><circle class="n" cx="31.516" cy="31.516" r="31.516" transform="translate(258.724 174.13)"/><circle class="m" cx="21.011" cy="21.011" r="21.011" transform="translate(268.229 179.633)"/><circle class="o" cx="14.007" cy="14.007" r="14.007" transform="translate(166.176 186.637)"/><circle class="o" cx="14.007" cy="14.007" r="14.007" transform="translate(275.232 186.637)"/><circle class="n" cx="9.005" cy="9.005" r="9.005" transform="translate(227.708 200.143)"/><circle class="n" cx="1.966" cy="1.966" r="1.966" transform="translate(220.984 177.127)"/><circle class="n" cx="1.966" cy="1.966" r="1.966" transform="translate(228.348 177.127)"/><circle class="n" cx="1.966" cy="1.966" r="1.966" transform="translate(227.368 186.456)"/><circle class="n" cx="2.001" cy="2.001" r="2.001" transform="translate(234.211 186.637)"/><circle class="n" cx="1.966" cy="1.966" r="1.966" transform="translate(241.115 186.456)"/><circle class="n" cx="1.966" cy="1.966" r="1.966" transform="translate(224.421 182.039)"/><circle class="n" cx="2.001" cy="2.001" r="2.001" transform="translate(230.709 182.134)"/><circle class="n" cx="2.001" cy="2.001" r="2.001" transform="translate(237.213 182.134)"/><circle class="n" cx="1.966" cy="1.966" r="1.966" transform="translate(244.061 182.039)"/><circle class="n" cx="2.001" cy="2.001" r="2.001" transform="translate(234.211 177.132)"/><circle class="n" cx="2.001" cy="2.001" r="2.001" transform="translate(241.215 177.132)"/><circle class="n" cx="1.966" cy="1.966" r="1.966" transform="translate(247.008 177.127)"/><rect class="n" width="11.006" height="19.01" rx="4.252" transform="translate(157.672 112.598)"/><rect class="n" width="11.006" height="19.01" rx="4.252" transform="translate(303.747 112.598)"/><circle class="m" cx="12.006" cy="12.006" r="12.006" transform="translate(337.765 119.602)"/><circle class="m" cx="12.006" cy="12.006" r="12.006" transform="translate(312.251 145.115)"/><circle class="m" cx="12.006" cy="12.006" r="12.006" transform="translate(364.278 143.614)"/><circle class="m" cx="12.006" cy="12.006" r="12.006" transform="translate(339.766 170.128)"/><rect class="n" width="124.564" height="66.534" rx="10.881" transform="translate(173.68 105.595)"/><path class="p" d="M342.517,136.611l7-12.006,7.5,12.006Z"/><rect class="p" width="12.506" height="11.006" transform="translate(318.004 151.618)"/><circle class="p" cx="7.004" cy="7.004" r="7.004" transform="translate(369.281 148.617)"/><line class="p" x2="11.256" y2="11.256" transform="translate(346.019 176.506)"/><line class="p" x1="11.506" y2="11.006" transform="translate(346.019 176.506)"/><path class="e" d="M227.943,347.42c1.5-1.146,2.927-2.5,3.362-4.137a3.5,3.5,0,0,0-2.346-4.212c-2.156-.67-4.457.545-6.208,1.776s-3.747,2.636-6.033,2.376a6.712,6.712,0,0,0,2.841-7,2.717,2.717,0,0,0-.79-1.426c-1.2-1.046-3.367-.6-4.8.225-4.557,2.616-5.828,7.664-5.853,12.211-.46-1.641-.07-3.347-.085-5.033a4.793,4.793,0,0,0-2.316-4.452,8.28,8.28,0,0,0-3.532-.675c-2.046-.06-4.332.105-5.728,1.331-1.736,1.5-1.286,4.067.225,5.738s3.812,2.721,5.928,3.877a12.352,12.352,0,0,1,4.237,3.3,3,3,0,0,1,.315.59H220a36.917,36.917,0,0,0,7.939-4.482Z" transform="translate(-55.859 -14.933)"/><path class="j" d="M494.226,337.419s-2.326,7-5.043,8.925,0,6.208,7,4.267,7.759-2.326,10.861-8.144,2.716-7.369,2.716-7.369-2.326-3.1-3.5-2.716S494.226,337.419,494.226,337.419Z" transform="translate(-55.859 -14.933)"/><path class="q" d="M479.873,163.239s-31.421,17.454-24.052,12.411c4.953-3.387,4.652-12.376,3.922-17.914-.23-1.726-.5-3.117-.665-3.9-.1-.44-.155-.685-.155-.685s15.238-9.145,14.382-3.647h0a.317.317,0,0,1-.025.15,5.931,5.931,0,0,0-.115,1.116C473.06,156.426,479.873,163.239,479.873,163.239Z" transform="translate(-55.859 -14.933)"/><path class="q" d="M445.73,180.308s-2.716,4.267-7.369,0-19.4-17.069-19.4-17.069-6.593-16.293-11.256-13.187,5.433,18.234,5.433,18.234l22.111,23.662s.775,5.043,8.925,2.326,13.967-5.043,13.967-5.043Z" transform="translate(-55.859 -14.933)"/><path class="r" d="M458.152,219.879" transform="translate(-55.859 -14.933)"/><path class="i" d="M508.968,333.928,493.46,339.36l-.655.19.27-1.356c2.326-11.636-12.006-38.4-14.743-40.346s-5.053-13.2-5.053-13.2-5.083-25.6-5.858-31.016a11.258,11.258,0,0,0-1.766-3.927,31.077,31.077,0,0,1-3-7.184c-1.706-6-5.683-16.659-4.222-22.687.3-1.226-.91,1.906-.5.71l.235-.66,31.406-4.272a23.451,23.451,0,0,1,1.461,1.976c2.376,3.527,2.221,3.527,2.721,10.23a69.168,69.168,0,0,1-1.706,12.006c-4.227,18.825,5.308,44.023,5.308,44.023s7.759,17.844,6.208,25.213S508.968,333.928,508.968,333.928Z" transform="translate(-55.859 -14.933)"/><path class="k" d="M491.034,217.583c-4.647,5.828-34.418,10.355-34.048,8.5a3.932,3.932,0,0,0-.14-1.911,37.862,37.862,0,0,1,1.071-3.637l.235-.66,31.421-4.267a23.453,23.453,0,0,1,1.461,1.971Z" transform="translate(-55.859 -14.933)"/><path class="s" d="M477.547,155.08s-12.807,3.892-16.308,12.817,2.656,9.41,2.656,9.41-11.006,29.015-8.089,44.123a5.5,5.5,0,0,1,1.166,3.877c-.385,1.936,32.2-3.1,34.518-9.31s-10.861-17.454-7.369-27.929S477.547,155.08,477.547,155.08Z" transform="translate(-55.859 -14.933)"/><path class="k" d="M473.28,150.438a1.225,1.225,0,0,1-.115.335c-.53,1-2.216-.1-1.631,1.406-2.251,2.261-2.962,6.789-6.4,6.789a12.336,12.336,0,0,1-5.4-1.226c-.23-1.726-.5-3.117-.665-3.9,1.5-.89,13.507-7.844,14.227-4.332h0a2.306,2.306,0,0,1-.02.925Z" transform="translate(-55.859 -14.933)"/><circle class="q" cx="12.411" cy="12.411" r="12.411" transform="translate(396.86 118.441)"/><path class="k" d="M477.547,185.351l-21.721,10.085s-14.743-11.246-12.416-14.342,20.561-12.006,20.561-12.006S482.59,172.939,477.547,185.351Z" transform="translate(-55.859 -14.933)"/><path class="s" d="M477.547,184.6l-21.721,10.085s-14.743-11.251-12.411-14.352,20.561-12.006,20.561-12.006S482.59,172.164,477.547,184.6Z" transform="translate(-55.859 -14.933)"/><path class="k" d="M461.549,140.468a13.483,13.483,0,0,1-5.5-1.356,3.316,3.316,0,0,1-1.861-2.566c-.035-1.3,1.061-2.316,2.066-3.142a7.543,7.543,0,0,1,2.226-1.426,13.614,13.614,0,0,1,3.387-.335c3.342-.28,6.333-2.551,9.69-2.531,2.466,0,4.732,1.261,6.879,2.476,1.716.971,3.622,2.2,3.907,4.152a18.174,18.174,0,0,0,.155,1.881c.355,1.391,1.851,2.2,2.386,3.532a4.226,4.226,0,0,1-1.236,4.277c-1.081,1.136-2.5,1.916-3.637,2.977a10.2,10.2,0,0,0-3.262,7.674,1,1,0,0,1-.085.555.971.971,0,0,1-.7.35c-1.236.23-2.761.355-3.5-.665s-.155-2.721-1-3.727c-1.076-1.3-3.337-.265-4.793-1.116a2.911,2.911,0,0,1-1.1-1.316c-1.2-2.586.175-4.617.675-7.089C466.826,140.188,463.585,140.673,461.549,140.468Z" transform="translate(-55.859 -14.933)"/><path class="t" d="M461.939,140.072a13.483,13.483,0,0,1-5.5-1.356,3.316,3.316,0,0,1-1.861-2.566c-.035-1.3,1.061-2.316,2.066-3.142a7.545,7.545,0,0,1,2.226-1.426,13.613,13.613,0,0,1,3.387-.335c3.342-.28,6.333-2.551,9.69-2.531,2.466,0,4.732,1.261,6.879,2.476,1.716.971,3.622,2.2,3.907,4.152a18.175,18.175,0,0,0,.155,1.881c.355,1.391,1.851,2.2,2.386,3.532a4.226,4.226,0,0,1-1.236,4.277c-1.081,1.136-2.5,1.916-3.637,2.977a10.2,10.2,0,0,0-3.267,7.694,1,1,0,0,1-.085.555.97.97,0,0,1-.7.35c-1.236.23-2.761.355-3.5-.665s-.155-2.721-1-3.727c-1.076-1.3-3.337-.265-4.792-1.116a2.911,2.911,0,0,1-1.1-1.316c-1.211-2.591.17-4.637.67-7.134C467.212,139.8,463.97,140.288,461.939,140.072Z" transform="translate(-55.859 -14.933)"/></g></g></svg>