<svg xmlns="http://www.w3.org/2000/svg" width="83.808" height="77" viewBox="0 0 83.808 77"><defs><style>.a{fill:#fabe2c;}.b{fill:#ff9100;}.c{fill:#00c8c8;}.d{fill:#474f54;}.e{fill:#ff435b;}.f{fill:#99341f;}.g{fill:#b35324;}.h{fill:#fff7e6;}.i{fill:#ffccb3;}.j{fill:#32393f;}.k{fill:#ffe6cc;}</style></defs><g transform="translate(0 -0.004)"><path class="a" d="M139.859,30.311a35.155,35.155,0,0,0-4.767-.193c-12.574.416-23.589,7.281-29.705,13.568l0,31.073,2.134.222c6.433.674,10.886,2.553,13.238,5.589a10.146,10.146,0,0,1,1.633,8.418A6.8,6.8,0,0,0,128,97.278a38.219,38.219,0,0,0,11.857.279c18.188-2.23,32.232-16.446,32.082-33.753C171.777,45.4,155.6,31.9,139.859,30.311Z" transform="translate(-88.135 -25.571)"/><path class="b" d="M348.082,64.989C347.918,46.585,331.736,33.082,316,31.5V98.742C334.188,96.512,348.232,82.3,348.082,64.989Z" transform="translate(-264.276 -26.756)"/><g transform="translate(53.341 18.978)"><path class="c" d="M328.027,137.721a6.4,6.4,0,0,1,0-9.574,7.847,7.847,0,0,1,10.421,0,6.393,6.393,0,0,1,0,9.572v0a7.854,7.854,0,0,1-10.418,0Z" transform="translate(-325.875 -126.167)"/></g><g transform="translate(34.363 14.305)"><path class="d" d="M210.19,103.612a6.723,6.723,0,0,1,5.208-8.285,7.468,7.468,0,0,1,9.02,4.785c1.055,3.608-1.272,7.32-5.208,8.288A7.443,7.443,0,0,1,210.19,103.612Z" transform="translate(-209.936 -95.096)"/></g><g transform="translate(20.474 27.064)"><path class="e" d="M130.542,193.239a6.735,6.735,0,0,1-5.208-8.288,7.443,7.443,0,0,1,9.018-4.785c3.934.966,6.267,4.672,5.21,8.288A7.45,7.45,0,0,1,130.542,193.239Z" transform="translate(-125.082 -179.933)"/></g><g transform="translate(58.418 36.406)"><path class="f" d="M362.359,255.356c-3.924-.965-6.267-4.666-5.208-8.288a7.45,7.45,0,0,1,9.02-4.785,6.735,6.735,0,0,1,5.208,8.288A7.447,7.447,0,0,1,362.359,255.356Z" transform="translate(-356.896 -242.051)"/></g><path class="g" d="M53.366,0C47.278,0,46,21.01,46,38.5c0,.786.011,1.508.017,2.256l5.2,2.256h5.627l3.871-2.256c.006-.748.016-1.457.016-2.256C60.732,21.01,59.454,0,53.366,0Z" transform="translate(-38.471)"/><path class="f" d="M98.35,40.76c.006-.748.016-1.457.016-2.256C98.366,21.01,97.088,0,91,0V43.016h3.478Z" transform="translate(-76.105)"/><path class="h" d="M53.454,271H46.106c.088,9.976.71,16.53.745,17.133H60.058c.064-1.1.665-6.725.746-17.133Z" transform="translate(-38.559 -230.244)"/><path class="i" d="M98.35,271H91v17.133h6.6C97.668,287.035,98.268,281.412,98.35,271Z" transform="translate(-76.105 -230.244)"/><path class="d" d="M14.9,361c-5.416,0-9.821,4.047-9.821,9.023v4.512A5,5,0,0,1,0,379.2v4.512H9.985a15.705,15.705,0,0,0,4.911-.831c5.7-1.868,9.821-6.98,9.821-12.854,0-4.977-4.4-9.023-9.821-9.023Z" transform="translate(0 -306.709)"/><path class="j" d="M100.821,370.027c0-4.977-4.4-9.023-9.821-9.023v21.878c5.7-1.868,9.821-6.98,9.821-12.854Z" transform="translate(-76.105 -306.709)"/><ellipse class="h" cx="7.5" cy="6.5" rx="7.5" ry="6.5" transform="translate(44 50.004)"/><path class="k" d="M323.366,337.772c0-3.738-3.3-6.768-7.366-6.768v13.535C320.068,344.539,323.366,341.509,323.366,337.772Z" transform="translate(-264.276 -281.221)"/></g></svg>