<svg xmlns="http://www.w3.org/2000/svg" xmlns:xlink="http://www.w3.org/1999/xlink" width="591.092" height="420.37" viewBox="0 0 591.092 420.37"><defs><style>.a,.h{fill:#fff;}.a{stroke:#707070;}.b{clip-path:url(#a);}.c,.f{fill:#f54747;}.c{opacity:0.24;}.d{fill:#f5e0cd;}.e{fill:url(#b);}.g{fill:url(#c);}</style><clipPath id="a"><rect class="a" width="591.092" height="420.37" transform="translate(1274 1528)"/></clipPath><linearGradient id="b" x1="-0.071" y1="0.952" x2="2.401" y2="-0.875" gradientUnits="objectBoundingBox"><stop offset="0" stop-color="#010101" stop-opacity="0"/><stop offset="0.95" stop-color="#010101"/></linearGradient><linearGradient id="c" x1="0.527" y1="-0.447" x2="0.456" y2="2.01" xlink:href="#b"/></defs><g class="b" transform="translate(-1274 -1528)"><g transform="translate(1345.61 1527.977)"><path class="c" d="M348.6,406.968c39.68-4.954,80.152-5.992,118.614-16.985A236.792,236.792,0,0,0,523.5,365.637c10.776-6.426,21.213-13.9,28.63-24.015,20.014-27.365,12.758-66.28-2.737-96.429s-38.208-56.722-48.984-88.852c-10.05-29.979-10.569-65.913-34.254-86.814C456.839,61.3,445,56.58,433.239,52.541c-20.288-6.973-41.671-12.428-63.016-10.248C343.472,45.03,319.551,59.364,294.5,69.13c-24.619,9.568-50.758,14.853-75.453,24.289s-48.786,23.864-62.28,46.568c-15.409,25.865-14.758,58-11.72,87.946s7.936,60.779-.4,89.711c-6.87,23.827-22.364,44.8-26.931,69.177-5.416,28.913,7.851,52.843,34.376,65.526,31.574,15.1,66.2,9.059,91.787-10.125C273.879,419.7,311.983,411.526,348.6,406.968Z" transform="translate(-116.491 -41.784)"/><path class="d" d="M408.591,160.766a10.465,10.465,0,0,1,3.567,8.644,20.429,20.429,0,0,1-3.01,9.134,39.632,39.632,0,0,1-9.219,10.918,91.324,91.324,0,0,1,.368-20.93c.245-1.887-1-6.822-.17-8.068C401.807,157.973,406.7,159.285,408.591,160.766Z" transform="translate(-116.491 -41.784)"/><path class="d" d="M404,294.894a8.7,8.7,0,0,0-1.123,7.549c1.887,5.039,7.719,4.869,11.767,7.266,7.86,4.539,6.445,17.127,0,23.506s-15.759,8.625-24.176,11.946a128.335,128.335,0,0,0-25.091,13.315c-2.151,1.415-4.227,2.831-6.237,4.369-19.486,14.239-35.348,30.942-60.93,41.831-15.5,6.605-30.762,12.267-41.69,25.129-.585.689-1.161,1.359-1.717,2.029-30.574,36.132-85.332,40.935-120.577,9.342-7.983-7.162-11.71-13.824-5.1-19.939,22.8-21.043,48.276-35.348,64.912-62.8,8.389-13.815,13.956-29.177,18.873-44.577,4.407-13.919,8.3-27.979,12.116-42.067a337.014,337.014,0,0,1,15.1-43.917c10.965-25.78,12.041-19.363,30.2-44.69,2.538-3.52,7.785,5.567,9.2,9.653,4.369,13,1.887,34.046-6.454,40.463-3.52,2.67-9.087,18.778-7.964,25.865a13.825,13.825,0,0,0,.67,2.746c.708,1.623,1.887,1.585,4.718.425,6.2-2.538,11.522-8.181,16.523-13,2.151-2.085,4.369-4.086,6.7-5.954,28.186-23.336,66.177-32.631,102.856-35.773,8.172-.708,16.759-1.057,23.742,4.171a13.626,13.626,0,0,1,5.482,8.766c2.208,15.1-22.562,19.429-20.448,32.772a17.533,17.533,0,0,1,12.9,29.989C413.932,287.637,407.487,289.439,404,294.894Z" transform="translate(-116.491 -41.784)"/><path class="e" d="M389.124,283.2c-2.784,24.77-12.333,48.2-21.779,71.253a27.936,27.936,0,0,1-1.934,4.048,9.54,9.54,0,0,1-1.934,2.359,9.682,9.682,0,0,1-4.3,2.01,26.683,26.683,0,0,1-7.115.359L299.517,360.8c-9.549-.462-20.618-1.689-25.874-9.691-3.029-4.586-1.019-10.38-1.2-15.862-.425-12.616,2.4-32.366,2.642-44.983.142-7.86-3.633-19.184-9.266-28.309.708,1.623,1.887,1.585,4.718.425,6.2-2.538,11.522-8.181,16.523-13,2.151-2.085,4.369-4.086,6.7-5.954,10.672-3.067,21.6-5.181,27.629-7.549,14.23-5.53,26.318-6.058,41.435-3.907,10.54,1.51,19.175,9.974,23.223,19.816S390.294,272.624,389.124,283.2Z" transform="translate(-116.491 -41.784)"/><rect class="f" width="112.122" height="227.773" rx="10.153" transform="translate(169.514 86.191)"/><rect class="g" width="112.122" height="227.773" rx="10.153" transform="translate(169.514 86.191)"/><path class="f" d="M400.3,275.823v63.761c0,12.484-7.106,19.618-19.5,19.618H301.584c-12.343,0-19.231-7.021-19.231-19.429v-96.3c0-8.323.123-16.646-.057-24.959-.123-6.049-.727-12.078-.944-18.118a21.532,21.532,0,0,1,.745-4.058c.151-.944.538-2.095.2-2.831-2.406-5.6-.67-11.418-1-17.108-.17-2.831.944-5.662,1.029-8.493,0-2.3-1.113-4.614-1.047-6.907.217-6.69.547-13.4,1.246-20.062.944-9.021,8.37-15.23,17.929-15.258,19.5-.047,39,0,58.505,0,7.455,0,14.9-.066,22.355,0,11.993.057,18.986,7.058,19.014,18.958,0,3.4-.057,6.794,0,10.191.387,15.872,1.67,31.781.944,47.587-.5,10.38-.764,20.76-.878,31.206C400.184,247.58,400.306,261.706,400.3,275.823ZM286.458,241.569v97.618c0,9.663,5.662,15.409,15.259,15.419q39.453.057,78.887,0c10.5,0,16.042-5.6,16.042-16.042V144.347c0-9.578-5.813-15.353-15.306-15.391-2.3,0-4.6.066-6.9,0-2.472-.1-3.775.944-4.5,3.359-1.217,4.2-2.727,5.369-7.049,5.388q-21.194.113-42.4.057c-4.822,0-6.086-1.01-7.5-5.662a3.831,3.831,0,0,0-4.312-3.114c-2.633.085-5.265,0-7.889,0-8.295.085-14.287,6.03-14.3,14.343Q286.41,192.4,286.458,241.569Zm112.169,75.868-.113-.075v23.591h.113ZM284.74,334.988h0V316.673h0Z" transform="translate(-116.491 -41.784)"/><path class="d" d="M391.408,228.3c-2.727,4.058-5.1,8.738-4.652,13.607s4.718,9.634,9.578,8.955c2.406-.34,4.444-1.887,6.313-3.435q3.633-3.01,7.03-6.332a25.1,25.1,0,0,0,4.161-4.945,14.513,14.513,0,0,0,.453-13.805c-1.8-3.51-6.907-8.445-11.229-7.049S393.871,224.65,391.408,228.3Z" transform="translate(-116.491 -41.784)"/><path class="d" d="M391.408,275.6c-2.727,4.058-5.1,8.738-4.652,13.607s4.718,9.634,9.578,8.955c2.406-.34,4.444-1.887,6.313-3.435q3.633-3.01,7.03-6.332a25.1,25.1,0,0,0,4.161-4.945,14.513,14.513,0,0,0,.453-13.805c-1.8-3.51-6.907-8.445-11.229-7.049S393.871,271.944,391.408,275.6Z" transform="translate(-116.491 -41.784)"/><path class="d" d="M391.408,319.579c-2.727,4.058-5.1,8.738-4.652,13.607s4.718,9.644,9.578,8.955c2.406-.34,4.444-1.887,6.313-3.425q3.633-3.01,7.03-6.332a25.1,25.1,0,0,0,4.161-4.945,14.513,14.513,0,0,0,.453-13.805c-1.8-3.52-6.907-8.445-11.229-7.058S393.871,315.927,391.408,319.579Z" transform="translate(-116.491 -41.784)"/><path class="h" d="M354.8,224.716l-.717.642a9.078,9.078,0,0,0-2.359,3.02,7.861,7.861,0,0,0,.887,8.068,6.209,6.209,0,0,0,2.718,2.3l.491.189c-.076.217-.142.434-.217.642a20.994,20.994,0,0,1-3.774,6.492,10.638,10.638,0,0,1-1.482,1.359,4.133,4.133,0,0,1-3.822.746c-.84-.245-1.67-.519-2.51-.774a8.275,8.275,0,0,0-2.133-.406,7.549,7.549,0,0,0-3.1.651,10.644,10.644,0,0,1-2.4.727,4.049,4.049,0,0,1-2.284-.359,7.464,7.464,0,0,1-2.463-1.972,22.874,22.874,0,0,1-3.435-5.662,19.919,19.919,0,0,1-1.727-6.266,15.022,15.022,0,0,1,.9-7.294,9.512,9.512,0,0,1,2.925-3.935,7.03,7.03,0,0,1,4.718-1.491,14.72,14.72,0,0,1,3.775.7c.51.142,1.029.255,1.548.4a4.256,4.256,0,0,0,2.453,0l2.689-.812a9.107,9.107,0,0,1,3.378-.4,7.549,7.549,0,0,1,4.718,2.048c.415.387.793.821,1.189,1.236A1.341,1.341,0,0,1,354.8,224.716Z" transform="translate(-116.491 -41.784)"/><path class="h" d="M340.782,221.838a9.191,9.191,0,0,1,1.887-5.662,8.625,8.625,0,0,1,5.067-2.831,2.765,2.765,0,0,1,.113,1.378,8.606,8.606,0,0,1-3.425,6.049,5.351,5.351,0,0,1-2.831,1.038Z" transform="translate(-116.491 -41.784)"/></g></g></svg>