<svg xmlns="http://www.w3.org/2000/svg" xmlns:xlink="http://www.w3.org/1999/xlink" width="100" height="100" viewBox="0 0 100 100"><defs><style>.a{fill:url(#a);}.b{fill:url(#b);}.c{fill:url(#c);}.d{fill:url(#d);}.e{fill:url(#e);}.f{fill:url(#f);}.g{fill:#fff;}</style><linearGradient id="a" x1="0.332" y1="0.141" x2="0.585" y2="0.682" gradientUnits="objectBoundingBox"><stop offset="0" stop-color="#0077b5"/><stop offset="1" stop-color="#0066b2"/></linearGradient><linearGradient id="b" x1="0.738" y1="0.628" x2="-0.899" y2="-0.25" gradientUnits="objectBoundingBox"><stop offset="0" stop-color="#0066b2" stop-opacity="0"/><stop offset="1" stop-color="#07485e"/></linearGradient><linearGradient id="c" x1="0.5" y1="0.059" x2="0.5" y2="1.106" xlink:href="#b"/><linearGradient id="d" x1="0.438" y1="0.439" x2="-0.037" y2="-0.037" xlink:href="#b"/><linearGradient id="e" x1="0.795" y1="0.804" x2="-0.29" y2="0.216" xlink:href="#b"/><linearGradient id="f" x1="0.892" y1="0.936" x2="-0.003" y2="0.073" xlink:href="#b"/></defs><g transform="translate(0 0)"><path class="a" d="M82.114,98.287a302.043,302.043,0,0,1-64.227,0A18.209,18.209,0,0,1,1.712,82.112a302.035,302.035,0,0,1,0-64.226A18.209,18.209,0,0,1,17.886,1.712a302.037,302.037,0,0,1,64.227,0A18.209,18.209,0,0,1,98.288,17.886a302.036,302.036,0,0,1,0,64.226A18.208,18.208,0,0,1,82.114,98.287Zm0,0"/><path class="b" d="M116.051,44.706A16.157,16.157,0,0,0,101.7,30.353a268.124,268.124,0,0,0-56.993,0A16.159,16.159,0,0,0,30.353,44.706a268.115,268.115,0,0,0,0,56.992,16.158,16.158,0,0,0,14.353,14.353,268.016,268.016,0,0,0,56.992,0A16.157,16.157,0,0,0,116.051,101.7a268.015,268.015,0,0,0,0-56.992Zm0,0" transform="translate(-23.202 -23.203)"/><path class="c" d="M7.672,409.805q.1,1.037.214,2.074a18.209,18.209,0,0,0,16.175,16.174,302.036,302.036,0,0,0,64.227,0,18.208,18.208,0,0,0,16.174-16.174q.111-1.037.214-2.074Zm0,0" transform="translate(-6.174 -329.766)"/><path class="d" d="M173.571,164.944l-64.532-64.533A7.882,7.882,0,1,0,97.99,111.459L162.3,175.768a18.225,18.225,0,0,0,11.272-10.824Zm0,0" transform="translate(-76.361 -78.31)"/><path class="e" d="M114.594,204.5H101.351v41.051l18.79,18.79a302.06,302.06,0,0,0,43.528-1.495,18.156,18.156,0,0,0,7.019-2.251Zm0,0" transform="translate(-81.556 -164.562)"/><path class="f" d="M246.859,204.3a13.207,13.207,0,0,0-9.786-4.322c-6.132,0-10.089,2.154-12.444,4.153l-2.595-3.27h-12.2v41.051l18.846,18.846q11.149-.363,22.285-1.551a18.208,18.208,0,0,0,16.174-16.174q.913-8.553,1.337-17.117Zm0,0" transform="translate(-168.849 -160.922)"/><g transform="translate(18.534 19.007)"><path class="g" d="M101.355,204.5H114.6v41.051H101.355Zm0,0" transform="translate(-100.093 -183.569)"/><path class="g" d="M237.073,199.98c-9.7,0-13.966,5.393-15.039,7.035v-6.152h-12.2v41.051h13.242v-20.62c0-5.959,2.743-10.593,7.945-10.593s6.053,5.769,6.053,12.864v18.349h13.242V213.222a13.242,13.242,0,0,0-13.242-13.242Zm0,0" transform="translate(-187.383 -179.929)"/><path class="g" d="M110.659,105.2a7.882,7.882,0,1,1-7.882-7.883A7.882,7.882,0,0,1,110.659,105.2Zm0,0" transform="translate(-94.894 -97.317)"/></g></g></svg>