<svg xmlns="http://www.w3.org/2000/svg" width="30" height="30" viewBox="0 0 30 30"><defs><style>.b{fill:#4a86c5;}.c{fill:#980b0b;}</style></defs><path class="b" d="M462.646,301.588c.055-.172.1-.345.154-.519Q462.727,301.331,462.646,301.588Z" transform="translate(-433.36 -282.012)"/><path class="c" d="M135.909,100.013v5.563h-3.225v-5.19c0-1.3-.467-2.194-1.634-2.194a1.765,1.765,0,0,0-1.655,1.18,2.208,2.208,0,0,0-.107.786v5.418h-3.225s.043-8.791,0-9.7h3.225V97.25c-.006.01-.015.022-.021.032h.021V97.25a3.2,3.2,0,0,1,2.907-1.6C134.318,95.647,135.909,97.033,135.909,100.013ZM122.687,91.2a1.681,1.681,0,1,0-.043,3.353h.022a1.682,1.682,0,1,0,.021-3.353Zm-1.634,14.378h3.225v-9.7h-3.225Z" transform="translate(-113.211 -84.419)"/></svg>