<svg xmlns="http://www.w3.org/2000/svg" xmlns:xlink="http://www.w3.org/1999/xlink" width="591.092" height="420.37" viewBox="0 0 591.092 420.37"><defs><style>.a{fill:#fff;stroke:#707070;}.b{clip-path:url(#a);}.c,.d{fill:#f54747;}.c{opacity:0.18;}.e{fill:url(#b);}.f{fill:url(#c);}.g{fill:url(#d);}.h{fill:url(#e);}.i{fill:url(#f);}.j{fill:#f3bd8f;}.k{opacity:0.69;fill:url(#g);}.l{fill:none;stroke:#fff;stroke-miterlimit:10;stroke-width:1.472px;}.m{fill:url(#h);}.n{fill:url(#i);}.o{fill:url(#j);}.p{fill:#3e3e54;}.q{fill:url(#k);}.r{fill:url(#l);}.s{fill:url(#m);}.t{fill:url(#n);}</style><clipPath id="a"><rect class="a" width="591.092" height="420.37" transform="translate(1274 1528)"/></clipPath><linearGradient id="b" x1="0.225" y1="-3.669" x2="2.067" y2="24.245" gradientUnits="objectBoundingBox"><stop offset="0.01"/><stop offset="0.13" stop-opacity="0.69"/><stop offset="1" stop-opacity="0"/></linearGradient><linearGradient id="c" x1="-0.061" y1="-7.996" x2="1.781" y2="19.918" xlink:href="#b"/><linearGradient id="d" x1="-0.346" y1="-12.323" x2="1.496" y2="15.591" xlink:href="#b"/><linearGradient id="e" x1="-0.921" y1="-0.339" x2="2.561" y2="1.717" xlink:href="#b"/><linearGradient id="f" x1="-0.556" y1="-0.123" x2="2.928" y2="1.934" xlink:href="#b"/><radialGradient id="g" cx="0.5" cy="0.5" r="0.453" gradientTransform="translate(-0.122) scale(1.245 1)" gradientUnits="objectBoundingBox"><stop offset="0.34" stop-color="#fff"/><stop offset="1" stop-color="#fff" stop-opacity="0.388"/></radialGradient><linearGradient id="h" x1="135.493" y1="75.604" x2="136.493" y2="75.604" xlink:href="#b"/><linearGradient id="i" x1="121.179" y1="207.241" x2="122.179" y2="207.241" xlink:href="#b"/><linearGradient id="j" x1="0.646" y1="-0.332" x2="0.411" y2="1.099" xlink:href="#b"/><linearGradient id="k" x1="1.091" y1="0.446" x2="0.234" y2="0.51" xlink:href="#b"/><linearGradient id="l" x1="1.053" y1="0.494" x2="-0.334" y2="0.508" xlink:href="#b"/><linearGradient id="m" x1="-0.265" y1="0.55" x2="2.803" y2="0.309" xlink:href="#b"/><linearGradient id="n" x1="0.244" y1="0.844" x2="1.246" y2="-0.204" xlink:href="#b"/></defs><g class="b" transform="translate(-1274 -1528)"><g transform="translate(1403.195 1527.998)"><path class="c" d="M383.7,246.78c.318,25.18,8.047,50.18,5.294,75.18-5.167,46.59-47.734,83.142-93.784,91.878-23.835,4.521-50.18,2.319-69.631-12.177-7.179-5.358-13.151-12.188-20.235-17.683C182.676,366.369,151.2,364,127.753,347.436,100.434,328.133,89.062,293.5,82,260.8q-6.226-28.8-9.763-58.09C68.7,173.528,68,141.19,86.1,118c13.522-17.4,34.943-26.186,53.632-37.886C164.4,64.676,185.006,43.5,209.063,27.1,236.234,8.566,261.71,3.537,288.8,7.836l2.393.4A178.144,178.144,0,0,1,326.937,19.06c36.107,14.708,67.45,45.531,74.364,85C409.613,151.535,383.11,198.57,383.7,246.78Z" transform="translate(-70.224 -6.396)"/><rect class="d" width="75.826" height="8.778" rx="4.389" transform="translate(167.026 306.564) rotate(180)"/><rect class="d" width="75.826" height="8.778" rx="4.389" transform="translate(178.991 350.062) rotate(180)"/><rect class="d" width="75.826" height="8.778" rx="4.389" transform="translate(190.967 393.561) rotate(180)"/><path class="d" d="M182.92,420.371H193.7L164.358,301.249H153.589Z"/><path class="d" d="M123.062,420.371h10.769L104.5,301.249H93.731Z"/><rect class="e" width="75.826" height="8.778" rx="4.389" transform="translate(167.026 306.564) rotate(180)"/><rect class="f" width="75.826" height="8.778" rx="4.389" transform="translate(178.991 350.062) rotate(180)"/><rect class="g" width="75.826" height="8.778" rx="4.389" transform="translate(190.967 393.561) rotate(180)"/><path class="h" d="M182.92,420.371H193.7L164.358,301.249H153.589Z"/><path class="i" d="M123.062,420.371h10.769L104.5,301.249H93.731Z"/><path class="j" d="M252.488,116.349a6.777,6.777,0,0,1,4.913-2.118,10.07,10.07,0,0,1-1.662,4.966,7.413,7.413,0,0,0-.932,1.885,2.012,2.012,0,0,0,.424,1.959c.349.339.858.5,1.059.911a1.26,1.26,0,0,1-.36,1.5,3.685,3.685,0,0,1-1.514.7l-2.753.773a3.282,3.282,0,0,1-2.118.116C245.361,125.264,250.952,117.948,252.488,116.349Z" transform="translate(-70.224 -6.396)"/><path class="d" d="M236.287,129.235a10.673,10.673,0,0,0,4.511-1.917,27.384,27.384,0,0,0,5.834-5.22,20.648,20.648,0,0,1,5.94,7.507,1.588,1.588,0,0,1-.244,2.118c-3.971,4.585-9.149,8.8-15.216,9.022a13.331,13.331,0,0,1-9.022-3.1c-2.5-2.118-7.01-9.371-3.452-12.325,1.885-1.567,3.41.424,4.818,1.535a9.4,9.4,0,0,0,6.83,2.382Z" transform="translate(-70.224 -6.396)"/><rect class="d" width="43.53" height="20.775" rx="4.331" transform="translate(243.286 70.775) rotate(180)"/><rect class="d" width="48.676" height="7.55" rx="3.643" transform="translate(245.605 63.882) rotate(180)"/><path class="d" d="M251.768,134a38.183,38.183,0,0,1,4.352-17.778l15.83-39.5h38.723l14.718,41.667A38.469,38.469,0,1,1,251.768,134Z" transform="translate(-70.224 -6.396)"/><path class="k" d="M251.768,134a38.183,38.183,0,0,1,4.352-17.778l15.83-39.5h38.723l14.718,41.667A38.469,38.469,0,1,1,251.768,134Z" transform="translate(-70.224 -6.396)"/><path class="l" d="M296.484,76.09a88.362,88.362,0,0,1,8.7,37.8c0,2.933-.424,6.353-2.986,7.814-3.177,1.747-7.031-.985-8.746-4.14a16.55,16.55,0,0,1-.932-13.585c2.118,2.615,2.679,6.057,3.028,9.36a16.243,16.243,0,0,1-.434,7.285c-.837,2.308-2.9,4.341-5.358,4.426-3.77.127-6.216-4.1-6.639-7.857a19.229,19.229,0,0,1,2.774-12.251A14.411,14.411,0,0,1,282.93,119.1a8.291,8.291,0,0,1-4.3,2.679,4.553,4.553,0,0,1-4.6-1.609,6.237,6.237,0,0,1-.911-2.764c-1.059-7.084,1.461-14.21,4.532-20.68s6.8-12.706,8.609-19.642" transform="translate(-70.224 -6.396)"/><rect class="m" width="43.53" height="20.775" rx="4.331" transform="translate(243.286 70.775) rotate(180)"/><rect class="n" width="48.676" height="7.55" rx="3.643" transform="translate(245.605 63.882) rotate(180)"/><path class="j" d="M218.953,225.253a33.474,33.474,0,0,1-.4,4.934,51.515,51.515,0,0,1-2.541,7.793,92.937,92.937,0,0,0-3.177,12.463L206.66,280.8a2.372,2.372,0,0,0,0,1.3,2.117,2.117,0,0,0,.741.858,12.039,12.039,0,0,0,3.314,1.874,1.885,1.885,0,0,0,1.2.138,2.118,2.118,0,0,0,1.059-1.154,57.593,57.593,0,0,0,5.443-13.13c6.353-22.077,13.162-35.409,14.422-46.3.212-1.768,2.118-3.367,1.186-4.881a6.9,6.9,0,0,0-2.319-2.4c-2.4-1.609-7.857-6.353-11.055-4.468C217.82,214.188,219.048,222.416,218.953,225.253Z" transform="translate(-70.224 -6.396)"/><path class="j" d="M205.167,224.713a2.647,2.647,0,0,1-2.711,2.34c-14.655,2.224-29.977,2.552-43.35,8.926a5.03,5.03,0,0,0-2.224,1.641c-1.239,1.927.371,4.564-.339,6.734,8.27.254,16.508-1.059,24.672-2.393l30.326-4.913c1.927-.318,3.992-.7,5.358-2.118a9.318,9.318,0,0,0,1.969-4.235l2.372-8.916c.476-1.758.921-3.685.138-5.294-1.059-2.277-4-2.891-6.512-3.028C207.411,213.045,206.935,218.89,205.167,224.713Z" transform="translate(-70.224 -6.396)"/><path class="o" d="M205.167,224.713a2.647,2.647,0,0,1-2.711,2.34c-14.655,2.224-29.977,2.552-43.35,8.926a5.03,5.03,0,0,0-2.224,1.641c-1.239,1.927.371,4.564-.339,6.734,8.27.254,16.508-1.059,24.672-2.393l30.326-4.913c1.927-.318,3.992-.7,5.358-2.118a9.318,9.318,0,0,0,1.969-4.235l2.372-8.916c.476-1.758.921-3.685.138-5.294-1.059-2.277-4-2.891-6.512-3.028C207.411,213.045,206.935,218.89,205.167,224.713Z" transform="translate(-70.224 -6.396)"/><path class="j" d="M265.988,138.765c.222-.455.731-.974,1.112-.667a.858.858,0,0,1,.244.572l.339,2.287a.836.836,0,0,0,.138.424c.265.307.762.106,1.059-.127a28.082,28.082,0,0,0,5.167-4.6c.3-.339.72-.72,1.144-.54a.964.964,0,0,1,.445.551,7.719,7.719,0,0,1,.328,4.077,11.5,11.5,0,0,1-1.62,4.765,6.8,6.8,0,0,1-3.95,2.986c-1.3.328-2.732.191-3.928.8-.72.371-1.387,1.006-2.192.921-1-.106-1.514-1.249-1.609-2.245C262.388,144.695,264.6,141.582,265.988,138.765Z" transform="translate(-70.224 -6.396)"/><path class="p" d="M225.825,103.06c.307,3.007.635,6.216,2.562,8.545.794.964,1.821,1.726,2.531,2.753a5.707,5.707,0,0,1,1.006,3.272c-5.136-.233-10.165,2.118-15.29,1.652a24.354,24.354,0,0,1,.371-8.524c.879-3.907,2.753-7.677,2.573-11.648-.053-1.313-.371-2.933.455-4.1.688-.964,2.287-1.472,3.177-.519a11.235,11.235,0,0,1,1.694,3.621,22.752,22.752,0,0,1,.921,4.945Z" transform="translate(-70.224 -6.396)"/><path class="d" d="M222.363,119.811c9.064,5.294,12.706,24.788,14.157,29.585a70.616,70.616,0,0,1,2.658,22.4c-.074,3.325-.318,6.766-1.779,9.752-2.012,4.108-6.12,6.893-10.493,8.206s-9.032,1.324-13.585,1.059c-2.944-.159-6.1-.5-8.333-2.414-3.05-2.615-3.357-7.137-3.4-11.16q-.286-23.867.476-47.766a24.206,24.206,0,0,1,.953-7.094,8.28,8.28,0,0,1,4.585-5.231C211.647,115.639,218.593,117.588,222.363,119.811Z" transform="translate(-70.224 -6.396)"/><path class="q" d="M222.363,119.811c9.064,5.294,12.706,24.788,14.157,29.585a70.616,70.616,0,0,1,2.658,22.4c-.074,3.325-.318,6.766-1.779,9.752-2.012,4.108-6.12,6.893-10.493,8.206s-9.032,1.324-13.585,1.059c-2.944-.159-6.1-.5-8.333-2.414-3.05-2.615-3.357-7.137-3.4-11.16q-.286-23.867.476-47.766a24.206,24.206,0,0,1,.953-7.094,8.28,8.28,0,0,1,4.585-5.231C211.647,115.639,218.593,117.588,222.363,119.811Z" transform="translate(-70.224 -6.396)"/><path class="j" d="M225.815,109.17a4.373,4.373,0,0,1-.974,3.018,3.833,3.833,0,0,1-3,.8,21.464,21.464,0,0,0-3.177-.286,1.737,1.737,0,0,0-1.948,1.885c0,1.472.625,2.88.614,4.352s-1.133,3.177-2.573,2.859a2.859,2.859,0,0,1-1.641-1.313c-2.044-2.975-2.171-6.872-3.727-10.144-.911-1.917-2.308-3.6-2.975-5.623a9.255,9.255,0,0,1,2.817-9.593c2.679-2.319,8.863-4.055,11.753-1.154C224.618,97.628,226.005,104.225,225.815,109.17Z" transform="translate(-70.224 -6.396)"/><path class="p" d="M219.948,88.5a7.814,7.814,0,0,1,1.98,1.059,9.9,9.9,0,0,1,2.923,4.924l-7.539,4.034a1.271,1.271,0,0,1-.762.212c-.54-.1-.794-.847-1.334-.879a6.068,6.068,0,0,1,.6,1.4l-2.944,2.118a3.177,3.177,0,0,0-.858.762,3.272,3.272,0,0,0-.381,1.938,86.988,86.988,0,0,0,2.573,16.73,8.471,8.471,0,0,1-3.653,1.059,51.884,51.884,0,0,0-14.009,4.235,17.471,17.471,0,0,0-.688-4.49,12.527,12.527,0,0,1-.826-3.653,10.589,10.589,0,0,1,1.281-4.045c.826-1.821,1.525-3.7,2.224-5.57a15.883,15.883,0,0,0,1.059-3.907,25.816,25.816,0,0,0-.445-5.167,7.052,7.052,0,0,1,.953-4.987c1.514-2.033,4.4-2.594,6.47-3.9a15.385,15.385,0,0,1,8.376-2.764,13.426,13.426,0,0,1,5,.889Z" transform="translate(-70.224 -6.396)"/><path class="d" d="M225.444,161.562c2.118,2.118,11.764,4.3,15.195,4.235,8.873,0,27.361-10.991,27.044-11.785l-5.432-13.331c-4.585,3.007-9.382,5.909-14.75,7s-11.457.064-15.258-3.875c-2.711-2.817-3.95-6.713-6.141-9.943s-6.247-5.951-9.858-4.468c-4.754,1.948-5.845,9.773-4.14,13.935C214.834,150.074,220.4,156.49,225.444,161.562Z" transform="translate(-70.224 -6.396)"/><path class="p" d="M196.3,215.088c-.349,1.059-.741,2.118-1.144,3.177-1.144,2.891-2.266,6.756.2,8.651a5.76,5.76,0,0,0,2.923.974c3.473.392,6.989-.275,10.483-.2,7.634.148,14.739,3.759,21.347,7.582a14.824,14.824,0,0,0,4.543,1.991A4.754,4.754,0,0,0,239.2,235.9c1.059-1.324,1.059-3.177.953-4.913l-1.641-31.766c-.2-3.886,1.059-15.989-3.568-17.08-2.944-.7-7.5.741-10.589.942-3.717.254-7.412.36-11.182.349a19.685,19.685,0,0,1-5.506-.625c-1.059-.339-4.532-2.255-5.707-1.991-3.59.847-2.054,12.643-2.171,15.417A67.768,67.768,0,0,1,196.3,215.088Z" transform="translate(-70.224 -6.396)"/><path class="r" d="M196.3,215.088c-.349,1.059-.741,2.118-1.144,3.177-1.144,2.891-2.266,6.756.2,8.651a5.76,5.76,0,0,0,2.923.974c3.473.392,6.989-.275,10.483-.2,7.634.148,14.739,3.759,21.347,7.582a14.824,14.824,0,0,0,4.543,1.991A4.754,4.754,0,0,0,239.2,235.9c1.059-1.324,1.059-3.177.953-4.913l-1.641-31.766c-.2-3.886,1.059-15.989-3.568-17.08-2.944-.7-7.5.741-10.589.942-3.717.254-7.412.36-11.182.349a19.685,19.685,0,0,1-5.506-.625c-1.059-.339-4.532-2.255-5.707-1.991-3.59.847-2.054,12.643-2.171,15.417A67.768,67.768,0,0,1,196.3,215.088Z" transform="translate(-70.224 -6.396)"/><path class="d" d="M151.694,236.393a3.653,3.653,0,0,0-2.308.942,3.939,3.939,0,0,0-.625,2.806,170.325,170.325,0,0,0,2.531,23.3c.169.953.487,2.118,1.408,2.372,1.345.445,2.372-1.207,2.838-2.541l5.972-17.291a3.177,3.177,0,0,0,.244-1.737c-.233-.964-1.292-1.461-1.927-2.234-1.218-1.514-.4-4.108-1.927-5.347C156.543,235.556,153.24,236.192,151.694,236.393Z" transform="translate(-70.224 -6.396)"/><path class="d" d="M201.111,284.5a3.664,3.664,0,0,0-.847,2.351,3.929,3.929,0,0,0,1.662,2.34,168.972,168.972,0,0,0,18.986,13.765c.826.508,1.864,1.059,2.7.551,1.239-.709.7-2.573,0-3.812l-8.842-16.021a3.092,3.092,0,0,0-1.059-1.345c-.879-.477-1.959,0-2.954-.074-1.948-.106-3.325-2.446-5.294-2.118C203.737,280.336,202,283.216,201.111,284.5Z" transform="translate(-70.224 -6.396)"/><path class="s" d="M151.694,236.393a3.653,3.653,0,0,0-2.308.942,3.939,3.939,0,0,0-.625,2.806,170.325,170.325,0,0,0,2.531,23.3c.169.953.487,2.118,1.408,2.372,1.345.445,2.372-1.207,2.838-2.541l5.972-17.291a3.177,3.177,0,0,0,.244-1.737c-.233-.964-1.292-1.461-1.927-2.234-1.218-1.514-.4-4.108-1.927-5.347C156.543,235.556,153.24,236.192,151.694,236.393Z" transform="translate(-70.224 -6.396)"/><path class="t" d="M201.111,284.5a3.664,3.664,0,0,0-.847,2.351,3.929,3.929,0,0,0,1.662,2.34,168.972,168.972,0,0,0,18.986,13.765c.826.508,1.864,1.059,2.7.551,1.239-.709.7-2.573,0-3.812l-8.842-16.021a3.092,3.092,0,0,0-1.059-1.345c-.879-.477-1.959,0-2.954-.074-1.948-.106-3.325-2.446-5.294-2.118C203.737,280.336,202,283.216,201.111,284.5Z" transform="translate(-70.224 -6.396)"/><rect class="d" width="75.826" height="8.778" rx="4.389" transform="translate(88.204 297.257)"/><rect class="d" width="75.826" height="8.778" rx="4.389" transform="translate(76.228 340.755)"/><rect class="d" width="75.826" height="8.778" rx="4.389" transform="translate(64.263 384.253)"/><path class="d" d="M72.31,419.842H61.531L90.862,300.719h10.779Z"/><path class="d" d="M132.168,419.842H121.4L150.73,300.719H161.5Z"/><path class="d" d="M291.189,8.238V56.491H288.8V7.836Z" transform="translate(-70.224 -6.396)"/></g></g></svg>