<svg xmlns="http://www.w3.org/2000/svg" width="84.792" height="76" viewBox="0 0 84.792 76"><defs><style>.a{fill:#ffdcc8;}.b{fill:#00366d;}.c{fill:#01223c;}.d{fill:#5ff9fe;}.e{fill:#00dde7;}.f{fill:#ffc5bb;}.g{fill:#00bdcd;}.h{fill:#ffadad;}</style></defs><g transform="translate(0)"><path class="a" d="M76.313,154.266V144.133c0-4.2-3.8-7.6-8.479-7.6H47.144a1.835,1.835,0,0,0-1.921,1.736,9.873,9.873,0,0,0,.585,3.331H5.765C2.6,141.6-.057,143.923,0,146.762a5.4,5.4,0,0,0,5.652,4.971h5.653v30.4H67.834c4.683,0,8.479-3.4,8.479-7.6h6a2.366,2.366,0,0,0,2.484-2.227V156.493a2.366,2.366,0,0,0-2.484-2.227Z" transform="translate(0 -116.266)"/><path class="b" d="M111.63,0H75.779c-4.142,0-7.512,3.021-7.512,6.733V69.267c0,3.713,3.37,6.733,7.512,6.733h35.85c4.142,0,7.512-3.021,7.512-6.733V6.733c0-3.713-3.37-6.733-7.512-6.733Z" transform="translate(-56.961 0)"/><path class="c" d="M247.3,69.267V6.733c0-3.713-3.37-6.733-7.512-6.733H221.867V76h17.925C243.934,76,247.3,72.979,247.3,69.267Z" transform="translate(-185.124 0)"/><path class="d" d="M136.368,30h-2.837v2.543c0,3.864-3.495,7-7.806,7H111.748c-4.311,0-7.806-3.132-7.806-7V30H101.1a2.706,2.706,0,0,0-2.838,2.543V94.55a2.706,2.706,0,0,0,2.838,2.543h35.263a2.706,2.706,0,0,0,2.838-2.543V32.543A2.706,2.706,0,0,0,136.368,30Z" transform="translate(-81.993 -25.547)"/><path class="e" d="M242.336,94.551V32.543A2.706,2.706,0,0,0,239.5,30h-2.837v2.543c0,3.864-3.495,7-7.806,7h-6.989V97.094H239.5A2.706,2.706,0,0,0,242.336,94.551Z" transform="translate(-185.124 -25.547)"/><ellipse class="f" cx="5.653" cy="5.067" rx="5.653" ry="5.067" transform="translate(5.653 55.733)"/><path class="f" d="M25.492,249.067c3.12,0,5.653-2.27,5.653-5.067s-2.532-5.067-5.653-5.067H14.187c-3.12,0-5.653,2.27-5.653,5.067s2.532,5.067,5.653,5.067h2.826c-3.12,0-5.653,2.27-5.653,5.067s2.532,5.067,5.653,5.067h8.479c3.12,0,5.653-2.27,5.653-5.067s-2.533-5.067-5.653-5.067Z" transform="translate(-7.121 -203.467)"/><path class="e" d="M187.86,422.186H177.217a2.24,2.24,0,1,1,0-4.453H187.86a2.24,2.24,0,1,1,0,4.453Z" transform="translate(-145.796 -355.726)"/><path class="g" d="M229.673,419.96a2.366,2.366,0,0,0-2.484-2.227h-5.322v4.453h5.322A2.366,2.366,0,0,0,229.673,419.96Z" transform="translate(-185.124 -355.726)"/><path class="f" d="M304.157,151v-6.868c0-4.2-3.8-7.6-8.479-7.6h-20.69a1.83,1.83,0,0,0-1.921,1.722c0,6.035,5.478,10.945,12.211,10.945h4.747v32.933h5.653c4.683,0,8.479-3.4,8.479-7.6h6a2.366,2.366,0,0,0,2.484-2.227V153.227A2.366,2.366,0,0,0,310.152,151Z" transform="translate(-227.844 -116.266)"/><g transform="translate(4.24 45.6)"><path class="h" d="M39.732,307.2H31.253c-3.12,0-5.653,2.27-5.653,5.067s2.532,5.067,5.653,5.067h8.479c3.12,0,5.653-2.27,5.653-5.067S42.852,307.2,39.732,307.2Z" transform="translate(-25.6 -307.2)"/><path class="h" d="M375.467,307.2v20.267h5.653c4.683,0,8.479-3.4,8.479-7.6h6a2.366,2.366,0,0,0,2.484-2.227V307.2Z" transform="translate(-317.526 -307.2)"/></g></g></svg>