<svg xmlns="http://www.w3.org/2000/svg" width="77.024" height="66.817" viewBox="0 0 77.024 66.817"><defs><style>.a{fill:#a0cafe;}.b{fill:#d8cecc;}.c{fill:#c0dbff;}.d{fill:#bee299;}.e{fill:#aedb81;}.f{fill:#8ecb51;}.g{fill:#e3a76f;}.h{fill:#f2bb88;}.i{fill:#d19a75;}.j{fill:#c9885b;}.k{fill:#c8bebc;}.l{fill:#ebe0da;}.m{fill:#81b8fd;}.n{fill:#f2d1a5;}.o{fill:#ff956a;}.p{fill:#ff7c48;}</style></defs><g transform="translate(0 0)"><path class="a" d="M258.038,150.125l-13.448,8.89c-1,.662-2.3-.393-1.618-1.312l5.621-7.578Zm0,0" transform="translate(-206.258 -130.411)"/><path class="b" d="M94.179,399.684H25.836a.534.534,0,0,1-.566-.494V384.324H94.746v14.865a.534.534,0,0,1-.566.494Zm0,0" transform="translate(-21.468 -333.856)"/><path class="c" d="M271.48,27.871H235.534a2.3,2.3,0,0,1-2.439-2.129V9.657a2.3,2.3,0,0,1,2.439-2.129H271.48a2.3,2.3,0,0,1,2.439,2.129V25.742A2.3,2.3,0,0,1,271.48,27.871Zm0,0" transform="translate(-198.028 -6.539)"/><path class="d" d="M44.759,251.583a2.8,2.8,0,0,1-2.966,2.589H15.217a3.185,3.185,0,0,1-2.1-.759,2.424,2.424,0,0,1-.869-1.83,11.267,11.267,0,0,1,4.806-9.036,14.032,14.032,0,0,1,3.614-1.915,15.239,15.239,0,0,1,5.131-.877h5.407a15.272,15.272,0,0,1,5.131.877,13.992,13.992,0,0,1,3.615,1.917q.435.318.837.671a11.094,11.094,0,0,1,3.969,8.364Zm0,0" transform="translate(-10.407 -208.27)"/><path class="e" d="M31.088,239.754a15.234,15.234,0,0,0-5.131.877,14.036,14.036,0,0,0-3.615,1.915,11.268,11.268,0,0,0-4.806,9.036,2.424,2.424,0,0,0,.869,1.83,3.184,3.184,0,0,0,2.1.759H15.217a3.185,3.185,0,0,1-2.1-.759,2.424,2.424,0,0,1-.869-1.83,11.267,11.267,0,0,1,4.806-9.036,14.033,14.033,0,0,1,3.614-1.915,15.239,15.239,0,0,1,5.131-.877Zm0,0" transform="translate(-10.407 -208.27)"/><path class="f" d="M70.566,240.636h0a14.981,14.981,0,0,0-2.8-.645q-.678-.091-1.377-.12v2.684l-3.013,2.835,0,0a.541.541,0,0,1-.866-.011l-2.879-2.828v-2.684a15.31,15.31,0,0,0-1.645.159,15.025,15.025,0,0,0-2.536.61h0a4.283,4.283,0,0,0-2.579,4.2c.006.445.642.646,1.013.349l2.465-1.553a.911.911,0,0,1,.7-.018l5.271,2a1.132,1.132,0,0,0,1.239.007l5.415-2.01a.909.909,0,0,1,.7.018l2.465,1.553c.37.3,1.007.1,1.012-.349a4.285,4.285,0,0,0-2.589-4.2Zm0,0" transform="translate(-44.915 -208.372)"/><path class="g" d="M97.82,211.9v6.342l2.88,2.829a.542.542,0,0,0,.866.011s0,0,0,0l3.013-2.836V211.9C104.018,211.881,98.353,211.882,97.82,211.9Zm0,0" transform="translate(-83.104 -184.063)"/><path class="h" d="M166.139,133.621a3.857,3.857,0,1,1-3.821-3.336A3.6,3.6,0,0,1,166.139,133.621Zm0,0" transform="translate(-134.653 -113.177)"/><path class="h" d="M69.911,33.859H56.2a3.093,3.093,0,0,0-3.28,2.863V52.234c0,4.79,7.625,8.673,10.137,8.673s10.136-3.883,10.136-8.673V36.722A3.093,3.093,0,0,0,69.911,33.859Zm0,0" transform="translate(-44.957 -29.413)"/><path class="g" d="M65.7,60.225a7.763,7.763,0,0,1-2.643.681c-2.512,0-10.136-3.883-10.136-8.672V36.723A3.092,3.092,0,0,1,56.2,33.86h5.286a3.092,3.092,0,0,0-3.279,2.863V52.234C58.208,55.827,62.5,58.91,65.7,60.225Zm0,0" transform="translate(-44.96 -29.413)"/><path class="i" d="M54.248,7.43H45a5.558,5.558,0,0,0-5.443,3.433,4.374,4.374,0,0,0-1.078-.133h-.964c-2.01,0-3.64,1.337-3.64,2.985v3.544a2.531,2.531,0,0,0,2.74,2.247H38.48a3.42,3.42,0,0,0,3.63-2.777c3,2.661,8.212,4.357,14.374,4.3h1.682a1.749,1.749,0,0,0,1.712-1.784v-7.2c0-2.55-2.52-4.618-5.63-4.618Zm0,0" transform="translate(-28.779 -6.454)"/><path class="j" d="M59.881,44.226v2.292A1.749,1.749,0,0,1,58.17,48.3H56.488c-6.163.059-11.374-1.636-14.374-4.3a3.418,3.418,0,0,1-3.629,2.777H36.619a2.53,2.53,0,0,1-2.74-2.247V40.99a2.75,2.75,0,0,1,1.132-2.162v1.735a2.53,2.53,0,0,0,2.74,2.246h1.865a3.418,3.418,0,0,0,3.629-2.777c3,2.662,8.212,4.358,14.374,4.3H59.3a1.659,1.659,0,0,0,.578-.1Zm0,0" transform="translate(-28.783 -33.729)"/><path class="k" d="M31.122,399.684H25.836a.534.534,0,0,1-.566-.494V384.324h5.286v14.865A.534.534,0,0,0,31.122,399.684Zm0,0" transform="translate(-21.468 -333.856)"/><path class="a" d="M265.621,403.165a2.627,2.627,0,0,0,.731,1.83,2.441,2.441,0,0,0,1.764.758h22.364a2.543,2.543,0,0,0,2.5-2.588,12.016,12.016,0,0,0-3.34-8.364c-.226-.234-.46-.459-.7-.671a11.31,11.31,0,0,0-3.042-1.916,11.018,11.018,0,0,0-4.316-.877h-4.55a11.008,11.008,0,0,0-4.316.877,11.32,11.32,0,0,0-3.042,1.915,11.984,11.984,0,0,0-4.045,9.037Zm0,0" transform="translate(-225.662 -339.947)"/><path class="l" d="M81.43,356.359H8.39a.81.81,0,0,1-.859-.75v-5.2a.81.81,0,0,1,.859-.75H81.43a.81.81,0,0,1,.859.75v5.2A.81.81,0,0,1,81.43,356.359Zm0,0" transform="translate(-6.398 -303.74)"/><path class="b" d="M13.677,356.359H8.39a.811.811,0,0,1-.859-.75v-5.2a.81.81,0,0,1,.859-.75h5.286a.811.811,0,0,0-.86.75v5.2A.811.811,0,0,0,13.677,356.359Zm0,0" transform="translate(-6.398 -303.74)"/><path class="m" d="M281.945,391.339a10.992,10.992,0,0,0-3.95.87,11.31,11.31,0,0,0-3.04,1.916,11.985,11.985,0,0,0-4.045,9.036,2.625,2.625,0,0,0,.731,1.831,2.437,2.437,0,0,0,1.764.758h-5.286a2.436,2.436,0,0,1-1.764-.758,2.625,2.625,0,0,1-.73-1.831,11.987,11.987,0,0,1,4.044-9.036,11.311,11.311,0,0,1,3.04-1.916,11.011,11.011,0,0,1,4.317-.877h4.551c.124,0,.246,0,.368.007Zm0,0" transform="translate(-225.665 -339.943)"/><path class="n" d="M264.99,285.2a3.857,3.857,0,1,1-3.821-3.336A3.6,3.6,0,0,1,264.99,285.2Zm0,0" transform="translate(-218.633 -244.847)"/><path class="n" d="M412.568,285.2a3.857,3.857,0,1,1-3.821-3.336A3.6,3.6,0,0,1,412.568,285.2Zm0,0" transform="translate(-344.01 -244.85)"/><path class="o" d="M287.489,231.913a9.428,9.428,0,0,1-3.691-5.984V219.92c0-12.4-21.243-12.386-21.242,0q0,2.618,0,6.009a9.428,9.428,0,0,1-3.691,5.984,1.062,1.062,0,0,0-.117,1.639,20.815,20.815,0,0,0,28.857,0A1.062,1.062,0,0,0,287.489,231.913Zm0,0" transform="translate(-219.54 -182.965)"/><path class="p" d="M277.26,238.984a20.9,20.9,0,0,1-18.513-5.429,1.061,1.061,0,0,1,.116-1.639,9.432,9.432,0,0,0,3.692-5.985v-6.008c0-6.894,6.577-9.955,12.413-9.177-3.923,1.073-7.13,4.019-7.13,8.832v6.009a9.422,9.422,0,0,1-3.691,5.984,1.062,1.062,0,0,0-.116,1.639,20.612,20.612,0,0,0,13.229,5.774Zm0,0" transform="translate(-219.539 -182.968)"/><path class="a" d="M240.819,27.874h-5.286a2.3,2.3,0,0,1-2.439-2.129V9.661a2.3,2.3,0,0,1,2.439-2.129h5.286a2.3,2.3,0,0,0-2.439,2.129V25.745A2.3,2.3,0,0,0,240.819,27.874Zm0,0" transform="translate(-198.028 -6.542)"/><path class="g" d="M38.944,133.617a3.6,3.6,0,0,1-3.821,3.336,3.367,3.367,0,1,1,0-6.672A3.6,3.6,0,0,1,38.944,133.617Zm0,0" transform="translate(-26.592 -113.173)"/><path d="M75.032,44.961h-8.99c-.062-.126-.116-.249-.166-.368a4.5,4.5,0,0,0,3.816-4.209,4.584,4.584,0,0,0-4.336-4.291c-.991-12.486-22.44-12.54-23.436,0a4.585,4.585,0,0,0-4.336,4.293A4.5,4.5,0,0,0,41.4,44.595c-.05.118-.1.24-.165.366H35.065a3.19,3.19,0,0,0,.433-1.6c0-5.936-4.666-11.386-12.172-12.63,2.494-1.428,4.935-3.556,5.762-6.092,4.565-1.182,4.758-6.776.291-8.207v-.821a2.81,2.81,0,0,0,2.865-2.771V9.576a1.143,1.143,0,0,0-2.265,0v3.266c0,.375-.239.794-.6.794-1.708,0-10.264.4-15.228-4a1.172,1.172,0,0,0-1.936.621,2.348,2.348,0,0,1-2.5,1.86H7.849a1.468,1.468,0,0,1-1.607-1.259V7.312a2.3,2.3,0,0,1,2.507-2,6.463,6.463,0,0,1,1.726.093,1.163,1.163,0,0,0,1.408-.681,4.441,4.441,0,0,1,4.351-2.712H25.48c2.468,0,4.486,1.619,4.5,3.61a1.143,1.143,0,0,0,2.265-.011C32.224,2.54,29.191.039,25.48.039H16.234a6.96,6.96,0,0,0-6.171,3.31c-.24-.013-.263-.01-1.314-.01-2.631,0-4.773,1.783-4.773,3.973v3.544a3.4,3.4,0,0,0,2.865,3.126v2.451c-4.468,1.432-4.273,7.024.291,8.208.827,2.536,3.268,4.664,5.762,6.092a15.941,15.941,0,0,0-6.964,2.84,12.208,12.208,0,0,0-5.208,9.79,3.22,3.22,0,0,0,.51,1.729A1.758,1.758,0,0,0,0,46.7v5.2a1.882,1.882,0,0,0,1.992,1.739h.677V65.368a1.6,1.6,0,0,0,1.7,1.483h3.4a1,1,0,1,0,0-1.977H4.935V53.642H41.251q.539.365,1.1.7a12.955,12.955,0,0,0-3.524,8.913,3.539,3.539,0,0,0,.391,1.621H12.3a1,1,0,1,0,0,1.977H72.712a1.6,1.6,0,0,0,1.7-1.483V53.642h.621A1.88,1.88,0,0,0,77.024,51.9V46.7a1.879,1.879,0,0,0-1.992-1.739ZM29.379,18.68a2.165,2.165,0,0,1,0,3.634ZM6.841,22.312a2.164,2.164,0,0,1,0-3.632Zm58.55,15.8a2.292,2.292,0,0,1,0,4.554Zm-23.509,0,0,4.555A2.293,2.293,0,0,1,41.882,38.105ZM28.356,37.87c1.118-.421,1.124-1.361.957-2.406a10.187,10.187,0,0,1,3.918,7.9,1.716,1.716,0,0,1-1.751,1.6H19.243v-6.8l5.109-1.9,2.185,1.378a1.965,1.965,0,0,0,1.819.227Zm-10.3-1.856L15.861,33.86V32.09a5.978,5.978,0,0,0,4.5,0v1.755Zm5.893-3.14c.1,0,.947.247,1.237.342a3.207,3.207,0,0,1,1.849,2.3c-2.443-1.537-2.115-1.609-4.655-.666.317-.348.244-.537.244-2.211.468.065.866.127,1.325.234ZM9.569,24.727c-.639-1.308-.462-1.16-.462-10.634h.607a5.016,5.016,0,0,0,4.161-2.032c3.266,2.232,7.971,3.507,13.238,3.551,0,7.753.175,7.81-.462,9.115-1.53,3.134-6.445,5.656-8.354,5.821-2.315,0-7.263-2.82-8.728-5.821ZM13.6,32.639c0,1.673-.075,1.872.262,2.227l-1.246-.473a2.151,2.151,0,0,0-1.831.12l-1.592,1c.414-1.994,2.027-2.57,4.407-2.877ZM6.906,35.463c-.166,1.041-.163,1.985.956,2.406a1.965,1.965,0,0,0,1.82-.226l2.184-1.376c6.24,2.371,4.684,1.773,5.111,1.961v6.733H4.74a1.714,1.714,0,0,1-1.752-1.6,10.23,10.23,0,0,1,3.918-7.9ZM38.568,48.245a1.974,1.974,0,0,0-.208,3.031c.123.121.192.189.4.387H2.265V46.939H39.943a9.824,9.824,0,0,1-1.374,1.307Zm1.488,1.72c-.159-.156.075-.284.28-.452A10.33,10.33,0,0,0,44.149,43c0-6.456-.013-6.193.024-6.7.761-10.365,18.952-10.2,18.952.688,0,3.352,0,3.789,0,6.008a10.227,10.227,0,0,0,3.815,6.517c.2.167.437.3.278.452a19.573,19.573,0,0,1-27.161,0ZM64.818,64.852H42.454a1.512,1.512,0,0,1-1.362-1.6,11.1,11.1,0,0,1,3.226-7.882,22.493,22.493,0,0,0,9.393,2.053A21.9,21.9,0,0,0,62.982,55.4a11.05,11.05,0,0,1,3.2,7.855,1.516,1.516,0,0,1-1.363,1.6Zm7.327.021H68.051a3.519,3.519,0,0,0,.4-1.621,12.886,12.886,0,0,0-3.507-8.9c.377-.227.749-.464,1.112-.715h6.094Zm2.613-13.209h-6.25c.138-.126.308-.29.4-.387a1.973,1.973,0,0,0-.209-3.031,9.551,9.551,0,0,1-1.37-1.307h7.424Zm0,0" transform="translate(0 -0.034)"/><path d="M265.081,0H229.135a3.372,3.372,0,0,0-3.572,3.118V19.2a3.372,3.372,0,0,0,3.572,3.118h1.547l-3.29,4.435c-1.373,1.85,1.255,3.964,3.252,2.637l10.7-7.072h23.738a3.372,3.372,0,0,0,3.572-3.118V3.118A3.372,3.372,0,0,0,265.081,0Zm-35.75,27.78,4.049-5.459h4.209ZM266.388,19.2a1.234,1.234,0,0,1-1.307,1.14H229.135a1.233,1.233,0,0,1-1.306-1.14V3.118a1.233,1.233,0,0,1,1.306-1.141h35.946a1.234,1.234,0,0,1,1.307,1.141Zm0,0" transform="translate(-191.63)"/><path d="M292.591,38.453H262.554a1,1,0,1,0,0,1.977h30.037a1,1,0,1,0,0-1.977Zm0,0" transform="translate(-222.094 -33.404)"/><path d="M437.591,77.457H433.23a1,1,0,1,0,0,1.977h4.361a1,1,0,1,0,0-1.977Zm0,0" transform="translate(-367.094 -67.286)"/><path d="M262.554,79.434H283.7a1,1,0,1,0,0-1.977H262.554a1,1,0,1,0,0,1.977Zm0,0" transform="translate(-222.094 -67.286)"/><path d="M292.591,116.461H262.554a1,1,0,1,0,0,1.977h30.037a1,1,0,1,0,0-1.977Zm0,0" transform="translate(-222.094 -101.168)"/><path d="M104.625,169.387a1.068,1.068,0,0,0-1.133.989.9.9,0,0,1-1.778,0,1.068,1.068,0,0,0-1.132-.989c-2.12,0-1.139,3.742,2.021,3.742S106.744,169.387,104.625,169.387Zm0,0" transform="translate(-84.493 -147.144)"/><path d="M149.332,142.7a1.212,1.212,0,1,1-1.2-1.048A1.132,1.132,0,0,1,149.332,142.7Zm0,0" transform="translate(-124.826 -123.048)"/><path d="M80.273,142.7a1.212,1.212,0,1,1-1.2-1.048A1.133,1.133,0,0,1,80.273,142.7Zm0,0" transform="translate(-66.156 -123.048)"/><path d="M137.988,124.98a6.1,6.1,0,0,1,3.116.177,1.249,1.249,0,0,0,.6.152c1.131,0,1.565-1.3.6-1.826-1.742-.957-4.478-.5-4.785-.44a1,1,0,0,0-.877,1.17A1.14,1.14,0,0,0,137.988,124.98Zm0,0" transform="translate(-116.07 -106.747)"/><path d="M69.011,124.214a1,1,0,0,0-.878-1.17c-.306-.056-3.042-.517-4.784.44a.917.917,0,0,0-.356,1.363,1.233,1.233,0,0,0,1.562.311,5.987,5.987,0,0,1,3.118-.177A1.138,1.138,0,0,0,69.011,124.214Zm0,0" transform="translate(-53.368 -106.748)"/><path d="M148.215,318.556a1.068,1.068,0,0,0,1.133.988H155.8a1,1,0,1,0,0-1.977h-6.454A1.068,1.068,0,0,0,148.215,318.556Zm0,0" transform="translate(-125.918 -275.865)"/><path d="M35.719,319.544h6.454a1,1,0,1,0,0-1.977H35.719a1,1,0,1,0,0,1.977Zm0,0" transform="translate(-29.383 -275.864)"/></g></svg>