<svg xmlns="http://www.w3.org/2000/svg" xmlns:xlink="http://www.w3.org/1999/xlink" width="591.092" height="420.37" viewBox="0 0 591.092 420.37"><defs><style>.a,.f,.k{fill:#fff;}.a{stroke:#707070;}.b{clip-path:url(#a);}.c,.h{fill:#f54747;}.c{opacity:0.18;}.d{fill:#000405;opacity:0.05;}.e{fill:#25233a;}.f{opacity:0.24;}.g{fill:#3f3d56;}.i{fill:url(#b);}.j{fill:url(#c);}.l{fill:url(#d);}.m{fill:url(#e);}.n{fill:url(#f);}.o{fill:url(#g);}.p{fill:url(#h);}.q{fill:url(#i);}.r{fill:url(#j);}.s{fill:url(#k);}.t{fill:url(#l);}.u{fill:url(#m);}.v{fill:url(#n);}.w{fill:url(#o);}.x{fill:url(#p);}.y{fill:url(#q);}.z{opacity:0.51;fill:url(#r);}.aa{fill:url(#s);}.ab{opacity:0.61;fill:url(#t);}.ac{fill:url(#u);}.ad{fill:url(#v);}.ae{fill:url(#w);}.af{fill:url(#x);}.ag{fill:url(#y);}</style><clipPath id="a"><rect class="a" width="591.092" height="420.37" transform="translate(1274 1528)"/></clipPath><linearGradient id="b" x1="1.033" y1="0.88" x2="-1.924" y2="0.64" gradientUnits="objectBoundingBox"><stop offset="0" stop-opacity="0"/><stop offset="0.91" stop-opacity="0.8"/><stop offset="1"/></linearGradient><linearGradient id="c" x1="0.369" y1="0.618" x2="1.314" y2="0.258" xlink:href="#b"/><linearGradient id="d" x1="0.102" y1="8.609" x2="1.106" y2="8.609" gradientUnits="objectBoundingBox"><stop offset="0" stop-color="#ecc4d7"/><stop offset="0.42" stop-color="#efd4d1"/><stop offset="1" stop-color="#f2eac9"/></linearGradient><linearGradient id="e" x1="0.795" y1="12.308" x2="-1.351" y2="14.828" xlink:href="#d"/><linearGradient id="f" x1="0.05" y1="5.887" x2="1.05" y2="5.887" xlink:href="#d"/><linearGradient id="g" x1="-0.014" y1="13.316" x2="0.652" y2="12.94" xlink:href="#d"/><linearGradient id="h" x1="0.217" y1="0.013" x2="1.347" y2="1.114" xlink:href="#b"/><linearGradient id="i" x1="0.598" y1="4.786" x2="0.85" y2="4.84" xlink:href="#d"/><linearGradient id="j" x1="0.669" y1="24.11" x2="-0.138" y2="28.474" xlink:href="#d"/><linearGradient id="k" x1="0.616" y1="40.854" x2="0.333" y2="43.489" xlink:href="#d"/><linearGradient id="l" x1="0.064" y1="13.32" x2="1.064" y2="13.32" xlink:href="#d"/><linearGradient id="m" x1="0.509" y1="2.571" x2="0.459" y2="-0.821" xlink:href="#b"/><linearGradient id="n" x1="0.509" y1="2.719" x2="0.376" y2="-0.989" xlink:href="#b"/><linearGradient id="o" x1="0.548" y1="8.539" x2="0.416" y2="6.841" gradientUnits="objectBoundingBox"><stop offset="0" stop-opacity="0"/><stop offset="0.44" stop-opacity="0.349"/><stop offset="0.91" stop-opacity="0.8"/><stop offset="1"/></linearGradient><linearGradient id="p" x1="0.673" y1="1.691" x2="1.435" y2="1.562" xlink:href="#b"/><linearGradient id="q" x1="0.479" y1="1.722" x2="0.056" y2="1.717" xlink:href="#b"/><linearGradient id="r" x1="1.722" y1="0.171" x2="-1.08" y2="1.101" gradientUnits="objectBoundingBox"><stop offset="0" stop-color="#fff" stop-opacity="0"/><stop offset="1" stop-color="#3f3d56"/></linearGradient><linearGradient id="s" x1="0.504" y1="-1.641" x2="0.14" y2="-0.072" xlink:href="#b"/><linearGradient id="t" x1="-31.203" y1="1.881" x2="17.904" y2="4.163" gradientUnits="objectBoundingBox"><stop offset="0.17" stop-color="#00272e"/><stop offset="1" stop-color="#69b9eb" stop-opacity="0"/></linearGradient><linearGradient id="u" y1="809.279" x2="1" y2="809.279" gradientUnits="objectBoundingBox"><stop offset="0" stop-color="#68e1fd"/><stop offset="1" stop-color="#69b9eb"/></linearGradient><linearGradient id="v" x1="1.179" y1="13.43" x2="0.121" y2="14.215" xlink:href="#b"/><linearGradient id="w" x1="1.04" y1="17.356" x2="0.15" y2="18.723" xlink:href="#b"/><linearGradient id="x" x1="0.078" y1="17.459" x2="0.795" y2="18.7" xlink:href="#b"/><linearGradient id="y" x1="-0.2" y1="17.368" x2="1.196" y2="18.988" xlink:href="#b"/></defs><g class="b" transform="translate(-1274 -1528)"><g transform="translate(1274 1553.002)"><path class="c" d="M590.949,262.646a83.822,83.822,0,0,1-8.61,32.961c-8.308,16.5-21.237,29.983-36.541,40.408a147.578,147.578,0,0,1-27.207,14.515,165.188,165.188,0,0,1-16.071,5.625c-33,9.657-67.83,10.131-102.183,10.533L158.562,369.5h0l-31.8.366c-10.116.122-20.427.194-30.629-.366-19.465-1.048-38.571-4.369-55.325-13.933a73.663,73.663,0,0,1-22.156-19.551C7.3,321.027,1.155,301.914.861,282.865v-2c.122-18.59,5.862-36.921,17.793-51.235.761-.9,1.535-1.8,2.346-2.669,1.686-1.822,3.53-3.587,5.467-5.352,12.333-11.128,28.62-21.1,36-35.436,12.986-25.226-3.207-35.522-5.338-60.268C53.545,84.289,95.675,36.469,129.9,17.377,166.7-3.2,213.047-5.668,251.834,10.841c41.04,17.478,79.338,55.54,122.631,44.806,13.919-3.451,26.7-11.946,41.047-12.2,26.5-.509,44.9,26.446,53.151,51.658s12.728,53.667,32.344,71.511c14.077,12.8,33.485,17.614,50.532,26.116a83.071,83.071,0,0,1,14.629,9.076c10.045,7.935,16.947,18.7,20.922,30.672A82.035,82.035,0,0,1,590.949,262.646Z"/><path class="c" d="M545.949,336.252a154.259,154.259,0,0,1-43.278,20.132c-30.851,9.033-63.289,10.045-95.424,10.446l-6.737.086-88.766,1.04-45.086.531L166.3,369.658l-7.612.086h0l-31.806.373c-10.116.122-20.419.187-30.629-.373C76.77,368.725,57.664,365.4,40.9,355.868a73.6,73.6,0,0,1-22.055-19.587Z"/><path class="d" d="M448.114,352.367c.208,2.992-1.916,5.883-1.313,8.818.89,4.3,5.8,3.587,10.21,3.264,10.7-.875,24.394-2.511,34.819-5.2,9.65-2.5,16.674-4.908,25.872-7.892.717-.237.5-2.274.531-3.028.057-1-1.263-1.37-2.26-1.435-9.1-.294-18.3,0-27.221-1.794-4.011-.818-7.942-2.066-12.011-2.533-5.022-.567-10.045.05-15.067-.33-3.638-.28-12.5-4.262-15.878-2.626C440.731,342.114,447.863,348.751,448.114,352.367Z"/><path class="d" d="M237.327,355.064c10.511,2.949,19.013,9.191,28.269,14.027q-50.18.574-100.353,1.162a45.84,45.84,0,0,1,9.327-6.873c11-6.156,23.921-7.577,36.448-8.882C219.77,353.579,228.817,352.682,237.327,355.064Z"/><path class="d" d="M407.935,363.9a5.3,5.3,0,0,1-1.191,2.6,4.728,4.728,0,0,0-.56.933l-6.737.086-88.78,1.019a26.318,26.318,0,0,0,4.348-4.269c1.851-2.3,3.329-4.9,5.482-6.895,6.357-5.9,16.423-4.8,24.66-2.152,2.5.818,5.022,1.751,7.663,1.715,4.678-.057,8.7-3.1,12.915-5.195,13.252-6.615,30.794-3.071,40.437,8.172C407.117,361.077,408.057,362.426,407.935,363.9Z"/><path class="e" d="M360.582,263.314l-16.409,80.723-11.028-1.263-1.27-.151s3.157-23.921,4.52-58.037c.9-22.6,4.764-41.054,6.615-56.394a69.834,69.834,0,0,1,2.87-12.441c2.238-6.787,5.646-13.137,9.98-12.484,9.571,1.435,22.177,9.707,23.842,14.888C382.6,227.2,360.582,263.314,360.582,263.314Z"/><path class="f" d="M349.109,215.96s-7.354,56.975-7.591,74.747-7.548,51.917-7.548,51.917l-.847.151-1.27-.151s3.157-23.921,4.52-58.037c.9-22.6,4.764-41.054,6.615-56.394a69.839,69.839,0,0,1,2.87-12.441,14.078,14.078,0,0,1,3.25.208Z"/><path class="g" d="M398.2,343.908H386v-.072c-.33-1.643-6.457-31.992-15.117-53.976-6.457-16.394-9.578-49.786-10.762-66.876-.474-6.457-.66-10.59-.66-10.59s24.767-7.311,27.982-4.068,6.866,17.937,6.866,17.937-8.481,58.187-3.085,62.133S398.2,343.908,398.2,343.908Z"/><path class="h" d="M205.2,111.345s-18.037,5.56-25.341,57.62c-2.64,18.769,14.149,51.924,14.149,51.924Z"/><path class="i" d="M205.2,111.345s-18.037,5.56-25.341,57.62c-2.64,18.769,14.149,51.924,14.149,51.924Z"/><path class="e" d="M192.025,214.389a7.053,7.053,0,0,0-8.093,8.122c1.378,8.136,4,19.429,8.61,25.829,7.777,10.712,18.4,25.492,18.4,25.492l10.977,75.335,13.539-1.83-.122-72.192L220.05,219.017Z"/><path class="g" d="M220.014,219.017l-1.758,62.707-29.022,67.493-9.722-4.111-2.827-1.213,16.071-63.281s-6.256-17.219-10.863-29.775c-4.42-12.046,1.593-35.917,2.1-37.84v-.129Z"/><path class="h" d="M340.191,178.91l-35.809,17.75-6.687-8.516h0l-1.715-2.2,30.593-16.624s10.511-23.368,12.793-34.109c.438-1.995.875-3.587,1.284-4.958.8-2.49,8.394-11.286,10.949-11.81s-.323,7.325,1.378,9.327A15.785,15.785,0,0,1,355.7,137.1C356,143.775,340.191,178.91,340.191,178.91Z"/><path class="h" d="M387.437,199.7s-17.786,21.374-38.292,16.287a27.984,27.984,0,0,1-4.133-1.392,7.175,7.175,0,0,1-3.76-9.4v-.043c1.98-4.491,2.038-10.985,1.858-16.975-.416-13.783-3.9-28.7-4.161-34.905a66.944,66.944,0,0,1,1.636-15.2c2.059-9.973,5.74-19.91,9.55-20.484,11.221-1.729,15.067,1.327,15.067,1.327l19.157,11.128C393.894,139.987,389.259,155.6,387.437,199.7Z"/><path class="h" d="M359.319,143.4l4.9,7.892-13.567,13.725-2.791,2.827,14.744-49.972.057-5,1.873,1.916v.007l2.454,2.511.94,20.692Z"/><path class="j" d="M385.615,155.19l-2.081,53.875s-29.273,13.912-33.14-1.722c-2.992-12.082,4.664-25.865,4.664-25.865Z"/><path class="k" d="M356.786,185.066l-8.8,35.45,54.4,11.164L410.2,197Z"/><path class="l" d="M363.043,104.967c0,.158-.194,8.186-.474,13.295-.2,3.953-2.052,6.737-4.879,9.492a17.456,17.456,0,0,1-5.8,4,3.078,3.078,0,0,1-3.946-1.815h0a3.128,3.128,0,0,1-.079-1.865c.28-1.062.56-2.3.775-3.587.459-2.662.66-5.546-.065-7.584a2,2,0,0,0-.072-.222c-.43-1.055,0-2.2.976-3.358a24.79,24.79,0,0,1,6.156-4.671,72.647,72.647,0,0,1,7.412-3.688Z"/><path class="m" d="M350.2,123.944a6.636,6.636,0,0,1-1.55.545c.459-2.662.66-5.546-.065-7.584l.9-3.587.682-2.669,5.474-2,5.546-2.023C359.857,116.5,354.577,121.87,350.2,123.944Z"/><path class="n" d="M348.693,76.913a15.785,15.785,0,0,0-14.787,16.724h0a8.679,8.679,0,0,0,.122,1.213,53.309,53.309,0,0,0,4.893,18.511c5.159,8.753,18.116,1.507,20.161-2.109s9.758-19.975,6.5-24.617C363.43,83.407,357.1,76.526,348.693,76.913Z"/><path class="g" d="M334.975,70.743l2.669,1.363a10.045,10.045,0,0,0-8.229,4,13.151,13.151,0,0,0-3.839,9.205l4.527-2.152s-.337,5.589,8.244,6,17.664.717,17.664.717L353.1,85.853s5.338,2.152,6.271,4.1a64.568,64.568,0,0,1,1.837,9.629s2.117-5.517,3-4.3-.918,6.206-2.03,7.3-.926,4.384-1.026,4.656,5.316-4.24,5.553-5.79,5.6-17.219,2.081-20.491l2.152-.165a10.044,10.044,0,0,0-4.212-1.621S352.589,60.742,334.975,70.743Z"/><path class="o" d="M279.2,193.3a42.1,42.1,0,0,1,7.655-5.316,25.227,25.227,0,0,1,6.665-1.378s.373,3.135-1.435,3.343-3.315,2.956-3.315,2.956,11.6,4.75,13.2,4.3,1.284,1.865-1.65,1.715-3.652,3.953-5.682,3.9-5.245,1.2-8.229,1.306a30.981,30.981,0,0,1-8.8-2.052Z"/><path class="h" d="M234.3,160l-9.729,54.686s-3.358,10.468-20.735,8.9a27.824,27.824,0,0,1-16.94-7.627h0l-.28-.265-.194-.2a33.764,33.764,0,0,1-7.655-11.594s11.164-77.15,22.887-90.538c1.169-1.335,2.339-2.045,3.516-1.98a20.735,20.735,0,0,1,8.954,3.415A43.866,43.866,0,0,1,234.3,160Z"/><path class="p" d="M216.01,158.168l-12.2,65.412s18.69,2.569,20.735-8.9l5.74-33.269Z"/><path class="q" d="M205.2,111.345s1.858-14.07,2.6-23.218,3.731-21.4,19.085-19.831,15.4,24.782,11.164,34.5-9.894,9.435-9.894,9.435-7.648-1.665-7.361,7.533Z"/><path class="g" d="M210.866,66.352A17.22,17.22,0,0,0,206.2,74.2a41.283,41.283,0,0,0-1.392,7.412l1.564-1.715a114.634,114.634,0,0,1-.954,12.836,69.727,69.727,0,0,0-.717,11.982l2.87-.143,3.587,4.405,3.96-2.683,3-1.543,2.655-6.558a3.688,3.688,0,0,1-1.291-4.3c.976-2.676,3.4-3.293,3.968-1.715a31.066,31.066,0,0,1,.717,5.984l4.233-11.989s2.655-3.724,4.979-1.162a12.405,12.405,0,0,0,5.123,3.415l-1.435-3.96,3.839.983-.3-4.577,2.87,2s1.256-7.412-1.177-10.7S230.188,55.719,210.866,66.352Z"/><path class="h" d="M279.521,191.81l-1.944,10.274-.524,2.762-35.02-2.612c-9.693-.832-19.207-7.462-20.412-17.155L209.5,142.3a10.863,10.863,0,0,1,11.953-13.976A12.477,12.477,0,0,1,231.5,136.88l7.627,38.292a11.946,11.946,0,0,0,8.99,9.327Z"/><path class="r" d="M297.7,188.137l-4.879,1.521s-6.1.545-8.129,2.282-.9,2.518-.9,2.518,6.457-.947,7.849-.409,8.2,3.243,10.353,3.207,2.389-.6,2.389-.6Z"/><path class="s" d="M282.98,200.893a3.085,3.085,0,0,1,2.676-.717.524.524,0,0,1,.28.144.61.61,0,0,1,0,.567,9.65,9.65,0,0,1-1.521,3.035c.761-.258,1.112-1.1,1.593-1.743a4.018,4.018,0,0,1,3.085-1.593.718.718,0,0,1,.416.086c.294.2.165.66,0,.983-.3.6-.6,1.213-.9,1.822a18.107,18.107,0,0,1,2.626-3.013,1.973,1.973,0,0,1,.861-.538.717.717,0,0,1,.861.38.918.918,0,0,1,0,.588,6.643,6.643,0,0,1-1.076,2.3,11.128,11.128,0,0,1,2.253-2.662.6.6,0,0,1,.517-.208.438.438,0,0,1,.251.215c.3.5,0,1.141-.316,1.643a3.894,3.894,0,0,1-2.4,2.081,3.012,3.012,0,0,0-.717.129,2.5,2.5,0,0,0-.466.308,2.325,2.325,0,0,1-2.547.057,3.171,3.171,0,0,1-3.487-.057.717.717,0,0,0-.861-.065,2.382,2.382,0,0,1-2.64-.782C280.82,202.938,282.269,201.51,282.98,200.893Z"/><path class="h" d="M388.111,218.751l-11.982-4.14-.409-.144,8.732-28.068s-11.48-31.569-13.388-41.233a27.079,27.079,0,0,1-.086-9.736,8.416,8.416,0,0,1,6.6-6.852,8.15,8.15,0,0,1,5.5.717,36.116,36.116,0,0,1,4.3,2.626,5.74,5.74,0,0,1,2.2,3.286c2.152,8.839,10.812,44.9,11.135,48.322C401.069,187.455,388.111,218.751,388.111,218.751Z"/><path class="t" d="M372.592,216.993c-.588.56-1.148,1.564-.524,2.1.151.129.359.2.481.359.3.38-.072.911-.416,1.248l-2.87,2.791c-1.062,1.026-2.217,2.31-1.973,3.767a2.963,2.963,0,0,0,2.081,2.188,5.962,5.962,0,0,0,3.135-.036,1.543,1.543,0,0,0,.854,1.471,4.656,4.656,0,0,0,1.751.431,13.058,13.058,0,0,0,5.273-.144c.129.194.258.38.395.567,2.267-.4,3.5-2.827,4.3-4.979s1.621-4.549,2.31-6.866a1.543,1.543,0,0,0,.065-.983,1.578,1.578,0,0,0-1.019-.768c-2.741-1.04-5.474-2.1-8.222-3.128C375.677,214.059,374.522,215.193,372.592,216.993Z"/><path class="h" d="M359.319,143.4l4.9,7.892-13.567,13.725-2.791,2.827,14.744-49.972.057-5,1.873,1.916v.007l2.454,2.511.94,20.692Z"/><path class="k" d="M348.65,124.489l-1.83,8.61,1.04,34.74,13.367-45.294-5.74,3.63c-.309.194-.624.373-.954.538a4.247,4.247,0,0,1-5.7-1.887h0c-.057-.115-.108-.23-.158-.352Z"/><path class="h" d="M348.736,117.551l-5.962,11.171,1.98,4.664-3.236,7,6.321,27.458s-1.729-33.564.789-43.364C348.65,124.489,349.482,119.818,348.736,117.551Z"/><path class="u" d="M359.319,143.4l4.9,7.892-13.567,13.725-2.791,2.827,14.744-49.972.057-5,1.873,1.916v.007l2.454,2.511.94,20.692Z"/><path class="v" d="M348.736,117.551l-5.962,11.171,1.98,4.664-3.236,7,6.321,27.458s-1.729-33.564.789-43.364C348.65,124.489,349.482,119.818,348.736,117.551Z"/><path class="h" d="M204.71,108.992l17.614,8.76,4.764,9.234-25.42-13.675Z"/><path class="w" d="M204.71,108.992l17.614,8.76,4.764,9.234-25.42-13.675Z"/><path class="h" d="M157.629,230.46V370.368h-15.4V306.9H3.279A93.832,93.832,0,0,1,0,283.7v-1.98c.122-18.583,5.855-36.964,17.8-51.235Z"/><path class="h" d="M174.067,222.417v8.021H17.8c.753-.9,1.535-1.8,2.339-2.669,1.693-1.822,3.53-3.587,5.474-5.352Z"/><path class="h" d="M89.075,176.255c-1.765-1.693-3.874-2.985-5.74-4.534a2.567,2.567,0,0,1-1.227-2.152,1.794,1.794,0,0,1,1.435-1.342,5.4,5.4,0,0,1,2.088.129l-4.018-4.52c-.373-.423-.775-1-.5-1.5s1.04-.466,1.571-.215a3.379,3.379,0,0,0,1.621.581c-1.435-2.016-3.257-3.659-4.786-5.575s-2.755-4.3-2.526-6.716a1.564,1.564,0,0,1,.352-.961c.459-.459,1.234-.265,1.83,0a18.654,18.654,0,0,1,9.564,9.442,17.155,17.155,0,0,1-.789-6.378,1.708,1.708,0,0,1,.545-1.349c.717-.5,1.665.359,2.081,1.155,2.827,5.5.854,12.2,2.009,18.288a6.687,6.687,0,0,1,2.21-4.4,31.568,31.568,0,0,1-.359,9.406c.882.387.811,1.65.588,2.6q-.43,2.152-1.076,4.3c-1.578-.129-1.607-.99-2.1-2.26a11.408,11.408,0,0,0-2.769-4Z"/><path class="h" d="M101.724,157.5c1.485-1.686,3.265-3.286,5.467-3.745.667,1.284,0,2.87-.926,4a12.655,12.655,0,0,0-2.54,3.487,14.142,14.142,0,0,1,7.426-4.642,4.183,4.183,0,0,1,3.143.179,1.2,1.2,0,0,1,.588.717c.172.789-.832,1.263-1.621,1.435a24.746,24.746,0,0,0-13.754,9.435,17.313,17.313,0,0,1,10.913-2.389c.66.079,1.435.28,1.679.89.38.9-.646,1.765-1.578,2.074-3.587,1.191-8.079-.079-10.977,2.375a6.17,6.17,0,0,1,4.405,1.22c1.012.768,1.758,2.339.868,3.243a2.6,2.6,0,0,1-2.152.488c-2.074-.179-4.628-.524-5.819,1.184-.653.94-.6,2.152-.847,3.3-.194.911-.947,2.526-1.937,1.636-.66-.6-.4-2.676-.4-3.465a33,33,0,0,1,8.05-21.4Z"/><path class="x" d="M89.075,176.255c-1.765-1.693-3.874-2.985-5.74-4.534a2.567,2.567,0,0,1-1.227-2.152,1.794,1.794,0,0,1,1.435-1.342,5.4,5.4,0,0,1,2.088.129l-4.018-4.52c-.373-.423-.775-1-.5-1.5s1.04-.466,1.571-.215a3.379,3.379,0,0,0,1.621.581c-1.435-2.016-3.257-3.659-4.786-5.575s-2.755-4.3-2.526-6.716a1.564,1.564,0,0,1,.352-.961c.459-.459,1.234-.265,1.83,0a18.654,18.654,0,0,1,9.564,9.442,17.155,17.155,0,0,1-.789-6.378,1.708,1.708,0,0,1,.545-1.349c.717-.5,1.665.359,2.081,1.155,2.827,5.5.854,12.2,2.009,18.288a6.687,6.687,0,0,1,2.21-4.4,31.568,31.568,0,0,1-.359,9.406c.882.387.811,1.65.588,2.6q-.43,2.152-1.076,4.3c-1.578-.129-1.607-.99-2.1-2.26a11.408,11.408,0,0,0-2.769-4Z"/><path class="y" d="M101.724,157.5c1.485-1.686,3.265-3.286,5.467-3.745.667,1.284,0,2.87-.926,4a12.655,12.655,0,0,0-2.54,3.487,14.142,14.142,0,0,1,7.426-4.642,4.183,4.183,0,0,1,3.143.179,1.2,1.2,0,0,1,.588.717c.172.789-.832,1.263-1.621,1.435a24.746,24.746,0,0,0-13.754,9.435,17.313,17.313,0,0,1,10.913-2.389c.66.079,1.435.28,1.679.89.38.9-.646,1.765-1.578,2.074-3.587,1.191-8.079-.079-10.977,2.375a6.17,6.17,0,0,1,4.405,1.22c1.012.768,1.758,2.339.868,3.243a2.6,2.6,0,0,1-2.152.488c-2.074-.179-4.628-.524-5.819,1.184-.653.94-.6,2.152-.847,3.3-.194.911-.947,2.526-1.937,1.636-.66-.6-.4-2.676-.4-3.465a33,33,0,0,1,8.05-21.4Z"/><path class="k" d="M103.23,222.36l-8.208.043H86.9c-17.865-10.59,2.784-32.129,2.784-32.129s.818-3.358-.251-5.474a3,3,0,0,0-1.112-1.241c-2.633-1.578,1.04-2.2,1.04-2.2h11.02s3.774.316.94,2.3-1.256,6.615-1.256,6.615C122.114,214.791,103.23,222.36,103.23,222.36Z"/><path class="z" d="M95.618,221.757a5.617,5.617,0,0,1-.6.646H86.9c-17.865-10.59,2.784-32.129,2.784-32.129s.818-3.358-.251-5.474c3.587-.273,5.316,4.355,4.836,7.3-.366,2.267-.717,4.542-1.112,6.809a20.541,20.541,0,0,0-.359,6.457c.445,2.87,2.081,5.4,3.15,8.1S97.4,219.461,95.618,221.757Z"/><path class="aa" d="M157.629,230.46,77.358,253.269A104.213,104.213,0,0,0,12.628,306.9H3.3A93.853,93.853,0,0,1,0,283.7v-1.98c.122-18.583,5.855-36.964,17.8-51.235Z"/><rect class="ab" width="7.361" height="63.353" transform="translate(142.225 306.9)"/><path class="g" d="M590.081,263.479a83.943,83.943,0,0,1-8.61,32.961,94.792,94.792,0,0,1-6.385,10.827,113.81,113.81,0,0,1-30.134,29.589,147.972,147.972,0,0,1-27.207,14.507l-19.02-3.509-36.455-6.723c-1.786-.33-3.516-.538-5.151-.717-6.723-.761-11.953-1.134-13.926-7.957-2.447-8.4,0-21.259,0-30.069,0-15.311,1.6-33.542,14.931-41.061,11.063-6.228,25.112-1.83,37.459-4.714a7.1,7.1,0,0,0,3.257-1.435c1.435-1.327,1.657-3.48,1.693-5.431.309-14.816-4.642-31.433,4.212-43.314,6.773-9.083,19.164-11.587,30.443-12.635a101.585,101.585,0,0,1,10.446-.452q2.54,0,5.073.215c11.688.9,22.823,4.656,28.764,14.278,3.178,5.137,4.3,11.236,5.367,17.184.481,2.748.961,5.517,1.435,8.287C587.849,243.224,589.284,253.377,590.081,263.479Z"/><path class="e" d="M590.081,263.479a83.943,83.943,0,0,1-8.61,32.961,94.792,94.792,0,0,1-6.385,10.827c-4.37,1.858-9.629,1.837-14.5,1.908a163.144,163.144,0,0,0-22.895,1.966c-3.4.531-6.945,1.241-9.614,3.422-3.523,2.87-4.742,7.77-4.936,12.326s.416,9.169-.359,13.668a8.753,8.753,0,0,1-1.672,4.183c-1.83,2.2-5.022,2.6-7.892,2.777q-7.275.438-14.558.359a199.548,199.548,0,0,1-36.354-3.817c-2.073-.416-4.491-1.155-5.151-3.171a2.5,2.5,0,0,1-.1-.459,6.938,6.938,0,0,1,.258-2.82l6.565-28.1c.89-3.817,1.808-7.706,3.838-11.056,4.047-6.708,11.738-10.138,18.949-13.173l19.415-8.186c5.309-2.224,8.918-2.511,8.445-8.76-1.04-13.819-3.939-27.264-3.939-41.212,0-4,.187-8.143,1.909-11.745s4.814-6.342,7.993-8.753a92.841,92.841,0,0,1,25.076-13.28q2.54,0,5.073.215c11.688.9,22.823,4.656,28.764,14.278,3.178,5.137,4.3,11.236,5.367,17.184.481,2.748.961,5.517,1.435,8.287,1.04,6.292,1.995,12.649,2.762,19.02C589.406,256.024,589.765,259.726,590.081,263.479Z"/><path class="g" d="M590.081,263.479a83.943,83.943,0,0,1-8.61,32.961,94.792,94.792,0,0,1-6.385,10.827c-4.37,1.858-9.629,1.837-14.5,1.908a163.144,163.144,0,0,0-22.895,1.966c-3.4.531-6.945,1.241-9.614,3.422,0,0,4.456-24.624,22.629-32.918s38.256-29.338,38.256-29.338C589.406,256.024,589.765,259.726,590.081,263.479Z"/><path class="ac" d="M191.229,212.6c-.1-.086-.194-.179-.287-.273l.065.057A1.271,1.271,0,0,1,191.229,212.6Z"/><path class="f" d="M183.279,201.18s1.04,11.544,3.709,14.479a34.5,34.5,0,0,1-7.828-11.86s10.54-76.77,22.493-90.474l3.587,1.9Z"/><path class="f" d="M338.986,138.946l.165,7.892-10.3,25.937-31.483,16.5h0l-1.765-2.26,31.289-16.975S336.654,149.952,338.986,138.946Z"/><path class="f" d="M278.251,201.116l-.531,2.827L241.9,201.273c-9.916-.854-19.645-7.634-20.879-17.542l-12.362-43.766a11.164,11.164,0,0,1,2.152-10.54s11.544,54.169,15.784,59.02,12.319,7.756,12.319,7.756Z"/><path class="f" d="M198.468,286.029,179.2,346.871l-2.87-1.234,16.437-64.716s-6.4-17.607-11.107-30.457c-4.52-12.319,1.629-36.728,2.152-38.693l2.461,2.547s-6.457,28.886,1.851,42.618S198.468,286.029,198.468,286.029Z"/><path class="f" d="M349.59,215.96h0a28.452,28.452,0,0,1-4.226-1.435,7.318,7.318,0,0,1-3.846-9.614V204.8c2.03-4.592,2.088-11.236,1.9-17.363-.423-14.091-3.989-29.323-4.255-35.694a69,69,0,0,1,1.672-15.541l2.253-9.535s-2.066,15.469-2.6,19.709,4.3,28.383,6.106,31.885-1.356,24.107-.933,29A16.569,16.569,0,0,0,349.59,215.96Z"/><path class="f" d="M389.546,344.051l-2.934,1.435c-.337-1.686-6.615-32.717-15.462-55.2-6.608-16.767-9.794-50.941-11.035-68.39l3.638.717s5.4,44.555,11.322,61.028S389.546,344.051,389.546,344.051Z"/><path class="f" d="M387.767,184.865l-9.514,30.643L376.1,215.1l-.423-.144,8.933-28.7s-11.695-32.243-13.675-42.173a27.817,27.817,0,0,1-.093-9.959,8.61,8.61,0,0,1,6.751-7.01s-6.457,4.5-4.491,14.443C375.67,154.336,387.767,184.865,387.767,184.865Z"/><path class="f" d="M366.02,119.209,351.147,166.39l-2.856,2.891,15.081-51.106.057-5.116,1.916,1.959v.007Z"/><path class="h" d="M178.522,344.431l-4.125,7.5,4.147,2.375,1.543-1.234,6.687,6.156s2.389,1.65,8.237,1.65,7-.839,7-.839,0-8.61-7.175-8.215-7.67-3.688-7.67-3.688Z"/><path class="h" d="M224.168,348.937l-.674,11.092h5.022v-4.161l6.816,4.161,16.854-.043s0-11.48-7.577-10.877-10.633,0-10.633,0l-1.2-1.6Z"/><path class="h" d="M397.525,343.879l.717,11.085H393.22v-4.19l-6.766,4.2-16.853.043s0-11.48,7.526-10.913,10.633,0,10.633,0l1.184-1.607Z"/><path class="h" d="M342.587,344.015l.717,11.078h-5.022V350.9l-6.809,4.247-16.854.043s0-11.48,7.526-10.913,10.633,0,10.633,0l1.184-1.607Z"/><path class="ad" d="M178.522,344.431l-4.125,7.5,4.147,2.375,1.543-1.234,6.687,6.156s2.389,1.65,8.237,1.65,7-.839,7-.839,0-8.61-7.175-8.215-7.67-3.688-7.67-3.688Z"/><path class="ae" d="M224.168,348.937l-.674,11.092h5.022v-4.161l6.816,4.161,16.854-.043s0-11.48-7.577-10.877-10.633,0-10.633,0l-1.2-1.6Z"/><path class="af" d="M397.525,343.879l.717,11.085H393.22v-4.19l-6.766,4.2-16.853.043s0-11.48,7.526-10.913,10.633,0,10.633,0l1.184-1.607Z"/><path class="ag" d="M342.587,344.015l.717,11.078h-5.022V350.9l-6.809,4.247-16.854.043s0-11.48,7.526-10.913,10.633,0,10.633,0l1.184-1.607Z"/></g></g></svg>