<svg xmlns="http://www.w3.org/2000/svg" width="59.637" height="91.622" viewBox="0 0 59.637 91.622"><defs><style>.a{fill:#eb0101;}.a,.b{stroke:#dd0505;}.b{fill:#dc4955;}.c{fill:#dd0505;}.d,.g{fill:#ababad;}.e{fill:#c4c4ce;}.f{fill:#d8d8e0;}.g{font-size:24px;font-family:Arial-BoldMT, Arial;font-weight:700;}</style></defs><g transform="translate(-79.437 0.002)"><g transform="translate(87.017 49.881)"><path class="a" d="M145.827,288.6l-8.511,33.164c-.29,1.126-1.6,1.32-2.01.3l-3.291-8.257a.968.968,0,0,0-1.56-.424l-6.627,5.407c-.843.688-1.9-.165-1.608-1.3l8.8-33.639Z" transform="translate(-122.172 -281.498)"/><path class="a" d="M248.03,271.05l12.127,34.823c.383,1.1-.586,2.039-1.482,1.445l-7.243-4.8a.973.973,0,0,0-1.511.584l-2.45,8.388c-.311,1.066-1.646,1-2.031-.1l-12.08-34.727Z" transform="translate(-213.637 -271.05)"/><path class="b" d="M178.542,288.606l-1.451,5.652-.129.51-5.467,2.148a5.133,5.133,0,0,1-1.884.357,5.225,5.225,0,0,1-4.12-2.028l-3.551-4.509,1.8-6.876,10.958,3.513Z" transform="translate(-154.886 -281.502)"/><path class="b" d="M251.19,280.121l-3.679,4.671a5.225,5.225,0,0,1-4.12,2.028,5.133,5.133,0,0,1-1.884-.357l-5.488-2.157-.176-.5-2.395-6.885-.089-.256,14.671-5.615Z" transform="translate(-213.638 -271.05)"/></g><path class="c" d="M150.014,286.452a5.126,5.126,0,0,0,.961.281,5.214,5.214,0,0,0,5.069-1.942l3.679-4.671-3.159-9.071-10.974,4.2h0l-3.7,1.415.089.256-7.686-2.464h0l-3.273-1.049-8.8,33.638c-.291,1.132.764,1.984,1.607,1.3q1.019-.831,2.036-1.66l5.655-21.613a.713.713,0,0,1,1.257-.278,5.225,5.225,0,0,0,4.12,2.028,5.132,5.132,0,0,0,1.884-.357l5.467-2.148.129-.51.175.5,9.421,27.085c.385,1.1,1.721,1.169,2.033.1l1-3.423-7.381-21.22a.306.306,0,0,1,.389-.4Z" transform="translate(-35.154 -221.168)"/><path class="d" d="M138.425,40.218l-5.182,4.406a1.857,1.857,0,0,0-.626,1.127l-1.081,6.867a1.808,1.808,0,0,1-1.464,1.519l-6.6,1.123a1.761,1.761,0,0,0-1.087.652l-4.238,5.382a1.733,1.733,0,0,1-2,.557l-6.258-2.458a1.714,1.714,0,0,0-1.256,0l-6.258,2.458a1.733,1.733,0,0,1-2-.557L96.13,55.912a1.76,1.76,0,0,0-1.087-.652l-6.6-1.123a1.808,1.808,0,0,1-1.464-1.519L85.9,45.751a1.856,1.856,0,0,0-.626-1.127l-5.182-4.406a1.885,1.885,0,0,1-.535-2.073l2.368-6.511a1.905,1.905,0,0,0,0-1.3l-2.368-6.511a1.885,1.885,0,0,1,.535-2.073l5.182-4.406a1.857,1.857,0,0,0,.626-1.127L86.976,9.35A1.808,1.808,0,0,1,88.44,7.831l6.6-1.123a1.76,1.76,0,0,0,1.087-.652L100.368.674a1.733,1.733,0,0,1,2-.557l6.258,2.458a1.714,1.714,0,0,0,1.256,0L116.141.118a1.734,1.734,0,0,1,2,.557l4.238,5.382a1.76,1.76,0,0,0,1.087.652l6.6,1.123a1.808,1.808,0,0,1,1.464,1.519l1.081,6.867a1.856,1.856,0,0,0,.626,1.127l5.182,4.406a1.885,1.885,0,0,1,.535,2.073l-2.368,6.511a1.905,1.905,0,0,0,0,1.3l2.368,6.511A1.885,1.885,0,0,1,138.425,40.218Z" transform="translate(0 0)"/><path class="e" d="M20.841,0c11.51,0,20.841,9.718,20.841,21.7s-9.331,21.7-20.841,21.7S0,33.692,0,21.7,9.331,0,20.841,0Z" transform="translate(88.415 9.28)"/><path class="d" d="M166.039,103.319a20.394,20.394,0,0,1-15.148,6.8c-11.51,0-20.841-9.717-20.841-21.705a21.935,21.935,0,0,1,9.241-18.034,22.106,22.106,0,0,0-5.694,14.9c0,11.988,9.332,21.705,20.841,21.705A20.158,20.158,0,0,0,166.039,103.319Z" transform="translate(-41.636 -57.429)"/><path class="f" d="M144.722,89.1c-12.225,0-22.172-10.356-22.172-23.085s9.946-23.085,22.172-23.085,22.172,10.356,22.172,23.085S156.947,89.1,144.722,89.1Zm0-43.41c-10.758,0-19.511,9.117-19.511,20.324s8.753,20.324,19.511,20.324,19.511-9.117,19.511-20.324S155.48,45.694,144.722,45.694Z" transform="translate(-35.466 -35.034)"/><text class="g" transform="translate(102.907 38.012)"><tspan x="0" y="0">2</tspan></text></g></svg>