<svg xmlns="http://www.w3.org/2000/svg" width="30" height="30" viewBox="0 0 30 30"><defs><style>.c{fill:#980b0b;}</style></defs><path class="c" d="M90.031,132.365a11.708,11.708,0,0,0,11.788-11.788c0-.179,0-.358-.012-.535a8.437,8.437,0,0,0,2.067-2.145,8.263,8.263,0,0,1-2.379.652,4.157,4.157,0,0,0,1.822-2.292,8.307,8.307,0,0,1-2.631,1.006,4.147,4.147,0,0,0-7.061,3.779,11.764,11.764,0,0,1-8.54-4.329,4.147,4.147,0,0,0,1.283,5.531,4.111,4.111,0,0,1-1.876-.518c0,.017,0,.035,0,.053a4.145,4.145,0,0,0,3.324,4.062,4.138,4.138,0,0,1-1.871.071,4.149,4.149,0,0,0,3.871,2.878A8.378,8.378,0,0,1,83.68,130.5a11.729,11.729,0,0,0,6.351,1.861" transform="translate(-78.776 -109.158)"/></svg>