<svg xmlns="http://www.w3.org/2000/svg" width="30" height="30" viewBox="0 0 30 30"><defs><style>.a{fill:#4a7aff;}.b{fill:#eb0101;}.c{fill:#ce0404;}.d{fill:#fff;}.e{fill:#dce1eb;}</style></defs><path class="a" d="M30,15A15,15,0,1,1,15,0,15,15,0,0,1,30,15Zm0,0"/><path class="b" d="M30,15A15,15,0,1,1,15,0,15,15,0,0,1,30,15Zm0,0"/><path class="c" d="M108.773,129.028a15.092,15.092,0,0,0-.239-2.682l-5.221-5.221-7.935,8.185-9.861.069,3.393,3.393-1.557.019,2.362,2.362-1.008,1.039-5.031-.819,8.579,8.579a15.188,15.188,0,0,0,1.518.076,15,15,0,0,0,15-15Zm0,0" transform="translate(-78.773 -114.028)"/><path class="d" d="M90.031,132.365a11.708,11.708,0,0,0,11.788-11.788c0-.179,0-.358-.012-.535a8.437,8.437,0,0,0,2.067-2.145,8.263,8.263,0,0,1-2.379.652,4.157,4.157,0,0,0,1.822-2.292,8.307,8.307,0,0,1-2.631,1.006,4.147,4.147,0,0,0-7.061,3.779,11.764,11.764,0,0,1-8.54-4.329,4.147,4.147,0,0,0,1.283,5.531,4.111,4.111,0,0,1-1.876-.518c0,.017,0,.035,0,.053a4.145,4.145,0,0,0,3.324,4.062,4.138,4.138,0,0,1-1.871.071,4.149,4.149,0,0,0,3.871,2.878A8.378,8.378,0,0,1,83.68,130.5a11.729,11.729,0,0,0,6.351,1.861" transform="translate(-78.777 -109.159)"/><path class="e" d="M265.762,117.9a8.27,8.27,0,0,1-2.379.652,4.158,4.158,0,0,0,1.822-2.292,8.3,8.3,0,0,1-2.631,1.005,4.146,4.146,0,0,0-6.93,1.449v13.1a11.862,11.862,0,0,0,8.063-11.231c0-.179,0-.358-.012-.535a8.437,8.437,0,0,0,2.067-2.145Zm0,0" transform="translate(-240.665 -109.159)"/></svg>