<svg xmlns="http://www.w3.org/2000/svg" xmlns:xlink="http://www.w3.org/1999/xlink" width="100" height="100" viewBox="0 0 100 100"><defs><style>.a{fill:url(#a);}.b{fill:url(#b);}.c{fill:url(#c);}.d{fill:url(#d);}.e{fill:#fff;}</style><linearGradient id="a" x1="0.332" y1="0.141" x2="0.585" y2="0.682" gradientUnits="objectBoundingBox"><stop offset="0" stop-color="#00c3ff"/><stop offset="1" stop-color="#00b0ed"/></linearGradient><linearGradient id="b" x1="0.738" y1="0.628" x2="-0.899" y2="-0.25" gradientUnits="objectBoundingBox"><stop offset="0" stop-color="#00b0ed" stop-opacity="0"/><stop offset="1" stop-color="#00a2ce"/></linearGradient><linearGradient id="c" x1="0.5" y1="0.27" x2="0.5" y2="0.926" xlink:href="#b"/><linearGradient id="d" x1="0.946" y1="0.922" x2="0.342" y2="0.273" xlink:href="#b"/></defs><g transform="translate(0 0)"><path class="a" d="M82.114,98.287a302.043,302.043,0,0,1-64.227,0A18.209,18.209,0,0,1,1.712,82.112a302.035,302.035,0,0,1,0-64.226A18.209,18.209,0,0,1,17.886,1.712a302.037,302.037,0,0,1,64.227,0A18.209,18.209,0,0,1,98.288,17.886a302.035,302.035,0,0,1,0,64.226A18.208,18.208,0,0,1,82.114,98.287Zm0,0" transform="translate(0 0)"/><path class="b" d="M116.012,44.7a16.15,16.15,0,0,0-14.346-14.347,268,268,0,0,0-56.968,0A16.152,16.152,0,0,0,30.352,44.7a267.994,267.994,0,0,0,0,56.967A16.151,16.151,0,0,0,44.7,116.012a267.9,267.9,0,0,0,56.967,0,16.149,16.149,0,0,0,14.347-14.347,267.9,267.9,0,0,0,0-56.967Zm0,0" transform="translate(-23.182 -23.183)"/><path class="c" d="M7.672,409.8q.1,1.041.214,2.081a18.24,18.24,0,0,0,16.173,16.232,300.914,300.914,0,0,0,64.22,0,18.239,18.239,0,0,0,16.173-16.232q.111-1.04.214-2.081Zm0,0" transform="translate(-6.168 -329.836)"/><path class="d" d="M178.579,148.514l-20.831-20.83a24.86,24.86,0,0,1-5.941,2.485,17,17,0,0,1-2.094.43,12.935,12.935,0,0,0-22.2,9.033c0,.258.007.513.024.767a12.478,12.478,0,0,0,.235,1.82,35.434,35.434,0,0,1-21.92-8.765h0l-4.36-4.36s-5.115,8.927,2.4,15.7a14.346,14.346,0,0,0,1.09,1.089l.1.1c-.987-.067-3.955-.362-5.673-1.576a12.551,12.551,0,0,0,4.2,9.473l3.67,3.7a7.142,7.142,0,0,1-3.214-.306,12.362,12.362,0,0,0,3.7,5.818l5.142,5.169a26.62,26.62,0,0,1-15.593,3.471l31.193,30.479A303.438,303.438,0,0,0,160.65,200.5a18.273,18.273,0,0,0,16.232-16.232,303.579,303.579,0,0,0,1.7-35.754Zm0,0" transform="translate(-78.6 -102.218)"/><path class="e" d="M159.168,132.665a23.289,23.289,0,0,1-6.635,1.84c-.009-.053-.018-.1-.027-.155a12.329,12.329,0,0,0,4.9-6.674,24.736,24.736,0,0,1-5.908,2.468,17.077,17.077,0,0,1-2.082.427,12.865,12.865,0,0,0-22.069,8.97c0,.255.007.509.024.761a12.372,12.372,0,0,0,.234,1.807c-3.438-.051-15.848-1.1-26.131-13.034,0,0-5.726,9.978,3.9,16.794,0,0-3.9-.122-5.971-1.582,0,0-.609,9.615,10.479,12.656,0,0-3.9.975-5.85.122,0,0,1.95,8.275,11.7,8.885a25.648,25.648,0,0,1-18.409,5.473,36.355,36.355,0,0,0,55.75-30.686q0-.375-.008-.75c.005-.148.008-.3.008-.446,0-.1,0-.208,0-.312a22.721,22.721,0,0,0,6.1-6.564Zm0,0" transform="translate(-78.242 -101.863)"/></g></svg>