<svg xmlns="http://www.w3.org/2000/svg" xmlns:xlink="http://www.w3.org/1999/xlink" width="100" height="100" viewBox="0 0 100 100"><defs><style>.a{fill:url(#a);}.b{fill:url(#b);}.c{fill:url(#c);}.d{fill:url(#d);}.e{fill:url(#e);}.f{fill:#fff;}</style><linearGradient id="a" x1="0.227" y1="-0.025" x2="0.948" y2="1.363" gradientUnits="objectBoundingBox"><stop offset="0" stop-color="#fffcf8"/><stop offset="0.188" stop-color="#faf8f6"/><stop offset="0.404" stop-color="#eceef2"/><stop offset="0.635" stop-color="#d5dcea"/><stop offset="0.875" stop-color="#b5c4df"/><stop offset="1" stop-color="#a1b5d8"/></linearGradient><linearGradient id="b" x1="0.369" y1="0.426" x2="-1.54" y2="-0.648" gradientUnits="objectBoundingBox"><stop offset="0" stop-color="#a1b5d8" stop-opacity="0"/><stop offset="0.309" stop-color="#90a2bd" stop-opacity="0.31"/><stop offset="0.755" stop-color="#7c8b9c" stop-opacity="0.757"/><stop offset="1" stop-color="#748290"/></linearGradient><linearGradient id="c" x1="0.5" y1="0.413" x2="0.5" y2="1.193" xlink:href="#b"/><linearGradient id="d" x1="0.785" y1="0.754" x2="-0.068" y2="-0.216" xlink:href="#b"/><linearGradient id="e" x1="0.439" y1="0.245" x2="0.587" y2="0.867" gradientUnits="objectBoundingBox"><stop offset="0" stop-color="#e52d27"/><stop offset="1" stop-color="#b31217"/></linearGradient></defs><g transform="translate(0 0)"><path class="a" d="M82.114,98.287a302.043,302.043,0,0,1-64.227,0A18.209,18.209,0,0,1,1.712,82.112a302.036,302.036,0,0,1,0-64.226A18.209,18.209,0,0,1,17.886,1.712a302.036,302.036,0,0,1,64.227,0A18.209,18.209,0,0,1,98.288,17.886a302.036,302.036,0,0,1,0,64.226A18.208,18.208,0,0,1,82.114,98.287Zm0,0" transform="translate(0 0)"/><path class="b" d="M116.051,44.706A16.157,16.157,0,0,0,101.7,30.353a268.123,268.123,0,0,0-56.993,0A16.159,16.159,0,0,0,30.353,44.706a268.115,268.115,0,0,0,0,56.992,16.158,16.158,0,0,0,14.353,14.353,268.016,268.016,0,0,0,56.992,0A16.157,16.157,0,0,0,116.051,101.7a268.015,268.015,0,0,0,0-56.992Zm0,0" transform="translate(-23.202 -23.203)"/><path class="c" d="M7.672,409.805q.1,1.037.214,2.074a18.209,18.209,0,0,0,16.175,16.174,302.036,302.036,0,0,0,64.227,0,18.208,18.208,0,0,0,16.174-16.174q.111-1.037.214-2.074Zm0,0" transform="translate(-6.174 -329.766)"/><path class="d" d="M162.847,218.84a18.208,18.208,0,0,0,16.174-16.175q1.5-14.028,1.685-28.083l-21.722-21.722c-1.115-1.382-2.124-1.511-4.214-1.919a33.915,33.915,0,0,0-5.15-.625c-5.511-.217-11.025-.424-16.54-.477a193.848,193.848,0,0,0-24.261.887c-3.477.4-7.153,3.131-7.548,6.849-.2,1.91-.553,3.81-.662,5.725a106.169,106.169,0,0,0,.493,20.891c.327,2.326.686,3.391,2.254,4.688L135,220.522q13.931-.2,27.848-1.682Zm0,0" transform="translate(-80.733 -120.553)"/><path class="e" d="M130.023,188.845c-8.072-.271-14.32-.425-20.56-.723a21.912,21.912,0,0,1-5.668-.936,8.007,8.007,0,0,1-5.705-7.011,106.169,106.169,0,0,1-.493-20.891c.11-1.915.461-3.815.663-5.725.393-3.718,4.07-6.446,7.547-6.849a193.856,193.856,0,0,1,24.262-.887c5.515.053,11.028.259,16.539.477a34.012,34.012,0,0,1,5.15.625,7.715,7.715,0,0,1,6.549,6.813,73.078,73.078,0,0,1,.935,15.321c-.141,3.879-.541,7.751-.943,11.615a8.007,8.007,0,0,1-7.461,7.008c-7.536.5-15.079.849-20.815,1.162Zm0,0" transform="translate(-78.309 -117.322)"/><path class="f" d="M225.8,225.69l15.53-9.537L225.8,206.61Zm0,0" transform="translate(-181.699 -166.257)"/></g></svg>