<svg xmlns="http://www.w3.org/2000/svg" xmlns:xlink="http://www.w3.org/1999/xlink" width="591.092" height="420.37" viewBox="0 0 591.092 420.37"><defs><style>.a,.d{fill:#fff;}.a{stroke:#707070;}.b{clip-path:url(#a);}.c,.g,.h{fill:#f54747;}.c{opacity:0.18;}.e{fill:url(#b);}.f{fill:url(#c);}.g{opacity:0.23;}.i{fill:url(#d);}.j{fill:url(#e);}.k{fill:#fbc4d6;}.l{fill:url(#f);}.m{fill:url(#g);}.n{fill:url(#h);}.o{fill:#282328;}.p{fill:url(#i);}.q{fill:url(#j);}.r{fill:#473f47;}.s{fill:#ff681c;}.t{fill:url(#k);}.u{fill:url(#l);}.v{fill:url(#m);}.w{fill:url(#n);}.x{fill:url(#o);}</style><clipPath id="a"><rect class="a" width="591.092" height="420.37" transform="translate(1274 1528)"/></clipPath><linearGradient id="b" x1="0.535" y1="2.693" x2="0.457" y2="-1.742" gradientUnits="objectBoundingBox"><stop offset="0.01"/><stop offset="0.13" stop-opacity="0.69"/><stop offset="0.25" stop-opacity="0.322"/><stop offset="1" stop-opacity="0"/></linearGradient><linearGradient id="c" x1="-2.748" y1="1.259" x2="3.502" y2="-0.097" xlink:href="#b"/><linearGradient id="d" x1="0.67" y1="1.411" x2="0.229" y2="-1.773" xlink:href="#b"/><linearGradient id="e" x1="0.608" y1="1.742" x2="0.247" y2="-2.614" xlink:href="#b"/><linearGradient id="f" x1="65.003" y1="0.214" x2="66.583" y2="1.247" xlink:href="#b"/><linearGradient id="g" x1="44.659" y1="1.65" x2="45.314" y2="-1.164" xlink:href="#b"/><linearGradient id="h" x1="18.062" y1="-0.458" x2="19.596" y2="1.916" xlink:href="#b"/><linearGradient id="i" x1="1.107" y1="-1.085" x2="-0.786" y2="3.452" xlink:href="#b"/><linearGradient id="j" x1="168.944" y1="-0.351" x2="170.783" y2="1.967" xlink:href="#b"/><linearGradient id="k" x1="0.535" y1="2.695" x2="0.457" y2="-1.744" xlink:href="#b"/><linearGradient id="l" x1="-2.746" y1="1.258" x2="3.506" y2="-0.097" xlink:href="#b"/><linearGradient id="m" x1="0.535" y1="2.694" x2="0.457" y2="-1.744" xlink:href="#b"/><linearGradient id="n" x1="-2.745" y1="1.259" x2="3.506" y2="-0.097" xlink:href="#b"/><linearGradient id="o" x1="1.43" y1="1.994" x2="-0.71" y2="-2.009" xlink:href="#b"/></defs><g class="b" transform="translate(-1274 -1528)"><g transform="translate(1318.589 1527.993)"><path class="c" d="M151.137,52.574C133.971,73.717,123.281,100,108.487,123.1c-10.945,17.257-24.3,32.708-35.426,49.893-22.183,34.222-35.572,75.942-33.128,117.626s21.891,82.838,54.307,105.659c19.9,14.028,43.453,20.687,66.876,25.01,78.861,14.594,163.742,3.357,231.129-43.179,11.566-7.99,22.639-17,35.189-23.058,32.234-15.579,74.045-11.967,97.414-40.571,14.065-17.221,17.166-41.848,16.692-64.815-.565-27.582-5.965-56.551-22.766-77.238-21.891-27.126-57.646-34.387-87.234-51.078-28.841-16.181-52.1-41.629-76.873-64.359C295.068,2.28,209.33-19.1,151.137,52.574Z" transform="translate(-39.659 -6.896)"/><path class="d" d="M437.066,278.979a12.332,12.332,0,0,1-3.886,9.012,12.934,12.934,0,0,1-7.716,3.5,9.6,9.6,0,0,1-1.624,0l-90.609-1.824a13.335,13.335,0,0,1-13.189-13.116,12.4,12.4,0,0,1,3.849-9.03,13.262,13.262,0,0,1,9.34-3.648h3.083a25.249,25.249,0,0,1-.967-6.877,24.426,24.426,0,0,1,7.625-17.768,25.264,25.264,0,0,1,7.3-4.871,26.36,26.36,0,0,1,11.091-2.189l7.7.164a26.743,26.743,0,0,1,23.149,14.338,15.67,15.67,0,0,1,7.114-1.514h1.988a15.834,15.834,0,0,1,15.67,15.561v.748a14.594,14.594,0,0,1-.62,4.2l7.5.146A13.39,13.39,0,0,1,437.066,278.979Z" transform="translate(-39.659 -6.896)"/><path class="e" d="M425.464,291.493a9.6,9.6,0,0,1-1.624,0l-90.609-1.824a13.335,13.335,0,0,1-13.189-13.116,12.4,12.4,0,0,1,3.849-9.03c-3.648,22.383,19.793,19.173,19.793,19.173h58.868Z" transform="translate(-39.659 -6.896)"/><path class="f" d="M342.954,266.574l-6.585-2.5a25.247,25.247,0,0,1-.967-6.877,24.426,24.426,0,0,1,7.625-17.768,25.266,25.266,0,0,1,7.3-4.871C332.1,250.174,342.954,266.574,342.954,266.574Z" transform="translate(-39.659 -6.896)"/><ellipse class="g" cx="115.911" cy="104.692" rx="115.911" ry="104.692" transform="translate(77.457 190.066)"/><path class="h" d="M376.94,284.305a111.515,111.515,0,0,1-22.529,67.35h0l-.237.328a111.953,111.953,0,1,1,22.766-67.679Z" transform="translate(-39.659 -6.896)"/><path class="i" d="M228.958,229.232c-6.148,2.536-12.934,3.138-19.246,5.217s-12.642,6.275-14.265,12.77c-.839,3.265-.4,6.9-2.007,9.851-2.134,3.977-7.133,5.473-10.161,8.756-5.765,6.348-1.97,17.239,5.071,22.146s16.035,5.655,24.463,7.1a11.584,11.584,0,0,1,6.312,2.5c4.907,4.688-.529,13.171,1.551,19.629,1.167,3.648,4.615,6.148,6.184,9.65,3.01,6.677-1.551,14.047-4.561,20.723a51.48,51.48,0,0,0-1.368,38.528,7.517,7.517,0,0,1-.693.857,112.756,112.756,0,0,1-32.489-21.635c-9.249-12.97-16.564-27.108-15.8-42.65.42-8.428,3.229-16.564,3.758-24.955.876-13.627-4.05-28.421,2.627-40.315,3.648-6.585,10.763-13.809,6.786-20.194-7.023,1.022-14.594,1.186-21.033-1.259a112.007,112.007,0,0,1,84.243-62.279C255.264,193.477,249.755,220.476,228.958,229.232Z" transform="translate(-39.659 -6.896)"/><path class="j" d="M376.94,284.305a111.735,111.735,0,0,1-1.988,21.106,75.929,75.929,0,0,0-8.337,7.9c-8.848,10.362-10.763,24.737-12.2,38.309h0a2.692,2.692,0,0,1-.091.857.738.738,0,0,0-.146-.529,22.529,22.529,0,0,0-4.433-9.541c-2.517-2.718-6.987-4.068-10.051-1.934q-2.189-5.473-4.4-10.854c-9.121,0-18.534,0-27.108-3.229s-15.67-9.413-22.529-15.451a150.7,150.7,0,0,0-.584-31.413A109.016,109.016,0,0,0,354.3,244.118,79.1,79.1,0,0,0,308.7,255.884c-2.919,1.824-5.874,3.867-9.285,4.159a20.066,20.066,0,0,1-6.385-.876l-22.055-5.6c-2.755-14.192,7.078-28.44,19.72-35.463,9.486-5.254,21-4.232,30.1-8.829,6.239-3.138,8.063-8.629,13.518-12.66h.109a111.752,111.752,0,0,1,42.523,87.691Z" transform="translate(-39.659 -6.896)"/><path class="k" d="M299.629,261.63c-.657,2.153-1.277,4.67,0,6.476a5.472,5.472,0,0,0,2.39,1.7,6.549,6.549,0,0,0,6.8-.711,8.83,8.83,0,0,0,2.061-3.867,89.953,89.953,0,0,0,3.648-16.071,2.9,2.9,0,0,0,0-1.532,2.609,2.609,0,0,0-1.3-1.167c-2.9-1.551-7.443-2.791-9.121.638C302.055,251.506,301.088,256.96,299.629,261.63Z" transform="translate(-39.659 -6.896)"/><path class="h" d="M308.4,264.13a4.087,4.087,0,0,1,1.824.164,3.21,3.21,0,0,1,1.022.894l6.294,7.06c1.222,1.368,2.5,3.247,1.642,4.871a3.648,3.648,0,0,1-2.7,1.605,16,16,0,0,1-8.829-1.733c-1.934-.839-3.849-1.824-5.728-2.736a9.45,9.45,0,0,1-3.557-2.809c-1.441-2.189-1.824-7.443.693-9.121,1.3-.821,2.426-.237,3.648.328A12.131,12.131,0,0,0,308.4,264.13Z" transform="translate(-39.659 -6.896)"/><path class="k" d="M334.508,285.674a2.7,2.7,0,0,1-.128,1.2,2.39,2.39,0,0,1-.912.894,7.808,7.808,0,0,1-4.05,1.368,4.707,4.707,0,0,1-3.813-1.715,7.845,7.845,0,0,1-1.186-3.521,40.957,40.957,0,0,1-.784-8.173,1.131,1.131,0,0,1,1.076-1.35c2.262-.474,6.768-1.66,7.917,1.113a32.214,32.214,0,0,1,1.879,10.179Z" transform="translate(-39.659 -6.896)"/><path class="h" d="M344.085,285.4a21.527,21.527,0,0,1,5.71,1.095,7.1,7.1,0,0,1,4.159,3.813,3.94,3.94,0,0,1,.128,2.736,5.892,5.892,0,0,1-3.1,2.937,39.549,39.549,0,0,1-21.124,4.542,7.3,7.3,0,0,1-5.126-1.824,8.027,8.027,0,0,1-1.35-5.126L323.125,285a10.672,10.672,0,0,1,4.707,1.332c2.7.912,3.758-1.277,5.983-1.824C336.715,283.831,341.13,285.108,344.085,285.4Z" transform="translate(-39.659 -6.896)"/><path class="l" d="M308.4,264.13a4.087,4.087,0,0,1,1.824.164,3.21,3.21,0,0,1,1.022.894l6.294,7.06c1.222,1.368,2.5,3.247,1.642,4.871a3.648,3.648,0,0,1-2.7,1.605,16,16,0,0,1-8.829-1.733c-1.934-.839-3.849-1.824-5.728-2.736a9.45,9.45,0,0,1-3.557-2.809c-1.441-2.189-1.824-7.443.693-9.121,1.3-.821,2.426-.237,3.648.328A12.131,12.131,0,0,0,308.4,264.13Z" transform="translate(-39.659 -6.896)"/><path class="m" d="M344.085,285.4a21.527,21.527,0,0,1,5.71,1.095,7.1,7.1,0,0,1,4.159,3.813,3.94,3.94,0,0,1,.128,2.736,5.892,5.892,0,0,1-3.1,2.937,39.549,39.549,0,0,1-21.124,4.542,7.3,7.3,0,0,1-5.126-1.824,8.027,8.027,0,0,1-1.35-5.126L323.125,285a10.672,10.672,0,0,1,4.707,1.332c2.7.912,3.758-1.277,5.983-1.824C336.715,283.831,341.13,285.108,344.085,285.4Z" transform="translate(-39.659 -6.896)"/><path class="n" d="M240.159,192.51a57.829,57.829,0,0,0-11.784.182,2.992,2.992,0,0,0-1.441.456,2.554,2.554,0,0,0-.8,1.824c-.547,5.29,3.648,9.887,8.173,12.678,12.241,7.589,27.673,7.3,41.191,12.259a6.2,6.2,0,0,1,3.265,2.134,7.68,7.68,0,0,1,.8,3.648c.6,7.133,4.561,13.554,5.874,20.577s-.091,14.375.985,21.453c4.433-4.725,11.985-5.473,16.418-10.143,4.159-4.305,4.98-10.726,5.6-16.673l1.678-16.309a5,5,0,0,0-2.955-5.911C287.206,205.791,263.819,194.554,240.159,192.51Z" transform="translate(-39.659 -6.896)"/><path class="o" d="M320.863,190.869a10.38,10.38,0,0,1,4.944,2.5,10,10,0,0,1,1.824,6.859,139.133,139.133,0,0,1-9.65,50.568,3.484,3.484,0,0,1-5.09,2.718,114.92,114.92,0,0,1-11.2-3.648l4.962-32.836a4.56,4.56,0,0,0-.146-2.755,4.451,4.451,0,0,0-1.5-1.532A131.946,131.946,0,0,0,287.133,201.8c-4.98-2.517-10.69-5.473-12.04-10.8a5.929,5.929,0,0,1,.985-5.381,8.775,8.775,0,0,1,2.736-1.824c3.3-1.624,7.461-3.648,11.255-3.32,3.046.31,4.214,2.061,6.75,3.357C303.861,187.33,313.219,188.643,320.863,190.869Z" transform="translate(-39.659 -6.896)"/><path class="k" d="M286.969,138.641c2.444,6.731,3.648,13.864,5.8,20.668a13.3,13.3,0,0,0,2.481,4.944,13.682,13.682,0,0,0,5.473,3.211q4.287,1.66,8.72,2.9c1.97.529,4.323,1.441,4.542,3.448a3.648,3.648,0,0,1-.4,1.934A9.121,9.121,0,0,1,306,180.4a24.554,24.554,0,0,1-9.121-1.5,13.7,13.7,0,0,1-7.005-3.776,14.831,14.831,0,0,1-2.244-5.29,150.515,150.515,0,0,0-12.386-30.61,34.66,34.66,0,0,1-3.648-8.209c-1.2-5.035-1.222-16.965,3.977-12.587C279.763,121.968,285.126,133.643,286.969,138.641Z" transform="translate(-39.659 -6.896)"/><path class="d" d="M267.067,190.23a74.136,74.136,0,0,0,8.957-4.177c10.945-6.056,1.988-9.03-1.66-16.309-2.609-5.163-1.551-11.347-.2-16.947,2.39-9.851,5.582-20.066,3.284-29.9a11.493,11.493,0,0,0-1.824-4.451,12.569,12.569,0,0,0-2.3-2.207,24.81,24.81,0,0,0-7.844-4.579c-5.473-1.824-11.675-.493-16.874,2.116-20.431,10.252-24.791,36.138-23.97,56.843.219,5.746,1.113,11.821,4.816,16.217s8.939,6.075,14.3,6.731a48.725,48.725,0,0,0,23.314-3.338Z" transform="translate(-39.659 -6.896)"/><path class="p" d="M236.6,178.519a12.277,12.277,0,0,0,1.824,5.473c1.824,2.572,5.181,3.521,8.264,4.269l13.882,3.43a18.243,18.243,0,0,0,5.217.784c3.794-.182,7.06-2.609,10.07-4.944a7.718,7.718,0,0,0,1.97-1.952c-7.662-.73-15.305-1.5-22.931-2.609-4.488-.657-9.231-1.569-12.532-4.652a15.725,15.725,0,0,1-3.794-6c-.547-1.4-.8-4.98-2.39-5.29a41.081,41.081,0,0,0,.42,11.493Z" transform="translate(-39.659 -6.896)"/><path class="k" d="M264,127.7a2.171,2.171,0,0,1-.639,1.532,1.97,1.97,0,0,1-1.259.255,10.015,10.015,0,0,1-9.377-11.839,50.464,50.464,0,0,1,1.605-5.108c.967-3.43.8-7.3,2.973-10.124a113.4,113.4,0,0,0,6.421,12.514,6.786,6.786,0,0,1,1.2,5.71Z" transform="translate(-39.659 -6.896)"/><path class="q" d="M265.078,118.867l-.821,5.473s-9.395-4.652-8.173-13.28S265.078,118.867,265.078,118.867Z" transform="translate(-39.659 -6.896)"/><path class="k" d="M276.06,113.54a8.665,8.665,0,0,1-2.919,4.451,6.567,6.567,0,0,1-2.226.967,13.481,13.481,0,0,1-14.357-6.695,19.72,19.72,0,0,1-.766-16.418,11.511,11.511,0,0,1,5.473-6.768,9.4,9.4,0,0,1,8.829,1.04,21.507,21.507,0,0,1,7.68,9.7C279.106,103.817,277.428,109.727,276.06,113.54Z" transform="translate(-39.659 -6.896)"/><path class="r" d="M317.306,213.8a35.555,35.555,0,0,1,5.473,9.869,196.4,196.4,0,0,1,13.846,54.161,71.347,71.347,0,0,1-17.64,0,165.2,165.2,0,0,0-6.038-38.856,25.1,25.1,0,0,0-3.192-7.7c-2.609-3.776-6.9-5.965-10.945-8.008a161.409,161.409,0,0,0-29.571-10.945c-4.305-1.186-8.647-2.28-12.879-3.648-3.557-1.2-13.536-5.619-16.418-8.008a14.065,14.065,0,0,1-5.473-9.577c0,.949,27.8,2.846,29.79,2.627,6.695-.711,14.594-4.542,21.2-1.824,5.163,2.116,9.887,6.531,14.594,9.577C305.758,205.043,312.727,208.509,317.306,213.8Z" transform="translate(-39.659 -6.896)"/><path class="h" d="M247.182,205.5l-33.931-16.582,39.786-16.874,33.949,14.831Z"/><path class="k" d="M235.161,134.537a13.8,13.8,0,0,1-.237,1.824c-1,9.34-.091,18.5.255,27.783.219,5.746.967,16.692,7.078,19.629,11.42,5.473,33.456,3.393,33.456,3.393a19.409,19.409,0,0,1,7.68.31c1.368.42,2.627,1.131,3.959,1.642,4.816,1.824,10.2.912,15.269,0a6.531,6.531,0,0,0,2.481-.821,4.506,4.506,0,0,0,.42-6.312,11.584,11.584,0,0,0-6.129-3.375,36.266,36.266,0,0,0-19.811-.766,22.108,22.108,0,0,1-2.554.693,17.2,17.2,0,0,1-3.065.219h-7.771c-8.939,0-17.367.109-18.717-10.343a56.772,56.772,0,0,1-.292-11.675c.529-7.023,2.371-13.992,1.988-21.015a13.937,13.937,0,0,0-1.624-6.385,6.494,6.494,0,0,0-5.363-3.393,6.7,6.7,0,0,0-5.473,3.648A14.594,14.594,0,0,0,235.161,134.537Z" transform="translate(-39.659 -6.896)"/><path class="h" d="M300.961,153.417l-47.43,24.135L247.182,205.5l39.8-18.625Z"/><path class="s" d="M278.395,103.47a7.625,7.625,0,0,0-1.824-4.725,8.063,8.063,0,0,0-2.007-1.678c-1.058-.62-1.313-.675-2.007.328-.894,1.3-1.186,2.809-2.007,4.159A10.635,10.635,0,0,1,266.9,105.2a9.887,9.887,0,0,1-5.619,1.478,7.935,7.935,0,0,0-2.371,0,1.824,1.824,0,0,0-1.259.912,6.093,6.093,0,0,0-.2,2.1c-.164,1.824-1.97,3.119-2.974,4.707s-1.3,3.94-2.5,5.637a2.353,2.353,0,0,1-.894.8c-.857.365-1.824-.109-2.718-.274-2.645-.456-4.779,2.007-7.042,3.5-4.542,2.992-10.489,2.226-15.853,1.332a15.779,15.779,0,0,1-4.743-1.35,15.98,15.98,0,0,1-4.25-3.648c-1.988-2.189-3.959-4.415-5.911-6.64a7.68,7.68,0,0,1-1.7-2.5,4.488,4.488,0,0,1-.164-2.025,12.241,12.241,0,0,1,1.113-3.648c1.423-3.192,3.083-6.658,6.294-8.1s7.005-.365,10.544-.73a2.1,2.1,0,0,0,1.2-.383,2.627,2.627,0,0,0,.584-1.113c1.478-4.907,3.32-10.234,7.735-12.77a17.713,17.713,0,0,1,10.945-1.441,43.216,43.216,0,0,0,11.146.638c1.824-.292,3.648-.894,5.473-1.259A17.859,17.859,0,0,1,276.3,82.254a13.244,13.244,0,0,1,6.458,10.781,15.1,15.1,0,0,0,0,2.572c.128.8.474,1.587.6,2.39a4.944,4.944,0,0,1-4.962,5.473Z" transform="translate(-39.659 -6.896)"/><path class="d" d="M233.5,139.717a80.431,80.431,0,0,0-.182,15.542,2.226,2.226,0,0,0,.328,1.277,2.262,2.262,0,0,0,1.5.73,50.84,50.84,0,0,0,8.957.857,3.01,3.01,0,0,0,3.9-2.5c1.642-6.859,3.265-13.718,4.506-20.668.493-2.791.839-5.929-.839-8.191-2.426-3.284-8.975-3.648-12.131-1.259C235.726,128.444,234.1,135.3,233.5,139.717Z" transform="translate(-39.659 -6.896)"/><path class="d" d="M285.126,130.961l5.163,12.368a2.663,2.663,0,0,1,.292,1.569,2.481,2.481,0,0,1-.73,1.149,29.753,29.753,0,0,1-8.829,6.421,30.829,30.829,0,0,1-7.3-9.741c-1.715-4.4-1.332-9.285-.821-13.974.31-2.973.2-12.532,5.254-8.829C281.679,122.46,283.539,127.148,285.126,130.961Z" transform="translate(-39.659 -6.896)"/><path class="d" d="M191.744,246.982a12.4,12.4,0,0,1-3.867,9.012,12.989,12.989,0,0,1-7.716,3.5,15.865,15.865,0,0,1-1.624,0l-90.609-1.824A13.353,13.353,0,0,1,74.72,244.537a12.4,12.4,0,0,1,3.867-9.012,13.08,13.08,0,0,1,9.34-3.648h3.083a24.7,24.7,0,0,1-.967-6.9,24.408,24.408,0,0,1,7.625-17.768,24.956,24.956,0,0,1,7.3-4.852,26.306,26.306,0,0,1,11.091-2.189l7.7.164a26.8,26.8,0,0,1,23.113,14.12,16.163,16.163,0,0,1,7.115-1.514h1.988a15.853,15.853,0,0,1,15.652,15.579v.748a14.284,14.284,0,0,1-.6,4.177l7.5.164A13.353,13.353,0,0,1,191.744,246.982Z" transform="translate(-39.659 -6.896)"/><path class="t" d="M180.16,259.5a15.865,15.865,0,0,1-1.624,0l-90.609-1.824A13.353,13.353,0,0,1,74.72,244.537a12.4,12.4,0,0,1,3.867-9.012C75.03,257.891,98.38,254.7,98.38,254.7h58.868Z" transform="translate(-39.659 -6.896)"/><path class="u" d="M97.578,234.577l-6.567-2.5a24.7,24.7,0,0,1-.967-6.9,24.408,24.408,0,0,1,7.625-17.768,24.955,24.955,0,0,1,7.3-4.852C86.778,218.177,97.578,234.577,97.578,234.577Z" transform="translate(-39.659 -6.896)"/><path class="d" d="M430.754,140.958a12.368,12.368,0,0,1-3.886,9.012,13.043,13.043,0,0,1-7.735,3.5,9.5,9.5,0,0,1-1.624,0l-90.591-1.824a13.335,13.335,0,0,1-13.153-13.007,12.4,12.4,0,0,1,3.849-9.121,13.317,13.317,0,0,1,9.358-3.648h3.065a25.246,25.246,0,0,1-.967-6.877,24.426,24.426,0,0,1,7.625-17.768,25.1,25.1,0,0,1,7.3-4.871,26.251,26.251,0,0,1,11.091-2.189l7.7.164a26.743,26.743,0,0,1,23.095,14.138,15.725,15.725,0,0,1,7.115-1.514h1.988a15.834,15.834,0,0,1,15.67,15.561v.748a14.594,14.594,0,0,1-.62,4.2l7.5.146A13.39,13.39,0,0,1,430.754,140.958Z" transform="translate(-39.659 -6.896)"/><path class="v" d="M419.152,153.472a9.5,9.5,0,0,1-1.624,0l-90.591-1.824a13.335,13.335,0,0,1-13.171-13.007,12.4,12.4,0,0,1,3.849-9.121c-3.648,22.383,19.793,19.173,19.793,19.173h58.868Z" transform="translate(-39.659 -6.896)"/><path class="w" d="M336.588,128.553l-6.585-2.5a25.248,25.248,0,0,1-.967-6.877,24.427,24.427,0,0,1,7.625-17.768,25.1,25.1,0,0,1,7.3-4.871C325.788,112.153,336.588,128.553,336.588,128.553Z" transform="translate(-39.659 -6.896)"/><path class="x" d="M259.04,106.717a1.824,1.824,0,0,0-1.259.912,6.092,6.092,0,0,0-.2,2.1c-.164,1.824-1.97,3.119-2.973,4.707s-1.3,3.94-2.5,5.637a2.353,2.353,0,0,1-.894.8c-.857.365-1.824-.109-2.718-.274-2.645-.456-4.779,2.007-7.042,3.5-4.542,2.992-10.489,2.226-15.853,1.332a15.78,15.78,0,0,1-4.871-1.386,15.98,15.98,0,0,1-4.25-3.648c-1.988-2.189-3.959-4.415-5.911-6.64a7.68,7.68,0,0,1-1.7-2.5,4.488,4.488,0,0,1-.164-2.025,22.638,22.638,0,0,1,2.645-1.368,12.277,12.277,0,0,1,9.121-1c2.444.949,4.177,3.119,6.275,4.67a15.05,15.05,0,0,0,19.41-1.824,16.728,16.728,0,0,1,3.211-3.211C251.542,105.313,255.957,105.495,259.04,106.717Z" transform="translate(-39.659 -6.896)"/></g></g></svg>