<svg xmlns="http://www.w3.org/2000/svg" xmlns:xlink="http://www.w3.org/1999/xlink" width="591.092" height="420.37" viewBox="0 0 591.092 420.37"><defs><style>.a,.f{fill:#fff;}.a{stroke:#707070;}.b{clip-path:url(#a);}.c,.e,.n{fill:#f54747;}.c,.m{opacity:0.18;}.d{fill:#ffbaa8;}.g{fill:#473f47;}.h,.t{fill:#020202;}.h{opacity:0.1;}.i{fill:#ff681c;}.j{fill:#e0a091;}.k{fill:url(#b);}.l{fill:url(#c);}.m{fill:none;stroke:#fff;stroke-miterlimit:10;stroke-width:1.72px;}.n{opacity:0.35;}.o{fill:url(#d);}.p{fill:url(#e);}.q{fill:url(#f);}.r{fill:url(#g);}.s{opacity:0.27;}</style><clipPath id="a"><rect class="a" width="591.092" height="420.37" transform="translate(1274 1528)"/></clipPath><linearGradient id="b" x1="1.731" y1="-0.048" x2="0.571" y2="0.473" gradientUnits="objectBoundingBox"><stop offset="0"/><stop offset="1" stop-opacity="0"/></linearGradient><linearGradient id="c" x1="-2.985" y1="0.854" x2="1.342" y2="0.469" xlink:href="#b"/><linearGradient id="d" x1="-2.497" y1="1.805" x2="1.348" y2="0.131" xlink:href="#b"/><linearGradient id="e" x1="-1.542" y1="1.024" x2="1.108" y2="0.345" xlink:href="#b"/><linearGradient id="f" x1="-1.551" y1="1.515" x2="0.908" y2="0.298" xlink:href="#b"/><linearGradient id="g" x1="-1.548" y1="1.518" x2="0.911" y2="0.298" xlink:href="#b"/></defs><g class="b" transform="translate(-1274 -1528)"><g transform="translate(1285.199 1528.055)"><path class="c" d="M271.014,11.934a165.673,165.673,0,0,1,44.8,13.6c19.71,9.443,35.98,23.939,54.507,35.227,31.572,19.226,69.38,30.1,105.27,37.628,14.335,3.028,28.848,5.841,41.75,12.668,19.71,10.464,33.83,29.44,43.649,49.562,21.5,44.169,25.426,97.744,6.289,143.078-18.707,44.061-61.442,81.277-110,86.008C395.994,395.994,334.732,408,273.344,415.6c-42.628,6.307-85.434,12.543-128.528,13.1-17.918.2-36.3-.681-53.379-6.469-32.038-10.912-60.976-33.4-73.519-65.509a104.517,104.517,0,0,1,2.455-81.259C27.54,259.887,38.686,246.144,43.9,229.8c4.713-14.765,4.193-30.354,3.476-45.638a113.53,113.53,0,0,1,5.286-42.072C61.155,114.337,74.54,87.8,93.444,65.724c23.294-27.325,55.368-47.788,90.685-54.382A215.934,215.934,0,0,1,225.5,8.422a295.494,295.494,0,0,1,45.512,3.512Z" transform="translate(-10.894 -8.404)"/><path class="d" d="M175.223,315.362a12.274,12.274,0,0,0,.986,5.232,8.762,8.762,0,0,0,3.8,3.584,15.105,15.105,0,0,0,11.127,1.093,2.24,2.24,0,0,0,1.29-.771,1.971,1.971,0,0,0,.215-1.111,8.225,8.225,0,0,0-2.9-5.232,18.044,18.044,0,0,1-4.014-4.587c-1.792-3.44-.43-12.543-6.916-11.145C173.4,303.554,175.08,311.474,175.223,315.362Z" transform="translate(-10.894 -8.404)"/><path class="e" d="M174.327,321.508s-.914,2.258.215,3.584,12.776,8.565,20.624,2.741-10.643-6.594-10.643-6.594Z" transform="translate(-10.894 -8.404)"/><path class="f" d="M174.793,316.222a1.666,1.666,0,0,1,2.1.556,6.827,6.827,0,0,0,6.236,2.168c2.544-.609,3.584-3.584,4.838-3.584s8.063,5.77,8.44,8.242-3.082,4.3-6.916,4.533-12.543-2.4-14.138-4.426A8.117,8.117,0,0,1,174.793,316.222Z" transform="translate(-10.894 -8.404)"/><path class="d" d="M152.986,318.838a12.274,12.274,0,0,0,.986,5.232,8.708,8.708,0,0,0,3.817,3.584,15.051,15.051,0,0,0,11.109,1.093,2.24,2.24,0,0,0,1.326-.842,1.971,1.971,0,0,0,.215-1.111,8.225,8.225,0,0,0-2.9-5.232,18.045,18.045,0,0,1-4.014-4.587c-1.7-3.44-.43-12.543-6.916-11.127C151.159,307.1,152.843,315.022,152.986,318.838Z" transform="translate(-10.894 -8.404)"/><path class="e" d="M152.091,325.056s-.914,2.258.215,3.584,12.776,8.565,20.624,2.741-10.643-6.594-10.643-6.594Z" transform="translate(-10.894 -8.404)"/><path class="f" d="M152.556,319.788a1.648,1.648,0,0,1,2.1.538,6.845,6.845,0,0,0,6.236,2.2c2.544-.609,3.584-3.584,4.856-3.584s8.045,5.77,8.422,8.242-3.082,4.3-6.916,4.533-12.543-2.4-14.138-4.426A8.081,8.081,0,0,1,152.556,319.788Z" transform="translate(-10.894 -8.404)"/><path class="g" d="M148.364,223.119s-1.218,66.6,3.709,88.821l12.543,1.541,8.672-91.186Z" transform="translate(-10.894 -8.404)"/><path class="g" d="M187.031,215.844s5.9,35.837-1.254,93.623l-12.543,1.559-8.672-91.2Z" transform="translate(-10.894 -8.404)"/><path class="f" d="M185.884,187.748c0,1.2.161,2.419.161,3.584,0,6.648-1.541,13.492.448,20.015a7.275,7.275,0,0,1,.538,4.444,5.375,5.375,0,0,1-2.777,2.67c-5.859,3.207-12.543,4.193-19.244,5.125-4.963.7-12.023,2.168-16.61-.5a8.332,8.332,0,0,1-3.261-5.376,102.133,102.133,0,0,1-3.1-20.964c0-.932-.125-1.792-.179-2.759-.376-6.379-.52-12.74-.394-19.1,0-4.623.466-9.622,3.476-13.116,4.014-4.641,11.772-7.723,17.667-8.8a19.87,19.87,0,0,1,5.823-.287,24.673,24.673,0,0,1,7.848,2.67c2.939,1.451,5.537,2.67,6.97,5.555a39.653,39.653,0,0,1,3.279,10.554,38.4,38.4,0,0,1,.179,10.339c-.179,1.684-.609,3.351-.771,5.035C185.9,187.139,185.9,187.443,185.884,187.748Z" transform="translate(-10.894 -8.404)"/><path class="f" d="M180.33,157.681l17.542,9.353L235,153.847l6.451,15.876S207.4,187.139,200.828,187.21s-23.867-4.713-23.867-4.713Z" transform="translate(-10.894 -8.404)"/><path class="h" d="M195.722,177.069c-1.989-.233-11.934-5.178-13.027-6,1.523,3.207,3.584,13.17,3.924,13.367a32.378,32.378,0,0,0,12.005,3.315,24.154,24.154,0,0,0,12.184-2.294,60.077,60.077,0,0,1,5.752-2.956c1.183-.448,2.419-.7,3.584-1.093a34.672,34.672,0,0,0,8.655-4.784,3.458,3.458,0,0,0,1.792-2.132c.179-1.183-.878-2.186-1.953-2.706a13.4,13.4,0,0,0-5.375-1.129,24.369,24.369,0,0,0-7.311.161c-1.523.43-2.652,1.792-4.139,2.526C207.512,175.223,200.38,177.606,195.722,177.069Z" transform="translate(-10.894 -8.404)"/><path class="h" d="M158.774,225.394c-1.935.555-6.379-1.2-7.848-1.469a22.691,22.691,0,0,1-2.562-.806c-4.408-1.093-4.928-13.457-5.375-16.789-1.147-8.8-2.9-17.918-3.01-26.734a29.708,29.708,0,0,1,1.165-10.07,11.683,11.683,0,0,1,6.612-7.346,3.333,3.333,0,0,1,1.953-.2c2.67.681,3.225,5.107,3.691,7.167.806,3.763,2.634,5.483,4.5,8.493s1.989,6.773,3.763,9.873a7.167,7.167,0,0,0,1.792,2.258,8.135,8.135,0,0,0,5.017,1.057h12.65a4,4,0,0,1,2.885.717,4.139,4.139,0,0,1,.753,3.4l-.77,9.353a2.132,2.132,0,0,1-.3,1.165,2.24,2.24,0,0,1-1.362.663,33.883,33.883,0,0,0-9.98,3.064,57.733,57.733,0,0,1-9.712,5.375,9.317,9.317,0,0,0-2.652,1.792,5.841,5.841,0,0,0-1.272,4c0,.914,1.165,3.727.824,4.39a1.272,1.272,0,0,1-.753.645Z" transform="translate(-10.894 -8.404)"/><path class="d" d="M172.3,147.486a4.193,4.193,0,0,1-2.706,1.362,14.211,14.211,0,0,1-2.616,0H166.5a.591.591,0,0,0-.358,0,.52.52,0,0,0-.161.394,29.991,29.991,0,0,0,0,5.232h0v.95a1.792,1.792,0,0,1,0,.986,1.666,1.666,0,0,1-1.057.681,7.723,7.723,0,0,1-2.365.412,10.429,10.429,0,0,1-4.874-1.613,47.735,47.735,0,0,0-.466-8.959c-.555-3.817-1.559-7.633-1.147-11.468a7.382,7.382,0,0,1,1.613-4.1,7.508,7.508,0,0,1,5.68-2.043,14.55,14.55,0,0,1,7.794,2.132c.86.591.95,1.344,1.147,2.311.3,1.505.538,3.028.717,4.551s.287,3.476.323,5.232a5.877,5.877,0,0,1-1.039,3.942Z" transform="translate(-10.894 -8.404)"/><path class="i" d="M169.256,132.309c-1.792.484-4.1,0-5.913.788a5.788,5.788,0,0,0-2.831,7.042c-.735.269-.878-1.075-1.451-1.613s-1.792.179-1.953,1.111a5.788,5.788,0,0,0,.806,2.652,7.9,7.9,0,0,1,.358,5.214c-.125.412-.43.9-.824.788s-.7-.806-.95-1.111a11.432,11.432,0,0,0-1.308-1.326c-.9-.788-1.9-1.487-2.831-2.258s-1.272-1.505-2.347-1.792a20.445,20.445,0,0,0-3.082-.376,4.462,4.462,0,0,1-2.15-7.687,3.1,3.1,0,0,0,.878-.932,2.831,2.831,0,0,0,.107-1.29,6.845,6.845,0,0,1,3.189-5.644,11.647,11.647,0,0,1,6.415-1.792,3.906,3.906,0,0,0,1.451-.179,4.462,4.462,0,0,0,1.165-.86,8.475,8.475,0,0,1,12.9,2.383,6.2,6.2,0,0,1,.806,4.085,3.189,3.189,0,0,1-2.437,2.8Z" transform="translate(-10.894 -8.404)"/><path class="j" d="M166.981,148.9H166.5a.591.591,0,0,0-.358,0,.52.52,0,0,0-.161.394,29.994,29.994,0,0,0,0,5.232h0a7.006,7.006,0,0,1-4.838-7.418,29.728,29.728,0,0,0,5.9,1.792Z" transform="translate(-10.894 -8.404)"/><rect class="f" width="18.993" height="44.706" rx="9.497" transform="translate(126.695 157.172) rotate(-19.53)"/><path class="e" d="M419.288,168.9C411.6,313,315.165,350.661,315.165,350.661,208.1,286.872,208.641,162.3,208.641,162.3c68.233-18.42,107.259-56.1,108.477-57.339h0C342.562,142.038,419.288,168.9,419.288,168.9Z" transform="translate(-10.894 -8.404)"/><path class="k" d="M419.288,168.324c-7.687,144.1-104.123,181.763-104.123,181.763C208.1,286.3,208.641,161.731,208.641,161.731c68.269-18.384,107.295-56.013,108.513-57.267h0C342.562,141.555,419.288,168.324,419.288,168.324Z" transform="translate(-10.894 -8.404)"/><path class="d" d="M198.893,180.975a27.453,27.453,0,0,0,2.544-2.114,26.286,26.286,0,0,1,6.522-4.318,12.65,12.65,0,0,1,7.651-.968c.555.108,1.218.448,1.147,1.021s-.394.609-.735.788a24.279,24.279,0,0,1-4.748,2.007,2.642,2.642,0,0,0-1.792,1.111,3.584,3.584,0,0,0,1.631-.2,17.918,17.918,0,0,1,6.253-.448c.2,0,.43,0,.538.251a.539.539,0,0,1-.323.7c-2.007,1.595-5.017,1.487-6.934,3.207-.34.287-.591.9-.215,1.129a.753.753,0,0,0,.484,0,14.861,14.861,0,0,0,2.455-.484,11.969,11.969,0,0,1,4-.107.663.663,0,0,1,.466.215c.2.3-.215.645-.538.806l-6.934,3.028a16.936,16.936,0,0,0,2.867,0,3.942,3.942,0,0,1,2.688.86.2.2,0,0,1,.108.161c0,.125,0,.2-.2.251a9.246,9.246,0,0,1-3.584,1.075,11.127,11.127,0,0,0-2.2.394,10.192,10.192,0,0,0-1.272.573,13.779,13.779,0,0,1-4.265,1.433,6.827,6.827,0,0,1-4.372-.717,6.684,6.684,0,0,0-1.129-.573c-1.433-.394-3.028,1.093-4.354.394a3.1,3.1,0,0,1-1.039-1.2c-.717-1.183-3.118-4.48-1.183-5.573a28.936,28.936,0,0,1,3.333-1.075,15.284,15.284,0,0,0,3.136-1.631Z" transform="translate(-10.894 -8.404)"/><path class="f" d="M168.9,184.791l23.724-2.276,3.835,11.575s-34.672,14.1-41.409,10.178-.484-10.321-.484-10.321S155.352,184.558,168.9,184.791Z" transform="translate(-10.894 -8.404)"/><path class="e" d="M406.835,175.886c-6.791,127-91.778,160.208-91.778,160.208C220.7,279.866,221.166,170.08,221.166,170.08c60.152-16.234,94.537-49.454,95.612-50.476h0C339.175,152.306,406.835,175.886,406.835,175.886Z" transform="translate(-10.894 -8.404)"/><path class="l" d="M316.8,119.587,315,336.094c-94.358-56.228-93.892-166.013-93.892-166.013,60.152-16.234,94.537-49.454,95.612-50.476Z" transform="translate(-10.894 -8.404)"/><circle class="g" cx="16.646" cy="16.646" r="16.646" transform="translate(287.517 187.354)"/><path class="g" d="M294.147,245.517h17.936l-5.089-26.662h-6.54Z"/><path class="m" d="M214.8,197.908h21.412V182.372h16.969"/><path class="m" d="M219,214.554h27.881v33.9h17.452"/><path class="m" d="M394.167,187.354h-35.3V167.339H327.349"/><path class="m" d="M387.591,220.646H353.205v35.245H328.962"/><path class="m" d="M253.186,282.679h28.848V269.133h17.452"/><path class="d" d="M243.08,155.477a1.953,1.953,0,0,0,2.025-.412c.788-.914.161-2.294-.484-3.315.609-.466,1.487.125,1.953.753s1.021,1.38,1.792,1.29,1.2-1.147,1-1.935a11.644,11.644,0,0,0-1.165-2.186c.34-.466,1.093,0,1.4.448s.717,1.129,1.272,1a1,1,0,0,0,.555-1.183,9.984,9.984,0,0,1-.3-1.416c.95-.3,2.043.681,2.921.215a1.362,1.362,0,0,0,.179-2.025,3.584,3.584,0,0,0-2.079-.986,8.959,8.959,0,0,0-5.734.681c-2.061.824-4.211,1.254-6.218,2.294a12.238,12.238,0,0,0-4.748,3.584.806.806,0,0,0,.233,1.057,1.29,1.29,0,0,0,.824,0,6.11,6.11,0,0,1,4.157.7,19.584,19.584,0,0,0,2.114,1.29Z" transform="translate(-10.894 -8.404)"/><path class="f" d="M510.349,166.64c-19.5-41.57-109.158-73.071-216.489-73.071-121.558,0-220.4,40.388-220.4,90.039s98.891,90.039,220.4,90.039c82.854,0,155.172-18.76,192.837-46.426a91.565,91.565,0,0,0,14.836-13.4,49.993,49.993,0,0,0,11.952-22.4,38.185,38.185,0,0,0,.824-7.812A39.635,39.635,0,0,0,510.349,166.64ZM499.8,213.658A90.223,90.223,0,0,1,487.073,225.2c-36.876,27.917-109.66,46.946-193.249,46.946-120.716,0-218.944-39.707-218.944-88.534s98.228-88.552,218.98-88.552c105.969,0,194.593,30.6,214.679,71.1a38.99,38.99,0,0,1,4.265,17.452,34.046,34.046,0,0,1-.573,6.325C510.761,198.212,506.5,206.168,499.8,213.658Z" transform="translate(-10.894 -8.404)"/><path class="c" d="M517.05,179.523a39.214,39.214,0,0,0-.645-4.318,43.858,43.858,0,0,0-2.294-7.436l-.323-.107c-1.129-.358-2.294-.681-3.44-1.021-19.5-41.57-109.158-73.071-216.489-73.071-121.558,0-220.4,40.388-220.4,90.039s98.891,90.039,220.4,90.039c82.854,0,155.172-18.76,192.837-46.426a4.068,4.068,0,0,0,1.021,2.974,91.923,91.923,0,0,0,18.223-16.969,52.84,52.84,0,0,0,9.533-17.614,40.924,40.924,0,0,0,1.792-11.987A39.01,39.01,0,0,0,517.05,179.523Zm-223.19,92.62c-120.716,0-218.944-39.707-218.944-88.534S173.109,95.057,293.86,95.057c105.969,0,194.593,30.6,214.679,71.1a4.372,4.372,0,0,0-3.046.52,36.75,36.75,0,0,1,4.318,16.933,34.479,34.479,0,0,1-.251,4.085c-1.057,8.637-5.376,17.094-12.9,25.086a81.132,81.132,0,0,1-9.1,8.332,4.318,4.318,0,0,1,0,2.347c-.161.573-.34,1.147-.5,1.792C450.2,253.114,377.413,272.143,293.86,272.143Z" transform="translate(-10.894 -8.404)"/><path class="c" d="M508.5,166.156a4.372,4.372,0,0,0-3.046.52c-8.242-15.965-28.15-30.8-58.019-42.878-41.051-16.592-95.612-25.731-153.578-25.731S181.279,107.205,140.229,123.8C100,140.049,77.873,161.265,77.873,183.609S100,227.15,140.193,243.4c41.051,16.61,95.612,25.749,153.631,25.749s112.563-9.138,153.614-25.749c16.5-6.666,29.941-14.155,40.083-22.272a4.318,4.318,0,0,1,0,2.347c-.161.573-.34,1.147-.5,1.792-36.876,27.917-109.66,46.946-193.249,46.946-120.716,0-218.944-39.707-218.944-88.534S173.109,95.057,293.86,95.057C399.793,95.057,488.417,125.661,508.5,166.156Z" transform="translate(-10.894 -8.404)"/><path class="c" d="M514.112,167.769l-.323-.108c-1.129-.358-2.294-.681-3.44-1.021-19.5-41.57-109.158-73.071-216.489-73.071-121.558,0-220.4,40.388-220.4,90.039s98.891,90.039,220.4,90.039c82.854,0,155.172-18.76,192.837-46.426a4.068,4.068,0,0,0,1.021,2.974,178.215,178.215,0,0,1-36.93,19.836c-42.054,17.166-97.8,26.609-156.928,26.609S178.95,267.2,136.932,250.032c-42.9-17.524-66.513-41.122-66.513-66.423S94,134.71,136.9,117.2C178.914,100.02,234.73,90.577,293.86,90.577S408.77,100.02,450.789,117.2C484.547,131,506.371,148.561,514.112,167.769Z" transform="translate(-10.894 -8.404)"/><ellipse class="n" cx="172.428" cy="28.418" rx="172.428" ry="28.418" transform="translate(100.808 296.028)"/><path class="f" d="M404.756,149.08" transform="translate(-10.894 -8.404)"/><path class="f" d="M235.3,112.1H193.07V59.955h36.41l5.823,7.436Z"/><path class="f" d="M231.558,115.179H189.325V63.037h36.41l5.823,7.436Z"/><path class="o" d="M231.2,115.537H188.966V63.395h36.41l5.823,7.436Z"/><path class="f" d="M227.491,119.855H185.257V67.7h36.41l5.823,7.436Z"/><path class="p" d="M221.667,67.7V75.06h5.823Z"/><path class="q" d="M225.376,63.395v7.579H231.2Z"/><path class="r" d="M229.48,59.955v7.579H235.3Z"/><path class="e" d="M514.13,230.286a4.211,4.211,0,0,1-2.652-2.061c-.43-.735-.824-1.505-1.254-2.24a3.888,3.888,0,0,0-4.067-2.1,3.978,3.978,0,0,0-3.584,2.939c-.269.878-.484,1.792-.788,2.634a4.336,4.336,0,0,1-5.376,2.849l-4.927-1.451a4.372,4.372,0,0,1-3.046-5.483c.233-.9.538-1.792.753-2.652a3.87,3.87,0,0,0-1.451-4.247,3.781,3.781,0,0,0-4.39-.43c-.77.376-1.505.824-2.258,1.218a4.462,4.462,0,0,1-6.11-1.792c-.86-1.559-1.792-3.1-2.562-4.659a4.318,4.318,0,0,1,1.792-6.074c.717-.412,1.469-.77,2.168-1.183a4.124,4.124,0,0,0-.7-7.49c-.86-.287-1.792-.5-2.634-.788a4.372,4.372,0,0,1-2.992-5.734c.448-1.559.9-3.118,1.362-4.677a4.3,4.3,0,0,1,5.143-3.1c.932.179,1.792.484,2.741.735a4.1,4.1,0,0,0,4.8-6.056c-.394-.7-.788-1.4-1.147-2.1a4.264,4.264,0,0,1,1.792-5.823c1.666-.95,3.351-1.792,5.071-2.724a4.462,4.462,0,0,1,5.841,1.792c.448.77.842,1.559,1.29,2.329a3.817,3.817,0,0,0,3.942,1.989,3.87,3.87,0,0,0,3.494-2.831c.269-.806.484-1.648.735-2.455a4.444,4.444,0,0,1,5.788-3.082l4.587,1.344a4.426,4.426,0,0,1,3.172,5.591c-.215.788-.466,1.595-.7,2.383a3.924,3.924,0,0,0,1.344,4.444,3.978,3.978,0,0,0,4.641.376c.7-.376,1.4-.788,2.1-1.147a4.462,4.462,0,0,1,6.056,1.792c.9,1.595,1.792,3.207,2.652,4.82a4.318,4.318,0,0,1-1.792,5.949c-.77.43-1.577.806-2.347,1.254a3.745,3.745,0,0,0-2.007,3.584,3.817,3.817,0,0,0,2.455,3.584,28.449,28.449,0,0,0,2.8.878,4.032,4.032,0,0,1,2.939,5.214q-.7,2.688-1.559,5.375a4.139,4.139,0,0,1-5.465,2.849c-.824-.233-1.631-.5-2.473-.7a3.834,3.834,0,0,0-4.139,1.505,3.727,3.727,0,0,0-.376,4.318c.412.788.878,1.559,1.29,2.329a4.336,4.336,0,0,1-1.792,5.967c-1.595.9-3.207,1.792-4.82,2.634a4.282,4.282,0,0,1-3.333.394Zm-24.208-35.407a14.156,14.156,0,1,0,6.823-8.458,14.191,14.191,0,0,0-6.823,8.458Z" transform="translate(-10.894 -8.404)"/><g class="s"><path class="t" d="M514.13,230.286a4.211,4.211,0,0,1-2.652-2.061c-.43-.735-.824-1.505-1.254-2.24a3.888,3.888,0,0,0-4.067-2.1,3.978,3.978,0,0,0-3.584,2.939c-.269.878-.484,1.792-.788,2.634a4.336,4.336,0,0,1-5.376,2.849l-4.927-1.451a4.372,4.372,0,0,1-3.046-5.483c.233-.9.538-1.792.753-2.652a3.87,3.87,0,0,0-1.451-4.247,3.781,3.781,0,0,0-4.39-.43c-.77.376-1.505.824-2.258,1.218a4.462,4.462,0,0,1-6.11-1.792c-.86-1.559-1.792-3.1-2.562-4.659a4.318,4.318,0,0,1,1.792-6.074c.717-.412,1.469-.77,2.168-1.183a4.124,4.124,0,0,0-.7-7.49c-.86-.287-1.792-.5-2.634-.788a4.372,4.372,0,0,1-2.992-5.734c.448-1.559.9-3.118,1.362-4.677a4.3,4.3,0,0,1,5.143-3.1c.932.179,1.792.484,2.741.735a4.1,4.1,0,0,0,4.8-6.056c-.394-.7-.788-1.4-1.147-2.1a4.264,4.264,0,0,1,1.792-5.823c1.666-.95,3.351-1.792,5.071-2.724a4.462,4.462,0,0,1,5.841,1.792c.448.77.842,1.559,1.29,2.329a3.817,3.817,0,0,0,3.942,1.989,3.87,3.87,0,0,0,3.494-2.831c.269-.806.484-1.648.735-2.455a4.444,4.444,0,0,1,5.788-3.082l4.587,1.344a4.426,4.426,0,0,1,3.172,5.591c-.215.788-.466,1.595-.7,2.383a3.924,3.924,0,0,0,1.344,4.444,3.978,3.978,0,0,0,4.641.376c.7-.376,1.4-.788,2.1-1.147a4.462,4.462,0,0,1,6.056,1.792c.9,1.595,1.792,3.207,2.652,4.82a4.318,4.318,0,0,1-1.792,5.949c-.77.43-1.577.806-2.347,1.254a3.745,3.745,0,0,0-2.007,3.584,3.817,3.817,0,0,0,2.455,3.584,28.449,28.449,0,0,0,2.8.878,4.032,4.032,0,0,1,2.939,5.214q-.7,2.688-1.559,5.375a4.139,4.139,0,0,1-5.465,2.849c-.824-.233-1.631-.5-2.473-.7a3.834,3.834,0,0,0-4.139,1.505,3.727,3.727,0,0,0-.376,4.318c.412.788.878,1.559,1.29,2.329a4.336,4.336,0,0,1-1.792,5.967c-1.595.9-3.207,1.792-4.82,2.634a4.282,4.282,0,0,1-3.333.394Zm-24.208-35.407a14.156,14.156,0,1,0,6.823-8.458,14.191,14.191,0,0,0-6.823,8.458Z" transform="translate(-10.894 -8.404)"/></g><path class="e" d="M532.173,201.2c-.914-.287-1.881-.5-2.777-.878a3.817,3.817,0,0,1-2.455-3.584,3.763,3.763,0,0,1,2.025-3.584c.753-.43,1.559-.824,2.329-1.254a4.318,4.318,0,0,0,1.792-5.949c-.86-1.613-1.792-3.225-2.652-4.8a4.462,4.462,0,0,0-6.056-1.792l-2.1,1.147a3.978,3.978,0,0,1-4.641-.358c-.2-.179-.376-.358-.555-.555a3.888,3.888,0,0,1-.788-3.906,1.258,1.258,0,0,1,.143-.412c.179-.663.376-1.308.537-1.971a4.372,4.372,0,0,0-2.831-5.465l-.322-.108c-1.129-.358-2.294-.681-3.44-1.021l-1.165-.34-.681-.143a4.372,4.372,0,0,0-3.046.52,4.569,4.569,0,0,0-1.989,2.634c-.269.824-.484,1.648-.735,2.473a3.906,3.906,0,0,1-3.584,2.813,3.835,3.835,0,0,1-3.942-1.971c-.466-.77-.842-1.559-1.29-2.347a4.426,4.426,0,0,0-5.823-1.792c-1.792.842-3.422,1.792-5.089,2.706a4.265,4.265,0,0,0-1.792,5.823c.358.717.771,1.4,1.147,2.1a4.114,4.114,0,0,1-4.8,6.074,28.114,28.114,0,0,0-2.741-.753,4.3,4.3,0,0,0-5.143,3.1c-.448,1.559-.914,3.118-1.362,4.695a4.354,4.354,0,0,0,3.01,5.716c.86.3,1.792.484,2.616.788a3.924,3.924,0,0,1,2.777,3.584,3.817,3.817,0,0,1-2.061,3.906c-.717.412-1.469.788-2.186,1.183a4.318,4.318,0,0,0-1.792,6.074c.842,1.559,1.7,3.118,2.562,4.659a4.5,4.5,0,0,0,6.11,1.792c.753-.412,1.487-.842,2.258-1.236a3.817,3.817,0,0,1,4.39.43,4.1,4.1,0,0,1,1.416,1.917,4.318,4.318,0,0,1,0,2.347c-.161.573-.34,1.147-.5,1.792l-.269.914a4.712,4.712,0,0,0,.878,4.085,4.3,4.3,0,0,0,2.168,1.416l4.928,1.433a4.354,4.354,0,0,0,5.375-2.849c.3-.86.52-1.792.788-2.634a4.014,4.014,0,0,1,3.584-2.939,3.906,3.906,0,0,1,4.05,2.1c.43.735.824,1.505,1.236,2.258a4.515,4.515,0,0,0,6.021,1.792c1.613-.878,3.225-1.792,4.82-2.634a4.318,4.318,0,0,0,1.792-5.949c-.43-.788-.9-1.541-1.29-2.329a3.691,3.691,0,0,1,.358-4.318,3.87,3.87,0,0,1,4.139-1.523c.842.2,1.648.484,2.473.717a4.121,4.121,0,0,0,5.375-2.849c.591-1.792,1.111-3.584,1.577-5.375a4.05,4.05,0,0,0-2.777-5.358Zm-16.664,2.4A14.335,14.335,0,0,1,501.5,213.819a10.751,10.751,0,0,1-1.7-.161,14.658,14.658,0,0,1-1.917-.412,10.447,10.447,0,0,1-1.254-.448,14.173,14.173,0,0,1,9.282-26.752,13.85,13.85,0,0,1,3.584,1.648,12.542,12.542,0,0,1,2.67,2.24,12.258,12.258,0,0,1,1.254,1.487,14.532,14.532,0,0,1,2.025,4.175,13.994,13.994,0,0,1,.072,8.009Z" transform="translate(-10.894 -8.404)"/></g></g></svg>