<svg xmlns="http://www.w3.org/2000/svg" width="91.427" height="85.5" viewBox="0 0 91.427 85.5"><defs><style>.a{fill:#80e0dc;}.b{fill:#00a8b0;}.c{fill:#e7e7e7;}.d{fill:#c9f0ff;}.e{fill:#ffd86e;}.f{fill:#9ae7fd;}</style></defs><g transform="translate(0 -0.501)"><path class="a" d="M111.7,49.374c0,22.846-17.945,41.366-40.083,41.366S31.531,72.22,31.531,49.374,49.476,8.008,71.614,8.008,111.7,26.528,111.7,49.374Zm0,0" transform="translate(-25.9 -6.124)"/><path class="b" d="M241.9,50.933c0,22.846-17.945,41.366-40.083,41.366a38.915,38.915,0,0,1-11.779-1.816,39.192,39.192,0,0,0,5.255.353c22.137,0,40.083-18.521,40.083-41.366,0-18.617-11.915-34.358-28.3-39.552C226.724,12.575,241.9,29.926,241.9,50.933Zm0,0" transform="translate(-156.101 -7.682)"/><path class="c" d="M94.273,215.98H9.487a2.012,2.012,0,0,1-1.98-2.043V201.485a2.012,2.012,0,0,1,1.98-2.043H94.273a2.012,2.012,0,0,1,1.98,2.043v12.452A2.011,2.011,0,0,1,94.273,215.98Zm0,0" transform="translate(-6.166 -162.279)"/><path class="d" d="M421.73,215.228H406.148V198.441H421.73a2.012,2.012,0,0,1,1.98,2.043v12.7A2.011,2.011,0,0,1,421.73,215.228Zm0,0" transform="translate(-333.623 -161.463)"/><path class="e" d="M436.238,221.4l.8,1.678a.673.673,0,0,0,.505.379l1.795.269a.7.7,0,0,1,.372,1.181l-1.3,1.307a.7.7,0,0,0-.193.613l.306,1.844a.675.675,0,0,1-.973.73l-1.606-.871a.653.653,0,0,0-.624,0l-1.6.871a.675.675,0,0,1-.973-.73l.306-1.844a.706.706,0,0,0-.193-.613l-1.3-1.307a.7.7,0,0,1,.372-1.181l1.795-.269a.673.673,0,0,0,.505-.379l.8-1.678A.661.661,0,0,1,436.238,221.4Zm0,0" transform="translate(-354.331 -179.876)"/><path class="f" d="M482.294,215.983h-2.416V199.446h2.416a2.012,2.012,0,0,1,1.98,2.043v12.452a2.011,2.011,0,0,1-1.98,2.042Zm0,0" transform="translate(-394.188 -162.282)"/><path d="M88.107,35.595H86.474A42.893,42.893,0,0,0,75,13.022a40.52,40.52,0,0,0-58.581,0A42.9,42.9,0,0,0,4.92,35.78H3.32A3.378,3.378,0,0,0,0,39.206V51.659a3.379,3.379,0,0,0,3.32,3.427H5.91A42.914,42.914,0,0,0,18.734,75.691a1.312,1.312,0,0,0,1.89-.148,1.415,1.415,0,0,0-.143-1.952,39.49,39.49,0,0,1-4.42-4.609,50.348,50.348,0,0,1,6.253-2.229,46.025,46.025,0,0,0,3.372,5.265,53.2,53.2,0,0,0,9.1,9.6,37.775,37.775,0,0,1-7.863-3.389,1.319,1.319,0,0,0-1.823.538,1.407,1.407,0,0,0,.52,1.882A40.459,40.459,0,0,0,75,73.479a42.808,42.808,0,0,0,10.51-18.331h2.592a3.378,3.378,0,0,0,3.32-3.427v-12.7a3.379,3.379,0,0,0-3.32-3.427Zm-4.362,0H74.419c-.112-.717-.235-1.434-.379-2.15A49.832,49.832,0,0,0,70.325,22.11c.247-.07.5-.138.741-.21a50.036,50.036,0,0,0,6.014-2.132,40.2,40.2,0,0,1,6.665,15.827Zm-12.014.185H57.878c-.046-.694-.1-1.388-.156-2.08-.266-3.1-.658-6.092-1.163-8.958a84.329,84.329,0,0,0,11.115-1.93,46.948,46.948,0,0,1,3.739,11.195c.119.59.221,1.182.317,1.774Zm1.377-20.8q1.184,1.222,2.252,2.53a50.63,50.63,0,0,1-5.031,1.731c-.42.124-.843.243-1.267.359a48.863,48.863,0,0,0-2.8-4.566A46.9,46.9,0,0,0,56.8,4.923a38.331,38.331,0,0,1,16.3,10.055ZM49.848,3.494A44.075,44.075,0,0,1,64.082,16.64q1.226,1.774,2.275,3.647a82.35,82.35,0,0,1-10.32,1.73c-1.552-7.457-3.9-13.88-6.847-18.588q.33.029.658.066Zm-4.134-.226h.1c3.257,4.437,5.862,11.064,7.54,18.989q-4.3.32-8.8.255c-2.035-.03-4.214-.1-6.481-.238,1.678-7.932,4.284-14.566,7.543-19.005h.1Zm-3.476.161c-2.952,4.719-5.306,11.162-6.858,18.64a74.7,74.7,0,0,1-10.4-1.629q1.086-1.951,2.361-3.8A44.091,44.091,0,0,1,41.579,3.493q.329-.036.658-.065ZM34.856,24.8c-.5,2.848-.889,5.825-1.152,8.9-.059.693-.11,1.386-.155,2.08H19.694c.095-.592.2-1.183.318-1.774a46.987,46.987,0,0,1,3.666-11.039A75.754,75.754,0,0,0,34.856,24.8ZM18.319,14.978a38.331,38.331,0,0,1,16.3-10.055,46.861,46.861,0,0,0-9.459,10.109,48.638,48.638,0,0,0-2.874,4.709,50.233,50.233,0,0,1-6.23-2.223q1.071-1.31,2.259-2.54Zm-3.973,4.793a52.087,52.087,0,0,0,6.691,2.478,49.854,49.854,0,0,0-3.65,11.2q-.233,1.166-.408,2.335H7.647a40.2,40.2,0,0,1,6.7-16.009ZM3.32,52.318a.65.65,0,0,1-.639-.66V39.206a.65.65,0,0,1,.639-.659h38.7a1.384,1.384,0,0,0,0-2.767H36.235c.042-.612.087-1.224.14-1.836.266-3.1.659-6.084,1.167-8.931,2.446.162,4.789.234,6.974.266q.793.012,1.582.012,3.968,0,7.784-.3c.509,2.854.9,5.85,1.17,8.954q.078.917.14,1.836h-4.8a1.384,1.384,0,0,0,0,2.767H71.185V52.317H3.32Zm67.543,2.766a44.9,44.9,0,0,1-3.2,8.6,84.379,84.379,0,0,0-11.094-1.929c.385-2.163.7-4.393.945-6.672H70.863Zm-16.039,0c-.242,2.2-.553,4.346-.931,6.428q-4.579-.358-9.378-.29c-2.189.032-4.537.1-6.986.267-.375-2.075-.685-4.215-.926-6.4ZM14.354,66.727A40.462,40.462,0,0,1,8.707,55.085H17.8a47.874,47.874,0,0,0,3.239,9.168A52.011,52.011,0,0,0,14.354,66.727Zm6.213-11.642h13.34c.242,2.26.556,4.473.937,6.618a75.753,75.753,0,0,0-11.159,1.829,44.911,44.911,0,0,1-3.117-8.448ZM41.566,83a46.875,46.875,0,0,1-13.75-12.662,43.075,43.075,0,0,1-2.8-4.285,74.792,74.792,0,0,1,10.351-1.62,73.048,73.048,0,0,0,1.883,7.18,54.978,54.978,0,0,0,5,11.458c-.23-.021-.46-.046-.691-.072Zm4.148.235h-.1A45.176,45.176,0,0,1,39.8,70.744c-.659-2.057-1.235-4.239-1.727-6.517,2.268-.142,4.445-.208,6.481-.238q4.5-.066,8.8.256c-.492,2.271-1.067,4.448-1.724,6.5a45.155,45.155,0,0,1-5.815,12.488h-.1Zm3.454-.158a54.893,54.893,0,0,0,5-11.462,72.567,72.567,0,0,0,1.871-7.127,82.341,82.341,0,0,1,10.275,1.719,43.028,43.028,0,0,1-2.707,4.132,46.875,46.875,0,0,1-13.764,12.67q-.339.037-.679.068ZM73.108,71.523A38.313,38.313,0,0,1,56.614,81.635a53.183,53.183,0,0,0,9.126-9.616,45.856,45.856,0,0,0,3.292-5.124q.651.179,1.3.367a50.819,50.819,0,0,1,5.028,1.73c-.712.87-1.459,1.717-2.248,2.531Zm3.968-4.791a50.074,50.074,0,0,0-6.01-2.129c-.246-.073-.494-.14-.741-.21a47.852,47.852,0,0,0,3.288-9.243h9.1a40.047,40.047,0,0,1-5.636,11.583Zm11.67-15.073a.65.65,0,0,1-.639.659H73.865V38.546H88.107a.651.651,0,0,1,.639.66Zm0,0" transform="translate(0 0)"/><path d="M433.363,216.234l-1.446-.217-.647-1.353a1.985,1.985,0,0,0-3.608,0l-.647,1.353-1.446.217a2.017,2.017,0,0,0-1.624,1.412,2.109,2.109,0,0,0,.509,2.129l1.046,1.052-.247,1.487a2.092,2.092,0,0,0,.8,2.03,1.947,1.947,0,0,0,2.118.158l1.293-.7,1.293.7a1.948,1.948,0,0,0,2.118-.158,2.1,2.1,0,0,0,.8-2.03l-.247-1.487,1.046-1.052a2.111,2.111,0,0,0,.509-2.129A2.018,2.018,0,0,0,433.363,216.234Zm-2.056,2.866a2.12,2.12,0,0,0-.578,1.837l.077.464-.4-.219a1.955,1.955,0,0,0-1.872,0l-.4.219.077-.464a2.116,2.116,0,0,0-.578-1.837l-.326-.329.451-.068a2.019,2.019,0,0,0,1.515-1.135l.2-.423.2.423a2.016,2.016,0,0,0,1.514,1.135l.451.068Zm0,0" transform="translate(-348.161 -173.753)"/><path d="M50.935,226.66c0,.2-.3.419-.645.419-.376,0-.634-.215-.634-.419V219.8c0-.245.258-.41.634-.41.347,0,.645.164.645.41v3.138a1.355,1.355,0,0,1,1.248-.777,1.946,1.946,0,0,1,1.7,2.075v2.422c0,.276-.326.42-.644.42-.3,0-.634-.143-.634-.42v-2.422a.932.932,0,0,0-.861-.92.858.858,0,0,0-.813.92v2.423Zm0,0" transform="translate(-40.789 -178.552)"/><path d="M83.226,228.367c0,.4.139.542.555.542h.386a.557.557,0,0,1,0,1.114h-.386c-1.189,0-1.832-.5-1.832-1.656v-4.958c0-.245.336-.409.634-.409.326,0,.644.163.644.409v1.758H84.4c.208,0,.326.245.326.481s-.119.48-.326.48H83.227v2.239Zm0,0" transform="translate(-67.316 -181.496)"/><path d="M105.806,228.367c0,.4.138.542.555.542h.386a.557.557,0,0,1,0,1.114h-.386c-1.189,0-1.832-.5-1.832-1.656v-4.958c0-.245.337-.409.634-.409.327,0,.644.163.644.409v1.758h1.169c.208,0,.326.245.326.481s-.119.48-.326.48h-1.169Zm0,0" transform="translate(-85.862 -181.496)"/><path d="M128.417,234.9v.307a1.549,1.549,0,0,1,1.337-.777,1.942,1.942,0,0,1,1.773,2.075v.838a2.01,2.01,0,0,1-1.733,2.1,1.467,1.467,0,0,1-1.3-.808v2.556c0,.215-.3.419-.654.419s-.624-.2-.624-.419V234.9c0-.245.267-.409.6-.409S128.417,234.651,128.417,234.9Zm1.832,1.605a.945.945,0,0,0-.9-.92.881.881,0,0,0-.852.92v1.022a.975.975,0,0,0,.871.757.961.961,0,0,0,.882-.941Zm0,0" transform="translate(-104.502 -190.816)"/><path d="M160.275,237.993c0-.9-2.348-.337-2.348-2.044,0-.726.446-1.523,1.773-1.523.8,0,1.575.286,1.575.664,0,.184-.168.634-.465.634-.238,0-.545-.3-1.09-.3-.5,0-.693.256-.693.46,0,.747,2.377.235,2.377,2.055,0,.911-.654,1.493-1.823,1.493-1.01,0-1.793-.43-1.793-.88,0-.215.178-.582.425-.582.287,0,.506.46,1.338.46.584,0,.723-.235.723-.44Zm0,0" transform="translate(-129.613 -190.816)"/><path d="M186.587,238.395a.7.7,0,0,1-.663.695.7.7,0,1,1,.663-.695Zm0,2.985a.7.7,0,0,1-.663.7.7.7,0,1,1,.663-.7Zm0,0" transform="translate(-152.17 -193.486)"/><path d="M203.907,218.8a.406.406,0,0,1-.04.184l-3.556,7.423a.428.428,0,0,1-.386.225.469.469,0,0,1-.476-.45.356.356,0,0,1,.05-.173l3.556-7.453a.385.385,0,0,1,.357-.215.486.486,0,0,1,.5.46Zm0,0" transform="translate(-163.834 -177.694)"/><path d="M220.665,218.8a.416.416,0,0,1-.04.184l-3.557,7.423a.427.427,0,0,1-.386.225.469.469,0,0,1-.476-.45.349.349,0,0,1,.05-.173l3.556-7.453a.384.384,0,0,1,.357-.215.487.487,0,0,1,.5.46Zm0,0" transform="translate(-177.599 -177.694)"/><path d="M249.5,239.264a.508.508,0,0,1-.505.235c-.248,0-.466-.082-.525-.235l-.763-2.229-.753,2.219c-.059.163-.3.245-.545.245a.49.49,0,0,1-.5-.245l-1.526-4.038a.431.431,0,0,1-.05-.194c0-.317.5-.542.832-.542a.361.361,0,0,1,.366.215l.99,2.9.743-2.525c.07-.235.238-.266.436-.266s.367.031.436.266l.733,2.535,1-2.913a.366.366,0,0,1,.367-.215c.317,0,.822.225.822.552a.384.384,0,0,1-.04.184Zm0,0" transform="translate(-200.705 -190.86)"/><path d="M291.271,239.264a.507.507,0,0,1-.505.235c-.248,0-.465-.082-.525-.235l-.762-2.229-.753,2.219c-.059.163-.3.245-.545.245a.491.491,0,0,1-.5-.245l-1.526-4.038a.431.431,0,0,1-.05-.194c0-.317.5-.542.832-.542a.362.362,0,0,1,.367.215l.991,2.9.743-2.525c.069-.235.238-.266.436-.266s.366.031.435.266l.733,2.535,1-2.913a.366.366,0,0,1,.366-.215c.317,0,.822.225.822.552a.384.384,0,0,1-.04.184Zm0,0" transform="translate(-235.019 -190.86)"/><path d="M333.048,239.264a.507.507,0,0,1-.505.235c-.248,0-.465-.082-.525-.235l-.762-2.229-.753,2.219c-.059.163-.3.245-.545.245a.491.491,0,0,1-.5-.245l-1.525-4.038a.43.43,0,0,1-.05-.194c0-.317.5-.542.832-.542a.362.362,0,0,1,.367.215l.991,2.9.743-2.525c.069-.235.237-.266.435-.266s.367.031.436.266l.733,2.535,1-2.913a.365.365,0,0,1,.366-.215c.317,0,.822.225.822.552a.384.384,0,0,1-.04.184Zm0,0" transform="translate(-269.336 -190.86)"/></g></svg>